<svg width="384" height="384" xmlns="http://www.w3.org/2000/svg" shape-rendering="crispEdges"><path fill="#503603" d="M236 232h4v4h-4zM240 232h4v4h-4zM244 232h4v4h-4zM228 236h4v4h-4zM232 236h4v4h-4z"/><path fill="#644D1F" d="M236 236h4v4h-4zM240 236h4v4h-4zM244 236h4v4h-4z"/><path fill="#503603" d="M248 236h4v4h-4zM208 240h4v4h-4zM212 240h4v4h-4zM216 240h4v4h-4zM220 240h4v4h-4zM224 240h4v4h-4z"/><path fill="#644D1F" d="M228 240h4v4h-4zM232 240h4v4h-4zM236 240h4v4h-4zM240 240h4v4h-4zM244 240h4v4h-4zM248 240h4v4h-4z"/><path fill="#503603" d="M252 240h4v4h-4zM196 244h4v4h-4zM200 244h4v4h-4zM204 244h4v4h-4z"/><path fill="#644D1F" d="M208 244h4v4h-4zM212 244h4v4h-4zM216 244h4v4h-4zM220 244h4v4h-4zM224 244h4v4h-4zM228 244h4v4h-4zM232 244h4v4h-4zM236 244h4v4h-4zM240 244h4v4h-4zM244 244h4v4h-4zM248 244h4v4h-4z"/><path fill="#503603" d="M252 244h4v4h-4zM196 248h4v4h-4zM200 248h4v4h-4zM204 248h4v4h-4z"/><path fill="#644D1F" d="M208 248h4v4h-4zM212 248h4v4h-4zM216 248h4v4h-4zM220 248h4v4h-4zM224 248h4v4h-4zM228 248h4v4h-4zM232 248h4v4h-4zM236 248h4v4h-4zM240 248h4v4h-4zM244 248h4v4h-4zM248 248h4v4h-4z"/><path fill="#503603" d="M252 248h4v4h-4zM128 252h4v4h-4zM132 252h4v4h-4zM136 252h4v4h-4zM208 252h4v4h-4z"/><path fill="#644D1F" d="M212 252h4v4h-4zM216 252h4v4h-4z"/><path fill="#503603" d="M220 252h4v4h-4zM224 252h4v4h-4zM228 252h4v4h-4zM232 252h4v4h-4zM236 252h4v4h-4z"/><path fill="#644D1F" d="M240 252h4v4h-4zM244 252h4v4h-4zM248 252h4v4h-4zM252 252h4v4h-4z"/><path fill="#503603" d="M256 252h4v4h-4zM124 256h4v4h-4z"/><path fill="#644D1F" d="M128 256h4v4h-4zM132 256h4v4h-4zM136 256h4v4h-4z"/><path fill="#503603" d="M140 256h4v4h-4zM144 256h4v4h-4zM212 256h4v4h-4zM216 256h4v4h-4zM240 256h4v4h-4z"/><path fill="#644D1F" d="M244 256h4v4h-4zM248 256h4v4h-4zM252 256h4v4h-4z"/><path fill="#503603" d="M256 256h4v4h-4zM120 260h4v4h-4z"/><path fill="#644D1F" d="M124 260h4v4h-4zM128 260h4v4h-4zM132 260h4v4h-4zM136 260h4v4h-4zM140 260h4v4h-4zM144 260h4v4h-4z"/><path fill="#503603" d="M148 260h4v4h-4zM152 260h4v4h-4zM156 260h4v4h-4zM160 260h4v4h-4zM164 260h4v4h-4zM168 260h4v4h-4zM216 260h4v4h-4zM220 260h4v4h-4zM224 260h4v4h-4zM228 260h4v4h-4zM240 260h4v4h-4z"/><path fill="#644D1F" d="M244 260h4v4h-4zM248 260h4v4h-4zM252 260h4v4h-4z"/><path fill="#503603" d="M256 260h4v4h-4zM120 264h4v4h-4z"/><path fill="#6C5019" d="M124 264h4v4h-4z"/><path fill="#644D1F" d="M128 264h4v4h-4zM132 264h4v4h-4zM136 264h4v4h-4zM140 264h4v4h-4zM144 264h4v4h-4zM148 264h4v4h-4zM152 264h4v4h-4zM156 264h4v4h-4zM160 264h4v4h-4zM164 264h4v4h-4z"/><path fill="#503603" d="M168 264h4v4h-4zM172 264h4v4h-4zM176 264h4v4h-4zM180 264h4v4h-4zM184 264h4v4h-4zM188 264h4v4h-4zM208 264h4v4h-4zM212 264h4v4h-4z"/><path fill="#644D1F" d="M216 264h4v4h-4zM220 264h4v4h-4zM224 264h4v4h-4zM228 264h4v4h-4z"/><path fill="#503603" d="M232 264h4v4h-4zM244 264h4v4h-4z"/><path fill="#644D1F" d="M248 264h4v4h-4zM252 264h4v4h-4z"/><path fill="#503603" d="M256 264h4v4h-4zM120 268h4v4h-4z"/><path fill="#7C3522" d="M124 268h4v4h-4zM128 268h4v4h-4zM132 268h4v4h-4z"/><path fill="#644D1F" d="M136 268h4v4h-4zM140 268h4v4h-4zM144 268h4v4h-4zM148 268h4v4h-4zM152 268h4v4h-4zM156 268h4v4h-4zM160 268h4v4h-4zM164 268h4v4h-4z"/><path fill="#503603" d="M168 268h4v4h-4zM172 268h4v4h-4zM176 268h4v4h-4zM180 268h4v4h-4zM184 268h4v4h-4zM188 268h4v4h-4zM192 268h4v4h-4zM196 268h4v4h-4zM200 268h4v4h-4zM204 268h4v4h-4z"/><path fill="#644D1F" d="M208 268h4v4h-4zM212 268h4v4h-4zM216 268h4v4h-4zM220 268h4v4h-4zM224 268h4v4h-4zM228 268h4v4h-4zM232 268h4v4h-4z"/><path fill="#503603" d="M236 268h4v4h-4zM244 268h4v4h-4z"/><path fill="#644D1F" d="M248 268h4v4h-4zM252 268h4v4h-4zM256 268h4v4h-4z"/><path fill="#503603" d="M260 268h4v4h-4zM116 272h4v4h-4z"/><path fill="#7C3522" d="M120 272h4v4h-4zM124 272h4v4h-4zM128 272h4v4h-4zM132 272h4v4h-4z"/><path fill="#503603" d="M136 272h4v4h-4zM140 272h4v4h-4zM144 272h4v4h-4zM148 272h4v4h-4zM152 272h4v4h-4z"/><path fill="#644D1F" d="M156 272h4v4h-4z"/><path fill="#503603" d="M160 272h4v4h-4zM164 272h4v4h-4zM168 272h4v4h-4zM172 272h4v4h-4zM176 272h4v4h-4zM180 272h4v4h-4z"/><path fill="#644D1F" d="M184 272h4v4h-4zM188 272h4v4h-4zM192 272h4v4h-4zM196 272h4v4h-4zM200 272h4v4h-4zM204 272h4v4h-4zM208 272h4v4h-4zM212 272h4v4h-4zM216 272h4v4h-4zM220 272h4v4h-4zM224 272h4v4h-4zM228 272h4v4h-4zM232 272h4v4h-4z"/><path fill="#503603" d="M236 272h4v4h-4zM248 272h4v4h-4z"/><path fill="#644D1F" d="M252 272h4v4h-4zM256 272h4v4h-4z"/><path fill="#503603" d="M260 272h4v4h-4zM116 276h4v4h-4z"/><path fill="#7C3522" d="M120 276h4v4h-4zM124 276h4v4h-4zM128 276h4v4h-4z"/><path fill="#503603" d="M132 276h4v4h-4zM156 276h4v4h-4zM160 276h4v4h-4zM164 276h4v4h-4zM168 276h4v4h-4zM172 276h4v4h-4zM176 276h4v4h-4zM180 276h4v4h-4z"/><path fill="#644D1F" d="M184 276h4v4h-4zM188 276h4v4h-4zM192 276h4v4h-4zM196 276h4v4h-4zM200 276h4v4h-4zM204 276h4v4h-4zM208 276h4v4h-4zM212 276h4v4h-4zM216 276h4v4h-4zM220 276h4v4h-4zM224 276h4v4h-4zM228 276h4v4h-4zM232 276h4v4h-4z"/><path fill="#503603" d="M236 276h4v4h-4zM248 276h4v4h-4z"/><path fill="#644D1F" d="M252 276h4v4h-4zM256 276h4v4h-4z"/><path fill="#503603" d="M260 276h4v4h-4zM116 280h4v4h-4z"/><path fill="#644D1F" d="M120 280h4v4h-4zM124 280h4v4h-4zM128 280h4v4h-4z"/><path fill="#503603" d="M132 280h4v4h-4zM144 280h4v4h-4zM148 280h4v4h-4zM152 280h4v4h-4zM168 280h4v4h-4zM172 280h4v4h-4zM176 280h4v4h-4zM180 280h4v4h-4zM184 280h4v4h-4z"/><path fill="#644D1F" d="M188 280h4v4h-4z"/><path fill="#503603" d="M192 280h4v4h-4zM196 280h4v4h-4zM200 280h4v4h-4zM204 280h4v4h-4zM208 280h4v4h-4zM212 280h4v4h-4zM216 280h4v4h-4z"/><path fill="#644D1F" d="M220 280h4v4h-4zM224 280h4v4h-4zM228 280h4v4h-4zM232 280h4v4h-4zM236 280h4v4h-4z"/><path fill="#503603" d="M240 280h4v4h-4zM252 280h4v4h-4z"/><path fill="#644D1F" d="M256 280h4v4h-4z"/><path fill="#503603" d="M260 280h4v4h-4zM116 284h4v4h-4z"/><path fill="#644D1F" d="M120 284h4v4h-4zM124 284h4v4h-4z"/><path fill="#503603" d="M128 284h4v4h-4zM140 284h4v4h-4z"/><path fill="#644D1F" d="M144 284h4v4h-4zM148 284h4v4h-4zM152 284h4v4h-4z"/><path fill="#503603" d="M156 284h4v4h-4zM160 284h4v4h-4zM176 284h4v4h-4zM180 284h4v4h-4zM184 284h4v4h-4zM188 284h4v4h-4zM192 284h4v4h-4zM196 284h4v4h-4zM200 284h4v4h-4zM204 284h4v4h-4zM208 284h4v4h-4zM220 284h4v4h-4z"/><path fill="#644D1F" d="M224 284h4v4h-4zM228 284h4v4h-4zM232 284h4v4h-4zM236 284h4v4h-4z"/><path fill="#503603" d="M240 284h4v4h-4zM252 284h4v4h-4z"/><path fill="#644D1F" d="M256 284h4v4h-4z"/><path fill="#503603" d="M260 284h4v4h-4zM116 288h4v4h-4z"/><path fill="#7C3522" d="M120 288h4v4h-4zM124 288h4v4h-4z"/><path fill="#503603" d="M128 288h4v4h-4zM136 288h4v4h-4z"/><path fill="#644D1F" d="M140 288h4v4h-4zM144 288h4v4h-4zM148 288h4v4h-4zM152 288h4v4h-4zM156 288h4v4h-4zM160 288h4v4h-4z"/><path fill="#503603" d="M164 288h4v4h-4zM168 288h4v4h-4zM172 288h4v4h-4zM176 288h4v4h-4zM180 288h4v4h-4zM184 288h4v4h-4zM188 288h4v4h-4zM192 288h4v4h-4zM196 288h4v4h-4zM200 288h4v4h-4zM204 288h4v4h-4zM220 288h4v4h-4zM224 288h4v4h-4z"/><path fill="#644D1F" d="M228 288h4v4h-4zM232 288h4v4h-4zM236 288h4v4h-4z"/><path fill="#503603" d="M240 288h4v4h-4zM256 288h4v4h-4zM116 292h4v4h-4z"/><path fill="#7C3522" d="M120 292h4v4h-4zM124 292h4v4h-4z"/><path fill="#503603" d="M128 292h4v4h-4zM136 292h4v4h-4z"/><path fill="#644D1F" d="M140 292h4v4h-4zM144 292h4v4h-4zM148 292h4v4h-4zM152 292h4v4h-4zM156 292h4v4h-4zM160 292h4v4h-4zM164 292h4v4h-4zM168 292h4v4h-4zM172 292h4v4h-4zM176 292h4v4h-4zM180 292h4v4h-4z"/><path fill="#503603" d="M184 292h4v4h-4zM188 292h4v4h-4zM192 292h4v4h-4zM196 292h4v4h-4zM200 292h4v4h-4zM228 292h4v4h-4z"/><path fill="#644D1F" d="M232 292h4v4h-4zM236 292h4v4h-4z"/><path fill="#503603" d="M240 292h4v4h-4zM116 296h4v4h-4z"/><path fill="#644D1F" d="M120 296h4v4h-4zM124 296h4v4h-4z"/><path fill="#503603" d="M128 296h4v4h-4zM136 296h4v4h-4z"/><path fill="#644D1F" d="M140 296h4v4h-4zM144 296h4v4h-4zM148 296h4v4h-4zM152 296h4v4h-4zM156 296h4v4h-4zM160 296h4v4h-4zM164 296h4v4h-4zM168 296h4v4h-4zM172 296h4v4h-4zM176 296h4v4h-4zM180 296h4v4h-4z"/><path fill="#503603" d="M184 296h4v4h-4zM188 296h4v4h-4zM192 296h4v4h-4zM228 296h4v4h-4z"/><path fill="#644D1F" d="M232 296h4v4h-4zM236 296h4v4h-4zM240 296h4v4h-4z"/><path fill="#503603" d="M244 296h4v4h-4zM116 300h4v4h-4z"/><path fill="#644D1F" d="M120 300h4v4h-4z"/><path fill="#503603" d="M124 300h4v4h-4zM132 300h4v4h-4z"/><path fill="#7C3522" d="M136 300h4v4h-4zM140 300h4v4h-4zM144 300h4v4h-4zM148 300h4v4h-4z"/><path fill="#503603" d="M152 300h4v4h-4zM156 300h4v4h-4zM160 300h4v4h-4zM164 300h4v4h-4zM168 300h4v4h-4z"/><path fill="#644D1F" d="M172 300h4v4h-4zM176 300h4v4h-4z"/><path fill="#503603" d="M180 300h4v4h-4zM184 300h4v4h-4zM232 300h4v4h-4z"/><path fill="#644D1F" d="M236 300h4v4h-4zM240 300h4v4h-4z"/><path fill="#503603" d="M244 300h4v4h-4zM116 304h4v4h-4z"/><path fill="#644D1F" d="M120 304h4v4h-4z"/><path fill="#503603" d="M124 304h4v4h-4zM132 304h4v4h-4z"/><path fill="#644D1F" d="M136 304h4v4h-4z"/><path fill="#7C3522" d="M140 304h4v4h-4zM144 304h4v4h-4z"/><path fill="#503603" d="M148 304h4v4h-4zM172 304h4v4h-4zM176 304h4v4h-4zM232 304h4v4h-4z"/><path fill="#644D1F" d="M236 304h4v4h-4zM240 304h4v4h-4z"/><path fill="#503603" d="M244 304h4v4h-4zM120 308h4v4h-4zM132 308h4v4h-4z"/><path fill="#644D1F" d="M136 308h4v4h-4zM140 308h4v4h-4zM144 308h4v4h-4z"/><path fill="#503603" d="M148 308h4v4h-4zM236 308h4v4h-4z"/><path fill="#644D1F" d="M240 308h4v4h-4z"/><path fill="#503603" d="M244 308h4v4h-4zM132 312h4v4h-4z"/><path fill="#7C3522" d="M136 312h4v4h-4zM140 312h4v4h-4z"/><path fill="#503603" d="M144 312h4v4h-4zM236 312h4v4h-4z"/><path fill="#644D1F" d="M240 312h4v4h-4z"/><path fill="#503603" d="M244 312h4v4h-4zM132 316h4v4h-4z"/><path fill="#7C3522" d="M136 316h4v4h-4zM140 316h4v4h-4z"/><path fill="#503603" d="M144 316h4v4h-4zM240 316h4v4h-4zM132 320h4v4h-4z"/><path fill="#644D1F" d="M136 320h4v4h-4zM140 320h4v4h-4z"/><path fill="#503603" d="M144 320h4v4h-4zM132 324h4v4h-4z"/><path fill="#644D1F" d="M136 324h4v4h-4zM140 324h4v4h-4z"/><path fill="#503603" d="M144 324h4v4h-4zM132 328h4v4h-4z"/><path fill="#644D1F" d="M136 328h4v4h-4z"/><path fill="#503603" d="M140 328h4v4h-4zM132 332h4v4h-4z"/><path fill="#644D1F" d="M136 332h4v4h-4z"/><path fill="#503603" d="M140 332h4v4h-4zM136 336h4v4h-4z"/></svg>