<?xml version="1.0" encoding="UTF-8" ?>
<svg version="1.1" width="384" height="384" xmlns="http://www.w3.org/2000/svg" shape-rendering="crispEdges">
<rect x="228" y="116" width="4" height="4" fill="#ED7B9E" />
<rect x="224" y="120" width="4" height="4" fill="#ED7B9E" />
<rect x="228" y="120" width="4" height="4" fill="#FF60AA" />
<rect x="232" y="120" width="4" height="4" fill="#ED7B9E" />
<rect x="220" y="124" width="4" height="4" fill="#ED7B9E" />
<rect x="224" y="124" width="4" height="4" fill="#FF60AA" />
<rect x="228" y="124" width="4" height="4" fill="#FF60AA" />
<rect x="232" y="124" width="4" height="4" fill="#FF60AA" />
<rect x="236" y="124" width="4" height="4" fill="#ED7B9E" />
<rect x="216" y="128" width="4" height="4" fill="#ED7B9E" />
<rect x="220" y="128" width="4" height="4" fill="#FF60AA" />
<rect x="224" y="128" width="4" height="4" fill="#FF60AA" />
<rect x="228" y="128" width="4" height="4" fill="#EA50DB" />
<rect x="232" y="128" width="4" height="4" fill="#F76D75" />
<rect x="236" y="128" width="4" height="4" fill="#FF60AA" />
<rect x="240" y="128" width="4" height="4" fill="#ED7B9E" />
<rect x="216" y="132" width="4" height="4" fill="#ED7B9E" />
<rect x="220" y="132" width="4" height="4" fill="#EA50DB" />
<rect x="224" y="132" width="4" height="4" fill="#EA50DB" />
<rect x="228" y="132" width="4" height="4" fill="#EA50DB" />
<rect x="232" y="132" width="4" height="4" fill="#F76D75" />
<rect x="236" y="132" width="4" height="4" fill="#F76D75" />
<rect x="240" y="132" width="4" height="4" fill="#ED7B9E" />
<rect x="216" y="136" width="4" height="4" fill="#ED7B9E" />
<rect x="220" y="136" width="4" height="4" fill="#EA50DB" />
<rect x="224" y="136" width="4" height="4" fill="#EA50DB" />
<rect x="228" y="136" width="4" height="4" fill="#EA50DB" />
<rect x="232" y="136" width="4" height="4" fill="#F76D75" />
<rect x="236" y="136" width="4" height="4" fill="#E8C4E5" />
<rect x="240" y="136" width="4" height="4" fill="#ED7B9E" />
<rect x="216" y="140" width="4" height="4" fill="#ED7B9E" />
<rect x="220" y="140" width="4" height="4" fill="#EA50DB" />
<rect x="224" y="140" width="4" height="4" fill="#EA50DB" />
<rect x="228" y="140" width="4" height="4" fill="#EA50DB" />
<rect x="232" y="140" width="4" height="4" fill="#F76D75" />
<rect x="236" y="140" width="4" height="4" fill="#E8C4E5" />
<rect x="240" y="140" width="4" height="4" fill="#ED7B9E" />
<rect x="216" y="144" width="4" height="4" fill="#ED7B9E" />
<rect x="220" y="144" width="4" height="4" fill="#EA50DB" />
<rect x="224" y="144" width="4" height="4" fill="#EA50DB" />
<rect x="228" y="144" width="4" height="4" fill="#EA50DB" />
<rect x="232" y="144" width="4" height="4" fill="#F76D75" />
<rect x="236" y="144" width="4" height="4" fill="#E8C4E5" />
<rect x="240" y="144" width="4" height="4" fill="#ED7B9E" />
<rect x="216" y="148" width="4" height="4" fill="#ED7B9E" />
<rect x="220" y="148" width="4" height="4" fill="#FF29EA" />
<rect x="224" y="148" width="4" height="4" fill="#EA50DB" />
<rect x="228" y="148" width="4" height="4" fill="#EA50DB" />
<rect x="232" y="148" width="4" height="4" fill="#F76D75" />
<rect x="236" y="148" width="4" height="4" fill="#E8C4E5" />
<rect x="240" y="148" width="4" height="4" fill="#ED7B9E" />
<rect x="216" y="152" width="4" height="4" fill="#ED7B9E" />
<rect x="220" y="152" width="4" height="4" fill="#FF29EA" />
<rect x="224" y="152" width="4" height="4" fill="#FF29EA" />
<rect x="228" y="152" width="4" height="4" fill="#EA50DB" />
<rect x="232" y="152" width="4" height="4" fill="#F76D75" />
<rect x="236" y="152" width="4" height="4" fill="#F76D75" />
<rect x="240" y="152" width="4" height="4" fill="#ED7B9E" />
<rect x="216" y="156" width="4" height="4" fill="#ED7B9E" />
<rect x="220" y="156" width="4" height="4" fill="#FF29EA" />
<rect x="224" y="156" width="4" height="4" fill="#FF29EA" />
<rect x="228" y="156" width="4" height="4" fill="#FF29EA" />
<rect x="232" y="156" width="4" height="4" fill="#F76D75" />
<rect x="236" y="156" width="4" height="4" fill="#F76D75" />
<rect x="240" y="156" width="4" height="4" fill="#ED7B9E" />
<rect x="216" y="160" width="4" height="4" fill="#ED7B9E" />
<rect x="220" y="160" width="4" height="4" fill="#FF29EA" />
<rect x="224" y="160" width="4" height="4" fill="#FF29EA" />
<rect x="228" y="160" width="4" height="4" fill="#FF29EA" />
<rect x="232" y="160" width="4" height="4" fill="#F76D75" />
<rect x="236" y="160" width="4" height="4" fill="#F76D75" />
<rect x="240" y="160" width="4" height="4" fill="#ED7B9E" />
<rect x="216" y="164" width="4" height="4" fill="#ED7B9E" />
<rect x="220" y="164" width="4" height="4" fill="#FF7EF3" />
<rect x="224" y="164" width="4" height="4" fill="#FF29EA" />
<rect x="228" y="164" width="4" height="4" fill="#FF29EA" />
<rect x="232" y="164" width="4" height="4" fill="#F76D75" />
<rect x="236" y="164" width="4" height="4" fill="#F76D75" />
<rect x="240" y="164" width="4" height="4" fill="#ED7B9E" />
<rect x="216" y="168" width="4" height="4" fill="#ED7B9E" />
<rect x="220" y="168" width="4" height="4" fill="#FF7EF3" />
<rect x="224" y="168" width="4" height="4" fill="#FF7EF3" />
<rect x="228" y="168" width="4" height="4" fill="#FF29EA" />
<rect x="232" y="168" width="4" height="4" fill="#F76D75" />
<rect x="236" y="168" width="4" height="4" fill="#F76D75" />
<rect x="240" y="168" width="4" height="4" fill="#ED7B9E" />
<rect x="216" y="172" width="4" height="4" fill="#ED7B9E" />
<rect x="220" y="172" width="4" height="4" fill="#FF7EF3" />
<rect x="224" y="172" width="4" height="4" fill="#FF7EF3" />
<rect x="228" y="172" width="4" height="4" fill="#FF29EA" />
<rect x="232" y="172" width="4" height="4" fill="#F76D75" />
<rect x="236" y="172" width="4" height="4" fill="#F76D75" />
<rect x="240" y="172" width="4" height="4" fill="#ED7B9E" />
<rect x="216" y="176" width="4" height="4" fill="#ED7B9E" />
<rect x="220" y="176" width="4" height="4" fill="#FF7EF3" />
<rect x="224" y="176" width="4" height="4" fill="#FF7EF3" />
<rect x="228" y="176" width="4" height="4" fill="#FF7EF3" />
<rect x="232" y="176" width="4" height="4" fill="#F76D75" />
<rect x="236" y="176" width="4" height="4" fill="#F76D75" />
<rect x="240" y="176" width="4" height="4" fill="#ED7B9E" />
<rect x="216" y="180" width="4" height="4" fill="#ED7B9E" />
<rect x="220" y="180" width="4" height="4" fill="#FF29EA" />
<rect x="224" y="180" width="4" height="4" fill="#FF7EF3" />
<rect x="228" y="180" width="4" height="4" fill="#FF7EF3" />
<rect x="232" y="180" width="4" height="4" fill="#F76D75" />
<rect x="236" y="180" width="4" height="4" fill="#F76D75" />
<rect x="240" y="180" width="4" height="4" fill="#ED7B9E" />
<rect x="220" y="184" width="4" height="4" fill="#ED7B9E" />
<rect x="224" y="184" width="4" height="4" fill="#FF29EA" />
<rect x="228" y="184" width="4" height="4" fill="#FF7EF3" />
<rect x="232" y="184" width="4" height="4" fill="#F76D75" />
<rect x="236" y="184" width="4" height="4" fill="#ED7B9E" />
<rect x="224" y="188" width="4" height="4" fill="#ED7B9E" />
<rect x="228" y="188" width="4" height="4" fill="#FF29EA" />
<rect x="232" y="188" width="4" height="4" fill="#ED7B9E" />
<rect x="228" y="192" width="4" height="4" fill="#ED7B9E" />
</svg>