<?xml version="1.0" encoding="UTF-8" ?>
<svg version="1.1" width="384" height="384" xmlns="http://www.w3.org/2000/svg" shape-rendering="crispEdges">
<rect x="216" y="140" width="4" height="4" fill="#E9E640" />
<rect x="220" y="140" width="4" height="4" fill="#E9E640" />
<rect x="224" y="140" width="4" height="4" fill="#E9E640" />
<rect x="228" y="140" width="4" height="4" fill="#E9E640" />
<rect x="232" y="140" width="4" height="4" fill="#E9E640" />
<rect x="212" y="144" width="4" height="4" fill="#E9E640" />
<rect x="228" y="144" width="4" height="4" fill="#E9E640" />
<rect x="232" y="144" width="4" height="4" fill="#FFFD7C" />
<rect x="236" y="144" width="4" height="4" fill="#E9E640" />
<rect x="232" y="148" width="4" height="4" fill="#E9E640" />
<rect x="236" y="148" width="4" height="4" fill="#FFFD7C" />
<rect x="240" y="148" width="4" height="4" fill="#E9E640" />
<rect x="236" y="152" width="4" height="4" fill="#E9E640" />
<rect x="240" y="152" width="4" height="4" fill="#FFFD7C" />
<rect x="244" y="152" width="4" height="4" fill="#E9E640" />
<rect x="236" y="156" width="4" height="4" fill="#E9E640" />
<rect x="240" y="156" width="4" height="4" fill="#FFFD7C" />
<rect x="244" y="156" width="4" height="4" fill="#E9E640" />
<rect x="236" y="160" width="4" height="4" fill="#E9E640" />
<rect x="240" y="160" width="4" height="4" fill="#FFFD7C" />
<rect x="244" y="160" width="4" height="4" fill="#E9E640" />
<rect x="236" y="164" width="4" height="4" fill="#E9E640" />
<rect x="240" y="164" width="4" height="4" fill="#FFFD7C" />
<rect x="244" y="164" width="4" height="4" fill="#E9E640" />
<rect x="232" y="168" width="4" height="4" fill="#E9E640" />
<rect x="236" y="168" width="4" height="4" fill="#FFFD7C" />
<rect x="240" y="168" width="4" height="4" fill="#E9E640" />
<rect x="212" y="172" width="4" height="4" fill="#E9E640" />
<rect x="228" y="172" width="4" height="4" fill="#E9E640" />
<rect x="232" y="172" width="4" height="4" fill="#FFFD7C" />
<rect x="236" y="172" width="4" height="4" fill="#E9E640" />
<rect x="216" y="176" width="4" height="4" fill="#E9E640" />
<rect x="220" y="176" width="4" height="4" fill="#E9E640" />
<rect x="224" y="176" width="4" height="4" fill="#E9E640" />
<rect x="228" y="176" width="4" height="4" fill="#E9E640" />
<rect x="232" y="176" width="4" height="4" fill="#E9E640" />
</svg>