<?xml version="1.0" encoding="UTF-8" ?>
<svg version="1.1" width="384" height="384" xmlns="http://www.w3.org/2000/svg" shape-rendering="crispEdges">
<rect x="228" y="132" width="4" height="4" fill="#FF40B3" />
<rect x="224" y="136" width="4" height="4" fill="#FF40B3" />
<rect x="228" y="136" width="4" height="4" fill="#FF40B3" />
<rect x="208" y="140" width="4" height="4" fill="#FF40B3" />
<rect x="212" y="140" width="4" height="4" fill="#FF40B3" />
<rect x="240" y="140" width="4" height="4" fill="#FF40B3" />
<rect x="244" y="140" width="4" height="4" fill="#FF40B3" />
<rect x="208" y="144" width="4" height="4" fill="#FF40B3" />
<rect x="220" y="144" width="4" height="4" fill="#FF40B3" />
<rect x="224" y="144" width="4" height="4" fill="#FF40B3" />
<rect x="228" y="144" width="4" height="4" fill="#FF40B3" />
<rect x="232" y="144" width="4" height="4" fill="#FF40B3" />
<rect x="244" y="144" width="4" height="4" fill="#FF40B3" />
<rect x="216" y="148" width="4" height="4" fill="#FF40B3" />
<rect x="220" y="148" width="4" height="4" fill="#FF7CDC" />
<rect x="224" y="148" width="4" height="4" fill="#FF7CDC" />
<rect x="228" y="148" width="4" height="4" fill="#FF7CDC" />
<rect x="232" y="148" width="4" height="4" fill="#FF7CDC" />
<rect x="236" y="148" width="4" height="4" fill="#FF40B3" />
<rect x="212" y="152" width="4" height="4" fill="#FF40B3" />
<rect x="216" y="152" width="4" height="4" fill="#FF7CDC" />
<rect x="220" y="152" width="4" height="4" fill="#FF7CDC" />
<rect x="224" y="152" width="4" height="4" fill="#FFEDF2" />
<rect x="228" y="152" width="4" height="4" fill="#FFEDF2" />
<rect x="232" y="152" width="4" height="4" fill="#FF7CDC" />
<rect x="236" y="152" width="4" height="4" fill="#FF7CDC" />
<rect x="240" y="152" width="4" height="4" fill="#FF40B3" />
<rect x="200" y="156" width="4" height="4" fill="#FF40B3" />
<rect x="204" y="156" width="4" height="4" fill="#FF40B3" />
<rect x="212" y="156" width="4" height="4" fill="#FF40B3" />
<rect x="216" y="156" width="4" height="4" fill="#FF7CDC" />
<rect x="220" y="156" width="4" height="4" fill="#FFEDF2" />
<rect x="224" y="156" width="4" height="4" fill="#FFEDF2" />
<rect x="228" y="156" width="4" height="4" fill="#FFEDF2" />
<rect x="232" y="156" width="4" height="4" fill="#FFEDF2" />
<rect x="236" y="156" width="4" height="4" fill="#FF7CDC" />
<rect x="240" y="156" width="4" height="4" fill="#FF40B3" />
<rect x="248" y="156" width="4" height="4" fill="#FF40B3" />
<rect x="204" y="160" width="4" height="4" fill="#FF40B3" />
<rect x="212" y="160" width="4" height="4" fill="#FF40B3" />
<rect x="216" y="160" width="4" height="4" fill="#FF7CDC" />
<rect x="220" y="160" width="4" height="4" fill="#FFEDF2" />
<rect x="224" y="160" width="4" height="4" fill="#FFEDF2" />
<rect x="228" y="160" width="4" height="4" fill="#FFEDF2" />
<rect x="232" y="160" width="4" height="4" fill="#FFEDF2" />
<rect x="236" y="160" width="4" height="4" fill="#FF7CDC" />
<rect x="240" y="160" width="4" height="4" fill="#FF40B3" />
<rect x="248" y="160" width="4" height="4" fill="#FF40B3" />
<rect x="252" y="160" width="4" height="4" fill="#FF40B3" />
<rect x="212" y="164" width="4" height="4" fill="#FF40B3" />
<rect x="216" y="164" width="4" height="4" fill="#FF7CDC" />
<rect x="220" y="164" width="4" height="4" fill="#FF7CDC" />
<rect x="224" y="164" width="4" height="4" fill="#FFEDF2" />
<rect x="228" y="164" width="4" height="4" fill="#FFEDF2" />
<rect x="232" y="164" width="4" height="4" fill="#FF7CDC" />
<rect x="236" y="164" width="4" height="4" fill="#FF7CDC" />
<rect x="240" y="164" width="4" height="4" fill="#FF40B3" />
<rect x="216" y="168" width="4" height="4" fill="#FF40B3" />
<rect x="220" y="168" width="4" height="4" fill="#FF7CDC" />
<rect x="224" y="168" width="4" height="4" fill="#FF7CDC" />
<rect x="228" y="168" width="4" height="4" fill="#FF7CDC" />
<rect x="232" y="168" width="4" height="4" fill="#FF7CDC" />
<rect x="236" y="168" width="4" height="4" fill="#FF40B3" />
<rect x="208" y="172" width="4" height="4" fill="#FF40B3" />
<rect x="220" y="172" width="4" height="4" fill="#FF40B3" />
<rect x="224" y="172" width="4" height="4" fill="#FF40B3" />
<rect x="228" y="172" width="4" height="4" fill="#FF40B3" />
<rect x="232" y="172" width="4" height="4" fill="#FF40B3" />
<rect x="244" y="172" width="4" height="4" fill="#FF40B3" />
<rect x="208" y="176" width="4" height="4" fill="#FF40B3" />
<rect x="212" y="176" width="4" height="4" fill="#FF40B3" />
<rect x="240" y="176" width="4" height="4" fill="#FF40B3" />
<rect x="244" y="176" width="4" height="4" fill="#FF40B3" />
<rect x="224" y="180" width="4" height="4" fill="#FF40B3" />
<rect x="228" y="180" width="4" height="4" fill="#FF40B3" />
<rect x="224" y="184" width="4" height="4" fill="#FF40B3" />
</svg>