<?xml version="1.0" encoding="UTF-8" ?>
<svg version="1.1" width="384" height="384" xmlns="http://www.w3.org/2000/svg" shape-rendering="crispEdges">
<rect x="228" y="108" width="4" height="4" fill="#FF004E" />
<rect x="228" y="112" width="4" height="4" fill="#FF004E" />
<rect x="228" y="116" width="4" height="4" fill="#FF004E" />
<rect x="220" y="120" width="4" height="4" fill="#FF004E" />
<rect x="228" y="120" width="4" height="4" fill="#FF004E" />
<rect x="232" y="120" width="4" height="4" fill="#FF004E" />
<rect x="220" y="124" width="4" height="4" fill="#FF004E" />
<rect x="224" y="124" width="4" height="4" fill="#FF004E" />
<rect x="228" y="124" width="4" height="4" fill="#FF004E" />
<rect x="232" y="124" width="4" height="4" fill="#FF004E" />
<rect x="220" y="128" width="4" height="4" fill="#FF004E" />
<rect x="224" y="128" width="4" height="4" fill="#FF004E" />
<rect x="228" y="128" width="4" height="4" fill="#FF004E" />
<rect x="232" y="128" width="4" height="4" fill="#FF004E" />
<rect x="236" y="128" width="4" height="4" fill="#FF004E" />
<rect x="216" y="132" width="4" height="4" fill="#FF004E" />
<rect x="220" y="132" width="4" height="4" fill="#FF004E" />
<rect x="224" y="132" width="4" height="4" fill="#F9B8F9" />
<rect x="228" y="132" width="4" height="4" fill="#FF004E" />
<rect x="232" y="132" width="4" height="4" fill="#FF004E" />
<rect x="236" y="132" width="4" height="4" fill="#FF004E" />
<rect x="212" y="136" width="4" height="4" fill="#FF004E" />
<rect x="216" y="136" width="4" height="4" fill="#FF004E" />
<rect x="220" y="136" width="4" height="4" fill="#FF004E" />
<rect x="224" y="136" width="4" height="4" fill="#F9B8F9" />
<rect x="228" y="136" width="4" height="4" fill="#F9B8F9" />
<rect x="232" y="136" width="4" height="4" fill="#F9B8F9" />
<rect x="236" y="136" width="4" height="4" fill="#FF004E" />
<rect x="240" y="136" width="4" height="4" fill="#FF004E" />
<rect x="212" y="140" width="4" height="4" fill="#FF004E" />
<rect x="216" y="140" width="4" height="4" fill="#FF004E" />
<rect x="220" y="140" width="4" height="4" fill="#F9B8F9" />
<rect x="224" y="140" width="4" height="4" fill="#F9B8F9" />
<rect x="228" y="140" width="4" height="4" fill="#F9B8F9" />
<rect x="232" y="140" width="4" height="4" fill="#F9B8F9" />
<rect x="236" y="140" width="4" height="4" fill="#FF004E" />
<rect x="240" y="140" width="4" height="4" fill="#FF004E" />
<rect x="212" y="144" width="4" height="4" fill="#FF004E" />
<rect x="216" y="144" width="4" height="4" fill="#FF004E" />
<rect x="220" y="144" width="4" height="4" fill="#F9B8F9" />
<rect x="224" y="144" width="4" height="4" fill="#F9B8F9" />
<rect x="228" y="144" width="4" height="4" fill="#F9B8F9" />
<rect x="232" y="144" width="4" height="4" fill="#F9B8F9" />
<rect x="236" y="144" width="4" height="4" fill="#FF004E" />
<rect x="240" y="144" width="4" height="4" fill="#FF004E" />
<rect x="212" y="148" width="4" height="4" fill="#FF004E" />
<rect x="216" y="148" width="4" height="4" fill="#FF004E" />
<rect x="220" y="148" width="4" height="4" fill="#F9B8F9" />
<rect x="224" y="148" width="4" height="4" fill="#F9B8F9" />
<rect x="228" y="148" width="4" height="4" fill="#F9B8F9" />
<rect x="232" y="148" width="4" height="4" fill="#F9B8F9" />
<rect x="236" y="148" width="4" height="4" fill="#FF004E" />
<rect x="240" y="148" width="4" height="4" fill="#FF004E" />
<rect x="212" y="152" width="4" height="4" fill="#FF004E" />
<rect x="216" y="152" width="4" height="4" fill="#FF004E" />
<rect x="220" y="152" width="4" height="4" fill="#F9B8F9" />
<rect x="224" y="152" width="4" height="4" fill="#F9B8F9" />
<rect x="228" y="152" width="4" height="4" fill="#F9B8F9" />
<rect x="232" y="152" width="4" height="4" fill="#F9B8F9" />
<rect x="236" y="152" width="4" height="4" fill="#FF004E" />
<rect x="240" y="152" width="4" height="4" fill="#FF004E" />
<rect x="212" y="156" width="4" height="4" fill="#FF004E" />
<rect x="216" y="156" width="4" height="4" fill="#FF004E" />
<rect x="220" y="156" width="4" height="4" fill="#FF004E" />
<rect x="224" y="156" width="4" height="4" fill="#F9B8F9" />
<rect x="228" y="156" width="4" height="4" fill="#F9B8F9" />
<rect x="232" y="156" width="4" height="4" fill="#FF004E" />
<rect x="236" y="156" width="4" height="4" fill="#FF004E" />
<rect x="240" y="156" width="4" height="4" fill="#FF004E" />
<rect x="216" y="160" width="4" height="4" fill="#FF004E" />
<rect x="220" y="160" width="4" height="4" fill="#FF004E" />
<rect x="224" y="160" width="4" height="4" fill="#FF004E" />
<rect x="228" y="160" width="4" height="4" fill="#FF004E" />
<rect x="232" y="160" width="4" height="4" fill="#FF004E" />
<rect x="236" y="160" width="4" height="4" fill="#FF004E" />
<rect x="220" y="164" width="4" height="4" fill="#FF004E" />
<rect x="224" y="164" width="4" height="4" fill="#FF004E" />
<rect x="228" y="164" width="4" height="4" fill="#FF004E" />
<rect x="232" y="164" width="4" height="4" fill="#FF004E" />
</svg>