<svg width="384" height="384" xmlns="http://www.w3.org/2000/svg" shape-rendering="crispEdges"><path fill="#B2F6FF" d="M108 56h4v4h-4zM112 56h4v4h-4zM116 56h4v4h-4zM120 56h4v4h-4z"/><path fill="#71CFFF" d="M100 60h4v4h-4zM104 60h4v4h-4z"/><path fill="#3EACFF" d="M108 60h4v4h-4zM112 60h4v4h-4zM116 60h4v4h-4z"/><path fill="#B2F6FF" d="M120 60h4v4h-4zM124 60h4v4h-4z"/><path fill="#71CFFF" d="M92 64h4v4h-4zM96 64h4v4h-4z"/><path fill="#3EACFF" d="M100 64h4v4h-4zM104 64h4v4h-4zM108 64h4v4h-4zM112 64h4v4h-4zM116 64h4v4h-4z"/><path fill="#B2F6FF" d="M120 64h4v4h-4zM124 64h4v4h-4zM128 64h4v4h-4z"/><path fill="#71CFFF" d="M84 68h4v4h-4zM88 68h4v4h-4z"/><path fill="#3EACFF" d="M92 68h4v4h-4zM96 68h4v4h-4zM100 68h4v4h-4zM104 68h4v4h-4zM108 68h4v4h-4zM112 68h4v4h-4z"/><path fill="#FFF" d="M116 68h4v4h-4z"/><path fill="#B2F6FF" d="M120 68h4v4h-4zM124 68h4v4h-4zM128 68h4v4h-4z"/><path fill="#71CFFF" d="M80 72h4v4h-4z"/><path fill="#3EACFF" d="M84 72h4v4h-4zM88 72h4v4h-4zM92 72h4v4h-4zM96 72h4v4h-4zM100 72h4v4h-4zM104 72h4v4h-4zM108 72h4v4h-4z"/><path fill="#FFF" d="M112 72h4v4h-4zM116 72h4v4h-4zM120 72h4v4h-4z"/><path fill="#B2F6FF" d="M124 72h4v4h-4z"/><path fill="#71CFFF" d="M128 72h4v4h-4zM76 76h4v4h-4z"/><path fill="#3EACFF" d="M80 76h4v4h-4zM84 76h4v4h-4zM88 76h4v4h-4zM92 76h4v4h-4zM96 76h4v4h-4zM100 76h4v4h-4z"/><path fill="#B2F6FF" d="M104 76h4v4h-4zM108 76h4v4h-4zM112 76h4v4h-4z"/><path fill="#FFF" d="M116 76h4v4h-4z"/><path fill="#B2F6FF" d="M120 76h4v4h-4z"/><path fill="#3EACFF" d="M124 76h4v4h-4z"/><path fill="#71CFFF" d="M128 76h4v4h-4zM72 80h4v4h-4z"/><path fill="#3EACFF" d="M76 80h4v4h-4zM80 80h4v4h-4zM84 80h4v4h-4zM88 80h4v4h-4zM92 80h4v4h-4z"/><path fill="#B2F6FF" d="M96 80h4v4h-4zM100 80h4v4h-4zM104 80h4v4h-4zM108 80h4v4h-4zM112 80h4v4h-4zM116 80h4v4h-4z"/><path fill="#3EACFF" d="M120 80h4v4h-4zM124 80h4v4h-4z"/><path fill="#71CFFF" d="M128 80h4v4h-4zM68 84h4v4h-4z"/><path fill="#3EACFF" d="M72 84h4v4h-4zM76 84h4v4h-4zM80 84h4v4h-4zM84 84h4v4h-4zM88 84h4v4h-4z"/><path fill="#B2F6FF" d="M92 84h4v4h-4zM96 84h4v4h-4zM100 84h4v4h-4zM104 84h4v4h-4zM108 84h4v4h-4zM112 84h4v4h-4z"/><path fill="#10CFFF" d="M116 84h4v4h-4z"/><path fill="#3EACFF" d="M120 84h4v4h-4zM124 84h4v4h-4z"/><path fill="#71CFFF" d="M128 84h4v4h-4zM68 88h4v4h-4z"/><path fill="#3EACFF" d="M72 88h4v4h-4zM76 88h4v4h-4zM80 88h4v4h-4z"/><path fill="#71CFFF" d="M84 88h4v4h-4zM88 88h4v4h-4z"/><path fill="#B2F6FF" d="M92 88h4v4h-4zM96 88h4v4h-4zM100 88h4v4h-4zM104 88h4v4h-4z"/><path fill="#10CFFF" d="M108 88h4v4h-4zM112 88h4v4h-4zM116 88h4v4h-4zM120 88h4v4h-4z"/><path fill="#3EACFF" d="M124 88h4v4h-4zM128 88h4v4h-4z"/><path fill="#71CFFF" d="M132 88h4v4h-4zM64 92h4v4h-4zM68 92h4v4h-4zM72 92h4v4h-4zM76 92h4v4h-4zM80 92h4v4h-4zM84 92h4v4h-4zM88 92h4v4h-4zM92 92h4v4h-4z"/><path fill="#B2F6FF" d="M96 92h4v4h-4zM100 92h4v4h-4z"/><path fill="#3EACFF" d="M104 92h4v4h-4z"/><path fill="#10CFFF" d="M108 92h4v4h-4zM112 92h4v4h-4zM116 92h4v4h-4zM120 92h4v4h-4z"/><path fill="#3EACFF" d="M124 92h4v4h-4zM128 92h4v4h-4z"/><path fill="#71CFFF" d="M132 92h4v4h-4zM64 96h4v4h-4zM68 96h4v4h-4zM72 96h4v4h-4zM76 96h4v4h-4zM80 96h4v4h-4zM84 96h4v4h-4zM88 96h4v4h-4zM92 96h4v4h-4z"/><path fill="#3EACFF" d="M96 96h4v4h-4zM100 96h4v4h-4zM104 96h4v4h-4z"/><path fill="#10CFFF" d="M108 96h4v4h-4zM112 96h4v4h-4zM116 96h4v4h-4zM120 96h4v4h-4zM124 96h4v4h-4z"/><path fill="#3EACFF" d="M128 96h4v4h-4zM132 96h4v4h-4z"/><path fill="#71CFFF" d="M136 96h4v4h-4zM64 100h4v4h-4zM68 100h4v4h-4zM72 100h4v4h-4zM76 100h4v4h-4zM80 100h4v4h-4z"/><path fill="#3EACFF" d="M84 100h4v4h-4zM88 100h4v4h-4zM92 100h4v4h-4zM96 100h4v4h-4zM100 100h4v4h-4zM104 100h4v4h-4z"/><path fill="#10CFFF" d="M108 100h4v4h-4zM112 100h4v4h-4zM116 100h4v4h-4zM120 100h4v4h-4zM124 100h4v4h-4zM128 100h4v4h-4z"/><path fill="#3EACFF" d="M132 100h4v4h-4z"/><path fill="#71CFFF" d="M136 100h4v4h-4zM68 104h4v4h-4zM72 104h4v4h-4z"/><path fill="#3EACFF" d="M76 104h4v4h-4zM80 104h4v4h-4zM84 104h4v4h-4zM88 104h4v4h-4zM92 104h4v4h-4zM96 104h4v4h-4zM100 104h4v4h-4zM104 104h4v4h-4zM108 104h4v4h-4z"/><path fill="#10CFFF" d="M112 104h4v4h-4zM116 104h4v4h-4zM120 104h4v4h-4zM124 104h4v4h-4zM128 104h4v4h-4z"/><path fill="#3EACFF" d="M132 104h4v4h-4zM136 104h4v4h-4z"/><path fill="#71CFFF" d="M140 104h4v4h-4zM72 108h4v4h-4zM76 108h4v4h-4zM80 108h4v4h-4z"/><path fill="#3EACFF" d="M84 108h4v4h-4zM88 108h4v4h-4zM92 108h4v4h-4zM96 108h4v4h-4zM100 108h4v4h-4zM104 108h4v4h-4zM108 108h4v4h-4z"/><path fill="#10CFFF" d="M112 108h4v4h-4zM116 108h4v4h-4zM120 108h4v4h-4zM124 108h4v4h-4zM128 108h4v4h-4z"/><path fill="#3EACFF" d="M132 108h4v4h-4zM136 108h4v4h-4z"/><path fill="#71CFFF" d="M140 108h4v4h-4z"/><path fill="#B2F6FF" d="M84 112h4v4h-4z"/><path fill="#3EACFF" d="M88 112h4v4h-4zM92 112h4v4h-4zM96 112h4v4h-4zM100 112h4v4h-4zM104 112h4v4h-4zM108 112h4v4h-4zM112 112h4v4h-4z"/><path fill="#10CFFF" d="M116 112h4v4h-4zM120 112h4v4h-4zM124 112h4v4h-4zM128 112h4v4h-4zM132 112h4v4h-4z"/><path fill="#3EACFF" d="M136 112h4v4h-4zM140 112h4v4h-4z"/><path fill="#71CFFF" d="M144 112h4v4h-4z"/><path fill="#B2F6FF" d="M88 116h4v4h-4z"/><path fill="#3EACFF" d="M92 116h4v4h-4zM96 116h4v4h-4zM100 116h4v4h-4zM104 116h4v4h-4zM108 116h4v4h-4zM112 116h4v4h-4z"/><path fill="#10CFFF" d="M116 116h4v4h-4zM120 116h4v4h-4zM124 116h4v4h-4zM128 116h4v4h-4zM132 116h4v4h-4zM136 116h4v4h-4z"/><path fill="#3EACFF" d="M140 116h4v4h-4zM144 116h4v4h-4z"/><path fill="#71CFFF" d="M148 116h4v4h-4z"/><path fill="#B2F6FF" d="M92 120h4v4h-4z"/><path fill="#3EACFF" d="M96 120h4v4h-4zM100 120h4v4h-4zM104 120h4v4h-4zM108 120h4v4h-4zM112 120h4v4h-4zM116 120h4v4h-4z"/><path fill="#10CFFF" d="M120 120h4v4h-4zM124 120h4v4h-4zM128 120h4v4h-4zM132 120h4v4h-4zM136 120h4v4h-4zM140 120h4v4h-4z"/><path fill="#3EACFF" d="M144 120h4v4h-4zM148 120h4v4h-4z"/><path fill="#71CFFF" d="M152 120h4v4h-4z"/><path fill="#B2F6FF" d="M96 124h4v4h-4z"/><path fill="#3EACFF" d="M100 124h4v4h-4zM104 124h4v4h-4zM108 124h4v4h-4zM112 124h4v4h-4zM116 124h4v4h-4z"/><path fill="#10CFFF" d="M120 124h4v4h-4zM124 124h4v4h-4zM128 124h4v4h-4zM132 124h4v4h-4zM136 124h4v4h-4zM140 124h4v4h-4zM144 124h4v4h-4z"/><path fill="#3EACFF" d="M148 124h4v4h-4zM152 124h4v4h-4z"/><path fill="#71CFFF" d="M156 124h4v4h-4z"/><path fill="#B2F6FF" d="M96 128h4v4h-4z"/><path fill="#3EACFF" d="M100 128h4v4h-4zM104 128h4v4h-4zM108 128h4v4h-4zM112 128h4v4h-4zM116 128h4v4h-4zM120 128h4v4h-4z"/><path fill="#10CFFF" d="M124 128h4v4h-4zM128 128h4v4h-4zM132 128h4v4h-4zM136 128h4v4h-4zM140 128h4v4h-4zM144 128h4v4h-4z"/><path fill="#3EACFF" d="M148 128h4v4h-4zM152 128h4v4h-4zM156 128h4v4h-4z"/><path fill="#71CFFF" d="M160 128h4v4h-4zM164 128h4v4h-4zM168 128h4v4h-4zM172 128h4v4h-4zM176 128h4v4h-4zM180 128h4v4h-4z"/><path fill="#B2F6FF" d="M100 132h4v4h-4z"/><path fill="#3EACFF" d="M104 132h4v4h-4zM108 132h4v4h-4zM112 132h4v4h-4zM116 132h4v4h-4zM120 132h4v4h-4z"/><path fill="#10CFFF" d="M124 132h4v4h-4zM128 132h4v4h-4zM132 132h4v4h-4zM136 132h4v4h-4zM140 132h4v4h-4zM144 132h4v4h-4zM148 132h4v4h-4z"/><path fill="#3EACFF" d="M152 132h4v4h-4zM156 132h4v4h-4zM160 132h4v4h-4zM164 132h4v4h-4zM168 132h4v4h-4zM172 132h4v4h-4zM176 132h4v4h-4zM180 132h4v4h-4z"/><path fill="#71CFFF" d="M184 132h4v4h-4zM188 132h4v4h-4zM192 132h4v4h-4zM196 132h4v4h-4zM200 132h4v4h-4zM204 132h4v4h-4z"/><path fill="#B2F6FF" d="M104 136h4v4h-4z"/><path fill="#3EACFF" d="M108 136h4v4h-4zM112 136h4v4h-4zM116 136h4v4h-4zM120 136h4v4h-4zM124 136h4v4h-4z"/><path fill="#10CFFF" d="M128 136h4v4h-4zM132 136h4v4h-4zM136 136h4v4h-4zM140 136h4v4h-4zM144 136h4v4h-4zM148 136h4v4h-4zM152 136h4v4h-4zM156 136h4v4h-4z"/><path fill="#3EACFF" d="M160 136h4v4h-4zM164 136h4v4h-4zM168 136h4v4h-4zM172 136h4v4h-4zM176 136h4v4h-4zM180 136h4v4h-4zM184 136h4v4h-4zM188 136h4v4h-4zM192 136h4v4h-4zM196 136h4v4h-4zM200 136h4v4h-4zM204 136h4v4h-4z"/><path fill="#B2F6FF" d="M208 136h4v4h-4zM212 136h4v4h-4zM216 136h4v4h-4zM220 136h4v4h-4zM104 140h4v4h-4z"/><path fill="#3EACFF" d="M108 140h4v4h-4zM112 140h4v4h-4zM116 140h4v4h-4zM120 140h4v4h-4zM124 140h4v4h-4zM128 140h4v4h-4z"/><path fill="#10CFFF" d="M132 140h4v4h-4zM136 140h4v4h-4zM140 140h4v4h-4zM144 140h4v4h-4zM148 140h4v4h-4zM152 140h4v4h-4zM156 140h4v4h-4zM160 140h4v4h-4zM164 140h4v4h-4zM168 140h4v4h-4zM172 140h4v4h-4zM176 140h4v4h-4zM180 140h4v4h-4zM184 140h4v4h-4zM188 140h4v4h-4zM192 140h4v4h-4zM196 140h4v4h-4z"/><path fill="#3EACFF" d="M200 140h4v4h-4zM204 140h4v4h-4zM208 140h4v4h-4zM212 140h4v4h-4zM216 140h4v4h-4zM220 140h4v4h-4z"/><path fill="#B2F6FF" d="M224 140h4v4h-4zM228 140h4v4h-4z"/><path fill="#71CFFF" d="M104 144h4v4h-4z"/><path fill="#3EACFF" d="M108 144h4v4h-4zM112 144h4v4h-4zM116 144h4v4h-4zM120 144h4v4h-4zM124 144h4v4h-4zM128 144h4v4h-4zM132 144h4v4h-4z"/><path fill="#10CFFF" d="M136 144h4v4h-4zM140 144h4v4h-4zM144 144h4v4h-4zM148 144h4v4h-4zM152 144h4v4h-4zM156 144h4v4h-4zM160 144h4v4h-4zM164 144h4v4h-4zM168 144h4v4h-4zM172 144h4v4h-4zM176 144h4v4h-4zM180 144h4v4h-4zM184 144h4v4h-4zM188 144h4v4h-4zM192 144h4v4h-4zM196 144h4v4h-4zM200 144h4v4h-4zM204 144h4v4h-4zM208 144h4v4h-4zM212 144h4v4h-4z"/><path fill="#3EACFF" d="M216 144h4v4h-4zM220 144h4v4h-4zM224 144h4v4h-4zM228 144h4v4h-4z"/><path fill="#B2F6FF" d="M232 144h4v4h-4zM236 144h4v4h-4z"/><path fill="#71CFFF" d="M108 148h4v4h-4z"/><path fill="#3EACFF" d="M112 148h4v4h-4zM116 148h4v4h-4zM120 148h4v4h-4zM124 148h4v4h-4zM128 148h4v4h-4zM132 148h4v4h-4zM136 148h4v4h-4z"/><path fill="#10CFFF" d="M140 148h4v4h-4zM144 148h4v4h-4zM148 148h4v4h-4zM152 148h4v4h-4zM156 148h4v4h-4zM160 148h4v4h-4zM164 148h4v4h-4zM168 148h4v4h-4zM172 148h4v4h-4zM176 148h4v4h-4zM180 148h4v4h-4zM184 148h4v4h-4zM188 148h4v4h-4zM192 148h4v4h-4zM196 148h4v4h-4zM200 148h4v4h-4zM204 148h4v4h-4zM208 148h4v4h-4zM212 148h4v4h-4zM216 148h4v4h-4zM220 148h4v4h-4z"/><path fill="#3EACFF" d="M224 148h4v4h-4zM228 148h4v4h-4zM232 148h4v4h-4zM236 148h4v4h-4z"/><path fill="#B2F6FF" d="M240 148h4v4h-4z"/><path fill="#71CFFF" d="M108 152h4v4h-4z"/><path fill="#3EACFF" d="M112 152h4v4h-4zM116 152h4v4h-4zM120 152h4v4h-4zM124 152h4v4h-4zM128 152h4v4h-4zM132 152h4v4h-4zM136 152h4v4h-4z"/><path fill="#10CFFF" d="M140 152h4v4h-4zM144 152h4v4h-4zM148 152h4v4h-4zM152 152h4v4h-4zM156 152h4v4h-4zM160 152h4v4h-4zM164 152h4v4h-4zM168 152h4v4h-4zM172 152h4v4h-4zM176 152h4v4h-4zM180 152h4v4h-4zM184 152h4v4h-4zM188 152h4v4h-4zM192 152h4v4h-4zM196 152h4v4h-4zM200 152h4v4h-4zM204 152h4v4h-4z"/><path fill="#07D5FF" d="M208 152h4v4h-4zM212 152h4v4h-4zM216 152h4v4h-4z"/><path fill="#10CFFF" d="M220 152h4v4h-4zM224 152h4v4h-4z"/><path fill="#3EACFF" d="M228 152h4v4h-4zM232 152h4v4h-4zM236 152h4v4h-4zM240 152h4v4h-4z"/><path fill="#B2F6FF" d="M244 152h4v4h-4z"/><path fill="#71CFFF" d="M108 156h4v4h-4z"/><path fill="#3EACFF" d="M112 156h4v4h-4zM116 156h4v4h-4zM120 156h4v4h-4zM124 156h4v4h-4zM128 156h4v4h-4zM132 156h4v4h-4zM136 156h4v4h-4zM140 156h4v4h-4z"/><path fill="#10CFFF" d="M144 156h4v4h-4zM148 156h4v4h-4zM152 156h4v4h-4zM156 156h4v4h-4zM160 156h4v4h-4zM164 156h4v4h-4zM168 156h4v4h-4zM172 156h4v4h-4zM176 156h4v4h-4zM180 156h4v4h-4zM184 156h4v4h-4zM188 156h4v4h-4zM192 156h4v4h-4z"/><path fill="#41E0FF" d="M196 156h4v4h-4zM200 156h4v4h-4zM204 156h4v4h-4z"/><path fill="#7CFFFF" d="M208 156h4v4h-4z"/><path fill="#10CFFF" d="M212 156h4v4h-4zM216 156h4v4h-4zM220 156h4v4h-4zM224 156h4v4h-4zM228 156h4v4h-4zM232 156h4v4h-4z"/><path fill="#3EACFF" d="M236 156h4v4h-4zM240 156h4v4h-4zM244 156h4v4h-4z"/><path fill="#B2F6FF" d="M248 156h4v4h-4z"/><path fill="#71CFFF" d="M108 160h4v4h-4z"/><path fill="#3EACFF" d="M112 160h4v4h-4zM116 160h4v4h-4zM120 160h4v4h-4zM124 160h4v4h-4zM128 160h4v4h-4zM132 160h4v4h-4zM136 160h4v4h-4zM140 160h4v4h-4zM144 160h4v4h-4zM148 160h4v4h-4zM152 160h4v4h-4z"/><path fill="#10CFFF" d="M156 160h4v4h-4zM160 160h4v4h-4zM164 160h4v4h-4zM168 160h4v4h-4zM172 160h4v4h-4zM176 160h4v4h-4zM180 160h4v4h-4zM184 160h4v4h-4zM188 160h4v4h-4z"/><path fill="#41E0FF" d="M192 160h4v4h-4zM196 160h4v4h-4zM200 160h4v4h-4z"/><path fill="#7CFFFF" d="M204 160h4v4h-4zM208 160h4v4h-4zM212 160h4v4h-4z"/><path fill="#10CFFF" d="M216 160h4v4h-4zM220 160h4v4h-4zM224 160h4v4h-4zM228 160h4v4h-4zM232 160h4v4h-4zM236 160h4v4h-4z"/><path fill="#3EACFF" d="M240 160h4v4h-4zM244 160h4v4h-4zM248 160h4v4h-4z"/><path fill="#B2F6FF" d="M252 160h4v4h-4z"/><path fill="#71CFFF" d="M108 164h4v4h-4z"/><path fill="#3EACFF" d="M112 164h4v4h-4zM116 164h4v4h-4zM120 164h4v4h-4zM124 164h4v4h-4zM128 164h4v4h-4zM132 164h4v4h-4zM136 164h4v4h-4zM140 164h4v4h-4zM144 164h4v4h-4zM148 164h4v4h-4zM152 164h4v4h-4zM156 164h4v4h-4zM160 164h4v4h-4zM164 164h4v4h-4z"/><path fill="#10CFFF" d="M168 164h4v4h-4zM172 164h4v4h-4zM176 164h4v4h-4zM180 164h4v4h-4zM184 164h4v4h-4zM188 164h4v4h-4zM192 164h4v4h-4z"/><path fill="#41E0FF" d="M196 164h4v4h-4zM200 164h4v4h-4zM204 164h4v4h-4z"/><path fill="#7CFFFF" d="M208 164h4v4h-4z"/><path fill="#41E0FF" d="M212 164h4v4h-4zM216 164h4v4h-4z"/><path fill="#10CFFF" d="M220 164h4v4h-4zM224 164h4v4h-4zM228 164h4v4h-4zM232 164h4v4h-4zM236 164h4v4h-4zM240 164h4v4h-4z"/><path fill="#3EACFF" d="M244 164h4v4h-4zM248 164h4v4h-4zM252 164h4v4h-4z"/><path fill="#71CFFF" d="M256 164h4v4h-4zM104 168h4v4h-4z"/><path fill="#3EACFF" d="M108 168h4v4h-4zM112 168h4v4h-4zM116 168h4v4h-4zM120 168h4v4h-4zM124 168h4v4h-4zM128 168h4v4h-4zM132 168h4v4h-4zM136 168h4v4h-4zM140 168h4v4h-4zM144 168h4v4h-4zM148 168h4v4h-4zM152 168h4v4h-4zM156 168h4v4h-4zM160 168h4v4h-4zM164 168h4v4h-4zM168 168h4v4h-4zM172 168h4v4h-4z"/><path fill="#10CFFF" d="M176 168h4v4h-4zM180 168h4v4h-4zM184 168h4v4h-4zM188 168h4v4h-4zM192 168h4v4h-4zM196 168h4v4h-4zM200 168h4v4h-4zM204 168h4v4h-4zM208 168h4v4h-4z"/><path fill="#41E0FF" d="M212 168h4v4h-4zM216 168h4v4h-4zM220 168h4v4h-4z"/><path fill="#10CFFF" d="M224 168h4v4h-4zM228 168h4v4h-4zM232 168h4v4h-4zM236 168h4v4h-4zM240 168h4v4h-4zM244 168h4v4h-4z"/><path fill="#3EACFF" d="M248 168h4v4h-4zM252 168h4v4h-4z"/><path fill="#71CFFF" d="M256 168h4v4h-4zM104 172h4v4h-4z"/><path fill="#3EACFF" d="M108 172h4v4h-4zM112 172h4v4h-4zM116 172h4v4h-4zM120 172h4v4h-4zM124 172h4v4h-4zM128 172h4v4h-4zM132 172h4v4h-4zM136 172h4v4h-4zM140 172h4v4h-4zM144 172h4v4h-4zM148 172h4v4h-4zM152 172h4v4h-4zM156 172h4v4h-4zM160 172h4v4h-4zM164 172h4v4h-4zM168 172h4v4h-4zM172 172h4v4h-4zM176 172h4v4h-4zM180 172h4v4h-4z"/><path fill="#10CFFF" d="M184 172h4v4h-4zM188 172h4v4h-4zM192 172h4v4h-4zM196 172h4v4h-4zM200 172h4v4h-4zM204 172h4v4h-4zM208 172h4v4h-4zM212 172h4v4h-4z"/><path fill="#41E0FF" d="M216 172h4v4h-4z"/><path fill="#10CFFF" d="M220 172h4v4h-4zM224 172h4v4h-4zM228 172h4v4h-4zM232 172h4v4h-4zM236 172h4v4h-4zM240 172h4v4h-4zM244 172h4v4h-4zM248 172h4v4h-4z"/><path fill="#3EACFF" d="M252 172h4v4h-4zM256 172h4v4h-4z"/><path fill="#71CFFF" d="M260 172h4v4h-4zM100 176h4v4h-4z"/><path fill="#3EACFF" d="M104 176h4v4h-4zM108 176h4v4h-4zM112 176h4v4h-4zM116 176h4v4h-4zM120 176h4v4h-4zM124 176h4v4h-4zM128 176h4v4h-4zM132 176h4v4h-4zM136 176h4v4h-4zM140 176h4v4h-4zM144 176h4v4h-4zM148 176h4v4h-4zM152 176h4v4h-4zM156 176h4v4h-4zM160 176h4v4h-4zM164 176h4v4h-4zM168 176h4v4h-4zM172 176h4v4h-4zM176 176h4v4h-4zM180 176h4v4h-4zM184 176h4v4h-4zM188 176h4v4h-4z"/><path fill="#10CFFF" d="M192 176h4v4h-4zM196 176h4v4h-4zM200 176h4v4h-4zM204 176h4v4h-4zM208 176h4v4h-4zM212 176h4v4h-4zM216 176h4v4h-4zM220 176h4v4h-4zM224 176h4v4h-4zM228 176h4v4h-4zM232 176h4v4h-4zM236 176h4v4h-4zM240 176h4v4h-4zM244 176h4v4h-4zM248 176h4v4h-4zM252 176h4v4h-4z"/><path fill="#3EACFF" d="M256 176h4v4h-4z"/><path fill="#71CFFF" d="M260 176h4v4h-4zM100 180h4v4h-4z"/><path fill="#3EACFF" d="M104 180h4v4h-4zM108 180h4v4h-4zM112 180h4v4h-4zM116 180h4v4h-4zM120 180h4v4h-4zM124 180h4v4h-4zM128 180h4v4h-4zM132 180h4v4h-4zM136 180h4v4h-4zM140 180h4v4h-4zM144 180h4v4h-4zM148 180h4v4h-4zM152 180h4v4h-4zM156 180h4v4h-4zM160 180h4v4h-4zM164 180h4v4h-4zM168 180h4v4h-4zM172 180h4v4h-4zM176 180h4v4h-4zM180 180h4v4h-4zM184 180h4v4h-4zM188 180h4v4h-4zM192 180h4v4h-4z"/><path fill="#10CFFF" d="M196 180h4v4h-4zM200 180h4v4h-4zM204 180h4v4h-4zM208 180h4v4h-4zM212 180h4v4h-4zM216 180h4v4h-4zM220 180h4v4h-4zM224 180h4v4h-4zM228 180h4v4h-4zM232 180h4v4h-4zM236 180h4v4h-4zM240 180h4v4h-4zM244 180h4v4h-4zM248 180h4v4h-4zM252 180h4v4h-4zM256 180h4v4h-4z"/><path fill="#3EACFF" d="M260 180h4v4h-4z"/><path fill="#71CFFF" d="M264 180h4v4h-4zM96 184h4v4h-4z"/><path fill="#3EACFF" d="M100 184h4v4h-4zM104 184h4v4h-4zM108 184h4v4h-4z"/><path fill="#D70DCF" d="M112 184h4v4h-4z"/><path fill="#B913F1" d="M116 184h4v4h-4z"/><path fill="#D70DCF" d="M120 184h4v4h-4zM124 184h4v4h-4z"/><path fill="#3EACFF" d="M128 184h4v4h-4zM132 184h4v4h-4zM136 184h4v4h-4zM140 184h4v4h-4zM144 184h4v4h-4zM148 184h4v4h-4zM152 184h4v4h-4zM156 184h4v4h-4zM160 184h4v4h-4zM164 184h4v4h-4zM168 184h4v4h-4zM172 184h4v4h-4zM176 184h4v4h-4zM180 184h4v4h-4zM184 184h4v4h-4zM188 184h4v4h-4zM192 184h4v4h-4zM196 184h4v4h-4z"/><path fill="#10CFFF" d="M200 184h4v4h-4zM204 184h4v4h-4zM208 184h4v4h-4zM212 184h4v4h-4zM216 184h4v4h-4zM220 184h4v4h-4zM224 184h4v4h-4zM228 184h4v4h-4zM232 184h4v4h-4zM236 184h4v4h-4zM240 184h4v4h-4zM244 184h4v4h-4zM248 184h4v4h-4zM252 184h4v4h-4zM256 184h4v4h-4z"/><path fill="#3EACFF" d="M260 184h4v4h-4z"/><path fill="#71CFFF" d="M264 184h4v4h-4zM96 188h4v4h-4z"/><path fill="#3EACFF" d="M100 188h4v4h-4zM104 188h4v4h-4z"/><path fill="#D70DCF" d="M108 188h4v4h-4z"/><path fill="#F17CE2" d="M112 188h4v4h-4zM116 188h4v4h-4zM120 188h4v4h-4zM124 188h4v4h-4z"/><path fill="#D70DCF" d="M128 188h4v4h-4z"/><path fill="#3EACFF" d="M132 188h4v4h-4zM136 188h4v4h-4zM140 188h4v4h-4zM144 188h4v4h-4zM148 188h4v4h-4zM152 188h4v4h-4zM156 188h4v4h-4zM160 188h4v4h-4zM164 188h4v4h-4zM168 188h4v4h-4zM172 188h4v4h-4zM176 188h4v4h-4zM180 188h4v4h-4zM184 188h4v4h-4zM188 188h4v4h-4zM192 188h4v4h-4zM196 188h4v4h-4zM200 188h4v4h-4z"/><path fill="#10CFFF" d="M204 188h4v4h-4zM208 188h4v4h-4zM212 188h4v4h-4zM216 188h4v4h-4zM220 188h4v4h-4zM224 188h4v4h-4zM228 188h4v4h-4zM232 188h4v4h-4zM236 188h4v4h-4zM240 188h4v4h-4zM244 188h4v4h-4zM248 188h4v4h-4zM252 188h4v4h-4zM256 188h4v4h-4zM260 188h4v4h-4z"/><path fill="#3EACFF" d="M264 188h4v4h-4z"/><path fill="#71CFFF" d="M268 188h4v4h-4zM96 192h4v4h-4z"/><path fill="#3EACFF" d="M100 192h4v4h-4z"/><path fill="#D70DCF" d="M104 192h4v4h-4z"/><path fill="#F7579A" d="M108 192h4v4h-4z"/><path fill="#F17CE2" d="M112 192h4v4h-4zM116 192h4v4h-4zM120 192h4v4h-4z"/><path fill="#F7579A" d="M124 192h4v4h-4z"/><path fill="#D70DCF" d="M128 192h4v4h-4z"/><path fill="#3EACFF" d="M132 192h4v4h-4zM136 192h4v4h-4zM140 192h4v4h-4zM144 192h4v4h-4zM148 192h4v4h-4zM152 192h4v4h-4zM156 192h4v4h-4zM160 192h4v4h-4zM164 192h4v4h-4zM168 192h4v4h-4zM172 192h4v4h-4zM176 192h4v4h-4zM180 192h4v4h-4zM184 192h4v4h-4zM188 192h4v4h-4zM192 192h4v4h-4zM196 192h4v4h-4zM200 192h4v4h-4zM204 192h4v4h-4zM208 192h4v4h-4z"/><path fill="#10CFFF" d="M212 192h4v4h-4zM216 192h4v4h-4zM220 192h4v4h-4zM224 192h4v4h-4zM228 192h4v4h-4zM232 192h4v4h-4zM236 192h4v4h-4zM240 192h4v4h-4zM244 192h4v4h-4zM248 192h4v4h-4zM252 192h4v4h-4zM256 192h4v4h-4zM260 192h4v4h-4z"/><path fill="#3EACFF" d="M264 192h4v4h-4z"/><path fill="#71CFFF" d="M268 192h4v4h-4zM92 196h4v4h-4z"/><path fill="#3EACFF" d="M96 196h4v4h-4z"/><path fill="#D70DCF" d="M100 196h4v4h-4z"/><path fill="#F7579A" d="M104 196h4v4h-4zM108 196h4v4h-4z"/><path fill="#F17CE2" d="M112 196h4v4h-4zM116 196h4v4h-4zM120 196h4v4h-4z"/><path fill="#F7579A" d="M124 196h4v4h-4zM128 196h4v4h-4z"/><path fill="#D70DCF" d="M132 196h4v4h-4zM136 196h4v4h-4z"/><path fill="#3EACFF" d="M140 196h4v4h-4zM144 196h4v4h-4zM148 196h4v4h-4zM152 196h4v4h-4zM156 196h4v4h-4zM160 196h4v4h-4zM164 196h4v4h-4zM168 196h4v4h-4zM172 196h4v4h-4zM176 196h4v4h-4zM180 196h4v4h-4zM184 196h4v4h-4zM188 196h4v4h-4zM192 196h4v4h-4zM196 196h4v4h-4zM200 196h4v4h-4zM204 196h4v4h-4zM208 196h4v4h-4zM212 196h4v4h-4z"/><path fill="#10CFFF" d="M216 196h4v4h-4zM220 196h4v4h-4zM224 196h4v4h-4zM228 196h4v4h-4zM232 196h4v4h-4zM236 196h4v4h-4zM240 196h4v4h-4zM244 196h4v4h-4zM248 196h4v4h-4zM252 196h4v4h-4zM256 196h4v4h-4zM260 196h4v4h-4z"/><path fill="#3EACFF" d="M264 196h4v4h-4z"/><path fill="#71CFFF" d="M268 196h4v4h-4zM92 200h4v4h-4z"/><path fill="#3EACFF" d="M96 200h4v4h-4z"/><path fill="#D70DCF" d="M100 200h4v4h-4z"/><path fill="#F7579A" d="M104 200h4v4h-4z"/><path fill="#F17CE2" d="M108 200h4v4h-4zM112 200h4v4h-4zM116 200h4v4h-4zM120 200h4v4h-4z"/><path fill="#F7579A" d="M124 200h4v4h-4zM128 200h4v4h-4zM132 200h4v4h-4zM136 200h4v4h-4z"/><path fill="#D70DCF" d="M140 200h4v4h-4zM144 200h4v4h-4zM148 200h4v4h-4z"/><path fill="#3EACFF" d="M152 200h4v4h-4zM156 200h4v4h-4zM160 200h4v4h-4zM164 200h4v4h-4zM168 200h4v4h-4zM172 200h4v4h-4zM176 200h4v4h-4zM180 200h4v4h-4zM184 200h4v4h-4zM188 200h4v4h-4zM192 200h4v4h-4zM196 200h4v4h-4zM200 200h4v4h-4zM204 200h4v4h-4zM208 200h4v4h-4zM212 200h4v4h-4zM216 200h4v4h-4z"/><path fill="#10CFFF" d="M220 200h4v4h-4zM224 200h4v4h-4zM228 200h4v4h-4zM232 200h4v4h-4zM236 200h4v4h-4zM240 200h4v4h-4zM244 200h4v4h-4zM248 200h4v4h-4zM252 200h4v4h-4zM256 200h4v4h-4zM260 200h4v4h-4z"/><path fill="#3EACFF" d="M264 200h4v4h-4z"/><path fill="#71CFFF" d="M268 200h4v4h-4zM88 204h4v4h-4z"/><path fill="#3EACFF" d="M92 204h4v4h-4zM96 204h4v4h-4z"/><path fill="#D70DCF" d="M100 204h4v4h-4z"/><path fill="#F7579A" d="M104 204h4v4h-4z"/><path fill="#F17CE2" d="M108 204h4v4h-4zM112 204h4v4h-4zM116 204h4v4h-4zM120 204h4v4h-4z"/><path fill="#F7579A" d="M124 204h4v4h-4zM128 204h4v4h-4zM132 204h4v4h-4zM136 204h4v4h-4zM140 204h4v4h-4zM144 204h4v4h-4zM148 204h4v4h-4z"/><path fill="#D70DCF" d="M152 204h4v4h-4zM156 204h4v4h-4zM160 204h4v4h-4zM164 204h4v4h-4zM168 204h4v4h-4zM172 204h4v4h-4zM176 204h4v4h-4zM180 204h4v4h-4z"/><path fill="#3EACFF" d="M184 204h4v4h-4zM188 204h4v4h-4zM192 204h4v4h-4zM196 204h4v4h-4zM200 204h4v4h-4zM204 204h4v4h-4zM208 204h4v4h-4zM212 204h4v4h-4zM216 204h4v4h-4z"/><path fill="#10CFFF" d="M220 204h4v4h-4zM224 204h4v4h-4zM228 204h4v4h-4zM232 204h4v4h-4zM236 204h4v4h-4zM240 204h4v4h-4zM244 204h4v4h-4zM248 204h4v4h-4z"/><path fill="#B913F1" d="M252 204h4v4h-4zM256 204h4v4h-4z"/><path fill="#10CFFF" d="M260 204h4v4h-4z"/><path fill="#3EACFF" d="M264 204h4v4h-4z"/><path fill="#71CFFF" d="M268 204h4v4h-4zM88 208h4v4h-4z"/><path fill="#3EACFF" d="M92 208h4v4h-4zM96 208h4v4h-4z"/><path fill="#D70DCF" d="M100 208h4v4h-4z"/><path fill="#F7579A" d="M104 208h4v4h-4z"/><path fill="#F17CE2" d="M108 208h4v4h-4zM112 208h4v4h-4zM116 208h4v4h-4zM120 208h4v4h-4z"/><path fill="#F7579A" d="M124 208h4v4h-4zM128 208h4v4h-4zM132 208h4v4h-4zM136 208h4v4h-4zM140 208h4v4h-4z"/><path fill="#9F87BE" d="M144 208h4v4h-4z"/><path fill="#F7579A" d="M148 208h4v4h-4zM152 208h4v4h-4zM156 208h4v4h-4zM160 208h4v4h-4zM164 208h4v4h-4zM168 208h4v4h-4zM172 208h4v4h-4zM176 208h4v4h-4zM180 208h4v4h-4z"/><path fill="#D70DCF" d="M184 208h4v4h-4zM188 208h4v4h-4zM192 208h4v4h-4zM196 208h4v4h-4zM200 208h4v4h-4zM204 208h4v4h-4zM208 208h4v4h-4zM212 208h4v4h-4zM216 208h4v4h-4zM220 208h4v4h-4z"/><path fill="#B913F1" d="M224 208h4v4h-4zM228 208h4v4h-4zM232 208h4v4h-4zM236 208h4v4h-4zM240 208h4v4h-4zM244 208h4v4h-4zM248 208h4v4h-4z"/><path fill="#F17CE2" d="M252 208h4v4h-4z"/><path fill="#B913F1" d="M256 208h4v4h-4z"/><path fill="#10CFFF" d="M260 208h4v4h-4z"/><path fill="#3EACFF" d="M264 208h4v4h-4z"/><path fill="#71CFFF" d="M268 208h4v4h-4zM88 212h4v4h-4z"/><path fill="#3EACFF" d="M92 212h4v4h-4z"/><path fill="#D70DCF" d="M96 212h4v4h-4z"/><path fill="#F7579A" d="M100 212h4v4h-4zM104 212h4v4h-4z"/><path fill="#F17CE2" d="M108 212h4v4h-4zM112 212h4v4h-4zM116 212h4v4h-4zM120 212h4v4h-4z"/><path fill="#F7579A" d="M124 212h4v4h-4zM128 212h4v4h-4zM132 212h4v4h-4zM136 212h4v4h-4zM140 212h4v4h-4zM144 212h4v4h-4zM148 212h4v4h-4zM152 212h4v4h-4zM156 212h4v4h-4zM160 212h4v4h-4zM164 212h4v4h-4zM168 212h4v4h-4zM172 212h4v4h-4zM176 212h4v4h-4zM180 212h4v4h-4zM184 212h4v4h-4zM188 212h4v4h-4zM192 212h4v4h-4zM196 212h4v4h-4zM200 212h4v4h-4zM204 212h4v4h-4zM208 212h4v4h-4zM212 212h4v4h-4zM216 212h4v4h-4zM220 212h4v4h-4z"/><path fill="#F17CE2" d="M224 212h4v4h-4zM228 212h4v4h-4zM232 212h4v4h-4zM236 212h4v4h-4zM240 212h4v4h-4zM244 212h4v4h-4zM248 212h4v4h-4zM252 212h4v4h-4zM256 212h4v4h-4z"/><path fill="#B913F1" d="M260 212h4v4h-4z"/><path fill="#3EACFF" d="M264 212h4v4h-4z"/><path fill="#71CFFF" d="M268 212h4v4h-4zM88 216h4v4h-4z"/><path fill="#3EACFF" d="M92 216h4v4h-4z"/><path fill="#D70DCF" d="M96 216h4v4h-4z"/><path fill="#F7579A" d="M100 216h4v4h-4zM104 216h4v4h-4z"/><path fill="#F17CE2" d="M108 216h4v4h-4zM112 216h4v4h-4zM116 216h4v4h-4zM120 216h4v4h-4z"/><path fill="#F7579A" d="M124 216h4v4h-4zM128 216h4v4h-4zM132 216h4v4h-4zM136 216h4v4h-4zM140 216h4v4h-4zM144 216h4v4h-4zM148 216h4v4h-4zM152 216h4v4h-4zM156 216h4v4h-4zM160 216h4v4h-4zM164 216h4v4h-4zM168 216h4v4h-4zM172 216h4v4h-4zM176 216h4v4h-4zM180 216h4v4h-4zM184 216h4v4h-4zM188 216h4v4h-4zM192 216h4v4h-4zM196 216h4v4h-4zM200 216h4v4h-4zM204 216h4v4h-4zM208 216h4v4h-4zM212 216h4v4h-4zM216 216h4v4h-4zM220 216h4v4h-4zM224 216h4v4h-4z"/><path fill="#F17CE2" d="M228 216h4v4h-4zM232 216h4v4h-4zM236 216h4v4h-4zM240 216h4v4h-4zM244 216h4v4h-4zM248 216h4v4h-4zM252 216h4v4h-4zM256 216h4v4h-4z"/><path fill="#B913F1" d="M260 216h4v4h-4z"/><path fill="#3EACFF" d="M264 216h4v4h-4z"/><path fill="#71CFFF" d="M268 216h4v4h-4zM88 220h4v4h-4z"/><path fill="#3EACFF" d="M92 220h4v4h-4z"/><path fill="#D70DCF" d="M96 220h4v4h-4z"/><path fill="#F7579A" d="M100 220h4v4h-4zM104 220h4v4h-4z"/><path fill="#F17CE2" d="M108 220h4v4h-4zM112 220h4v4h-4zM116 220h4v4h-4zM120 220h4v4h-4z"/><path fill="#F7579A" d="M124 220h4v4h-4zM128 220h4v4h-4zM132 220h4v4h-4zM136 220h4v4h-4zM140 220h4v4h-4zM144 220h4v4h-4zM148 220h4v4h-4zM152 220h4v4h-4zM156 220h4v4h-4zM160 220h4v4h-4zM164 220h4v4h-4zM168 220h4v4h-4zM172 220h4v4h-4zM176 220h4v4h-4zM180 220h4v4h-4zM184 220h4v4h-4zM188 220h4v4h-4zM192 220h4v4h-4zM196 220h4v4h-4zM200 220h4v4h-4zM204 220h4v4h-4zM208 220h4v4h-4zM212 220h4v4h-4zM216 220h4v4h-4zM220 220h4v4h-4zM224 220h4v4h-4z"/><path fill="#F17CE2" d="M228 220h4v4h-4zM232 220h4v4h-4zM236 220h4v4h-4zM240 220h4v4h-4zM244 220h4v4h-4zM248 220h4v4h-4zM252 220h4v4h-4zM256 220h4v4h-4z"/><path fill="#B913F1" d="M260 220h4v4h-4z"/><path fill="#3EACFF" d="M264 220h4v4h-4z"/><path fill="#71CFFF" d="M268 220h4v4h-4zM88 224h4v4h-4z"/><path fill="#3EACFF" d="M92 224h4v4h-4z"/><path fill="#D70DCF" d="M96 224h4v4h-4z"/><path fill="#F7579A" d="M100 224h4v4h-4zM104 224h4v4h-4z"/><path fill="#F17CE2" d="M108 224h4v4h-4zM112 224h4v4h-4zM116 224h4v4h-4zM120 224h4v4h-4z"/><path fill="#F7579A" d="M124 224h4v4h-4zM128 224h4v4h-4zM132 224h4v4h-4zM136 224h4v4h-4zM140 224h4v4h-4zM144 224h4v4h-4zM148 224h4v4h-4zM152 224h4v4h-4zM156 224h4v4h-4zM160 224h4v4h-4zM164 224h4v4h-4zM168 224h4v4h-4zM172 224h4v4h-4zM176 224h4v4h-4zM180 224h4v4h-4zM184 224h4v4h-4zM188 224h4v4h-4zM192 224h4v4h-4zM196 224h4v4h-4zM200 224h4v4h-4zM204 224h4v4h-4zM208 224h4v4h-4zM212 224h4v4h-4zM216 224h4v4h-4zM220 224h4v4h-4zM224 224h4v4h-4z"/><path fill="#F17CE2" d="M228 224h4v4h-4zM232 224h4v4h-4zM236 224h4v4h-4zM240 224h4v4h-4zM244 224h4v4h-4zM248 224h4v4h-4zM252 224h4v4h-4zM256 224h4v4h-4z"/><path fill="#B913F1" d="M260 224h4v4h-4z"/><path fill="#3EACFF" d="M264 224h4v4h-4z"/><path fill="#71CFFF" d="M268 224h4v4h-4zM88 228h4v4h-4z"/><path fill="#3EACFF" d="M92 228h4v4h-4z"/><path fill="#D70DCF" d="M96 228h4v4h-4z"/><path fill="#F7579A" d="M100 228h4v4h-4zM104 228h4v4h-4z"/><path fill="#F17CE2" d="M108 228h4v4h-4zM112 228h4v4h-4zM116 228h4v4h-4zM120 228h4v4h-4z"/><path fill="#F7579A" d="M124 228h4v4h-4zM128 228h4v4h-4zM132 228h4v4h-4zM136 228h4v4h-4zM140 228h4v4h-4zM144 228h4v4h-4zM148 228h4v4h-4zM152 228h4v4h-4zM156 228h4v4h-4zM160 228h4v4h-4zM164 228h4v4h-4zM168 228h4v4h-4zM172 228h4v4h-4zM176 228h4v4h-4zM180 228h4v4h-4zM184 228h4v4h-4zM188 228h4v4h-4zM192 228h4v4h-4zM196 228h4v4h-4zM200 228h4v4h-4zM204 228h4v4h-4zM208 228h4v4h-4zM212 228h4v4h-4zM216 228h4v4h-4zM220 228h4v4h-4zM224 228h4v4h-4z"/><path fill="#F17CE2" d="M228 228h4v4h-4zM232 228h4v4h-4zM236 228h4v4h-4zM240 228h4v4h-4zM244 228h4v4h-4zM248 228h4v4h-4zM252 228h4v4h-4zM256 228h4v4h-4z"/><path fill="#B913F1" d="M260 228h4v4h-4z"/><path fill="#3EACFF" d="M264 228h4v4h-4z"/><path fill="#71CFFF" d="M268 228h4v4h-4zM88 232h4v4h-4z"/><path fill="#3EACFF" d="M92 232h4v4h-4z"/><path fill="#D70DCF" d="M96 232h4v4h-4z"/><path fill="#F7579A" d="M100 232h4v4h-4zM104 232h4v4h-4z"/><path fill="#F17CE2" d="M108 232h4v4h-4zM112 232h4v4h-4zM116 232h4v4h-4zM120 232h4v4h-4z"/><path fill="#F7579A" d="M124 232h4v4h-4zM128 232h4v4h-4zM132 232h4v4h-4zM136 232h4v4h-4zM140 232h4v4h-4zM144 232h4v4h-4zM148 232h4v4h-4zM152 232h4v4h-4zM156 232h4v4h-4zM160 232h4v4h-4zM164 232h4v4h-4zM168 232h4v4h-4zM172 232h4v4h-4zM176 232h4v4h-4zM180 232h4v4h-4zM184 232h4v4h-4zM188 232h4v4h-4zM192 232h4v4h-4zM196 232h4v4h-4zM200 232h4v4h-4zM204 232h4v4h-4zM208 232h4v4h-4zM212 232h4v4h-4zM216 232h4v4h-4zM220 232h4v4h-4zM224 232h4v4h-4zM228 232h4v4h-4z"/><path fill="#F17CE2" d="M232 232h4v4h-4zM236 232h4v4h-4zM240 232h4v4h-4zM244 232h4v4h-4zM248 232h4v4h-4zM252 232h4v4h-4zM256 232h4v4h-4z"/><path fill="#B913F1" d="M260 232h4v4h-4z"/><path fill="#3EACFF" d="M264 232h4v4h-4z"/><path fill="#71CFFF" d="M268 232h4v4h-4zM88 236h4v4h-4z"/><path fill="#3EACFF" d="M92 236h4v4h-4z"/><path fill="#D70DCF" d="M96 236h4v4h-4z"/><path fill="#F7579A" d="M100 236h4v4h-4zM104 236h4v4h-4zM108 236h4v4h-4z"/><path fill="#F17CE2" d="M112 236h4v4h-4zM116 236h4v4h-4zM120 236h4v4h-4zM124 236h4v4h-4z"/><path fill="#F7579A" d="M128 236h4v4h-4zM132 236h4v4h-4zM136 236h4v4h-4zM140 236h4v4h-4zM144 236h4v4h-4zM148 236h4v4h-4zM152 236h4v4h-4zM156 236h4v4h-4zM160 236h4v4h-4zM164 236h4v4h-4zM168 236h4v4h-4zM172 236h4v4h-4zM176 236h4v4h-4zM180 236h4v4h-4zM184 236h4v4h-4zM188 236h4v4h-4zM192 236h4v4h-4zM196 236h4v4h-4zM200 236h4v4h-4zM204 236h4v4h-4zM208 236h4v4h-4zM212 236h4v4h-4zM216 236h4v4h-4zM220 236h4v4h-4zM224 236h4v4h-4zM228 236h4v4h-4z"/><path fill="#FD0081" d="M232 236h4v4h-4zM236 236h4v4h-4zM240 236h4v4h-4zM244 236h4v4h-4zM248 236h4v4h-4z"/><path fill="#F17CE2" d="M252 236h4v4h-4z"/><path fill="#B913F1" d="M256 236h4v4h-4z"/><path fill="#3EACFF" d="M260 236h4v4h-4z"/><path fill="#71CFFF" d="M264 236h4v4h-4zM88 240h4v4h-4z"/><path fill="#3EACFF" d="M92 240h4v4h-4z"/><path fill="#D70DCF" d="M96 240h4v4h-4z"/><path fill="#F7579A" d="M100 240h4v4h-4zM104 240h4v4h-4zM108 240h4v4h-4z"/><path fill="#F17CE2" d="M112 240h4v4h-4zM116 240h4v4h-4zM120 240h4v4h-4zM124 240h4v4h-4z"/><path fill="#F7579A" d="M128 240h4v4h-4zM132 240h4v4h-4zM136 240h4v4h-4zM140 240h4v4h-4zM144 240h4v4h-4zM148 240h4v4h-4zM152 240h4v4h-4zM156 240h4v4h-4zM160 240h4v4h-4zM164 240h4v4h-4zM168 240h4v4h-4zM172 240h4v4h-4zM176 240h4v4h-4zM180 240h4v4h-4zM184 240h4v4h-4zM188 240h4v4h-4zM192 240h4v4h-4zM196 240h4v4h-4zM200 240h4v4h-4zM204 240h4v4h-4zM208 240h4v4h-4zM212 240h4v4h-4zM216 240h4v4h-4z"/><path fill="#FD0081" d="M220 240h4v4h-4zM224 240h4v4h-4zM228 240h4v4h-4zM232 240h4v4h-4zM236 240h4v4h-4z"/><path fill="#F17CE2" d="M240 240h4v4h-4zM244 240h4v4h-4zM248 240h4v4h-4zM252 240h4v4h-4z"/><path fill="#B913F1" d="M256 240h4v4h-4z"/><path fill="#3EACFF" d="M260 240h4v4h-4z"/><path fill="#71CFFF" d="M264 240h4v4h-4z"/><path fill="#B2F6FF" d="M88 244h4v4h-4z"/><path fill="#3EACFF" d="M92 244h4v4h-4zM96 244h4v4h-4z"/><path fill="#D70DCF" d="M100 244h4v4h-4z"/><path fill="#F7579A" d="M104 244h4v4h-4zM108 244h4v4h-4z"/><path fill="#F17CE2" d="M112 244h4v4h-4zM116 244h4v4h-4zM120 244h4v4h-4zM124 244h4v4h-4z"/><path fill="#F7579A" d="M128 244h4v4h-4zM132 244h4v4h-4zM136 244h4v4h-4zM140 244h4v4h-4zM144 244h4v4h-4zM148 244h4v4h-4zM152 244h4v4h-4zM156 244h4v4h-4zM160 244h4v4h-4zM164 244h4v4h-4zM168 244h4v4h-4zM172 244h4v4h-4zM176 244h4v4h-4zM180 244h4v4h-4zM184 244h4v4h-4zM188 244h4v4h-4zM192 244h4v4h-4zM196 244h4v4h-4zM200 244h4v4h-4zM204 244h4v4h-4z"/><path fill="#FD0081" d="M208 244h4v4h-4zM212 244h4v4h-4zM216 244h4v4h-4zM220 244h4v4h-4z"/><path fill="#F7579A" d="M224 244h4v4h-4zM228 244h4v4h-4zM232 244h4v4h-4z"/><path fill="#F17CE2" d="M236 244h4v4h-4zM240 244h4v4h-4zM244 244h4v4h-4zM248 244h4v4h-4z"/><path fill="#B913F1" d="M252 244h4v4h-4z"/><path fill="#3EACFF" d="M256 244h4v4h-4z"/><path fill="#71CFFF" d="M260 244h4v4h-4z"/><path fill="#B2F6FF" d="M88 248h4v4h-4z"/><path fill="#3EACFF" d="M92 248h4v4h-4zM96 248h4v4h-4z"/><path fill="#D70DCF" d="M100 248h4v4h-4z"/><path fill="#F7579A" d="M104 248h4v4h-4zM108 248h4v4h-4zM112 248h4v4h-4z"/><path fill="#F17CE2" d="M116 248h4v4h-4zM120 248h4v4h-4zM124 248h4v4h-4z"/><path fill="#F7579A" d="M128 248h4v4h-4zM132 248h4v4h-4zM136 248h4v4h-4zM140 248h4v4h-4zM144 248h4v4h-4zM148 248h4v4h-4zM152 248h4v4h-4zM156 248h4v4h-4zM160 248h4v4h-4zM164 248h4v4h-4zM168 248h4v4h-4zM172 248h4v4h-4zM176 248h4v4h-4zM180 248h4v4h-4zM184 248h4v4h-4zM188 248h4v4h-4zM192 248h4v4h-4z"/><path fill="#FD0081" d="M196 248h4v4h-4zM200 248h4v4h-4zM204 248h4v4h-4zM208 248h4v4h-4z"/><path fill="#F7579A" d="M212 248h4v4h-4zM216 248h4v4h-4zM220 248h4v4h-4zM224 248h4v4h-4zM228 248h4v4h-4zM232 248h4v4h-4z"/><path fill="#F17CE2" d="M236 248h4v4h-4zM240 248h4v4h-4zM244 248h4v4h-4z"/><path fill="#B913F1" d="M248 248h4v4h-4z"/><path fill="#3EACFF" d="M252 248h4v4h-4zM256 248h4v4h-4z"/><path fill="#71CFFF" d="M260 248h4v4h-4z"/><path fill="#B2F6FF" d="M88 252h4v4h-4z"/><path fill="#3EACFF" d="M92 252h4v4h-4zM96 252h4v4h-4z"/><path fill="#D70DCF" d="M100 252h4v4h-4z"/><path fill="#F7579A" d="M104 252h4v4h-4zM108 252h4v4h-4zM112 252h4v4h-4z"/><path fill="#F17CE2" d="M116 252h4v4h-4zM120 252h4v4h-4zM124 252h4v4h-4zM128 252h4v4h-4z"/><path fill="#F7579A" d="M132 252h4v4h-4zM136 252h4v4h-4zM140 252h4v4h-4zM144 252h4v4h-4zM148 252h4v4h-4zM152 252h4v4h-4zM156 252h4v4h-4zM160 252h4v4h-4zM164 252h4v4h-4zM168 252h4v4h-4zM172 252h4v4h-4zM176 252h4v4h-4zM180 252h4v4h-4zM184 252h4v4h-4z"/><path fill="#FD0081" d="M188 252h4v4h-4zM192 252h4v4h-4zM196 252h4v4h-4zM200 252h4v4h-4z"/><path fill="#F7579A" d="M204 252h4v4h-4zM208 252h4v4h-4zM212 252h4v4h-4zM216 252h4v4h-4zM220 252h4v4h-4zM224 252h4v4h-4zM228 252h4v4h-4zM232 252h4v4h-4z"/><path fill="#F17CE2" d="M236 252h4v4h-4zM240 252h4v4h-4z"/><path fill="#B913F1" d="M244 252h4v4h-4z"/><path fill="#3EACFF" d="M248 252h4v4h-4zM252 252h4v4h-4z"/><path fill="#71CFFF" d="M256 252h4v4h-4z"/><path fill="#B2F6FF" d="M92 256h4v4h-4z"/><path fill="#3EACFF" d="M96 256h4v4h-4z"/><path fill="#D70DCF" d="M100 256h4v4h-4z"/><path fill="#F7579A" d="M104 256h4v4h-4zM108 256h4v4h-4zM112 256h4v4h-4zM116 256h4v4h-4z"/><path fill="#F17CE2" d="M120 256h4v4h-4zM124 256h4v4h-4zM128 256h4v4h-4z"/><path fill="#F7579A" d="M132 256h4v4h-4zM136 256h4v4h-4zM140 256h4v4h-4zM144 256h4v4h-4zM148 256h4v4h-4zM152 256h4v4h-4zM156 256h4v4h-4zM160 256h4v4h-4zM164 256h4v4h-4zM168 256h4v4h-4zM172 256h4v4h-4zM176 256h4v4h-4z"/><path fill="#FD0081" d="M180 256h4v4h-4zM184 256h4v4h-4zM188 256h4v4h-4zM192 256h4v4h-4z"/><path fill="#F7579A" d="M196 256h4v4h-4zM200 256h4v4h-4zM204 256h4v4h-4zM208 256h4v4h-4zM212 256h4v4h-4zM216 256h4v4h-4zM220 256h4v4h-4zM224 256h4v4h-4zM228 256h4v4h-4zM232 256h4v4h-4zM236 256h4v4h-4z"/><path fill="#B913F1" d="M240 256h4v4h-4z"/><path fill="#10CFFF" d="M244 256h4v4h-4z"/><path fill="#3EACFF" d="M248 256h4v4h-4z"/><path fill="#71CFFF" d="M252 256h4v4h-4z"/><path fill="#B2F6FF" d="M92 260h4v4h-4z"/><path fill="#3EACFF" d="M96 260h4v4h-4zM100 260h4v4h-4z"/><path fill="#D70DCF" d="M104 260h4v4h-4z"/><path fill="#F7579A" d="M108 260h4v4h-4zM112 260h4v4h-4zM116 260h4v4h-4z"/><path fill="#F17CE2" d="M120 260h4v4h-4zM124 260h4v4h-4zM128 260h4v4h-4zM132 260h4v4h-4z"/><path fill="#F7579A" d="M136 260h4v4h-4zM140 260h4v4h-4zM144 260h4v4h-4zM148 260h4v4h-4zM152 260h4v4h-4zM156 260h4v4h-4zM160 260h4v4h-4zM164 260h4v4h-4zM168 260h4v4h-4z"/><path fill="#FD0081" d="M172 260h4v4h-4zM176 260h4v4h-4zM180 260h4v4h-4z"/><path fill="#F7579A" d="M184 260h4v4h-4zM188 260h4v4h-4zM192 260h4v4h-4zM196 260h4v4h-4zM200 260h4v4h-4zM204 260h4v4h-4zM208 260h4v4h-4zM212 260h4v4h-4zM216 260h4v4h-4zM220 260h4v4h-4zM224 260h4v4h-4zM228 260h4v4h-4zM232 260h4v4h-4z"/><path fill="#D70DCF" d="M236 260h4v4h-4z"/><path fill="#3EACFF" d="M240 260h4v4h-4zM244 260h4v4h-4z"/><path fill="#71CFFF" d="M248 260h4v4h-4z"/><path fill="#B2F6FF" d="M96 264h4v4h-4z"/><path fill="#3EACFF" d="M100 264h4v4h-4z"/><path fill="#D70DCF" d="M104 264h4v4h-4z"/><path fill="#F7579A" d="M108 264h4v4h-4zM112 264h4v4h-4zM116 264h4v4h-4zM120 264h4v4h-4z"/><path fill="#F17CE2" d="M124 264h4v4h-4zM128 264h4v4h-4zM132 264h4v4h-4zM136 264h4v4h-4z"/><path fill="#F7579A" d="M140 264h4v4h-4zM144 264h4v4h-4zM148 264h4v4h-4zM152 264h4v4h-4zM156 264h4v4h-4zM160 264h4v4h-4z"/><path fill="#FD0081" d="M164 264h4v4h-4zM168 264h4v4h-4zM172 264h4v4h-4z"/><path fill="#F7579A" d="M176 264h4v4h-4zM180 264h4v4h-4zM184 264h4v4h-4zM188 264h4v4h-4zM192 264h4v4h-4zM196 264h4v4h-4zM200 264h4v4h-4zM204 264h4v4h-4zM208 264h4v4h-4zM212 264h4v4h-4zM216 264h4v4h-4zM220 264h4v4h-4zM224 264h4v4h-4z"/><path fill="#D70DCF" d="M228 264h4v4h-4zM232 264h4v4h-4z"/><path fill="#3EACFF" d="M236 264h4v4h-4zM240 264h4v4h-4z"/><path fill="#71CFFF" d="M244 264h4v4h-4z"/><path fill="#B2F6FF" d="M100 268h4v4h-4z"/><path fill="#3EACFF" d="M104 268h4v4h-4z"/><path fill="#D70DCF" d="M108 268h4v4h-4z"/><path fill="#F7579A" d="M112 268h4v4h-4zM116 268h4v4h-4zM120 268h4v4h-4zM124 268h4v4h-4z"/><path fill="#F17CE2" d="M128 268h4v4h-4zM132 268h4v4h-4zM136 268h4v4h-4zM140 268h4v4h-4z"/><path fill="#F7579A" d="M144 268h4v4h-4zM148 268h4v4h-4zM152 268h4v4h-4zM156 268h4v4h-4z"/><path fill="#FD0081" d="M160 268h4v4h-4zM164 268h4v4h-4zM168 268h4v4h-4z"/><path fill="#F7579A" d="M172 268h4v4h-4zM176 268h4v4h-4zM180 268h4v4h-4zM184 268h4v4h-4zM188 268h4v4h-4zM192 268h4v4h-4zM196 268h4v4h-4zM200 268h4v4h-4zM204 268h4v4h-4zM208 268h4v4h-4zM212 268h4v4h-4zM216 268h4v4h-4zM220 268h4v4h-4z"/><path fill="#D70DCF" d="M224 268h4v4h-4z"/><path fill="#3EACFF" d="M228 268h4v4h-4zM232 268h4v4h-4zM236 268h4v4h-4z"/><path fill="#B2F6FF" d="M240 268h4v4h-4zM100 272h4v4h-4z"/><path fill="#3EACFF" d="M104 272h4v4h-4zM108 272h4v4h-4z"/><path fill="#D70DCF" d="M112 272h4v4h-4z"/><path fill="#F7579A" d="M116 272h4v4h-4zM120 272h4v4h-4zM124 272h4v4h-4zM128 272h4v4h-4zM132 272h4v4h-4zM136 272h4v4h-4z"/><path fill="#F17CE2" d="M140 272h4v4h-4zM144 272h4v4h-4z"/><path fill="#F7579A" d="M148 272h4v4h-4zM152 272h4v4h-4z"/><path fill="#FD0081" d="M156 272h4v4h-4z"/><path fill="#F7579A" d="M160 272h4v4h-4zM164 272h4v4h-4zM168 272h4v4h-4zM172 272h4v4h-4zM176 272h4v4h-4zM180 272h4v4h-4zM184 272h4v4h-4zM188 272h4v4h-4zM192 272h4v4h-4zM196 272h4v4h-4zM200 272h4v4h-4zM204 272h4v4h-4zM208 272h4v4h-4zM212 272h4v4h-4z"/><path fill="#D70DCF" d="M216 272h4v4h-4zM220 272h4v4h-4z"/><path fill="#3EACFF" d="M224 272h4v4h-4zM228 272h4v4h-4z"/><path fill="#B2F6FF" d="M232 272h4v4h-4zM236 272h4v4h-4zM104 276h4v4h-4z"/><path fill="#3EACFF" d="M108 276h4v4h-4zM112 276h4v4h-4z"/><path fill="#D70DCF" d="M116 276h4v4h-4z"/><path fill="#F7579A" d="M120 276h4v4h-4zM124 276h4v4h-4zM128 276h4v4h-4zM132 276h4v4h-4zM136 276h4v4h-4zM140 276h4v4h-4zM144 276h4v4h-4zM148 276h4v4h-4z"/><path fill="#FD0081" d="M152 276h4v4h-4z"/><path fill="#F7579A" d="M156 276h4v4h-4zM160 276h4v4h-4zM164 276h4v4h-4zM168 276h4v4h-4zM172 276h4v4h-4zM176 276h4v4h-4zM180 276h4v4h-4zM184 276h4v4h-4zM188 276h4v4h-4zM192 276h4v4h-4zM196 276h4v4h-4zM200 276h4v4h-4z"/><path fill="#D70DCF" d="M204 276h4v4h-4zM208 276h4v4h-4zM212 276h4v4h-4z"/><path fill="#3EACFF" d="M216 276h4v4h-4zM220 276h4v4h-4z"/><path fill="#B2F6FF" d="M224 276h4v4h-4zM228 276h4v4h-4zM108 280h4v4h-4z"/><path fill="#3EACFF" d="M112 280h4v4h-4zM116 280h4v4h-4z"/><path fill="#D70DCF" d="M120 280h4v4h-4z"/><path fill="#F7579A" d="M124 280h4v4h-4zM128 280h4v4h-4zM132 280h4v4h-4zM136 280h4v4h-4zM140 280h4v4h-4zM144 280h4v4h-4z"/><path fill="#FD0081" d="M148 280h4v4h-4z"/><path fill="#F7579A" d="M152 280h4v4h-4zM156 280h4v4h-4zM160 280h4v4h-4zM164 280h4v4h-4zM168 280h4v4h-4zM172 280h4v4h-4zM176 280h4v4h-4zM180 280h4v4h-4zM184 280h4v4h-4zM188 280h4v4h-4z"/><path fill="#D70DCF" d="M192 280h4v4h-4zM196 280h4v4h-4zM200 280h4v4h-4z"/><path fill="#3EACFF" d="M204 280h4v4h-4zM208 280h4v4h-4zM212 280h4v4h-4z"/><path fill="#B2F6FF" d="M216 280h4v4h-4zM220 280h4v4h-4zM112 284h4v4h-4z"/><path fill="#3EACFF" d="M116 284h4v4h-4zM120 284h4v4h-4z"/><path fill="#D70DCF" d="M124 284h4v4h-4zM128 284h4v4h-4zM132 284h4v4h-4z"/><path fill="#F7579A" d="M136 284h4v4h-4zM140 284h4v4h-4zM144 284h4v4h-4zM148 284h4v4h-4zM152 284h4v4h-4zM156 284h4v4h-4zM160 284h4v4h-4zM164 284h4v4h-4zM168 284h4v4h-4zM172 284h4v4h-4z"/><path fill="#D70DCF" d="M176 284h4v4h-4zM180 284h4v4h-4zM184 284h4v4h-4zM188 284h4v4h-4z"/><path fill="#3EACFF" d="M192 284h4v4h-4zM196 284h4v4h-4zM200 284h4v4h-4z"/><path fill="#B2F6FF" d="M204 284h4v4h-4zM208 284h4v4h-4zM212 284h4v4h-4zM116 288h4v4h-4zM120 288h4v4h-4z"/><path fill="#3EACFF" d="M124 288h4v4h-4zM128 288h4v4h-4zM132 288h4v4h-4z"/><path fill="#D70DCF" d="M136 288h4v4h-4zM140 288h4v4h-4zM144 288h4v4h-4zM148 288h4v4h-4zM152 288h4v4h-4zM156 288h4v4h-4zM160 288h4v4h-4zM164 288h4v4h-4zM168 288h4v4h-4zM172 288h4v4h-4z"/><path fill="#3EACFF" d="M176 288h4v4h-4zM180 288h4v4h-4zM184 288h4v4h-4zM188 288h4v4h-4zM192 288h4v4h-4z"/><path fill="#B2F6FF" d="M196 288h4v4h-4zM200 288h4v4h-4zM124 292h4v4h-4zM128 292h4v4h-4zM132 292h4v4h-4z"/><path fill="#3EACFF" d="M136 292h4v4h-4zM140 292h4v4h-4zM144 292h4v4h-4zM148 292h4v4h-4zM152 292h4v4h-4zM156 292h4v4h-4zM160 292h4v4h-4zM164 292h4v4h-4zM168 292h4v4h-4zM172 292h4v4h-4zM176 292h4v4h-4zM180 292h4v4h-4z"/><path fill="#B2F6FF" d="M184 292h4v4h-4zM188 292h4v4h-4zM192 292h4v4h-4zM136 296h4v4h-4zM140 296h4v4h-4zM144 296h4v4h-4zM148 296h4v4h-4zM152 296h4v4h-4zM156 296h4v4h-4zM160 296h4v4h-4zM164 296h4v4h-4zM168 296h4v4h-4zM172 296h4v4h-4zM176 296h4v4h-4zM180 296h4v4h-4z"/></svg>