<svg width="384" height="384" xmlns="http://www.w3.org/2000/svg" shape-rendering="crispEdges"><path fill="#102317" d="M156 40h4v4h-4zM160 40h4v4h-4zM164 40h4v4h-4zM168 40h4v4h-4zM152 44h4v4h-4z"/><path fill="#543D67" d="M156 44h4v4h-4zM160 44h4v4h-4zM164 44h4v4h-4zM168 44h4v4h-4z"/><path fill="#102317" d="M172 44h4v4h-4zM148 48h4v4h-4z"/><path fill="#543D67" d="M152 48h4v4h-4zM156 48h4v4h-4z"/><path fill="#102317" d="M160 48h4v4h-4zM164 48h4v4h-4z"/><path fill="#543D67" d="M168 48h4v4h-4zM172 48h4v4h-4z"/><path fill="#102317" d="M176 48h4v4h-4zM148 52h4v4h-4z"/><path fill="#543D67" d="M152 52h4v4h-4z"/><path fill="#102317" d="M156 52h4v4h-4zM168 52h4v4h-4z"/><path fill="#543D67" d="M172 52h4v4h-4zM176 52h4v4h-4z"/><path fill="#102317" d="M180 52h4v4h-4zM148 56h4v4h-4z"/><path fill="#543D67" d="M152 56h4v4h-4zM156 56h4v4h-4z"/><path fill="#102317" d="M160 56h4v4h-4zM172 56h4v4h-4z"/><path fill="#543D67" d="M176 56h4v4h-4z"/><path fill="#102317" d="M180 56h4v4h-4zM100 60h4v4h-4zM104 60h4v4h-4zM108 60h4v4h-4zM112 60h4v4h-4zM116 60h4v4h-4zM120 60h4v4h-4zM124 60h4v4h-4zM128 60h4v4h-4zM132 60h4v4h-4zM152 60h4v4h-4zM156 60h4v4h-4zM160 60h4v4h-4zM172 60h4v4h-4z"/><path fill="#543D67" d="M176 60h4v4h-4z"/><path fill="#102317" d="M180 60h4v4h-4zM100 64h4v4h-4zM104 64h4v4h-4zM108 64h4v4h-4zM112 64h4v4h-4zM116 64h4v4h-4zM120 64h4v4h-4zM124 64h4v4h-4zM128 64h4v4h-4zM132 64h4v4h-4zM172 64h4v4h-4z"/><path fill="#543D67" d="M176 64h4v4h-4z"/><path fill="#102317" d="M180 64h4v4h-4z"/><path fill="#07645A" d="M184 64h4v4h-4zM188 64h4v4h-4zM192 64h4v4h-4zM196 64h4v4h-4zM200 64h4v4h-4zM204 64h4v4h-4zM208 64h4v4h-4z"/><path fill="#102317" d="M92 68h4v4h-4zM96 68h4v4h-4z"/><path fill="#543D67" d="M100 68h4v4h-4zM104 68h4v4h-4zM108 68h4v4h-4zM112 68h4v4h-4zM116 68h4v4h-4zM120 68h4v4h-4zM124 68h4v4h-4zM128 68h4v4h-4zM132 68h4v4h-4z"/><path fill="#102317" d="M136 68h4v4h-4zM140 68h4v4h-4zM172 68h4v4h-4z"/><path fill="#07645A" d="M176 68h4v4h-4zM180 68h4v4h-4z"/><path fill="#298D4F" d="M184 68h4v4h-4z"/><path fill="#48A838" d="M188 68h4v4h-4zM192 68h4v4h-4z"/><path fill="#71C25E" d="M196 68h4v4h-4zM200 68h4v4h-4zM204 68h4v4h-4zM208 68h4v4h-4z"/><path fill="#07645A" d="M212 68h4v4h-4zM216 68h4v4h-4zM220 68h4v4h-4z"/><path fill="#102317" d="M92 72h4v4h-4zM96 72h4v4h-4zM100 72h4v4h-4zM104 72h4v4h-4zM108 72h4v4h-4zM112 72h4v4h-4zM116 72h4v4h-4zM120 72h4v4h-4zM124 72h4v4h-4zM128 72h4v4h-4zM132 72h4v4h-4zM136 72h4v4h-4z"/><path fill="#07645A" d="M172 72h4v4h-4z"/><path fill="#298D4F" d="M176 72h4v4h-4zM180 72h4v4h-4z"/><path fill="#48A838" d="M184 72h4v4h-4zM188 72h4v4h-4zM192 72h4v4h-4zM196 72h4v4h-4z"/><path fill="#71C25E" d="M200 72h4v4h-4zM204 72h4v4h-4zM208 72h4v4h-4zM212 72h4v4h-4zM216 72h4v4h-4zM220 72h4v4h-4z"/><path fill="#07645A" d="M224 72h4v4h-4z"/><path fill="#102317" d="M84 76h4v4h-4zM88 76h4v4h-4z"/><path fill="#543D67" d="M92 76h4v4h-4zM96 76h4v4h-4zM100 76h4v4h-4z"/><path fill="#102317" d="M104 76h4v4h-4zM108 76h4v4h-4z"/><path fill="#543D67" d="M112 76h4v4h-4zM116 76h4v4h-4zM120 76h4v4h-4zM124 76h4v4h-4z"/><path fill="#102317" d="M128 76h4v4h-4zM132 76h4v4h-4z"/><path fill="#543D67" d="M136 76h4v4h-4z"/><path fill="#102317" d="M140 76h4v4h-4z"/><path fill="#07645A" d="M168 76h4v4h-4z"/><path fill="#298D4F" d="M172 76h4v4h-4zM176 76h4v4h-4z"/><path fill="#48A838" d="M180 76h4v4h-4zM184 76h4v4h-4zM188 76h4v4h-4z"/><path fill="#298D4F" d="M192 76h4v4h-4zM196 76h4v4h-4z"/><path fill="#71C25E" d="M200 76h4v4h-4zM204 76h4v4h-4zM208 76h4v4h-4zM212 76h4v4h-4zM216 76h4v4h-4zM220 76h4v4h-4z"/><path fill="#07645A" d="M224 76h4v4h-4zM72 80h4v4h-4zM76 80h4v4h-4z"/><path fill="#102317" d="M80 80h4v4h-4z"/><path fill="#964FCE" d="M84 80h4v4h-4z"/><path fill="#543D67" d="M88 80h4v4h-4zM92 80h4v4h-4z"/><path fill="#964FCE" d="M96 80h4v4h-4z"/><path fill="#102317" d="M100 80h4v4h-4z"/><path fill="#D592E9" d="M104 80h4v4h-4zM108 80h4v4h-4z"/><path fill="#964FCE" d="M112 80h4v4h-4zM116 80h4v4h-4zM120 80h4v4h-4z"/><path fill="#102317" d="M124 80h4v4h-4z"/><path fill="#D592E9" d="M128 80h4v4h-4zM132 80h4v4h-4z"/><path fill="#964FCE" d="M136 80h4v4h-4z"/><path fill="#6D32B3" d="M140 80h4v4h-4z"/><path fill="#102317" d="M144 80h4v4h-4z"/><path fill="#07645A" d="M164 80h4v4h-4z"/><path fill="#298D4F" d="M168 80h4v4h-4zM172 80h4v4h-4z"/><path fill="#48A838" d="M176 80h4v4h-4zM180 80h4v4h-4z"/><path fill="#71C25E" d="M184 80h4v4h-4zM188 80h4v4h-4zM192 80h4v4h-4zM196 80h4v4h-4z"/><path fill="#298D4F" d="M200 80h4v4h-4zM204 80h4v4h-4z"/><path fill="#71C25E" d="M208 80h4v4h-4z"/><path fill="#07645A" d="M212 80h4v4h-4zM216 80h4v4h-4zM220 80h4v4h-4zM64 84h4v4h-4zM68 84h4v4h-4z"/><path fill="#298D4F" d="M72 84h4v4h-4zM76 84h4v4h-4z"/><path fill="#102317" d="M80 84h4v4h-4z"/><path fill="#D592E9" d="M84 84h4v4h-4z"/><path fill="#964FCE" d="M88 84h4v4h-4z"/><path fill="#543D67" d="M92 84h4v4h-4z"/><path fill="#964FCE" d="M96 84h4v4h-4zM100 84h4v4h-4z"/><path fill="#D592E9" d="M104 84h4v4h-4zM108 84h4v4h-4zM112 84h4v4h-4zM116 84h4v4h-4z"/><path fill="#964FCE" d="M120 84h4v4h-4z"/><path fill="#D592E9" d="M124 84h4v4h-4zM128 84h4v4h-4zM132 84h4v4h-4z"/><path fill="#964FCE" d="M136 84h4v4h-4z"/><path fill="#6D32B3" d="M140 84h4v4h-4z"/><path fill="#102317" d="M144 84h4v4h-4z"/><path fill="#07645A" d="M160 84h4v4h-4z"/><path fill="#298D4F" d="M164 84h4v4h-4zM168 84h4v4h-4zM172 84h4v4h-4z"/><path fill="#48A838" d="M176 84h4v4h-4z"/><path fill="#71C25E" d="M180 84h4v4h-4zM184 84h4v4h-4zM188 84h4v4h-4zM192 84h4v4h-4zM196 84h4v4h-4zM200 84h4v4h-4z"/><path fill="#07645A" d="M204 84h4v4h-4zM208 84h4v4h-4zM60 88h4v4h-4z"/><path fill="#298D4F" d="M64 88h4v4h-4zM68 88h4v4h-4zM72 88h4v4h-4zM76 88h4v4h-4z"/><path fill="#102317" d="M80 88h4v4h-4z"/><path fill="#D592E9" d="M84 88h4v4h-4zM88 88h4v4h-4z"/><path fill="#102317" d="M92 88h4v4h-4zM96 88h4v4h-4zM100 88h4v4h-4zM104 88h4v4h-4z"/><path fill="#FFF" d="M108 88h4v4h-4z"/><path fill="#102317" d="M112 88h4v4h-4zM116 88h4v4h-4zM120 88h4v4h-4zM124 88h4v4h-4zM128 88h4v4h-4z"/><path fill="#FFF" d="M132 88h4v4h-4z"/><path fill="#102317" d="M136 88h4v4h-4zM140 88h4v4h-4zM144 88h4v4h-4z"/><path fill="#07645A" d="M156 88h4v4h-4z"/><path fill="#298D4F" d="M160 88h4v4h-4zM164 88h4v4h-4zM168 88h4v4h-4z"/><path fill="#48A838" d="M172 88h4v4h-4zM176 88h4v4h-4z"/><path fill="#71C25E" d="M180 88h4v4h-4zM184 88h4v4h-4zM188 88h4v4h-4zM192 88h4v4h-4zM196 88h4v4h-4zM200 88h4v4h-4z"/><path fill="#07645A" d="M204 88h4v4h-4zM56 92h4v4h-4zM60 92h4v4h-4z"/><path fill="#298D4F" d="M64 92h4v4h-4zM68 92h4v4h-4zM72 92h4v4h-4zM76 92h4v4h-4z"/><path fill="#102317" d="M80 92h4v4h-4z"/><path fill="#964FCE" d="M84 92h4v4h-4z"/><path fill="#D592E9" d="M88 92h4v4h-4z"/><path fill="#6D32B3" d="M92 92h4v4h-4z"/><path fill="#964FCE" d="M96 92h4v4h-4z"/><path fill="#102317" d="M100 92h4v4h-4z"/><path fill="#FFF" d="M104 92h4v4h-4z"/><path fill="#102317" d="M108 92h4v4h-4zM112 92h4v4h-4zM116 92h4v4h-4zM120 92h4v4h-4zM124 92h4v4h-4z"/><path fill="#FFF" d="M128 92h4v4h-4z"/><path fill="#102317" d="M132 92h4v4h-4zM136 92h4v4h-4zM140 92h4v4h-4zM144 92h4v4h-4zM148 92h4v4h-4z"/><path fill="#07645A" d="M152 92h4v4h-4z"/><path fill="#298D4F" d="M156 92h4v4h-4zM160 92h4v4h-4z"/><path fill="#48A838" d="M164 92h4v4h-4zM168 92h4v4h-4zM172 92h4v4h-4zM176 92h4v4h-4zM180 92h4v4h-4z"/><path fill="#71C25E" d="M184 92h4v4h-4zM188 92h4v4h-4zM192 92h4v4h-4zM196 92h4v4h-4zM200 92h4v4h-4zM204 92h4v4h-4z"/><path fill="#07645A" d="M208 92h4v4h-4zM64 96h4v4h-4zM68 96h4v4h-4z"/><path fill="#298D4F" d="M72 96h4v4h-4zM76 96h4v4h-4z"/><path fill="#102317" d="M80 96h4v4h-4z"/><path fill="#F7D06B" d="M84 96h4v4h-4z"/><path fill="#D592E9" d="M88 96h4v4h-4z"/><path fill="#6D32B3" d="M92 96h4v4h-4z"/><path fill="#D592E9" d="M96 96h4v4h-4z"/><path fill="#102317" d="M100 96h4v4h-4zM104 96h4v4h-4zM108 96h4v4h-4zM112 96h4v4h-4z"/><path fill="#D592E9" d="M116 96h4v4h-4zM120 96h4v4h-4zM124 96h4v4h-4z"/><path fill="#102317" d="M128 96h4v4h-4zM132 96h4v4h-4zM136 96h4v4h-4zM140 96h4v4h-4z"/><path fill="#543D67" d="M144 96h4v4h-4z"/><path fill="#07645A" d="M148 96h4v4h-4z"/><path fill="#48A838" d="M152 96h4v4h-4z"/><path fill="#298D4F" d="M156 96h4v4h-4z"/><path fill="#07645A" d="M160 96h4v4h-4z"/><path fill="#298D4F" d="M164 96h4v4h-4zM168 96h4v4h-4zM172 96h4v4h-4zM176 96h4v4h-4zM180 96h4v4h-4z"/><path fill="#71C25E" d="M184 96h4v4h-4zM188 96h4v4h-4z"/><path fill="#07645A" d="M192 96h4v4h-4zM196 96h4v4h-4zM200 96h4v4h-4z"/><path fill="#71C25E" d="M204 96h4v4h-4z"/><path fill="#07645A" d="M208 96h4v4h-4zM72 100h4v4h-4zM76 100h4v4h-4z"/><path fill="#298D4F" d="M80 100h4v4h-4z"/><path fill="#102317" d="M84 100h4v4h-4z"/><path fill="#6D32B3" d="M88 100h4v4h-4z"/><path fill="#D592E9" d="M92 100h4v4h-4zM96 100h4v4h-4zM100 100h4v4h-4zM104 100h4v4h-4zM108 100h4v4h-4zM112 100h4v4h-4z"/><path fill="#964FCE" d="M116 100h4v4h-4z"/><path fill="#D592E9" d="M120 100h4v4h-4z"/><path fill="#964FCE" d="M124 100h4v4h-4z"/><path fill="#D592E9" d="M128 100h4v4h-4zM132 100h4v4h-4zM136 100h4v4h-4z"/><path fill="#102317" d="M140 100h4v4h-4z"/><path fill="#07645A" d="M144 100h4v4h-4z"/><path fill="#48A838" d="M148 100h4v4h-4z"/><path fill="#298D4F" d="M152 100h4v4h-4z"/><path fill="#07645A" d="M156 100h4v4h-4z"/><path fill="#48A838" d="M160 100h4v4h-4zM164 100h4v4h-4zM168 100h4v4h-4zM172 100h4v4h-4zM176 100h4v4h-4zM180 100h4v4h-4z"/><path fill="#298D4F" d="M184 100h4v4h-4z"/><path fill="#07645A" d="M188 100h4v4h-4zM204 100h4v4h-4zM80 104h4v4h-4z"/><path fill="#102317" d="M84 104h4v4h-4z"/><path fill="#6D32B3" d="M88 104h4v4h-4z"/><path fill="#D592E9" d="M92 104h4v4h-4zM96 104h4v4h-4z"/><path fill="#543D67" d="M100 104h4v4h-4z"/><path fill="#D592E9" d="M104 104h4v4h-4zM108 104h4v4h-4zM112 104h4v4h-4zM116 104h4v4h-4zM120 104h4v4h-4zM124 104h4v4h-4zM128 104h4v4h-4zM132 104h4v4h-4zM136 104h4v4h-4z"/><path fill="#102317" d="M140 104h4v4h-4z"/><path fill="#07645A" d="M144 104h4v4h-4z"/><path fill="#48A838" d="M148 104h4v4h-4z"/><path fill="#07645A" d="M152 104h4v4h-4z"/><path fill="#298D4F" d="M156 104h4v4h-4z"/><path fill="#48A838" d="M160 104h4v4h-4zM164 104h4v4h-4zM168 104h4v4h-4zM172 104h4v4h-4zM176 104h4v4h-4zM180 104h4v4h-4zM184 104h4v4h-4zM188 104h4v4h-4z"/><path fill="#07645A" d="M192 104h4v4h-4zM196 104h4v4h-4z"/><path fill="#102317" d="M84 108h4v4h-4z"/><path fill="#964FCE" d="M88 108h4v4h-4zM92 108h4v4h-4z"/><path fill="#D592E9" d="M96 108h4v4h-4zM100 108h4v4h-4z"/><path fill="#543D67" d="M104 108h4v4h-4z"/><path fill="#FAC0E5" d="M108 108h4v4h-4zM112 108h4v4h-4zM116 108h4v4h-4zM120 108h4v4h-4zM124 108h4v4h-4z"/><path fill="#543D67" d="M128 108h4v4h-4z"/><path fill="#964FCE" d="M132 108h4v4h-4zM136 108h4v4h-4z"/><path fill="#102317" d="M140 108h4v4h-4z"/><path fill="#48A838" d="M144 108h4v4h-4z"/><path fill="#298D4F" d="M148 108h4v4h-4z"/><path fill="#07645A" d="M152 108h4v4h-4z"/><path fill="#298D4F" d="M156 108h4v4h-4z"/><path fill="#48A838" d="M160 108h4v4h-4zM164 108h4v4h-4zM168 108h4v4h-4zM172 108h4v4h-4zM176 108h4v4h-4zM180 108h4v4h-4zM184 108h4v4h-4zM188 108h4v4h-4zM192 108h4v4h-4zM196 108h4v4h-4z"/><path fill="#07645A" d="M200 108h4v4h-4z"/><path fill="#0D2310" d="M80 112h4v4h-4z"/><path fill="#6D32B3" d="M84 112h4v4h-4z"/><path fill="#964FCE" d="M88 112h4v4h-4zM92 112h4v4h-4zM96 112h4v4h-4z"/><path fill="#D592E9" d="M100 112h4v4h-4zM104 112h4v4h-4zM108 112h4v4h-4zM112 112h4v4h-4zM116 112h4v4h-4zM120 112h4v4h-4zM124 112h4v4h-4zM128 112h4v4h-4zM132 112h4v4h-4z"/><path fill="#102317" d="M136 112h4v4h-4z"/><path fill="#48A838" d="M140 112h4v4h-4zM144 112h4v4h-4z"/><path fill="#07645A" d="M148 112h4v4h-4z"/><path fill="#298D4F" d="M152 112h4v4h-4z"/><path fill="#48A838" d="M156 112h4v4h-4zM160 112h4v4h-4zM164 112h4v4h-4zM168 112h4v4h-4zM172 112h4v4h-4zM176 112h4v4h-4zM180 112h4v4h-4zM184 112h4v4h-4zM188 112h4v4h-4zM192 112h4v4h-4z"/><path fill="#07645A" d="M196 112h4v4h-4z"/><path fill="#102317" d="M80 116h4v4h-4z"/><path fill="#6D32B3" d="M84 116h4v4h-4z"/><path fill="#964FCE" d="M88 116h4v4h-4zM92 116h4v4h-4zM96 116h4v4h-4zM100 116h4v4h-4zM104 116h4v4h-4z"/><path fill="#D592E9" d="M108 116h4v4h-4zM112 116h4v4h-4zM116 116h4v4h-4zM120 116h4v4h-4zM124 116h4v4h-4zM128 116h4v4h-4z"/><path fill="#964FCE" d="M132 116h4v4h-4z"/><path fill="#102317" d="M136 116h4v4h-4z"/><path fill="#48A838" d="M140 116h4v4h-4zM144 116h4v4h-4z"/><path fill="#07645A" d="M148 116h4v4h-4z"/><path fill="#298D4F" d="M152 116h4v4h-4z"/><path fill="#48A838" d="M156 116h4v4h-4z"/><path fill="#298D4F" d="M160 116h4v4h-4zM164 116h4v4h-4zM168 116h4v4h-4zM172 116h4v4h-4zM176 116h4v4h-4zM180 116h4v4h-4z"/><path fill="#07645A" d="M184 116h4v4h-4zM188 116h4v4h-4zM192 116h4v4h-4zM196 116h4v4h-4z"/><path fill="#102317" d="M80 120h4v4h-4z"/><path fill="#6D32B3" d="M84 120h4v4h-4zM88 120h4v4h-4z"/><path fill="#964FCE" d="M92 120h4v4h-4zM96 120h4v4h-4zM100 120h4v4h-4zM104 120h4v4h-4zM108 120h4v4h-4zM112 120h4v4h-4zM116 120h4v4h-4zM120 120h4v4h-4zM124 120h4v4h-4z"/><path fill="#102317" d="M128 120h4v4h-4zM132 120h4v4h-4z"/><path fill="#298D4F" d="M136 120h4v4h-4zM140 120h4v4h-4z"/><path fill="#07645A" d="M144 120h4v4h-4z"/><path fill="#298D4F" d="M148 120h4v4h-4zM152 120h4v4h-4zM156 120h4v4h-4z"/><path fill="#48A838" d="M160 120h4v4h-4zM164 120h4v4h-4zM168 120h4v4h-4zM172 120h4v4h-4z"/><path fill="#298D4F" d="M176 120h4v4h-4z"/><path fill="#07645A" d="M180 120h4v4h-4z"/><path fill="#71C25E" d="M184 120h4v4h-4zM188 120h4v4h-4zM192 120h4v4h-4zM196 120h4v4h-4z"/><path fill="#07645A" d="M200 120h4v4h-4zM204 120h4v4h-4zM208 120h4v4h-4zM212 120h4v4h-4z"/><path fill="#102317" d="M80 124h4v4h-4z"/><path fill="#543D67" d="M84 124h4v4h-4z"/><path fill="#6D32B3" d="M88 124h4v4h-4z"/><path fill="#102317" d="M92 124h4v4h-4z"/><path fill="#6D32B3" d="M96 124h4v4h-4z"/><path fill="#964FCE" d="M100 124h4v4h-4zM104 124h4v4h-4zM108 124h4v4h-4zM112 124h4v4h-4zM116 124h4v4h-4zM120 124h4v4h-4zM124 124h4v4h-4z"/><path fill="#102317" d="M128 124h4v4h-4z"/><path fill="#07645A" d="M132 124h4v4h-4z"/><path fill="#298D4F" d="M136 124h4v4h-4zM140 124h4v4h-4z"/><path fill="#07645A" d="M144 124h4v4h-4z"/><path fill="#298D4F" d="M148 124h4v4h-4zM152 124h4v4h-4z"/><path fill="#48A838" d="M156 124h4v4h-4zM160 124h4v4h-4z"/><path fill="#298D4F" d="M164 124h4v4h-4zM168 124h4v4h-4zM172 124h4v4h-4z"/><path fill="#71C25E" d="M176 124h4v4h-4zM180 124h4v4h-4zM184 124h4v4h-4zM188 124h4v4h-4zM192 124h4v4h-4zM196 124h4v4h-4z"/><path fill="#48A838" d="M200 124h4v4h-4zM204 124h4v4h-4z"/><path fill="#71C25E" d="M208 124h4v4h-4zM212 124h4v4h-4z"/><path fill="#07645A" d="M216 124h4v4h-4z"/><path fill="#102317" d="M80 128h4v4h-4z"/><path fill="#543D67" d="M84 128h4v4h-4z"/><path fill="#6D32B3" d="M88 128h4v4h-4zM92 128h4v4h-4z"/><path fill="#102317" d="M96 128h4v4h-4zM100 128h4v4h-4zM104 128h4v4h-4z"/><path fill="#964FCE" d="M108 128h4v4h-4zM112 128h4v4h-4zM116 128h4v4h-4zM120 128h4v4h-4zM124 128h4v4h-4z"/><path fill="#48A838" d="M128 128h4v4h-4z"/><path fill="#AA8115" d="M132 128h4v4h-4z"/><path fill="#298D4F" d="M136 128h4v4h-4zM140 128h4v4h-4z"/><path fill="#07645A" d="M144 128h4v4h-4z"/><path fill="#298D4F" d="M148 128h4v4h-4zM152 128h4v4h-4zM156 128h4v4h-4z"/><path fill="#07645A" d="M160 128h4v4h-4zM164 128h4v4h-4zM168 128h4v4h-4zM172 128h4v4h-4zM176 128h4v4h-4zM180 128h4v4h-4zM184 128h4v4h-4z"/><path fill="#48A838" d="M188 128h4v4h-4zM192 128h4v4h-4zM196 128h4v4h-4z"/><path fill="#71C25E" d="M200 128h4v4h-4zM204 128h4v4h-4zM208 128h4v4h-4zM212 128h4v4h-4zM216 128h4v4h-4z"/><path fill="#07645A" d="M220 128h4v4h-4zM224 128h4v4h-4z"/><path fill="#102317" d="M76 132h4v4h-4z"/><path fill="#543D67" d="M80 132h4v4h-4zM84 132h4v4h-4z"/><path fill="#AA8115" d="M88 132h4v4h-4zM92 132h4v4h-4zM96 132h4v4h-4zM100 132h4v4h-4zM104 132h4v4h-4z"/><path fill="#102317" d="M108 132h4v4h-4z"/><path fill="#964FCE" d="M112 132h4v4h-4zM116 132h4v4h-4zM120 132h4v4h-4z"/><path fill="#F7EB5F" d="M124 132h4v4h-4zM128 132h4v4h-4zM132 132h4v4h-4z"/><path fill="#AA8115" d="M136 132h4v4h-4z"/><path fill="#298D4F" d="M140 132h4v4h-4z"/><path fill="#07645A" d="M144 132h4v4h-4z"/><path fill="#298D4F" d="M148 132h4v4h-4zM152 132h4v4h-4z"/><path fill="#07645A" d="M156 132h4v4h-4zM160 132h4v4h-4zM164 132h4v4h-4z"/><path fill="#298D4F" d="M168 132h4v4h-4z"/><path fill="#48A838" d="M172 132h4v4h-4zM176 132h4v4h-4zM180 132h4v4h-4zM184 132h4v4h-4z"/><path fill="#07645A" d="M188 132h4v4h-4zM192 132h4v4h-4zM196 132h4v4h-4z"/><path fill="#298D4F" d="M200 132h4v4h-4zM204 132h4v4h-4zM208 132h4v4h-4z"/><path fill="#71C25E" d="M212 132h4v4h-4zM216 132h4v4h-4zM220 132h4v4h-4zM224 132h4v4h-4z"/><path fill="#07645A" d="M228 132h4v4h-4zM68 136h4v4h-4z"/><path fill="#171123" d="M72 136h4v4h-4zM76 136h4v4h-4z"/><path fill="#07645A" d="M80 136h4v4h-4zM84 136h4v4h-4z"/><path fill="#AA8115" d="M88 136h4v4h-4z"/><path fill="#F7EB5F" d="M92 136h4v4h-4zM96 136h4v4h-4zM100 136h4v4h-4z"/><path fill="#102317" d="M104 136h4v4h-4z"/><path fill="#543D67" d="M108 136h4v4h-4zM112 136h4v4h-4zM116 136h4v4h-4z"/><path fill="#0D2310" d="M120 136h4v4h-4z"/><path fill="#F7EB5F" d="M124 136h4v4h-4zM128 136h4v4h-4zM132 136h4v4h-4z"/><path fill="#AA8115" d="M136 136h4v4h-4z"/><path fill="#07645A" d="M140 136h4v4h-4z"/><path fill="#298D4F" d="M144 136h4v4h-4z"/><path fill="#07645A" d="M148 136h4v4h-4zM152 136h4v4h-4z"/><path fill="#298D4F" d="M156 136h4v4h-4z"/><path fill="#48A838" d="M160 136h4v4h-4zM164 136h4v4h-4z"/><path fill="#298D4F" d="M168 136h4v4h-4z"/><path fill="#48A838" d="M172 136h4v4h-4zM176 136h4v4h-4zM180 136h4v4h-4zM184 136h4v4h-4z"/><path fill="#298D4F" d="M188 136h4v4h-4z"/><path fill="#48A838" d="M192 136h4v4h-4zM196 136h4v4h-4zM200 136h4v4h-4zM204 136h4v4h-4zM208 136h4v4h-4z"/><path fill="#298D4F" d="M212 136h4v4h-4zM216 136h4v4h-4zM220 136h4v4h-4z"/><path fill="#48A838" d="M224 136h4v4h-4zM228 136h4v4h-4z"/><path fill="#07645A" d="M232 136h4v4h-4zM236 136h4v4h-4zM64 140h4v4h-4z"/><path fill="#48A838" d="M68 140h4v4h-4zM72 140h4v4h-4zM76 140h4v4h-4z"/><path fill="#298D4F" d="M80 140h4v4h-4zM84 140h4v4h-4zM88 140h4v4h-4z"/><path fill="#AA8115" d="M92 140h4v4h-4z"/><path fill="#F7EB5F" d="M96 140h4v4h-4zM100 140h4v4h-4z"/><path fill="#102317" d="M104 140h4v4h-4z"/><path fill="#543D67" d="M108 140h4v4h-4zM112 140h4v4h-4zM116 140h4v4h-4zM120 140h4v4h-4z"/><path fill="#F7EB5F" d="M124 140h4v4h-4zM128 140h4v4h-4z"/><path fill="#AA8115" d="M132 140h4v4h-4z"/><path fill="#48A838" d="M136 140h4v4h-4z"/><path fill="#07645A" d="M140 140h4v4h-4zM144 140h4v4h-4zM148 140h4v4h-4zM152 140h4v4h-4z"/><path fill="#48A838" d="M156 140h4v4h-4zM160 140h4v4h-4zM164 140h4v4h-4z"/><path fill="#298D4F" d="M168 140h4v4h-4z"/><path fill="#48A838" d="M172 140h4v4h-4zM176 140h4v4h-4zM180 140h4v4h-4z"/><path fill="#298D4F" d="M184 140h4v4h-4z"/><path fill="#48A838" d="M188 140h4v4h-4zM192 140h4v4h-4zM196 140h4v4h-4zM200 140h4v4h-4zM204 140h4v4h-4zM208 140h4v4h-4z"/><path fill="#298D4F" d="M212 140h4v4h-4z"/><path fill="#48A838" d="M216 140h4v4h-4zM220 140h4v4h-4z"/><path fill="#298D4F" d="M224 140h4v4h-4zM228 140h4v4h-4z"/><path fill="#71C25E" d="M232 140h4v4h-4zM236 140h4v4h-4z"/><path fill="#07645A" d="M240 140h4v4h-4zM60 144h4v4h-4z"/><path fill="#48A838" d="M64 144h4v4h-4z"/><path fill="#298D4F" d="M68 144h4v4h-4zM72 144h4v4h-4zM76 144h4v4h-4z"/><path fill="#48A838" d="M80 144h4v4h-4zM84 144h4v4h-4z"/><path fill="#298D4F" d="M88 144h4v4h-4z"/><path fill="#48A838" d="M92 144h4v4h-4z"/><path fill="#AA8115" d="M96 144h4v4h-4zM100 144h4v4h-4z"/><path fill="#102317" d="M104 144h4v4h-4z"/><path fill="#543D67" d="M108 144h4v4h-4z"/><path fill="#102317" d="M112 144h4v4h-4zM116 144h4v4h-4z"/><path fill="#543D67" d="M120 144h4v4h-4z"/><path fill="#AA8115" d="M124 144h4v4h-4zM128 144h4v4h-4z"/><path fill="#48A838" d="M132 144h4v4h-4zM136 144h4v4h-4z"/><path fill="#07645A" d="M140 144h4v4h-4zM144 144h4v4h-4zM148 144h4v4h-4z"/><path fill="#48A838" d="M152 144h4v4h-4zM156 144h4v4h-4zM160 144h4v4h-4z"/><path fill="#298D4F" d="M164 144h4v4h-4z"/><path fill="#48A838" d="M168 144h4v4h-4zM172 144h4v4h-4z"/><path fill="#71C25E" d="M176 144h4v4h-4zM180 144h4v4h-4z"/><path fill="#298D4F" d="M184 144h4v4h-4z"/><path fill="#48A838" d="M188 144h4v4h-4z"/><path fill="#71C25E" d="M192 144h4v4h-4zM196 144h4v4h-4z"/><path fill="#48A838" d="M200 144h4v4h-4zM204 144h4v4h-4zM208 144h4v4h-4z"/><path fill="#298D4F" d="M212 144h4v4h-4z"/><path fill="#71C25E" d="M216 144h4v4h-4zM220 144h4v4h-4zM224 144h4v4h-4z"/><path fill="#48A838" d="M228 144h4v4h-4z"/><path fill="#298D4F" d="M232 144h4v4h-4z"/><path fill="#71C25E" d="M236 144h4v4h-4zM240 144h4v4h-4z"/><path fill="#07645A" d="M244 144h4v4h-4zM52 148h4v4h-4zM56 148h4v4h-4z"/><path fill="#48A838" d="M60 148h4v4h-4z"/><path fill="#298D4F" d="M64 148h4v4h-4z"/><path fill="#48A838" d="M68 148h4v4h-4zM72 148h4v4h-4zM76 148h4v4h-4zM80 148h4v4h-4z"/><path fill="#298D4F" d="M84 148h4v4h-4z"/><path fill="#48A838" d="M88 148h4v4h-4zM92 148h4v4h-4zM96 148h4v4h-4zM100 148h4v4h-4zM104 148h4v4h-4z"/><path fill="#102317" d="M108 148h4v4h-4z"/><path fill="#298D4F" d="M112 148h4v4h-4z"/><path fill="#48A838" d="M116 148h4v4h-4z"/><path fill="#102317" d="M120 148h4v4h-4z"/><path fill="#298D4F" d="M124 148h4v4h-4zM128 148h4v4h-4z"/><path fill="#48A838" d="M132 148h4v4h-4zM136 148h4v4h-4z"/><path fill="#07645A" d="M140 148h4v4h-4zM144 148h4v4h-4z"/><path fill="#48A838" d="M148 148h4v4h-4zM152 148h4v4h-4zM156 148h4v4h-4zM160 148h4v4h-4z"/><path fill="#298D4F" d="M164 148h4v4h-4z"/><path fill="#48A838" d="M168 148h4v4h-4zM172 148h4v4h-4z"/><path fill="#71C25E" d="M176 148h4v4h-4zM180 148h4v4h-4z"/><path fill="#298D4F" d="M184 148h4v4h-4z"/><path fill="#48A838" d="M188 148h4v4h-4z"/><path fill="#71C25E" d="M192 148h4v4h-4zM196 148h4v4h-4zM200 148h4v4h-4zM204 148h4v4h-4z"/><path fill="#48A838" d="M208 148h4v4h-4z"/><path fill="#298D4F" d="M212 148h4v4h-4z"/><path fill="#71C25E" d="M216 148h4v4h-4zM220 148h4v4h-4zM224 148h4v4h-4zM228 148h4v4h-4z"/><path fill="#48A838" d="M232 148h4v4h-4z"/><path fill="#298D4F" d="M236 148h4v4h-4zM240 148h4v4h-4z"/><path fill="#71C25E" d="M244 148h4v4h-4z"/><path fill="#07645A" d="M248 148h4v4h-4zM52 152h4v4h-4z"/><path fill="#48A838" d="M56 152h4v4h-4zM60 152h4v4h-4z"/><path fill="#298D4F" d="M64 152h4v4h-4z"/><path fill="#48A838" d="M68 152h4v4h-4zM72 152h4v4h-4zM76 152h4v4h-4zM80 152h4v4h-4z"/><path fill="#298D4F" d="M84 152h4v4h-4z"/><path fill="#48A838" d="M88 152h4v4h-4zM92 152h4v4h-4zM96 152h4v4h-4zM100 152h4v4h-4zM104 152h4v4h-4zM108 152h4v4h-4zM112 152h4v4h-4z"/><path fill="#298D4F" d="M116 152h4v4h-4z"/><path fill="#48A838" d="M120 152h4v4h-4zM124 152h4v4h-4zM128 152h4v4h-4zM132 152h4v4h-4z"/><path fill="#07645A" d="M136 152h4v4h-4zM140 152h4v4h-4zM144 152h4v4h-4zM148 152h4v4h-4z"/><path fill="#48A838" d="M152 152h4v4h-4zM156 152h4v4h-4z"/><path fill="#71C25E" d="M160 152h4v4h-4z"/><path fill="#298D4F" d="M164 152h4v4h-4z"/><path fill="#48A838" d="M168 152h4v4h-4zM172 152h4v4h-4z"/><path fill="#71C25E" d="M176 152h4v4h-4zM180 152h4v4h-4z"/><path fill="#07645A" d="M184 152h4v4h-4z"/><path fill="#48A838" d="M188 152h4v4h-4z"/><path fill="#71C25E" d="M192 152h4v4h-4zM196 152h4v4h-4zM200 152h4v4h-4zM204 152h4v4h-4z"/><path fill="#48A838" d="M208 152h4v4h-4z"/><path fill="#298D4F" d="M212 152h4v4h-4z"/><path fill="#71C25E" d="M216 152h4v4h-4zM220 152h4v4h-4zM224 152h4v4h-4zM228 152h4v4h-4zM232 152h4v4h-4z"/><path fill="#298D4F" d="M236 152h4v4h-4z"/><path fill="#48A838" d="M240 152h4v4h-4z"/><path fill="#298D4F" d="M244 152h4v4h-4z"/><path fill="#71C25E" d="M248 152h4v4h-4z"/><path fill="#07645A" d="M252 152h4v4h-4zM48 156h4v4h-4z"/><path fill="#48A838" d="M52 156h4v4h-4zM56 156h4v4h-4zM60 156h4v4h-4z"/><path fill="#298D4F" d="M64 156h4v4h-4z"/><path fill="#48A838" d="M68 156h4v4h-4zM72 156h4v4h-4zM76 156h4v4h-4zM80 156h4v4h-4z"/><path fill="#298D4F" d="M84 156h4v4h-4z"/><path fill="#48A838" d="M88 156h4v4h-4zM92 156h4v4h-4zM96 156h4v4h-4zM100 156h4v4h-4z"/><path fill="#71C25E" d="M104 156h4v4h-4zM108 156h4v4h-4z"/><path fill="#48A838" d="M112 156h4v4h-4z"/><path fill="#298D4F" d="M116 156h4v4h-4z"/><path fill="#48A838" d="M120 156h4v4h-4zM124 156h4v4h-4zM128 156h4v4h-4zM132 156h4v4h-4z"/><path fill="#755627" d="M136 156h4v4h-4zM140 156h4v4h-4z"/><path fill="#102317" d="M144 156h4v4h-4z"/><path fill="#07645A" d="M152 156h4v4h-4z"/><path fill="#71C25E" d="M156 156h4v4h-4zM160 156h4v4h-4z"/><path fill="#298D4F" d="M164 156h4v4h-4z"/><path fill="#48A838" d="M168 156h4v4h-4zM172 156h4v4h-4z"/><path fill="#71C25E" d="M176 156h4v4h-4z"/><path fill="#07645A" d="M180 156h4v4h-4zM188 156h4v4h-4z"/><path fill="#71C25E" d="M192 156h4v4h-4zM196 156h4v4h-4zM200 156h4v4h-4zM204 156h4v4h-4z"/><path fill="#298D4F" d="M208 156h4v4h-4z"/><path fill="#07645A" d="M212 156h4v4h-4z"/><path fill="#71C25E" d="M216 156h4v4h-4zM220 156h4v4h-4zM224 156h4v4h-4zM228 156h4v4h-4z"/><path fill="#48A838" d="M232 156h4v4h-4z"/><path fill="#71C25E" d="M236 156h4v4h-4zM240 156h4v4h-4z"/><path fill="#48A838" d="M244 156h4v4h-4z"/><path fill="#298D4F" d="M248 156h4v4h-4zM252 156h4v4h-4z"/><path fill="#07645A" d="M256 156h4v4h-4zM44 160h4v4h-4z"/><path fill="#48A838" d="M48 160h4v4h-4zM52 160h4v4h-4z"/><path fill="#298D4F" d="M56 160h4v4h-4zM60 160h4v4h-4zM64 160h4v4h-4z"/><path fill="#71C25E" d="M68 160h4v4h-4zM72 160h4v4h-4zM76 160h4v4h-4z"/><path fill="#48A838" d="M80 160h4v4h-4z"/><path fill="#298D4F" d="M84 160h4v4h-4z"/><path fill="#48A838" d="M88 160h4v4h-4zM92 160h4v4h-4zM96 160h4v4h-4z"/><path fill="#71C25E" d="M100 160h4v4h-4zM104 160h4v4h-4zM108 160h4v4h-4z"/><path fill="#07645A" d="M112 160h4v4h-4zM116 160h4v4h-4z"/><path fill="#298D4F" d="M120 160h4v4h-4z"/><path fill="#48A838" d="M124 160h4v4h-4zM128 160h4v4h-4z"/><path fill="#AA8115" d="M132 160h4v4h-4z"/><path fill="#DCB248" d="M136 160h4v4h-4zM140 160h4v4h-4z"/><path fill="#755627" d="M144 160h4v4h-4z"/><path fill="#102317" d="M148 160h4v4h-4z"/><path fill="#07645A" d="M152 160h4v4h-4z"/><path fill="#71C25E" d="M156 160h4v4h-4zM160 160h4v4h-4z"/><path fill="#298D4F" d="M164 160h4v4h-4z"/><path fill="#48A838" d="M168 160h4v4h-4zM172 160h4v4h-4z"/><path fill="#71C25E" d="M176 160h4v4h-4z"/><path fill="#07645A" d="M180 160h4v4h-4zM188 160h4v4h-4z"/><path fill="#71C25E" d="M192 160h4v4h-4zM196 160h4v4h-4zM200 160h4v4h-4zM204 160h4v4h-4z"/><path fill="#07645A" d="M208 160h4v4h-4zM212 160h4v4h-4z"/><path fill="#71C25E" d="M216 160h4v4h-4zM220 160h4v4h-4zM224 160h4v4h-4z"/><path fill="#48A838" d="M228 160h4v4h-4z"/><path fill="#71C25E" d="M232 160h4v4h-4zM236 160h4v4h-4zM240 160h4v4h-4zM244 160h4v4h-4z"/><path fill="#48A838" d="M248 160h4v4h-4zM252 160h4v4h-4z"/><path fill="#07645A" d="M256 160h4v4h-4zM44 164h4v4h-4z"/><path fill="#48A838" d="M48 164h4v4h-4z"/><path fill="#298D4F" d="M52 164h4v4h-4z"/><path fill="#48A838" d="M56 164h4v4h-4zM60 164h4v4h-4z"/><path fill="#298D4F" d="M64 164h4v4h-4z"/><path fill="#71C25E" d="M68 164h4v4h-4zM72 164h4v4h-4zM76 164h4v4h-4zM80 164h4v4h-4z"/><path fill="#07645A" d="M84 164h4v4h-4zM88 164h4v4h-4z"/><path fill="#48A838" d="M92 164h4v4h-4z"/><path fill="#71C25E" d="M96 164h4v4h-4zM100 164h4v4h-4zM104 164h4v4h-4z"/><path fill="#07645A" d="M108 164h4v4h-4zM120 164h4v4h-4z"/><path fill="#48A838" d="M124 164h4v4h-4z"/><path fill="#DCB248" d="M128 164h4v4h-4z"/><path fill="#AA8115" d="M132 164h4v4h-4z"/><path fill="#DCB248" d="M136 164h4v4h-4zM140 164h4v4h-4z"/><path fill="#755627" d="M144 164h4v4h-4zM148 164h4v4h-4z"/><path fill="#07645A" d="M152 164h4v4h-4zM156 164h4v4h-4z"/><path fill="#48A838" d="M160 164h4v4h-4zM164 164h4v4h-4z"/><path fill="#298D4F" d="M168 164h4v4h-4z"/><path fill="#07645A" d="M172 164h4v4h-4zM176 164h4v4h-4zM180 164h4v4h-4zM188 164h4v4h-4z"/><path fill="#71C25E" d="M192 164h4v4h-4zM196 164h4v4h-4zM200 164h4v4h-4z"/><path fill="#07645A" d="M204 164h4v4h-4zM212 164h4v4h-4z"/><path fill="#71C25E" d="M216 164h4v4h-4zM220 164h4v4h-4zM224 164h4v4h-4z"/><path fill="#07645A" d="M228 164h4v4h-4zM232 164h4v4h-4z"/><path fill="#71C25E" d="M236 164h4v4h-4zM240 164h4v4h-4zM244 164h4v4h-4z"/><path fill="#48A838" d="M248 164h4v4h-4z"/><path fill="#71C25E" d="M252 164h4v4h-4z"/><path fill="#298D4F" d="M256 164h4v4h-4z"/><path fill="#07645A" d="M260 164h4v4h-4zM44 168h4v4h-4z"/><path fill="#48A838" d="M48 168h4v4h-4z"/><path fill="#298D4F" d="M52 168h4v4h-4z"/><path fill="#48A838" d="M56 168h4v4h-4zM60 168h4v4h-4z"/><path fill="#07645A" d="M64 168h4v4h-4z"/><path fill="#71C25E" d="M68 168h4v4h-4zM72 168h4v4h-4zM76 168h4v4h-4zM80 168h4v4h-4z"/><path fill="#07645A" d="M84 168h4v4h-4zM92 168h4v4h-4z"/><path fill="#71C25E" d="M96 168h4v4h-4zM100 168h4v4h-4zM104 168h4v4h-4z"/><path fill="#07645A" d="M108 168h4v4h-4zM120 168h4v4h-4z"/><path fill="#48A838" d="M124 168h4v4h-4z"/><path fill="#DCB248" d="M128 168h4v4h-4zM132 168h4v4h-4z"/><path fill="#AA8115" d="M136 168h4v4h-4z"/><path fill="#DCB248" d="M140 168h4v4h-4zM144 168h4v4h-4z"/><path fill="#755627" d="M148 168h4v4h-4z"/><path fill="#AA8115" d="M152 168h4v4h-4z"/><path fill="#F7EB5F" d="M156 168h4v4h-4z"/><path fill="#48A838" d="M160 168h4v4h-4zM164 168h4v4h-4z"/><path fill="#07645A" d="M168 168h4v4h-4zM192 168h4v4h-4zM196 168h4v4h-4zM200 168h4v4h-4zM204 168h4v4h-4zM212 168h4v4h-4z"/><path fill="#71C25E" d="M216 168h4v4h-4zM220 168h4v4h-4zM224 168h4v4h-4z"/><path fill="#07645A" d="M228 168h4v4h-4zM232 168h4v4h-4z"/><path fill="#71C25E" d="M236 168h4v4h-4zM240 168h4v4h-4z"/><path fill="#48A838" d="M244 168h4v4h-4z"/><path fill="#71C25E" d="M248 168h4v4h-4zM252 168h4v4h-4zM256 168h4v4h-4z"/><path fill="#48A838" d="M260 168h4v4h-4z"/><path fill="#07645A" d="M264 168h4v4h-4zM40 172h4v4h-4z"/><path fill="#48A838" d="M44 172h4v4h-4z"/><path fill="#298D4F" d="M48 172h4v4h-4z"/><path fill="#48A838" d="M52 172h4v4h-4zM56 172h4v4h-4zM60 172h4v4h-4z"/><path fill="#07645A" d="M64 172h4v4h-4z"/><path fill="#71C25E" d="M68 172h4v4h-4zM72 172h4v4h-4zM76 172h4v4h-4zM80 172h4v4h-4z"/><path fill="#07645A" d="M84 172h4v4h-4zM92 172h4v4h-4z"/><path fill="#71C25E" d="M96 172h4v4h-4zM100 172h4v4h-4zM104 172h4v4h-4zM108 172h4v4h-4z"/><path fill="#07645A" d="M112 172h4v4h-4zM120 172h4v4h-4z"/><path fill="#AA8115" d="M124 172h4v4h-4z"/><path fill="#DCB248" d="M128 172h4v4h-4zM132 172h4v4h-4z"/><path fill="#AA8115" d="M136 172h4v4h-4z"/><path fill="#DCB248" d="M140 172h4v4h-4zM144 172h4v4h-4zM148 172h4v4h-4z"/><path fill="#604525" d="M152 172h4v4h-4z"/><path fill="#F7EB5F" d="M156 172h4v4h-4z"/><path fill="#AA8115" d="M160 172h4v4h-4z"/><path fill="#48A838" d="M164 172h4v4h-4z"/><path fill="#AA8115" d="M168 172h4v4h-4zM172 172h4v4h-4zM176 172h4v4h-4zM180 172h4v4h-4z"/><path fill="#07645A" d="M208 172h4v4h-4z"/><path fill="#71C25E" d="M212 172h4v4h-4zM216 172h4v4h-4zM220 172h4v4h-4z"/><path fill="#07645A" d="M224 172h4v4h-4zM232 172h4v4h-4z"/><path fill="#71C25E" d="M236 172h4v4h-4zM240 172h4v4h-4z"/><path fill="#48A838" d="M244 172h4v4h-4z"/><path fill="#07645A" d="M248 172h4v4h-4z"/><path fill="#71C25E" d="M252 172h4v4h-4zM256 172h4v4h-4z"/><path fill="#48A838" d="M260 172h4v4h-4z"/><path fill="#07645A" d="M264 172h4v4h-4zM40 176h4v4h-4z"/><path fill="#298D4F" d="M44 176h4v4h-4z"/><path fill="#48A838" d="M48 176h4v4h-4zM52 176h4v4h-4zM56 176h4v4h-4zM60 176h4v4h-4z"/><path fill="#07645A" d="M64 176h4v4h-4z"/><path fill="#71C25E" d="M68 176h4v4h-4zM72 176h4v4h-4zM76 176h4v4h-4zM80 176h4v4h-4z"/><path fill="#07645A" d="M84 176h4v4h-4zM92 176h4v4h-4z"/><path fill="#71C25E" d="M96 176h4v4h-4zM100 176h4v4h-4zM104 176h4v4h-4zM108 176h4v4h-4z"/><path fill="#07645A" d="M112 176h4v4h-4z"/><path fill="#AA8115" d="M124 176h4v4h-4z"/><path fill="#DCB248" d="M128 176h4v4h-4zM132 176h4v4h-4zM136 176h4v4h-4z"/><path fill="#AA8115" d="M140 176h4v4h-4z"/><path fill="#DCB248" d="M144 176h4v4h-4zM148 176h4v4h-4z"/><path fill="#604525" d="M152 176h4v4h-4z"/><path fill="#F7EB5F" d="M156 176h4v4h-4zM160 176h4v4h-4z"/><path fill="#AA8115" d="M164 176h4v4h-4zM168 176h4v4h-4z"/><path fill="#DCB248" d="M172 176h4v4h-4zM176 176h4v4h-4zM180 176h4v4h-4z"/><path fill="#AA8115" d="M184 176h4v4h-4z"/><path fill="#07645A" d="M208 176h4v4h-4zM212 176h4v4h-4z"/><path fill="#71C25E" d="M216 176h4v4h-4zM220 176h4v4h-4z"/><path fill="#07645A" d="M224 176h4v4h-4zM232 176h4v4h-4z"/><path fill="#71C25E" d="M236 176h4v4h-4zM240 176h4v4h-4z"/><path fill="#07645A" d="M244 176h4v4h-4zM248 176h4v4h-4zM252 176h4v4h-4z"/><path fill="#71C25E" d="M256 176h4v4h-4zM260 176h4v4h-4z"/><path fill="#07645A" d="M264 176h4v4h-4zM40 180h4v4h-4z"/><path fill="#48A838" d="M44 180h4v4h-4zM48 180h4v4h-4zM52 180h4v4h-4zM56 180h4v4h-4z"/><path fill="#07645A" d="M60 180h4v4h-4zM64 180h4v4h-4z"/><path fill="#71C25E" d="M68 180h4v4h-4zM72 180h4v4h-4zM76 180h4v4h-4zM80 180h4v4h-4zM84 180h4v4h-4z"/><path fill="#07645A" d="M88 180h4v4h-4zM96 180h4v4h-4zM100 180h4v4h-4zM104 180h4v4h-4zM108 180h4v4h-4z"/><path fill="#AA8115" d="M124 180h4v4h-4z"/><path fill="#DCB248" d="M128 180h4v4h-4zM132 180h4v4h-4zM136 180h4v4h-4z"/><path fill="#AA8115" d="M140 180h4v4h-4z"/><path fill="#DCB248" d="M144 180h4v4h-4zM148 180h4v4h-4zM152 180h4v4h-4z"/><path fill="#604525" d="M156 180h4v4h-4z"/><path fill="#F7EB5F" d="M160 180h4v4h-4zM164 180h4v4h-4zM168 180h4v4h-4z"/><path fill="#AA8115" d="M172 180h4v4h-4zM176 180h4v4h-4zM180 180h4v4h-4zM192 180h4v4h-4z"/><path fill="#07645A" d="M216 180h4v4h-4zM220 180h4v4h-4zM228 180h4v4h-4z"/><path fill="#71C25E" d="M232 180h4v4h-4zM236 180h4v4h-4zM240 180h4v4h-4z"/><path fill="#07645A" d="M244 180h4v4h-4zM252 180h4v4h-4z"/><path fill="#71C25E" d="M256 180h4v4h-4zM260 180h4v4h-4z"/><path fill="#07645A" d="M264 180h4v4h-4zM40 184h4v4h-4z"/><path fill="#48A838" d="M44 184h4v4h-4z"/><path fill="#71C25E" d="M48 184h4v4h-4z"/><path fill="#48A838" d="M52 184h4v4h-4z"/><path fill="#07645A" d="M56 184h4v4h-4zM68 184h4v4h-4zM72 184h4v4h-4zM76 184h4v4h-4zM80 184h4v4h-4zM84 184h4v4h-4zM88 184h4v4h-4z"/><path fill="#AA8115" d="M124 184h4v4h-4z"/><path fill="#DCB248" d="M128 184h4v4h-4zM132 184h4v4h-4zM136 184h4v4h-4z"/><path fill="#AA8115" d="M140 184h4v4h-4z"/><path fill="#DCB248" d="M144 184h4v4h-4zM148 184h4v4h-4zM152 184h4v4h-4z"/><path fill="#604525" d="M156 184h4v4h-4z"/><path fill="#DCB248" d="M160 184h4v4h-4zM164 184h4v4h-4z"/><path fill="#F7EB5F" d="M168 184h4v4h-4zM172 184h4v4h-4zM176 184h4v4h-4z"/><path fill="#AA8115" d="M180 184h4v4h-4zM184 184h4v4h-4zM188 184h4v4h-4z"/><path fill="#DCB248" d="M192 184h4v4h-4z"/><path fill="#AA8115" d="M196 184h4v4h-4z"/><path fill="#07645A" d="M228 184h4v4h-4zM232 184h4v4h-4zM236 184h4v4h-4zM240 184h4v4h-4zM256 184h4v4h-4zM260 184h4v4h-4zM40 188h4v4h-4z"/><path fill="#48A838" d="M44 188h4v4h-4z"/><path fill="#71C25E" d="M48 188h4v4h-4z"/><path fill="#48A838" d="M52 188h4v4h-4z"/><path fill="#07645A" d="M56 188h4v4h-4z"/><path fill="#AA8115" d="M120 188h4v4h-4zM124 188h4v4h-4z"/><path fill="#DCB248" d="M128 188h4v4h-4zM132 188h4v4h-4z"/><path fill="#AA8115" d="M136 188h4v4h-4z"/><path fill="#DCB248" d="M140 188h4v4h-4zM144 188h4v4h-4zM148 188h4v4h-4zM152 188h4v4h-4z"/><path fill="#604525" d="M156 188h4v4h-4z"/><path fill="#AA8115" d="M160 188h4v4h-4z"/><path fill="#DCB248" d="M164 188h4v4h-4zM168 188h4v4h-4zM172 188h4v4h-4zM176 188h4v4h-4z"/><path fill="#F7EB5F" d="M180 188h4v4h-4zM184 188h4v4h-4zM188 188h4v4h-4zM192 188h4v4h-4z"/><path fill="#AA8115" d="M196 188h4v4h-4z"/><path fill="#07645A" d="M40 192h4v4h-4z"/><path fill="#48A838" d="M44 192h4v4h-4z"/><path fill="#07645A" d="M48 192h4v4h-4zM52 192h4v4h-4z"/><path fill="#AA8115" d="M120 192h4v4h-4z"/><path fill="#DCB248" d="M124 192h4v4h-4zM128 192h4v4h-4zM132 192h4v4h-4z"/><path fill="#AA8115" d="M136 192h4v4h-4z"/><path fill="#F7EB5F" d="M140 192h4v4h-4zM144 192h4v4h-4z"/><path fill="#DCB248" d="M148 192h4v4h-4zM152 192h4v4h-4z"/><path fill="#604525" d="M156 192h4v4h-4zM160 192h4v4h-4z"/><path fill="#AA8115" d="M164 192h4v4h-4z"/><path fill="#F7EB5F" d="M168 192h4v4h-4zM172 192h4v4h-4zM176 192h4v4h-4zM180 192h4v4h-4zM184 192h4v4h-4zM188 192h4v4h-4zM192 192h4v4h-4z"/><path fill="#AA8115" d="M196 192h4v4h-4z"/><path fill="#07645A" d="M40 196h4v4h-4zM44 196h4v4h-4z"/><path fill="#AA8115" d="M120 196h4v4h-4z"/><path fill="#DCB248" d="M124 196h4v4h-4zM128 196h4v4h-4z"/><path fill="#AA8115" d="M132 196h4v4h-4zM136 196h4v4h-4z"/><path fill="#F7EB5F" d="M140 196h4v4h-4zM144 196h4v4h-4zM148 196h4v4h-4z"/><path fill="#DCB248" d="M152 196h4v4h-4z"/><path fill="#604525" d="M156 196h4v4h-4zM160 196h4v4h-4zM164 196h4v4h-4z"/><path fill="#AA8115" d="M168 196h4v4h-4zM172 196h4v4h-4z"/><path fill="#F7EB5F" d="M176 196h4v4h-4zM180 196h4v4h-4zM184 196h4v4h-4zM188 196h4v4h-4z"/><path fill="#AA8115" d="M192 196h4v4h-4z"/><path fill="#07645A" d="M40 200h4v4h-4z"/><path fill="#AA8115" d="M120 200h4v4h-4zM124 200h4v4h-4zM128 200h4v4h-4zM136 200h4v4h-4z"/><path fill="#F7EB5F" d="M140 200h4v4h-4zM144 200h4v4h-4zM148 200h4v4h-4z"/><path fill="#AA8115" d="M152 200h4v4h-4z"/><path fill="#604525" d="M156 200h4v4h-4zM160 200h4v4h-4zM164 200h4v4h-4zM168 200h4v4h-4zM172 200h4v4h-4z"/><path fill="#AA8115" d="M176 200h4v4h-4zM180 200h4v4h-4zM184 200h4v4h-4zM188 200h4v4h-4z"/><path fill="#F7EB5F" d="M192 200h4v4h-4z"/><path fill="#AA8115" d="M196 200h4v4h-4zM132 204h4v4h-4z"/><path fill="#F7EB5F" d="M136 204h4v4h-4zM140 204h4v4h-4zM144 204h4v4h-4zM148 204h4v4h-4z"/><path fill="#AA8115" d="M152 204h4v4h-4z"/><path fill="#604525" d="M156 204h4v4h-4z"/><path fill="#755627" d="M160 204h4v4h-4zM164 204h4v4h-4zM168 204h4v4h-4zM172 204h4v4h-4z"/><path fill="#604525" d="M176 204h4v4h-4zM180 204h4v4h-4zM184 204h4v4h-4zM188 204h4v4h-4z"/><path fill="#F7EB5F" d="M192 204h4v4h-4zM196 204h4v4h-4z"/><path fill="#AA8115" d="M200 204h4v4h-4zM128 208h4v4h-4z"/><path fill="#F7EB5F" d="M132 208h4v4h-4zM136 208h4v4h-4zM140 208h4v4h-4zM144 208h4v4h-4z"/><path fill="#AA8115" d="M148 208h4v4h-4z"/><path fill="#4E2F09" d="M152 208h4v4h-4z"/><path fill="#604525" d="M156 208h4v4h-4zM160 208h4v4h-4z"/><path fill="#755627" d="M164 208h4v4h-4zM168 208h4v4h-4z"/><path fill="#604525" d="M172 208h4v4h-4zM176 208h4v4h-4zM180 208h4v4h-4zM184 208h4v4h-4zM188 208h4v4h-4z"/><path fill="#F7EB5F" d="M192 208h4v4h-4z"/><path fill="#AA8115" d="M196 208h4v4h-4zM124 212h4v4h-4z"/><path fill="#F7EB5F" d="M128 212h4v4h-4zM132 212h4v4h-4zM136 212h4v4h-4zM140 212h4v4h-4z"/><path fill="#AA8115" d="M144 212h4v4h-4z"/><path fill="#DCB248" d="M148 212h4v4h-4z"/><path fill="#4E2F09" d="M152 212h4v4h-4z"/><path fill="#604525" d="M156 212h4v4h-4zM160 212h4v4h-4zM164 212h4v4h-4zM168 212h4v4h-4zM172 212h4v4h-4zM176 212h4v4h-4z"/><path fill="#755627" d="M180 212h4v4h-4zM184 212h4v4h-4z"/><path fill="#604525" d="M188 212h4v4h-4zM192 212h4v4h-4z"/><path fill="#AA8115" d="M128 216h4v4h-4z"/><path fill="#F7EB5F" d="M132 216h4v4h-4zM136 216h4v4h-4z"/><path fill="#AA8115" d="M140 216h4v4h-4z"/><path fill="#DCB248" d="M144 216h4v4h-4zM148 216h4v4h-4z"/><path fill="#4E2F09" d="M152 216h4v4h-4z"/><path fill="#604525" d="M156 216h4v4h-4zM160 216h4v4h-4z"/><path fill="#755627" d="M164 216h4v4h-4zM168 216h4v4h-4zM172 216h4v4h-4zM176 216h4v4h-4zM180 216h4v4h-4zM184 216h4v4h-4z"/><path fill="#604525" d="M188 216h4v4h-4zM192 216h4v4h-4zM196 216h4v4h-4z"/><path fill="#AA8115" d="M132 220h4v4h-4zM136 220h4v4h-4z"/><path fill="#DCB248" d="M140 220h4v4h-4zM144 220h4v4h-4z"/><path fill="#AA8115" d="M148 220h4v4h-4z"/><path fill="#4E2F09" d="M156 220h4v4h-4z"/><path fill="#604525" d="M160 220h4v4h-4z"/><path fill="#755627" d="M164 220h4v4h-4zM168 220h4v4h-4zM172 220h4v4h-4zM176 220h4v4h-4zM180 220h4v4h-4z"/><path fill="#604525" d="M184 220h4v4h-4zM188 220h4v4h-4zM192 220h4v4h-4zM196 220h4v4h-4zM204 220h4v4h-4z"/><path fill="#AA8115" d="M132 224h4v4h-4z"/><path fill="#DCB248" d="M136 224h4v4h-4zM140 224h4v4h-4zM144 224h4v4h-4z"/><path fill="#AA8115" d="M148 224h4v4h-4z"/><path fill="#4E2F09" d="M156 224h4v4h-4z"/><path fill="#604525" d="M160 224h4v4h-4zM164 224h4v4h-4z"/><path fill="#755627" d="M168 224h4v4h-4zM172 224h4v4h-4zM176 224h4v4h-4zM180 224h4v4h-4z"/><path fill="#604525" d="M184 224h4v4h-4zM188 224h4v4h-4zM192 224h4v4h-4zM196 224h4v4h-4zM200 224h4v4h-4zM204 224h4v4h-4zM208 224h4v4h-4zM212 224h4v4h-4z"/><path fill="#AA8115" d="M128 228h4v4h-4z"/><path fill="#DCB248" d="M132 228h4v4h-4zM136 228h4v4h-4zM140 228h4v4h-4z"/><path fill="#AA8115" d="M144 228h4v4h-4z"/><path fill="#4E2F09" d="M156 228h4v4h-4z"/><path fill="#604525" d="M160 228h4v4h-4zM164 228h4v4h-4zM168 228h4v4h-4zM172 228h4v4h-4zM176 228h4v4h-4zM180 228h4v4h-4zM184 228h4v4h-4z"/><path fill="#755627" d="M188 228h4v4h-4z"/><path fill="#604525" d="M192 228h4v4h-4zM196 228h4v4h-4zM200 228h4v4h-4zM204 228h4v4h-4zM208 228h4v4h-4zM212 228h4v4h-4z"/><path fill="#AA8115" d="M132 232h4v4h-4zM136 232h4v4h-4zM140 232h4v4h-4z"/><path fill="#4E2F09" d="M152 232h4v4h-4z"/><path fill="#604525" d="M156 232h4v4h-4zM160 232h4v4h-4z"/><path fill="#755627" d="M164 232h4v4h-4zM168 232h4v4h-4zM172 232h4v4h-4zM176 232h4v4h-4zM180 232h4v4h-4zM184 232h4v4h-4zM188 232h4v4h-4z"/><path fill="#604525" d="M192 232h4v4h-4zM196 232h4v4h-4zM200 232h4v4h-4zM204 232h4v4h-4zM208 232h4v4h-4zM212 232h4v4h-4z"/><path fill="#4E2F09" d="M152 236h4v4h-4z"/><path fill="#604525" d="M156 236h4v4h-4zM160 236h4v4h-4zM164 236h4v4h-4z"/><path fill="#755627" d="M168 236h4v4h-4zM172 236h4v4h-4zM176 236h4v4h-4zM180 236h4v4h-4zM184 236h4v4h-4zM188 236h4v4h-4z"/><path fill="#604525" d="M192 236h4v4h-4zM196 236h4v4h-4zM200 236h4v4h-4zM204 236h4v4h-4zM208 236h4v4h-4zM212 236h4v4h-4z"/><path fill="#4E2F09" d="M148 240h4v4h-4z"/><path fill="#604525" d="M152 240h4v4h-4zM156 240h4v4h-4zM160 240h4v4h-4zM164 240h4v4h-4zM168 240h4v4h-4zM172 240h4v4h-4zM176 240h4v4h-4z"/><path fill="#755627" d="M180 240h4v4h-4zM184 240h4v4h-4z"/><path fill="#604525" d="M188 240h4v4h-4zM192 240h4v4h-4zM196 240h4v4h-4zM200 240h4v4h-4zM204 240h4v4h-4zM208 240h4v4h-4zM212 240h4v4h-4zM216 240h4v4h-4z"/><path fill="#4E2F09" d="M148 244h4v4h-4z"/><path fill="#604525" d="M152 244h4v4h-4zM156 244h4v4h-4zM160 244h4v4h-4zM164 244h4v4h-4zM168 244h4v4h-4zM172 244h4v4h-4zM176 244h4v4h-4zM180 244h4v4h-4zM184 244h4v4h-4zM188 244h4v4h-4zM192 244h4v4h-4zM196 244h4v4h-4zM200 244h4v4h-4zM204 244h4v4h-4zM208 244h4v4h-4zM212 244h4v4h-4zM216 244h4v4h-4z"/><path fill="#4E2F09" d="M148 248h4v4h-4z"/><path fill="#604525" d="M152 248h4v4h-4zM156 248h4v4h-4zM160 248h4v4h-4zM164 248h4v4h-4zM168 248h4v4h-4zM172 248h4v4h-4zM176 248h4v4h-4zM180 248h4v4h-4zM184 248h4v4h-4zM188 248h4v4h-4zM192 248h4v4h-4z"/><path fill="#102317" d="M196 248h4v4h-4z"/><path fill="#604525" d="M200 248h4v4h-4zM204 248h4v4h-4zM208 248h4v4h-4zM212 248h4v4h-4zM216 248h4v4h-4z"/><path fill="#4E2F09" d="M148 252h4v4h-4z"/><path fill="#604525" d="M152 252h4v4h-4zM156 252h4v4h-4zM160 252h4v4h-4zM164 252h4v4h-4zM168 252h4v4h-4zM172 252h4v4h-4zM176 252h4v4h-4zM180 252h4v4h-4zM184 252h4v4h-4zM188 252h4v4h-4zM192 252h4v4h-4z"/><path fill="#102317" d="M196 252h4v4h-4z"/><path fill="#604525" d="M200 252h4v4h-4zM204 252h4v4h-4zM208 252h4v4h-4zM212 252h4v4h-4zM216 252h4v4h-4z"/><path fill="#4E2F09" d="M148 256h4v4h-4z"/><path fill="#604525" d="M152 256h4v4h-4zM160 256h4v4h-4zM164 256h4v4h-4zM168 256h4v4h-4zM172 256h4v4h-4zM176 256h4v4h-4zM180 256h4v4h-4zM184 256h4v4h-4zM188 256h4v4h-4z"/><path fill="#102317" d="M192 256h4v4h-4z"/><path fill="#604525" d="M200 256h4v4h-4zM204 256h4v4h-4zM208 256h4v4h-4zM212 256h4v4h-4z"/><path fill="#4E2F09" d="M148 260h4v4h-4z"/><path fill="#604525" d="M152 260h4v4h-4zM160 260h4v4h-4zM164 260h4v4h-4zM168 260h4v4h-4zM172 260h4v4h-4zM176 260h4v4h-4zM180 260h4v4h-4zM184 260h4v4h-4zM188 260h4v4h-4z"/><path fill="#102317" d="M192 260h4v4h-4z"/><path fill="#604525" d="M200 260h4v4h-4zM204 260h4v4h-4zM208 260h4v4h-4zM212 260h4v4h-4zM160 264h4v4h-4zM164 264h4v4h-4zM168 264h4v4h-4zM172 264h4v4h-4zM176 264h4v4h-4zM180 264h4v4h-4zM184 264h4v4h-4zM188 264h4v4h-4zM200 264h4v4h-4zM204 264h4v4h-4zM208 264h4v4h-4zM212 264h4v4h-4zM160 268h4v4h-4zM164 268h4v4h-4zM168 268h4v4h-4zM172 268h4v4h-4zM176 268h4v4h-4zM180 268h4v4h-4zM188 268h4v4h-4zM200 268h4v4h-4zM204 268h4v4h-4zM208 268h4v4h-4zM212 268h4v4h-4zM160 272h4v4h-4zM164 272h4v4h-4zM172 272h4v4h-4zM176 272h4v4h-4zM180 272h4v4h-4zM184 272h4v4h-4zM188 272h4v4h-4zM204 272h4v4h-4zM208 272h4v4h-4zM212 272h4v4h-4zM160 276h4v4h-4zM164 276h4v4h-4zM172 276h4v4h-4zM176 276h4v4h-4zM180 276h4v4h-4zM184 276h4v4h-4zM188 276h4v4h-4zM204 276h4v4h-4zM208 276h4v4h-4zM212 276h4v4h-4z"/></svg>