<svg width="384" height="384" xmlns="http://www.w3.org/2000/svg" shape-rendering="crispEdges"><path fill="#0B675E" d="M168 40h4v4h-4zM172 40h4v4h-4zM168 44h4v4h-4z"/><path fill="#439871" d="M172 44h4v4h-4z"/><path fill="#0B675E" d="M176 44h4v4h-4zM172 48h4v4h-4z"/><path fill="#5EB978" d="M176 48h4v4h-4z"/><path fill="#0B675E" d="M180 48h4v4h-4zM84 52h4v4h-4zM88 52h4v4h-4zM92 52h4v4h-4zM96 52h4v4h-4zM172 52h4v4h-4z"/><path fill="#5EB978" d="M176 52h4v4h-4z"/><path fill="#0B675E" d="M180 52h4v4h-4zM88 56h4v4h-4z"/><path fill="#5EB978" d="M92 56h4v4h-4zM96 56h4v4h-4z"/><path fill="#0B675E" d="M100 56h4v4h-4zM168 56h4v4h-4z"/><path fill="#5EB978" d="M172 56h4v4h-4zM176 56h4v4h-4z"/><path fill="#0B675E" d="M180 56h4v4h-4zM92 60h4v4h-4z"/><path fill="#5EB978" d="M96 60h4v4h-4zM100 60h4v4h-4z"/><path fill="#0B675E" d="M104 60h4v4h-4zM160 60h4v4h-4zM164 60h4v4h-4z"/><path fill="#5EB978" d="M168 60h4v4h-4zM172 60h4v4h-4zM176 60h4v4h-4z"/><path fill="#0B675E" d="M180 60h4v4h-4zM92 64h4v4h-4z"/><path fill="#5EB978" d="M96 64h4v4h-4z"/><path fill="#439871" d="M100 64h4v4h-4z"/><path fill="#5EB978" d="M104 64h4v4h-4z"/><path fill="#0B675E" d="M108 64h4v4h-4zM152 64h4v4h-4zM156 64h4v4h-4z"/><path fill="#5EB978" d="M160 64h4v4h-4zM164 64h4v4h-4zM168 64h4v4h-4zM172 64h4v4h-4zM176 64h4v4h-4z"/><path fill="#0B675E" d="M180 64h4v4h-4zM208 64h4v4h-4zM88 68h4v4h-4z"/><path fill="#5EB978" d="M92 68h4v4h-4zM96 68h4v4h-4zM100 68h4v4h-4z"/><path fill="#439871" d="M104 68h4v4h-4z"/><path fill="#5EB978" d="M108 68h4v4h-4z"/><path fill="#0B675E" d="M112 68h4v4h-4zM148 68h4v4h-4z"/><path fill="#5EB978" d="M152 68h4v4h-4zM156 68h4v4h-4zM160 68h4v4h-4zM164 68h4v4h-4zM168 68h4v4h-4z"/><path fill="#439871" d="M172 68h4v4h-4z"/><path fill="#5EB978" d="M176 68h4v4h-4z"/><path fill="#0B675E" d="M180 68h4v4h-4zM204 68h4v4h-4zM208 68h4v4h-4zM88 72h4v4h-4z"/><path fill="#5EB978" d="M92 72h4v4h-4zM96 72h4v4h-4zM100 72h4v4h-4z"/><path fill="#439871" d="M104 72h4v4h-4z"/><path fill="#5EB978" d="M108 72h4v4h-4z"/><path fill="#0B675E" d="M112 72h4v4h-4zM144 72h4v4h-4z"/><path fill="#5EB978" d="M148 72h4v4h-4zM152 72h4v4h-4zM156 72h4v4h-4z"/><path fill="#0B675E" d="M160 72h4v4h-4z"/><path fill="#439871" d="M164 72h4v4h-4zM168 72h4v4h-4z"/><path fill="#5EB978" d="M172 72h4v4h-4zM176 72h4v4h-4z"/><path fill="#0B675E" d="M180 72h4v4h-4zM200 72h4v4h-4z"/><path fill="#5EB978" d="M204 72h4v4h-4z"/><path fill="#0B675E" d="M208 72h4v4h-4zM88 76h4v4h-4z"/><path fill="#5EB978" d="M92 76h4v4h-4zM96 76h4v4h-4zM100 76h4v4h-4z"/><path fill="#0B675E" d="M104 76h4v4h-4z"/><path fill="#5EB978" d="M108 76h4v4h-4zM112 76h4v4h-4z"/><path fill="#0B675E" d="M116 76h4v4h-4zM144 76h4v4h-4z"/><path fill="#5EB978" d="M148 76h4v4h-4zM152 76h4v4h-4z"/><path fill="#0B675E" d="M156 76h4v4h-4z"/><path fill="#439871" d="M160 76h4v4h-4z"/><path fill="#5EB978" d="M164 76h4v4h-4zM168 76h4v4h-4zM172 76h4v4h-4z"/><path fill="#0B675E" d="M176 76h4v4h-4zM180 76h4v4h-4zM184 76h4v4h-4zM188 76h4v4h-4zM192 76h4v4h-4zM196 76h4v4h-4z"/><path fill="#5EB978" d="M200 76h4v4h-4zM204 76h4v4h-4z"/><path fill="#0B675E" d="M208 76h4v4h-4zM212 76h4v4h-4zM216 76h4v4h-4zM220 76h4v4h-4zM88 80h4v4h-4z"/><path fill="#5EB978" d="M92 80h4v4h-4zM96 80h4v4h-4zM100 80h4v4h-4z"/><path fill="#0B675E" d="M104 80h4v4h-4z"/><path fill="#5EB978" d="M108 80h4v4h-4z"/><path fill="#439871" d="M112 80h4v4h-4z"/><path fill="#0B675E" d="M116 80h4v4h-4zM128 80h4v4h-4zM132 80h4v4h-4zM144 80h4v4h-4z"/><path fill="#439871" d="M148 80h4v4h-4z"/><path fill="#0B675E" d="M152 80h4v4h-4z"/><path fill="#439871" d="M156 80h4v4h-4zM160 80h4v4h-4zM164 80h4v4h-4z"/><path fill="#0B675E" d="M168 80h4v4h-4zM172 80h4v4h-4z"/><path fill="#D4568E" d="M176 80h4v4h-4zM180 80h4v4h-4z"/><path fill="#439871" d="M184 80h4v4h-4zM188 80h4v4h-4zM192 80h4v4h-4z"/><path fill="#5EB978" d="M196 80h4v4h-4zM200 80h4v4h-4zM204 80h4v4h-4z"/><path fill="#0B675E" d="M208 80h4v4h-4z"/><path fill="#439871" d="M212 80h4v4h-4zM216 80h4v4h-4zM220 80h4v4h-4z"/><path fill="#0B675E" d="M224 80h4v4h-4zM228 80h4v4h-4zM232 80h4v4h-4zM88 84h4v4h-4z"/><path fill="#439871" d="M92 84h4v4h-4z"/><path fill="#5EB978" d="M96 84h4v4h-4zM100 84h4v4h-4z"/><path fill="#0B675E" d="M104 84h4v4h-4z"/><path fill="#5EB978" d="M108 84h4v4h-4z"/><path fill="#0B675E" d="M112 84h4v4h-4zM124 84h4v4h-4z"/><path fill="#5EB978" d="M128 84h4v4h-4zM132 84h4v4h-4z"/><path fill="#0B675E" d="M136 84h4v4h-4zM144 84h4v4h-4z"/><path fill="#439871" d="M148 84h4v4h-4z"/><path fill="#0B675E" d="M152 84h4v4h-4zM156 84h4v4h-4zM160 84h4v4h-4zM164 84h4v4h-4z"/><path fill="#439871" d="M168 84h4v4h-4z"/><path fill="#5EB978" d="M172 84h4v4h-4zM176 84h4v4h-4zM180 84h4v4h-4zM184 84h4v4h-4zM188 84h4v4h-4z"/><path fill="#439871" d="M192 84h4v4h-4z"/><path fill="#5EB978" d="M196 84h4v4h-4zM200 84h4v4h-4zM204 84h4v4h-4z"/><path fill="#0B675E" d="M208 84h4v4h-4z"/><path fill="#439871" d="M212 84h4v4h-4z"/><path fill="#5EB978" d="M216 84h4v4h-4z"/><path fill="#D4568E" d="M220 84h4v4h-4zM224 84h4v4h-4z"/><path fill="#D1588D" d="M228 84h4v4h-4z"/><path fill="#439871" d="M232 84h4v4h-4z"/><path fill="#0B675E" d="M236 84h4v4h-4zM240 84h4v4h-4zM92 88h4v4h-4z"/><path fill="#439871" d="M96 88h4v4h-4zM100 88h4v4h-4z"/><path fill="#0B675E" d="M104 88h4v4h-4z"/><path fill="#439871" d="M108 88h4v4h-4z"/><path fill="#0B675E" d="M112 88h4v4h-4zM116 88h4v4h-4zM120 88h4v4h-4z"/><path fill="#5EB978" d="M124 88h4v4h-4zM128 88h4v4h-4z"/><path fill="#0B675E" d="M132 88h4v4h-4zM136 88h4v4h-4zM140 88h4v4h-4zM144 88h4v4h-4zM148 88h4v4h-4z"/><path fill="#439871" d="M152 88h4v4h-4zM156 88h4v4h-4zM160 88h4v4h-4z"/><path fill="#5EB978" d="M164 88h4v4h-4zM168 88h4v4h-4zM172 88h4v4h-4zM176 88h4v4h-4zM180 88h4v4h-4zM184 88h4v4h-4zM188 88h4v4h-4zM192 88h4v4h-4z"/><path fill="#439871" d="M196 88h4v4h-4z"/><path fill="#5EB978" d="M200 88h4v4h-4zM204 88h4v4h-4z"/><path fill="#439871" d="M208 88h4v4h-4z"/><path fill="#5EB978" d="M212 88h4v4h-4zM216 88h4v4h-4zM220 88h4v4h-4z"/><path fill="#D4568E" d="M224 88h4v4h-4zM228 88h4v4h-4z"/><path fill="#5EB978" d="M232 88h4v4h-4zM236 88h4v4h-4z"/><path fill="#439871" d="M240 88h4v4h-4z"/><path fill="#0B675E" d="M244 88h4v4h-4zM96 92h4v4h-4zM100 92h4v4h-4zM104 92h4v4h-4zM108 92h4v4h-4z"/><path fill="#5EB978" d="M112 92h4v4h-4zM116 92h4v4h-4z"/><path fill="#0B675E" d="M120 92h4v4h-4z"/><path fill="#5EB978" d="M124 92h4v4h-4z"/><path fill="#0B675E" d="M128 92h4v4h-4z"/><path fill="#439871" d="M132 92h4v4h-4z"/><path fill="#5EB978" d="M136 92h4v4h-4z"/><path fill="#D1588D" d="M140 92h4v4h-4zM144 92h4v4h-4z"/><path fill="#439871" d="M148 92h4v4h-4zM152 92h4v4h-4z"/><path fill="#5EB978" d="M156 92h4v4h-4zM160 92h4v4h-4z"/><path fill="#D4568E" d="M164 92h4v4h-4zM168 92h4v4h-4z"/><path fill="#D1588D" d="M172 92h4v4h-4z"/><path fill="#5EB978" d="M176 92h4v4h-4zM180 92h4v4h-4zM184 92h4v4h-4zM188 92h4v4h-4zM192 92h4v4h-4zM196 92h4v4h-4zM200 92h4v4h-4zM204 92h4v4h-4zM208 92h4v4h-4zM212 92h4v4h-4z"/><path fill="#439871" d="M216 92h4v4h-4z"/><path fill="#5EB978" d="M220 92h4v4h-4zM224 92h4v4h-4zM228 92h4v4h-4zM232 92h4v4h-4zM236 92h4v4h-4zM240 92h4v4h-4z"/><path fill="#439871" d="M244 92h4v4h-4z"/><path fill="#0B675E" d="M248 92h4v4h-4zM100 96h4v4h-4z"/><path fill="#5EB978" d="M104 96h4v4h-4zM108 96h4v4h-4zM112 96h4v4h-4zM116 96h4v4h-4z"/><path fill="#0B675E" d="M120 96h4v4h-4z"/><path fill="#5EB978" d="M124 96h4v4h-4z"/><path fill="#0B675E" d="M128 96h4v4h-4z"/><path fill="#439871" d="M132 96h4v4h-4z"/><path fill="#5EB978" d="M136 96h4v4h-4zM140 96h4v4h-4z"/><path fill="#439871" d="M144 96h4v4h-4zM148 96h4v4h-4z"/><path fill="#5EB978" d="M152 96h4v4h-4zM156 96h4v4h-4zM160 96h4v4h-4zM164 96h4v4h-4z"/><path fill="#D4568E" d="M168 96h4v4h-4zM172 96h4v4h-4z"/><path fill="#5CB777" d="M176 96h4v4h-4z"/><path fill="#5EB978" d="M180 96h4v4h-4zM184 96h4v4h-4zM188 96h4v4h-4z"/><path fill="#499C76" d="M192 96h4v4h-4z"/><path fill="#479A74" d="M196 96h4v4h-4zM200 96h4v4h-4zM204 96h4v4h-4zM208 96h4v4h-4zM212 96h4v4h-4zM216 96h4v4h-4zM220 96h4v4h-4z"/><path fill="#5EB978" d="M224 96h4v4h-4zM228 96h4v4h-4zM232 96h4v4h-4zM236 96h4v4h-4z"/><path fill="#5CB777" d="M240 96h4v4h-4z"/><path fill="#5EB978" d="M244 96h4v4h-4z"/><path fill="#439871" d="M248 96h4v4h-4z"/><path fill="#0B675E" d="M252 96h4v4h-4zM72 100h4v4h-4zM76 100h4v4h-4zM80 100h4v4h-4zM84 100h4v4h-4zM88 100h4v4h-4zM92 100h4v4h-4zM96 100h4v4h-4z"/><path fill="#5EB978" d="M100 100h4v4h-4zM104 100h4v4h-4zM108 100h4v4h-4zM112 100h4v4h-4z"/><path fill="#439871" d="M116 100h4v4h-4z"/><path fill="#0B675E" d="M120 100h4v4h-4z"/><path fill="#5EB978" d="M124 100h4v4h-4z"/><path fill="#0B675E" d="M128 100h4v4h-4z"/><path fill="#439871" d="M132 100h4v4h-4z"/><path fill="#5EB978" d="M136 100h4v4h-4z"/><path fill="#439871" d="M140 100h4v4h-4zM144 100h4v4h-4z"/><path fill="#5EB978" d="M148 100h4v4h-4zM152 100h4v4h-4zM156 100h4v4h-4z"/><path fill="#439871" d="M160 100h4v4h-4z"/><path fill="#5EB978" d="M164 100h4v4h-4zM168 100h4v4h-4z"/><path fill="#5CB777" d="M172 100h4v4h-4z"/><path fill="#5EB978" d="M176 100h4v4h-4z"/><path fill="#5CB777" d="M180 100h4v4h-4z"/><path fill="#5EB978" d="M184 100h4v4h-4z"/><path fill="#449972" d="M188 100h4v4h-4z"/><path fill="#479A74" d="M192 100h4v4h-4z"/><path fill="#61BB7B" d="M196 100h4v4h-4zM200 100h4v4h-4zM204 100h4v4h-4zM208 100h4v4h-4zM212 100h4v4h-4zM216 100h4v4h-4zM220 100h4v4h-4z"/><path fill="#479A74" d="M224 100h4v4h-4z"/><path fill="#5EB978" d="M228 100h4v4h-4zM232 100h4v4h-4z"/><path fill="#5CB777" d="M236 100h4v4h-4zM240 100h4v4h-4z"/><path fill="#5EB978" d="M244 100h4v4h-4zM248 100h4v4h-4z"/><path fill="#439871" d="M252 100h4v4h-4z"/><path fill="#0B675E" d="M256 100h4v4h-4zM68 104h4v4h-4z"/><path fill="#5EB978" d="M72 104h4v4h-4zM76 104h4v4h-4zM80 104h4v4h-4zM84 104h4v4h-4zM88 104h4v4h-4zM92 104h4v4h-4zM96 104h4v4h-4z"/><path fill="#0B675E" d="M100 104h4v4h-4z"/><path fill="#5EB978" d="M104 104h4v4h-4zM108 104h4v4h-4zM112 104h4v4h-4z"/><path fill="#0B675E" d="M116 104h4v4h-4z"/><path fill="#5EB978" d="M120 104h4v4h-4z"/><path fill="#0B675E" d="M124 104h4v4h-4z"/><path fill="#439871" d="M128 104h4v4h-4z"/><path fill="#5EB978" d="M132 104h4v4h-4zM136 104h4v4h-4z"/><path fill="#439871" d="M140 104h4v4h-4zM144 104h4v4h-4z"/><path fill="#5EB978" d="M148 104h4v4h-4zM152 104h4v4h-4z"/><path fill="#439871" d="M156 104h4v4h-4zM160 104h4v4h-4z"/><path fill="#5EB978" d="M164 104h4v4h-4zM168 104h4v4h-4z"/><path fill="#5CB777" d="M172 104h4v4h-4z"/><path fill="#5EB978" d="M176 104h4v4h-4zM180 104h4v4h-4z"/><path fill="#499C76" d="M184 104h4v4h-4z"/><path fill="#479A74" d="M188 104h4v4h-4z"/><path fill="#61BB7B" d="M192 104h4v4h-4zM196 104h4v4h-4z"/><path fill="#BFF648" d="M200 104h4v4h-4zM204 104h4v4h-4zM208 104h4v4h-4zM212 104h4v4h-4zM216 104h4v4h-4z"/><path fill="#BEF744" d="M220 104h4v4h-4z"/><path fill="#5DB877" d="M224 104h4v4h-4z"/><path fill="#489B75" d="M228 104h4v4h-4zM232 104h4v4h-4z"/><path fill="#5EB978" d="M236 104h4v4h-4z"/><path fill="#5CB777" d="M240 104h4v4h-4z"/><path fill="#5EB978" d="M244 104h4v4h-4zM248 104h4v4h-4zM252 104h4v4h-4z"/><path fill="#0B675E" d="M256 104h4v4h-4zM64 108h4v4h-4z"/><path fill="#5EB978" d="M68 108h4v4h-4z"/><path fill="#439871" d="M72 108h4v4h-4z"/><path fill="#0B675E" d="M76 108h4v4h-4zM80 108h4v4h-4zM84 108h4v4h-4zM88 108h4v4h-4z"/><path fill="#439871" d="M92 108h4v4h-4z"/><path fill="#5EB978" d="M96 108h4v4h-4zM100 108h4v4h-4z"/><path fill="#0B675E" d="M104 108h4v4h-4z"/><path fill="#439871" d="M108 108h4v4h-4zM112 108h4v4h-4z"/><path fill="#0B675E" d="M116 108h4v4h-4z"/><path fill="#5EB978" d="M120 108h4v4h-4z"/><path fill="#0B675E" d="M124 108h4v4h-4z"/><path fill="#439871" d="M128 108h4v4h-4zM132 108h4v4h-4zM136 108h4v4h-4z"/><path fill="#0B675E" d="M140 108h4v4h-4zM144 108h4v4h-4z"/><path fill="#0D685F" d="M148 108h4v4h-4z"/><path fill="#0B675E" d="M152 108h4v4h-4z"/><path fill="#439871" d="M156 108h4v4h-4zM160 108h4v4h-4z"/><path fill="#5EB978" d="M164 108h4v4h-4zM168 108h4v4h-4z"/><path fill="#5CB777" d="M172 108h4v4h-4z"/><path fill="#5EB978" d="M176 108h4v4h-4z"/><path fill="#459A73" d="M180 108h4v4h-4z"/><path fill="#0D695F" d="M184 108h4v4h-4z"/><path fill="#0D685F" d="M188 108h4v4h-4z"/><path fill="#BEF744" d="M192 108h4v4h-4zM196 108h4v4h-4z"/><path fill="#BFF648" d="M200 108h4v4h-4zM204 108h4v4h-4zM208 108h4v4h-4zM212 108h4v4h-4z"/><path fill="#BEF744" d="M216 108h4v4h-4z"/><path fill="#479B71" d="M220 108h4v4h-4z"/><path fill="#449972" d="M224 108h4v4h-4z"/><path fill="#439871" d="M228 108h4v4h-4z"/><path fill="#5EB978" d="M232 108h4v4h-4zM236 108h4v4h-4z"/><path fill="#5CB777" d="M240 108h4v4h-4z"/><path fill="#5DB877" d="M244 108h4v4h-4z"/><path fill="#5EB978" d="M248 108h4v4h-4zM252 108h4v4h-4z"/><path fill="#439871" d="M256 108h4v4h-4z"/><path fill="#0B675E" d="M260 108h4v4h-4zM60 112h4v4h-4z"/><path fill="#5EB978" d="M64 112h4v4h-4z"/><path fill="#439871" d="M68 112h4v4h-4z"/><path fill="#0B675E" d="M72 112h4v4h-4zM84 112h4v4h-4z"/><path fill="#439871" d="M88 112h4v4h-4z"/><path fill="#0B675E" d="M92 112h4v4h-4z"/><path fill="#439871" d="M96 112h4v4h-4z"/><path fill="#5EB978" d="M100 112h4v4h-4zM104 112h4v4h-4z"/><path fill="#0B675E" d="M108 112h4v4h-4z"/><path fill="#439871" d="M112 112h4v4h-4z"/><path fill="#0B675E" d="M116 112h4v4h-4z"/><path fill="#439871" d="M120 112h4v4h-4z"/><path fill="#0B675E" d="M124 112h4v4h-4zM128 112h4v4h-4z"/><path fill="#439871" d="M132 112h4v4h-4z"/><path fill="#0B675E" d="M136 112h4v4h-4z"/><path fill="#5EB978" d="M140 112h4v4h-4zM144 112h4v4h-4zM148 112h4v4h-4zM152 112h4v4h-4z"/><path fill="#0B675E" d="M156 112h4v4h-4z"/><path fill="#439871" d="M160 112h4v4h-4zM164 112h4v4h-4z"/><path fill="#5EB978" d="M168 112h4v4h-4z"/><path fill="#5CB777" d="M172 112h4v4h-4z"/><path fill="#5EB978" d="M176 112h4v4h-4zM180 112h4v4h-4z"/><path fill="#499C76" d="M184 112h4v4h-4z"/><path fill="#489B75" d="M188 112h4v4h-4z"/><path fill="#0D685F" d="M192 112h4v4h-4z"/><path fill="#60BB76" d="M196 112h4v4h-4zM200 112h4v4h-4zM204 112h4v4h-4zM208 112h4v4h-4zM212 112h4v4h-4z"/><path fill="#459A73" d="M216 112h4v4h-4zM220 112h4v4h-4z"/><path fill="#449972" d="M224 112h4v4h-4z"/><path fill="#5EB978" d="M228 112h4v4h-4zM232 112h4v4h-4zM236 112h4v4h-4z"/><path fill="#5CB777" d="M240 112h4v4h-4z"/><path fill="#439871" d="M244 112h4v4h-4z"/><path fill="#5EB978" d="M248 112h4v4h-4zM252 112h4v4h-4z"/><path fill="#439871" d="M256 112h4v4h-4z"/><path fill="#883A89" d="M260 112h4v4h-4z"/><path fill="#0B675E" d="M60 116h4v4h-4z"/><path fill="#5EB978" d="M64 116h4v4h-4z"/><path fill="#0B675E" d="M68 116h4v4h-4zM80 116h4v4h-4z"/><path fill="#439871" d="M84 116h4v4h-4zM88 116h4v4h-4zM92 116h4v4h-4z"/><path fill="#0B675E" d="M96 116h4v4h-4z"/><path fill="#439871" d="M100 116h4v4h-4z"/><path fill="#5EB978" d="M104 116h4v4h-4z"/><path fill="#0B675E" d="M108 116h4v4h-4z"/><path fill="#439871" d="M112 116h4v4h-4z"/><path fill="#0B675E" d="M116 116h4v4h-4z"/><path fill="#439871" d="M120 116h4v4h-4z"/><path fill="#0B675E" d="M124 116h4v4h-4zM128 116h4v4h-4zM132 116h4v4h-4z"/><path fill="#5EB978" d="M136 116h4v4h-4zM140 116h4v4h-4zM144 116h4v4h-4zM148 116h4v4h-4zM152 116h4v4h-4zM156 116h4v4h-4z"/><path fill="#439871" d="M160 116h4v4h-4zM164 116h4v4h-4z"/><path fill="#5EB978" d="M168 116h4v4h-4zM172 116h4v4h-4z"/><path fill="#5DB877" d="M176 116h4v4h-4zM180 116h4v4h-4z"/><path fill="#5EB978" d="M184 116h4v4h-4z"/><path fill="#499C76" d="M188 116h4v4h-4z"/><path fill="#489B75" d="M192 116h4v4h-4z"/><path fill="#0D685F" d="M196 116h4v4h-4zM200 116h4v4h-4zM204 116h4v4h-4z"/><path fill="#439871" d="M208 116h4v4h-4z"/><path fill="#449972" d="M212 116h4v4h-4zM216 116h4v4h-4zM220 116h4v4h-4z"/><path fill="#5EB978" d="M224 116h4v4h-4zM228 116h4v4h-4z"/><path fill="#439871" d="M232 116h4v4h-4zM236 116h4v4h-4zM240 116h4v4h-4z"/><path fill="#5EB978" d="M244 116h4v4h-4zM248 116h4v4h-4zM252 116h4v4h-4z"/><path fill="#883A89" d="M256 116h4v4h-4z"/><path fill="#F379C1" d="M260 116h4v4h-4z"/><path fill="#883A89" d="M264 116h4v4h-4z"/><path fill="#0B675E" d="M60 120h4v4h-4z"/><path fill="#5EB978" d="M64 120h4v4h-4z"/><path fill="#0B675E" d="M68 120h4v4h-4zM80 120h4v4h-4z"/><path fill="#439871" d="M84 120h4v4h-4zM88 120h4v4h-4zM92 120h4v4h-4zM96 120h4v4h-4z"/><path fill="#0B675E" d="M100 120h4v4h-4z"/><path fill="#5EB978" d="M104 120h4v4h-4zM108 120h4v4h-4z"/><path fill="#0B675E" d="M112 120h4v4h-4zM116 120h4v4h-4zM120 120h4v4h-4z"/><path fill="#439871" d="M124 120h4v4h-4z"/><path fill="#0B675E" d="M128 120h4v4h-4z"/><path fill="#5EB978" d="M132 120h4v4h-4zM136 120h4v4h-4z"/><path fill="#439871" d="M140 120h4v4h-4z"/><path fill="#883A89" d="M144 120h4v4h-4zM148 120h4v4h-4z"/><path fill="#439871" d="M152 120h4v4h-4z"/><path fill="#5EB978" d="M156 120h4v4h-4zM160 120h4v4h-4z"/><path fill="#439871" d="M164 120h4v4h-4zM168 120h4v4h-4z"/><path fill="#5EB978" d="M172 120h4v4h-4zM176 120h4v4h-4zM180 120h4v4h-4zM184 120h4v4h-4zM188 120h4v4h-4z"/><path fill="#499C76" d="M192 120h4v4h-4zM196 120h4v4h-4z"/><path fill="#479A74" d="M200 120h4v4h-4z"/><path fill="#449972" d="M204 120h4v4h-4zM208 120h4v4h-4zM212 120h4v4h-4zM216 120h4v4h-4z"/><path fill="#5EB978" d="M220 120h4v4h-4zM224 120h4v4h-4zM228 120h4v4h-4zM232 120h4v4h-4zM236 120h4v4h-4zM240 120h4v4h-4zM244 120h4v4h-4zM248 120h4v4h-4z"/><path fill="#439871" d="M252 120h4v4h-4z"/><path fill="#883A89" d="M256 120h4v4h-4z"/><path fill="#D7548F" d="M260 120h4v4h-4z"/><path fill="#883A89" d="M264 120h4v4h-4z"/><path fill="#0B675E" d="M60 124h4v4h-4z"/><path fill="#439871" d="M64 124h4v4h-4z"/><path fill="#0B675E" d="M68 124h4v4h-4zM76 124h4v4h-4z"/><path fill="#5EB978" d="M80 124h4v4h-4zM84 124h4v4h-4zM88 124h4v4h-4z"/><path fill="#439871" d="M92 124h4v4h-4zM96 124h4v4h-4z"/><path fill="#0B675E" d="M100 124h4v4h-4z"/><path fill="#439871" d="M104 124h4v4h-4z"/><path fill="#5EB978" d="M108 124h4v4h-4z"/><path fill="#0B675E" d="M112 124h4v4h-4zM116 124h4v4h-4zM120 124h4v4h-4zM124 124h4v4h-4zM128 124h4v4h-4z"/><path fill="#5EB978" d="M132 124h4v4h-4z"/><path fill="#439871" d="M136 124h4v4h-4z"/><path fill="#883A89" d="M140 124h4v4h-4z"/><path fill="#F379C1" d="M144 124h4v4h-4zM148 124h4v4h-4z"/><path fill="#883A89" d="M152 124h4v4h-4z"/><path fill="#439871" d="M156 124h4v4h-4z"/><path fill="#5EB978" d="M160 124h4v4h-4zM164 124h4v4h-4zM168 124h4v4h-4zM172 124h4v4h-4zM176 124h4v4h-4zM180 124h4v4h-4zM184 124h4v4h-4zM188 124h4v4h-4zM192 124h4v4h-4zM196 124h4v4h-4zM200 124h4v4h-4zM204 124h4v4h-4zM208 124h4v4h-4zM212 124h4v4h-4zM216 124h4v4h-4zM220 124h4v4h-4zM224 124h4v4h-4zM228 124h4v4h-4zM232 124h4v4h-4zM236 124h4v4h-4z"/><path fill="#439871" d="M240 124h4v4h-4zM244 124h4v4h-4z"/><path fill="#883A89" d="M248 124h4v4h-4zM252 124h4v4h-4z"/><path fill="#F379C1" d="M256 124h4v4h-4z"/><path fill="#D7548F" d="M260 124h4v4h-4z"/><path fill="#883A89" d="M264 124h4v4h-4z"/><path fill="#0B675E" d="M60 128h4v4h-4z"/><path fill="#439871" d="M64 128h4v4h-4zM68 128h4v4h-4z"/><path fill="#0B675E" d="M72 128h4v4h-4z"/><path fill="#5EB978" d="M76 128h4v4h-4zM80 128h4v4h-4zM84 128h4v4h-4zM88 128h4v4h-4zM92 128h4v4h-4z"/><path fill="#439871" d="M96 128h4v4h-4z"/><path fill="#0B675E" d="M100 128h4v4h-4z"/><path fill="#439871" d="M104 128h4v4h-4zM108 128h4v4h-4zM112 128h4v4h-4z"/><path fill="#0B675E" d="M116 128h4v4h-4zM120 128h4v4h-4zM124 128h4v4h-4z"/><path fill="#439871" d="M128 128h4v4h-4z"/><path fill="#5EB978" d="M132 128h4v4h-4z"/><path fill="#883A89" d="M136 128h4v4h-4z"/><path fill="#F379C1" d="M140 128h4v4h-4zM144 128h4v4h-4zM148 128h4v4h-4zM152 128h4v4h-4z"/><path fill="#883A89" d="M156 128h4v4h-4z"/><path fill="#439871" d="M160 128h4v4h-4z"/><path fill="#5EB978" d="M164 128h4v4h-4zM168 128h4v4h-4zM172 128h4v4h-4zM176 128h4v4h-4zM180 128h4v4h-4zM184 128h4v4h-4zM188 128h4v4h-4zM192 128h4v4h-4zM196 128h4v4h-4zM200 128h4v4h-4z"/><path fill="#439871" d="M204 128h4v4h-4z"/><path fill="#883A89" d="M208 128h4v4h-4zM212 128h4v4h-4zM216 128h4v4h-4zM220 128h4v4h-4zM224 128h4v4h-4zM228 128h4v4h-4zM232 128h4v4h-4zM236 128h4v4h-4zM240 128h4v4h-4zM244 128h4v4h-4z"/><path fill="#F379C1" d="M248 128h4v4h-4z"/><path fill="#D7548F" d="M252 128h4v4h-4zM256 128h4v4h-4z"/><path fill="#883A89" d="M260 128h4v4h-4zM264 128h4v4h-4z"/><path fill="#0B675E" d="M64 132h4v4h-4z"/><path fill="#439871" d="M68 132h4v4h-4z"/><path fill="#0B675E" d="M72 132h4v4h-4z"/><path fill="#5EB978" d="M76 132h4v4h-4zM80 132h4v4h-4zM84 132h4v4h-4zM88 132h4v4h-4zM92 132h4v4h-4z"/><path fill="#439871" d="M96 132h4v4h-4z"/><path fill="#0B675E" d="M100 132h4v4h-4zM104 132h4v4h-4z"/><path fill="#439871" d="M108 132h4v4h-4zM112 132h4v4h-4z"/><path fill="#0B675E" d="M116 132h4v4h-4zM120 132h4v4h-4zM124 132h4v4h-4z"/><path fill="#5EB978" d="M128 132h4v4h-4zM132 132h4v4h-4z"/><path fill="#883A89" d="M136 132h4v4h-4z"/><path fill="#F379C1" d="M140 132h4v4h-4z"/><path fill="#D7548F" d="M144 132h4v4h-4z"/><path fill="#F379C1" d="M148 132h4v4h-4zM152 132h4v4h-4zM156 132h4v4h-4z"/><path fill="#883A89" d="M160 132h4v4h-4z"/><path fill="#439871" d="M164 132h4v4h-4zM168 132h4v4h-4zM172 132h4v4h-4z"/><path fill="#5EB978" d="M176 132h4v4h-4zM180 132h4v4h-4zM184 132h4v4h-4z"/><path fill="#439871" d="M188 132h4v4h-4zM192 132h4v4h-4z"/><path fill="#883A89" d="M196 132h4v4h-4zM200 132h4v4h-4zM204 132h4v4h-4z"/><path fill="#F379C1" d="M208 132h4v4h-4z"/><path fill="#D7548F" d="M212 132h4v4h-4z"/><path fill="#F379C1" d="M216 132h4v4h-4zM220 132h4v4h-4z"/><path fill="#D7548F" d="M224 132h4v4h-4z"/><path fill="#F379C1" d="M228 132h4v4h-4zM232 132h4v4h-4z"/><path fill="#D7548F" d="M236 132h4v4h-4z"/><path fill="#F379C1" d="M240 132h4v4h-4zM244 132h4v4h-4z"/><path fill="#D7548F" d="M248 132h4v4h-4zM252 132h4v4h-4z"/><path fill="#883A89" d="M256 132h4v4h-4zM260 132h4v4h-4z"/><path fill="#0B675E" d="M68 136h4v4h-4z"/><path fill="#5EB978" d="M72 136h4v4h-4zM76 136h4v4h-4zM80 136h4v4h-4zM84 136h4v4h-4zM88 136h4v4h-4z"/><path fill="#439871" d="M92 136h4v4h-4z"/><path fill="#0B675E" d="M96 136h4v4h-4zM100 136h4v4h-4zM104 136h4v4h-4z"/><path fill="#439871" d="M108 136h4v4h-4z"/><path fill="#0B675E" d="M112 136h4v4h-4zM116 136h4v4h-4z"/><path fill="#439871" d="M120 136h4v4h-4z"/><path fill="#0B675E" d="M124 136h4v4h-4z"/><path fill="#5EB978" d="M128 136h4v4h-4zM132 136h4v4h-4z"/><path fill="#883A89" d="M136 136h4v4h-4z"/><path fill="#F379C1" d="M140 136h4v4h-4z"/><path fill="#883A89" d="M144 136h4v4h-4z"/><path fill="#D7548F" d="M148 136h4v4h-4z"/><path fill="#F379C1" d="M152 136h4v4h-4zM156 136h4v4h-4zM160 136h4v4h-4z"/><path fill="#883A89" d="M164 136h4v4h-4zM168 136h4v4h-4zM172 136h4v4h-4zM176 136h4v4h-4zM180 136h4v4h-4zM184 136h4v4h-4zM188 136h4v4h-4zM192 136h4v4h-4z"/><path fill="#D7548F" d="M196 136h4v4h-4z"/><path fill="#F379C1" d="M200 136h4v4h-4zM204 136h4v4h-4zM208 136h4v4h-4z"/><path fill="#D7548F" d="M212 136h4v4h-4zM216 136h4v4h-4zM220 136h4v4h-4zM224 136h4v4h-4zM228 136h4v4h-4zM232 136h4v4h-4zM236 136h4v4h-4zM240 136h4v4h-4zM244 136h4v4h-4z"/><path fill="#883A89" d="M248 136h4v4h-4zM252 136h4v4h-4z"/><path fill="#52294B" d="M256 136h4v4h-4z"/><path fill="#883A89" d="M260 136h4v4h-4z"/><path fill="#0B675E" d="M68 140h4v4h-4z"/><path fill="#5EB978" d="M72 140h4v4h-4zM76 140h4v4h-4zM80 140h4v4h-4zM84 140h4v4h-4zM88 140h4v4h-4z"/><path fill="#439871" d="M92 140h4v4h-4z"/><path fill="#0B675E" d="M96 140h4v4h-4zM100 140h4v4h-4zM104 140h4v4h-4zM108 140h4v4h-4z"/><path fill="#439871" d="M112 140h4v4h-4zM116 140h4v4h-4zM120 140h4v4h-4z"/><path fill="#0B675E" d="M124 140h4v4h-4z"/><path fill="#5EB978" d="M128 140h4v4h-4zM132 140h4v4h-4z"/><path fill="#883A89" d="M136 140h4v4h-4z"/><path fill="#D7548F" d="M140 140h4v4h-4z"/><path fill="#883A89" d="M144 140h4v4h-4zM148 140h4v4h-4z"/><path fill="#D7548F" d="M152 140h4v4h-4zM156 140h4v4h-4z"/><path fill="#F379C1" d="M160 140h4v4h-4zM164 140h4v4h-4zM168 140h4v4h-4zM172 140h4v4h-4z"/><path fill="#D7548F" d="M176 140h4v4h-4z"/><path fill="#F379C1" d="M180 140h4v4h-4zM184 140h4v4h-4zM188 140h4v4h-4zM192 140h4v4h-4z"/><path fill="#D7548F" d="M196 140h4v4h-4z"/><path fill="#F379C1" d="M200 140h4v4h-4zM204 140h4v4h-4z"/><path fill="#D7548F" d="M208 140h4v4h-4z"/><path fill="#883A89" d="M212 140h4v4h-4zM216 140h4v4h-4zM220 140h4v4h-4zM224 140h4v4h-4zM228 140h4v4h-4zM232 140h4v4h-4zM236 140h4v4h-4zM240 140h4v4h-4zM244 140h4v4h-4z"/><path fill="#8F5765" d="M248 140h4v4h-4z"/><path fill="#52294B" d="M252 140h4v4h-4zM256 140h4v4h-4z"/><path fill="#D7548F" d="M260 140h4v4h-4z"/><path fill="#883A89" d="M264 140h4v4h-4z"/><path fill="#0B675E" d="M68 144h4v4h-4z"/><path fill="#5EB978" d="M72 144h4v4h-4zM76 144h4v4h-4zM80 144h4v4h-4zM84 144h4v4h-4zM88 144h4v4h-4zM92 144h4v4h-4z"/><path fill="#439871" d="M96 144h4v4h-4z"/><path fill="#0B675E" d="M100 144h4v4h-4z"/><path fill="#439871" d="M104 144h4v4h-4z"/><path fill="#5EB978" d="M108 144h4v4h-4zM112 144h4v4h-4z"/><path fill="#439871" d="M116 144h4v4h-4zM120 144h4v4h-4z"/><path fill="#0B675E" d="M124 144h4v4h-4z"/><path fill="#439871" d="M128 144h4v4h-4z"/><path fill="#5EB978" d="M132 144h4v4h-4z"/><path fill="#883A89" d="M136 144h4v4h-4z"/><path fill="#D7548F" d="M140 144h4v4h-4z"/><path fill="#883A89" d="M144 144h4v4h-4z"/><path fill="#52294B" d="M148 144h4v4h-4z"/><path fill="#883A89" d="M152 144h4v4h-4zM156 144h4v4h-4z"/><path fill="#D7548F" d="M160 144h4v4h-4zM164 144h4v4h-4zM168 144h4v4h-4zM172 144h4v4h-4zM176 144h4v4h-4zM180 144h4v4h-4zM184 144h4v4h-4zM188 144h4v4h-4zM192 144h4v4h-4zM196 144h4v4h-4z"/><path fill="#883A89" d="M200 144h4v4h-4zM204 144h4v4h-4zM208 144h4v4h-4z"/><path fill="#8F5765" d="M212 144h4v4h-4z"/><path fill="#CF968C" d="M216 144h4v4h-4zM220 144h4v4h-4zM224 144h4v4h-4zM228 144h4v4h-4zM232 144h4v4h-4zM236 144h4v4h-4zM240 144h4v4h-4z"/><path fill="#8F5765" d="M244 144h4v4h-4zM248 144h4v4h-4z"/><path fill="#52294B" d="M252 144h4v4h-4z"/><path fill="#883A89" d="M256 144h4v4h-4z"/><path fill="#D7548F" d="M260 144h4v4h-4z"/><path fill="#883A89" d="M264 144h4v4h-4z"/><path fill="#0B675E" d="M68 148h4v4h-4zM72 148h4v4h-4z"/><path fill="#439871" d="M76 148h4v4h-4z"/><path fill="#5EB978" d="M80 148h4v4h-4zM84 148h4v4h-4zM88 148h4v4h-4zM92 148h4v4h-4zM96 148h4v4h-4z"/><path fill="#439871" d="M100 148h4v4h-4z"/><path fill="#5EB978" d="M104 148h4v4h-4zM108 148h4v4h-4zM112 148h4v4h-4zM116 148h4v4h-4z"/><path fill="#439871" d="M120 148h4v4h-4zM124 148h4v4h-4z"/><path fill="#0B675E" d="M128 148h4v4h-4z"/><path fill="#5EB978" d="M132 148h4v4h-4z"/><path fill="#883A89" d="M136 148h4v4h-4z"/><path fill="#D7548F" d="M140 148h4v4h-4zM144 148h4v4h-4z"/><path fill="#883A89" d="M148 148h4v4h-4z"/><path fill="#52294B" d="M152 148h4v4h-4zM156 148h4v4h-4z"/><path fill="#883A89" d="M160 148h4v4h-4zM164 148h4v4h-4zM168 148h4v4h-4zM172 148h4v4h-4zM176 148h4v4h-4zM180 148h4v4h-4zM184 148h4v4h-4zM188 148h4v4h-4zM192 148h4v4h-4zM196 148h4v4h-4z"/><path fill="#8F5765" d="M200 148h4v4h-4zM204 148h4v4h-4z"/><path fill="#CF968C" d="M208 148h4v4h-4zM212 148h4v4h-4zM216 148h4v4h-4zM220 148h4v4h-4zM224 148h4v4h-4zM228 148h4v4h-4z"/><path fill="#CD948B" d="M232 148h4v4h-4z"/><path fill="#CF968C" d="M236 148h4v4h-4z"/><path fill="#915966" d="M240 148h4v4h-4z"/><path fill="#8F5765" d="M244 148h4v4h-4z"/><path fill="#52294B" d="M248 148h4v4h-4zM252 148h4v4h-4z"/><path fill="#883A89" d="M256 148h4v4h-4z"/><path fill="#D7548F" d="M260 148h4v4h-4z"/><path fill="#883A89" d="M264 148h4v4h-4z"/><path fill="#0B675E" d="M68 152h4v4h-4z"/><path fill="#5EB978" d="M72 152h4v4h-4zM76 152h4v4h-4z"/><path fill="#439871" d="M80 152h4v4h-4z"/><path fill="#5EB978" d="M84 152h4v4h-4zM88 152h4v4h-4zM92 152h4v4h-4z"/><path fill="#439871" d="M96 152h4v4h-4z"/><path fill="#5EB978" d="M100 152h4v4h-4zM104 152h4v4h-4zM108 152h4v4h-4zM112 152h4v4h-4zM116 152h4v4h-4z"/><path fill="#439871" d="M120 152h4v4h-4zM124 152h4v4h-4z"/><path fill="#0B675E" d="M128 152h4v4h-4z"/><path fill="#5EB978" d="M132 152h4v4h-4z"/><path fill="#439871" d="M136 152h4v4h-4z"/><path fill="#883A89" d="M140 152h4v4h-4z"/><path fill="#D7548F" d="M144 152h4v4h-4zM148 152h4v4h-4z"/><path fill="#883A89" d="M152 152h4v4h-4z"/><path fill="#52294B" d="M156 152h4v4h-4zM160 152h4v4h-4zM164 152h4v4h-4z"/><path fill="#8F5765" d="M168 152h4v4h-4zM172 152h4v4h-4zM176 152h4v4h-4z"/><path fill="#CF968C" d="M180 152h4v4h-4zM184 152h4v4h-4z"/><path fill="#CD948B" d="M188 152h4v4h-4z"/><path fill="#CF968C" d="M192 152h4v4h-4zM196 152h4v4h-4zM200 152h4v4h-4zM204 152h4v4h-4zM208 152h4v4h-4z"/><path fill="#8F5765" d="M212 152h4v4h-4z"/><path fill="#CF968C" d="M216 152h4v4h-4zM220 152h4v4h-4z"/><path fill="#8F5765" d="M224 152h4v4h-4zM228 152h4v4h-4z"/><path fill="#915966" d="M232 152h4v4h-4z"/><path fill="#CD948B" d="M236 152h4v4h-4z"/><path fill="#8F5765" d="M240 152h4v4h-4z"/><path fill="#CF968C" d="M244 152h4v4h-4z"/><path fill="#8F5765" d="M248 152h4v4h-4z"/><path fill="#883A89" d="M252 152h4v4h-4z"/><path fill="#F379C1" d="M256 152h4v4h-4z"/><path fill="#883A89" d="M260 152h4v4h-4z"/><path fill="#0B675E" d="M264 152h4v4h-4zM64 156h4v4h-4z"/><path fill="#5EB978" d="M68 156h4v4h-4zM72 156h4v4h-4zM76 156h4v4h-4zM80 156h4v4h-4z"/><path fill="#439871" d="M84 156h4v4h-4z"/><path fill="#5EB978" d="M88 156h4v4h-4zM92 156h4v4h-4z"/><path fill="#439871" d="M96 156h4v4h-4z"/><path fill="#5EB978" d="M100 156h4v4h-4zM104 156h4v4h-4zM108 156h4v4h-4zM112 156h4v4h-4zM116 156h4v4h-4z"/><path fill="#439871" d="M120 156h4v4h-4zM124 156h4v4h-4z"/><path fill="#0B675E" d="M128 156h4v4h-4z"/><path fill="#439871" d="M132 156h4v4h-4z"/><path fill="#5EB978" d="M136 156h4v4h-4z"/><path fill="#883A89" d="M140 156h4v4h-4z"/><path fill="#D7548F" d="M144 156h4v4h-4z"/><path fill="#F379C1" d="M148 156h4v4h-4z"/><path fill="#D7548F" d="M152 156h4v4h-4z"/><path fill="#883A89" d="M156 156h4v4h-4z"/><path fill="#52294B" d="M160 156h4v4h-4z"/><path fill="#8F5765" d="M164 156h4v4h-4z"/><path fill="#52294B" d="M168 156h4v4h-4zM172 156h4v4h-4z"/><path fill="#8F5765" d="M176 156h4v4h-4zM180 156h4v4h-4zM184 156h4v4h-4z"/><path fill="#CD948B" d="M188 156h4v4h-4zM192 156h4v4h-4z"/><path fill="#915966" d="M196 156h4v4h-4z"/><path fill="#8F5765" d="M200 156h4v4h-4zM204 156h4v4h-4zM208 156h4v4h-4zM212 156h4v4h-4zM216 156h4v4h-4zM220 156h4v4h-4z"/><path fill="#CF968C" d="M224 156h4v4h-4zM228 156h4v4h-4zM232 156h4v4h-4z"/><path fill="#915966" d="M236 156h4v4h-4z"/><path fill="#CF968C" d="M240 156h4v4h-4z"/><path fill="#8F5765" d="M244 156h4v4h-4z"/><path fill="#883A89" d="M248 156h4v4h-4z"/><path fill="#F379C1" d="M252 156h4v4h-4z"/><path fill="#D7548F" d="M256 156h4v4h-4z"/><path fill="#883A89" d="M260 156h4v4h-4z"/><path fill="#439871" d="M264 156h4v4h-4z"/><path fill="#0B675E" d="M268 156h4v4h-4zM60 160h4v4h-4z"/><path fill="#5EB978" d="M64 160h4v4h-4zM68 160h4v4h-4zM72 160h4v4h-4z"/><path fill="#0B675E" d="M76 160h4v4h-4zM80 160h4v4h-4zM84 160h4v4h-4z"/><path fill="#5EB978" d="M88 160h4v4h-4zM92 160h4v4h-4z"/><path fill="#439871" d="M96 160h4v4h-4z"/><path fill="#5EB978" d="M100 160h4v4h-4zM104 160h4v4h-4zM108 160h4v4h-4zM112 160h4v4h-4zM116 160h4v4h-4z"/><path fill="#439871" d="M120 160h4v4h-4zM124 160h4v4h-4zM128 160h4v4h-4z"/><path fill="#0B675E" d="M132 160h4v4h-4z"/><path fill="#5EB978" d="M136 160h4v4h-4zM140 160h4v4h-4z"/><path fill="#883A89" d="M144 160h4v4h-4z"/><path fill="#D7548F" d="M148 160h4v4h-4z"/><path fill="#F379C1" d="M152 160h4v4h-4z"/><path fill="#D7548F" d="M156 160h4v4h-4z"/><path fill="#883A89" d="M160 160h4v4h-4zM164 160h4v4h-4z"/><path fill="#8F5765" d="M168 160h4v4h-4zM172 160h4v4h-4z"/><path fill="#CF968C" d="M176 160h4v4h-4zM180 160h4v4h-4zM184 160h4v4h-4z"/><path fill="#915966" d="M188 160h4v4h-4z"/><path fill="#CF968C" d="M192 160h4v4h-4z"/><path fill="#915966" d="M196 160h4v4h-4z"/><path fill="#CF968C" d="M200 160h4v4h-4zM204 160h4v4h-4zM208 160h4v4h-4zM212 160h4v4h-4z"/><path fill="#8F5765" d="M216 160h4v4h-4z"/><path fill="#CF968C" d="M220 160h4v4h-4zM224 160h4v4h-4zM228 160h4v4h-4zM232 160h4v4h-4z"/><path fill="#8F5765" d="M236 160h4v4h-4z"/><path fill="#883A89" d="M240 160h4v4h-4zM244 160h4v4h-4z"/><path fill="#F379C1" d="M248 160h4v4h-4z"/><path fill="#D7548F" d="M252 160h4v4h-4z"/><path fill="#883A89" d="M256 160h4v4h-4z"/><path fill="#0B675E" d="M260 160h4v4h-4z"/><path fill="#439871" d="M264 160h4v4h-4z"/><path fill="#5EB978" d="M268 160h4v4h-4z"/><path fill="#0B675E" d="M272 160h4v4h-4zM288 160h4v4h-4zM60 164h4v4h-4zM64 164h4v4h-4zM68 164h4v4h-4zM72 164h4v4h-4z"/><path fill="#439871" d="M76 164h4v4h-4zM80 164h4v4h-4zM84 164h4v4h-4z"/><path fill="#5EB978" d="M88 164h4v4h-4zM92 164h4v4h-4z"/><path fill="#439871" d="M96 164h4v4h-4zM100 164h4v4h-4z"/><path fill="#5EB978" d="M104 164h4v4h-4zM108 164h4v4h-4zM112 164h4v4h-4z"/><path fill="#439871" d="M116 164h4v4h-4zM120 164h4v4h-4zM124 164h4v4h-4zM128 164h4v4h-4z"/><path fill="#0B675E" d="M132 164h4v4h-4z"/><path fill="#439871" d="M136 164h4v4h-4z"/><path fill="#5EB978" d="M140 164h4v4h-4zM144 164h4v4h-4z"/><path fill="#883A89" d="M148 164h4v4h-4z"/><path fill="#D7548F" d="M152 164h4v4h-4z"/><path fill="#F379C1" d="M156 164h4v4h-4zM160 164h4v4h-4z"/><path fill="#D7548F" d="M164 164h4v4h-4z"/><path fill="#883A89" d="M168 164h4v4h-4zM172 164h4v4h-4zM176 164h4v4h-4zM180 164h4v4h-4zM184 164h4v4h-4z"/><path fill="#CD948B" d="M188 164h4v4h-4z"/><path fill="#915966" d="M192 164h4v4h-4z"/><path fill="#CF968C" d="M196 164h4v4h-4zM200 164h4v4h-4zM204 164h4v4h-4zM208 164h4v4h-4zM212 164h4v4h-4zM216 164h4v4h-4zM220 164h4v4h-4z"/><path fill="#8F5765" d="M224 164h4v4h-4z"/><path fill="#883A89" d="M228 164h4v4h-4zM232 164h4v4h-4zM236 164h4v4h-4z"/><path fill="#D7548F" d="M240 164h4v4h-4z"/><path fill="#F379C1" d="M244 164h4v4h-4z"/><path fill="#D7548F" d="M248 164h4v4h-4z"/><path fill="#883A89" d="M252 164h4v4h-4z"/><path fill="#439871" d="M256 164h4v4h-4z"/><path fill="#0B675E" d="M260 164h4v4h-4zM264 164h4v4h-4z"/><path fill="#439871" d="M268 164h4v4h-4z"/><path fill="#5EB978" d="M272 164h4v4h-4z"/><path fill="#0B675E" d="M276 164h4v4h-4zM280 164h4v4h-4zM284 164h4v4h-4zM288 164h4v4h-4zM72 168h4v4h-4z"/><path fill="#439871" d="M76 168h4v4h-4zM80 168h4v4h-4z"/><path fill="#5EB978" d="M84 168h4v4h-4zM88 168h4v4h-4z"/><path fill="#439871" d="M92 168h4v4h-4zM96 168h4v4h-4zM100 168h4v4h-4zM104 168h4v4h-4zM108 168h4v4h-4zM112 168h4v4h-4zM116 168h4v4h-4zM120 168h4v4h-4zM124 168h4v4h-4zM128 168h4v4h-4zM132 168h4v4h-4z"/><path fill="#0B675E" d="M136 168h4v4h-4z"/><path fill="#439871" d="M140 168h4v4h-4z"/><path fill="#5EB978" d="M144 168h4v4h-4z"/><path fill="#439871" d="M148 168h4v4h-4z"/><path fill="#883A89" d="M152 168h4v4h-4z"/><path fill="#D7548F" d="M156 168h4v4h-4zM160 168h4v4h-4z"/><path fill="#F379C1" d="M164 168h4v4h-4zM168 168h4v4h-4z"/><path fill="#D7548F" d="M172 168h4v4h-4z"/><path fill="#F379C1" d="M176 168h4v4h-4zM180 168h4v4h-4z"/><path fill="#D7548F" d="M184 168h4v4h-4z"/><path fill="#883A89" d="M188 168h4v4h-4zM192 168h4v4h-4zM196 168h4v4h-4zM200 168h4v4h-4zM204 168h4v4h-4zM208 168h4v4h-4zM212 168h4v4h-4zM216 168h4v4h-4zM220 168h4v4h-4zM224 168h4v4h-4z"/><path fill="#D7548F" d="M228 168h4v4h-4z"/><path fill="#F379C1" d="M232 168h4v4h-4z"/><path fill="#D7548F" d="M236 168h4v4h-4z"/><path fill="#F379C1" d="M240 168h4v4h-4z"/><path fill="#D7548F" d="M244 168h4v4h-4z"/><path fill="#883A89" d="M248 168h4v4h-4z"/><path fill="#439871" d="M252 168h4v4h-4z"/><path fill="#0B675E" d="M256 168h4v4h-4z"/><path fill="#439871" d="M260 168h4v4h-4zM264 168h4v4h-4z"/><path fill="#0B675E" d="M268 168h4v4h-4z"/><path fill="#439871" d="M272 168h4v4h-4z"/><path fill="#5EB978" d="M276 168h4v4h-4zM280 168h4v4h-4z"/><path fill="#0B675E" d="M284 168h4v4h-4zM76 172h4v4h-4z"/><path fill="#439871" d="M80 172h4v4h-4zM84 172h4v4h-4zM88 172h4v4h-4zM92 172h4v4h-4zM96 172h4v4h-4zM100 172h4v4h-4zM104 172h4v4h-4zM108 172h4v4h-4zM112 172h4v4h-4zM116 172h4v4h-4zM120 172h4v4h-4zM124 172h4v4h-4zM128 172h4v4h-4z"/><path fill="#0B675E" d="M132 172h4v4h-4zM136 172h4v4h-4zM140 172h4v4h-4z"/><path fill="#439871" d="M144 172h4v4h-4z"/><path fill="#5EB978" d="M148 172h4v4h-4z"/><path fill="#439871" d="M152 172h4v4h-4z"/><path fill="#883A89" d="M156 172h4v4h-4zM160 172h4v4h-4z"/><path fill="#D7548F" d="M164 172h4v4h-4zM168 172h4v4h-4zM172 172h4v4h-4zM176 172h4v4h-4zM180 172h4v4h-4z"/><path fill="#F379C1" d="M184 172h4v4h-4zM188 172h4v4h-4z"/><path fill="#D7548F" d="M192 172h4v4h-4z"/><path fill="#F379C1" d="M196 172h4v4h-4zM200 172h4v4h-4z"/><path fill="#D7548F" d="M204 172h4v4h-4z"/><path fill="#F379C1" d="M208 172h4v4h-4zM212 172h4v4h-4zM216 172h4v4h-4z"/><path fill="#D7548F" d="M220 172h4v4h-4z"/><path fill="#F379C1" d="M224 172h4v4h-4zM228 172h4v4h-4z"/><path fill="#D7548F" d="M232 172h4v4h-4zM236 172h4v4h-4z"/><path fill="#883A89" d="M240 172h4v4h-4zM244 172h4v4h-4z"/><path fill="#439871" d="M248 172h4v4h-4z"/><path fill="#0B675E" d="M252 172h4v4h-4z"/><path fill="#439871" d="M256 172h4v4h-4z"/><path fill="#5EB978" d="M260 172h4v4h-4zM264 172h4v4h-4zM268 172h4v4h-4zM272 172h4v4h-4z"/><path fill="#439871" d="M276 172h4v4h-4z"/><path fill="#0B675E" d="M280 172h4v4h-4zM80 176h4v4h-4z"/><path fill="#439871" d="M84 176h4v4h-4zM88 176h4v4h-4zM92 176h4v4h-4zM96 176h4v4h-4zM100 176h4v4h-4zM104 176h4v4h-4zM108 176h4v4h-4zM112 176h4v4h-4zM116 176h4v4h-4zM120 176h4v4h-4z"/><path fill="#0B675E" d="M124 176h4v4h-4zM128 176h4v4h-4zM132 176h4v4h-4zM136 176h4v4h-4zM140 176h4v4h-4zM144 176h4v4h-4z"/><path fill="#439871" d="M148 176h4v4h-4zM152 176h4v4h-4zM156 176h4v4h-4zM160 176h4v4h-4z"/><path fill="#883A89" d="M164 176h4v4h-4zM168 176h4v4h-4zM172 176h4v4h-4zM176 176h4v4h-4zM180 176h4v4h-4z"/><path fill="#D7548F" d="M184 176h4v4h-4zM188 176h4v4h-4zM192 176h4v4h-4zM196 176h4v4h-4zM200 176h4v4h-4zM204 176h4v4h-4zM208 176h4v4h-4zM212 176h4v4h-4zM216 176h4v4h-4zM220 176h4v4h-4zM224 176h4v4h-4zM228 176h4v4h-4z"/><path fill="#883A89" d="M232 176h4v4h-4zM236 176h4v4h-4z"/><path fill="#439871" d="M240 176h4v4h-4zM244 176h4v4h-4z"/><path fill="#0B675E" d="M248 176h4v4h-4z"/><path fill="#439871" d="M252 176h4v4h-4zM256 176h4v4h-4z"/><path fill="#5EB978" d="M260 176h4v4h-4zM264 176h4v4h-4z"/><path fill="#439871" d="M268 176h4v4h-4zM272 176h4v4h-4z"/><path fill="#0B675E" d="M276 176h4v4h-4zM84 180h4v4h-4zM88 180h4v4h-4z"/><path fill="#439871" d="M92 180h4v4h-4zM96 180h4v4h-4zM100 180h4v4h-4zM104 180h4v4h-4zM108 180h4v4h-4zM112 180h4v4h-4z"/><path fill="#0B675E" d="M116 180h4v4h-4zM120 180h4v4h-4zM124 180h4v4h-4zM128 180h4v4h-4zM132 180h4v4h-4zM136 180h4v4h-4zM140 180h4v4h-4zM144 180h4v4h-4zM148 180h4v4h-4z"/><path fill="#439871" d="M152 180h4v4h-4zM156 180h4v4h-4zM160 180h4v4h-4zM164 180h4v4h-4zM168 180h4v4h-4zM172 180h4v4h-4zM176 180h4v4h-4zM180 180h4v4h-4z"/><path fill="#883A89" d="M184 180h4v4h-4zM188 180h4v4h-4zM192 180h4v4h-4zM196 180h4v4h-4zM200 180h4v4h-4zM204 180h4v4h-4zM208 180h4v4h-4zM212 180h4v4h-4zM216 180h4v4h-4zM220 180h4v4h-4zM224 180h4v4h-4zM228 180h4v4h-4z"/><path fill="#439871" d="M232 180h4v4h-4zM236 180h4v4h-4zM240 180h4v4h-4z"/><path fill="#0B675E" d="M244 180h4v4h-4zM248 180h4v4h-4zM252 180h4v4h-4zM256 180h4v4h-4zM260 180h4v4h-4zM264 180h4v4h-4zM268 180h4v4h-4zM272 180h4v4h-4zM88 184h4v4h-4zM92 184h4v4h-4zM96 184h4v4h-4zM100 184h4v4h-4zM104 184h4v4h-4zM108 184h4v4h-4zM112 184h4v4h-4zM116 184h4v4h-4zM120 184h4v4h-4zM124 184h4v4h-4zM128 184h4v4h-4zM132 184h4v4h-4zM136 184h4v4h-4zM140 184h4v4h-4zM144 184h4v4h-4zM148 184h4v4h-4zM152 184h4v4h-4zM156 184h4v4h-4z"/><path fill="#439871" d="M160 184h4v4h-4zM164 184h4v4h-4zM168 184h4v4h-4zM172 184h4v4h-4zM176 184h4v4h-4zM180 184h4v4h-4zM184 184h4v4h-4zM188 184h4v4h-4zM192 184h4v4h-4zM196 184h4v4h-4zM200 184h4v4h-4zM204 184h4v4h-4zM208 184h4v4h-4zM212 184h4v4h-4zM216 184h4v4h-4zM220 184h4v4h-4zM224 184h4v4h-4zM228 184h4v4h-4zM232 184h4v4h-4z"/><path fill="#0B675E" d="M236 184h4v4h-4zM240 184h4v4h-4zM244 184h4v4h-4zM248 184h4v4h-4zM88 188h4v4h-4z"/><path fill="#439871" d="M92 188h4v4h-4zM96 188h4v4h-4zM100 188h4v4h-4z"/><path fill="#0B675E" d="M104 188h4v4h-4zM108 188h4v4h-4zM112 188h4v4h-4zM116 188h4v4h-4zM120 188h4v4h-4zM124 188h4v4h-4z"/><path fill="#5EB978" d="M128 188h4v4h-4z"/><path fill="#0B675E" d="M132 188h4v4h-4zM136 188h4v4h-4zM140 188h4v4h-4zM144 188h4v4h-4zM148 188h4v4h-4zM152 188h4v4h-4zM156 188h4v4h-4zM160 188h4v4h-4zM164 188h4v4h-4zM168 188h4v4h-4zM172 188h4v4h-4zM176 188h4v4h-4z"/><path fill="#439871" d="M180 188h4v4h-4zM184 188h4v4h-4zM188 188h4v4h-4zM192 188h4v4h-4zM196 188h4v4h-4zM200 188h4v4h-4zM204 188h4v4h-4zM208 188h4v4h-4zM212 188h4v4h-4zM216 188h4v4h-4zM220 188h4v4h-4z"/><path fill="#0B675E" d="M224 188h4v4h-4zM228 188h4v4h-4zM232 188h4v4h-4zM236 188h4v4h-4zM240 188h4v4h-4zM244 188h4v4h-4zM248 188h4v4h-4zM252 188h4v4h-4zM260 188h4v4h-4zM264 188h4v4h-4zM84 192h4v4h-4z"/><path fill="#5EB978" d="M88 192h4v4h-4zM92 192h4v4h-4zM96 192h4v4h-4z"/><path fill="#439871" d="M100 192h4v4h-4zM104 192h4v4h-4z"/><path fill="#0B675E" d="M108 192h4v4h-4zM112 192h4v4h-4zM116 192h4v4h-4zM120 192h4v4h-4zM124 192h4v4h-4z"/><path fill="#5EB978" d="M128 192h4v4h-4z"/><path fill="#439871" d="M132 192h4v4h-4z"/><path fill="#0B675E" d="M136 192h4v4h-4zM140 192h4v4h-4z"/><path fill="#439871" d="M144 192h4v4h-4z"/><path fill="#5EB978" d="M148 192h4v4h-4zM152 192h4v4h-4z"/><path fill="#0B675E" d="M156 192h4v4h-4zM160 192h4v4h-4zM164 192h4v4h-4z"/><path fill="#439871" d="M168 192h4v4h-4zM172 192h4v4h-4zM176 192h4v4h-4z"/><path fill="#0B675E" d="M180 192h4v4h-4zM184 192h4v4h-4zM188 192h4v4h-4zM192 192h4v4h-4zM196 192h4v4h-4zM200 192h4v4h-4zM204 192h4v4h-4zM208 192h4v4h-4zM212 192h4v4h-4zM216 192h4v4h-4zM220 192h4v4h-4zM224 192h4v4h-4zM228 192h4v4h-4zM232 192h4v4h-4z"/><path fill="#439871" d="M236 192h4v4h-4zM240 192h4v4h-4zM244 192h4v4h-4zM248 192h4v4h-4zM252 192h4v4h-4z"/><path fill="#0B675E" d="M256 192h4v4h-4z"/><path fill="#5EB978" d="M260 192h4v4h-4z"/><path fill="#0B675E" d="M264 192h4v4h-4zM84 196h4v4h-4z"/><path fill="#5EB978" d="M88 196h4v4h-4zM92 196h4v4h-4zM96 196h4v4h-4zM100 196h4v4h-4z"/><path fill="#439871" d="M104 196h4v4h-4zM108 196h4v4h-4z"/><path fill="#0B675E" d="M112 196h4v4h-4zM116 196h4v4h-4z"/><path fill="#5EB978" d="M120 196h4v4h-4zM124 196h4v4h-4z"/><path fill="#439871" d="M128 196h4v4h-4z"/><path fill="#0B675E" d="M132 196h4v4h-4zM136 196h4v4h-4z"/><path fill="#439871" d="M140 196h4v4h-4zM144 196h4v4h-4z"/><path fill="#0B675E" d="M148 196h4v4h-4z"/><path fill="#439871" d="M152 196h4v4h-4z"/><path fill="#5EB978" d="M156 196h4v4h-4z"/><path fill="#0B675E" d="M160 196h4v4h-4z"/><path fill="#439871" d="M164 196h4v4h-4z"/><path fill="#5EB978" d="M168 196h4v4h-4zM172 196h4v4h-4z"/><path fill="#439871" d="M176 196h4v4h-4zM180 196h4v4h-4zM184 196h4v4h-4zM188 196h4v4h-4zM192 196h4v4h-4zM196 196h4v4h-4zM200 196h4v4h-4z"/><path fill="#0B675E" d="M204 196h4v4h-4zM208 196h4v4h-4z"/><path fill="#439871" d="M212 196h4v4h-4zM216 196h4v4h-4zM220 196h4v4h-4zM224 196h4v4h-4z"/><path fill="#449972" d="M228 196h4v4h-4zM232 196h4v4h-4z"/><path fill="#439871" d="M236 196h4v4h-4z"/><path fill="#5EB978" d="M240 196h4v4h-4zM244 196h4v4h-4zM248 196h4v4h-4z"/><path fill="#0B675E" d="M252 196h4v4h-4z"/><path fill="#5EB978" d="M256 196h4v4h-4zM260 196h4v4h-4z"/><path fill="#0B675E" d="M264 196h4v4h-4zM80 200h4v4h-4zM84 200h4v4h-4z"/><path fill="#5EB978" d="M88 200h4v4h-4zM92 200h4v4h-4zM96 200h4v4h-4zM100 200h4v4h-4z"/><path fill="#439871" d="M104 200h4v4h-4z"/><path fill="#0B675E" d="M108 200h4v4h-4zM112 200h4v4h-4z"/><path fill="#5EB978" d="M116 200h4v4h-4z"/><path fill="#439871" d="M120 200h4v4h-4z"/><path fill="#0B675E" d="M124 200h4v4h-4zM128 200h4v4h-4zM132 200h4v4h-4zM136 200h4v4h-4zM140 200h4v4h-4zM144 200h4v4h-4zM148 200h4v4h-4z"/><path fill="#439871" d="M152 200h4v4h-4z"/><path fill="#5EB978" d="M156 200h4v4h-4z"/><path fill="#0B675E" d="M160 200h4v4h-4z"/><path fill="#5EB978" d="M164 200h4v4h-4zM168 200h4v4h-4zM172 200h4v4h-4zM176 200h4v4h-4z"/><path fill="#439871" d="M180 200h4v4h-4zM184 200h4v4h-4zM188 200h4v4h-4zM192 200h4v4h-4zM196 200h4v4h-4z"/><path fill="#0B675E" d="M200 200h4v4h-4zM204 200h4v4h-4zM208 200h4v4h-4zM212 200h4v4h-4z"/><path fill="#439871" d="M216 200h4v4h-4zM220 200h4v4h-4z"/><path fill="#449972" d="M224 200h4v4h-4zM228 200h4v4h-4zM232 200h4v4h-4zM236 200h4v4h-4z"/><path fill="#439871" d="M240 200h4v4h-4z"/><path fill="#5EB978" d="M244 200h4v4h-4z"/><path fill="#439871" d="M248 200h4v4h-4z"/><path fill="#5EB978" d="M252 200h4v4h-4zM256 200h4v4h-4zM260 200h4v4h-4z"/><path fill="#0B675E" d="M264 200h4v4h-4zM76 204h4v4h-4z"/><path fill="#5EB978" d="M80 204h4v4h-4z"/><path fill="#0B675E" d="M84 204h4v4h-4z"/><path fill="#5EB978" d="M88 204h4v4h-4zM92 204h4v4h-4zM96 204h4v4h-4z"/><path fill="#439871" d="M100 204h4v4h-4z"/><path fill="#0B675E" d="M104 204h4v4h-4z"/><path fill="#5EB978" d="M108 204h4v4h-4zM112 204h4v4h-4z"/><path fill="#0B675E" d="M116 204h4v4h-4zM120 204h4v4h-4z"/><path fill="#439871" d="M124 204h4v4h-4z"/><path fill="#5EB978" d="M128 204h4v4h-4zM132 204h4v4h-4zM136 204h4v4h-4zM140 204h4v4h-4zM144 204h4v4h-4z"/><path fill="#439871" d="M148 204h4v4h-4z"/><path fill="#0B675E" d="M152 204h4v4h-4z"/><path fill="#5EB978" d="M156 204h4v4h-4z"/><path fill="#0B675E" d="M160 204h4v4h-4z"/><path fill="#5EB978" d="M164 204h4v4h-4zM168 204h4v4h-4zM172 204h4v4h-4zM176 204h4v4h-4z"/><path fill="#439871" d="M180 204h4v4h-4zM184 204h4v4h-4zM188 204h4v4h-4zM192 204h4v4h-4zM196 204h4v4h-4z"/><path fill="#0B675E" d="M200 204h4v4h-4z"/><path fill="#5EB978" d="M204 204h4v4h-4zM208 204h4v4h-4zM212 204h4v4h-4z"/><path fill="#419770" d="M216 204h4v4h-4z"/><path fill="#449972" d="M220 204h4v4h-4zM224 204h4v4h-4zM228 204h4v4h-4zM232 204h4v4h-4zM236 204h4v4h-4z"/><path fill="#439871" opacity=".98" d="M240 204h4v4h-4z"/><path fill="#5EB978" d="M244 204h4v4h-4zM248 204h4v4h-4z"/><path fill="#439871" d="M252 204h4v4h-4zM256 204h4v4h-4z"/><path fill="#0B675E" d="M260 204h4v4h-4zM72 208h4v4h-4z"/><path fill="#5EB978" d="M76 208h4v4h-4zM80 208h4v4h-4z"/><path fill="#0B675E" d="M84 208h4v4h-4z"/><path fill="#5EB978" d="M88 208h4v4h-4zM92 208h4v4h-4z"/><path fill="#439871" d="M96 208h4v4h-4z"/><path fill="#0B675E" d="M100 208h4v4h-4z"/><path fill="#5EB978" d="M104 208h4v4h-4z"/><path fill="#0B675E" d="M108 208h4v4h-4zM112 208h4v4h-4z"/><path fill="#439871" d="M116 208h4v4h-4zM120 208h4v4h-4z"/><path fill="#5EB978" d="M124 208h4v4h-4zM128 208h4v4h-4zM132 208h4v4h-4zM136 208h4v4h-4zM140 208h4v4h-4zM144 208h4v4h-4z"/><path fill="#439871" d="M148 208h4v4h-4z"/><path fill="#0B675E" d="M152 208h4v4h-4z"/><path fill="#439871" d="M156 208h4v4h-4z"/><path fill="#5EB978" d="M160 208h4v4h-4z"/><path fill="#0B675E" d="M164 208h4v4h-4z"/><path fill="#5EB978" d="M168 208h4v4h-4zM172 208h4v4h-4z"/><path fill="#439871" d="M176 208h4v4h-4zM180 208h4v4h-4zM184 208h4v4h-4zM188 208h4v4h-4zM192 208h4v4h-4z"/><path fill="#0B675E" d="M196 208h4v4h-4zM200 208h4v4h-4z"/><path fill="#5EB978" d="M204 208h4v4h-4zM208 208h4v4h-4zM212 208h4v4h-4z"/><path fill="#0B675E" d="M216 208h4v4h-4z"/><path fill="#449972" d="M220 208h4v4h-4zM224 208h4v4h-4zM228 208h4v4h-4zM232 208h4v4h-4z"/><path fill="#0B675E" d="M236 208h4v4h-4zM240 208h4v4h-4zM244 208h4v4h-4zM248 208h4v4h-4z"/><path fill="#5EB978" d="M252 208h4v4h-4zM256 208h4v4h-4z"/><path fill="#439871" d="M260 208h4v4h-4z"/><path fill="#0B675E" d="M264 208h4v4h-4zM76 212h4v4h-4zM80 212h4v4h-4zM84 212h4v4h-4z"/><path fill="#439871" d="M88 212h4v4h-4z"/><path fill="#5EB978" d="M92 212h4v4h-4z"/><path fill="#0B675E" d="M96 212h4v4h-4z"/><path fill="#5EB978" d="M100 212h4v4h-4z"/><path fill="#0B675E" d="M104 212h4v4h-4z"/><path fill="#439871" d="M108 212h4v4h-4zM112 212h4v4h-4zM116 212h4v4h-4z"/><path fill="#5EB978" d="M120 212h4v4h-4zM124 212h4v4h-4zM128 212h4v4h-4z"/><path fill="#439871" d="M132 212h4v4h-4z"/><path fill="#0B675E" d="M136 212h4v4h-4zM140 212h4v4h-4zM144 212h4v4h-4z"/><path fill="#439871" d="M148 212h4v4h-4zM152 212h4v4h-4z"/><path fill="#0B675E" d="M156 212h4v4h-4z"/><path fill="#439871" d="M160 212h4v4h-4z"/><path fill="#5EB978" d="M164 212h4v4h-4z"/><path fill="#0B675E" d="M168 212h4v4h-4zM172 212h4v4h-4zM176 212h4v4h-4zM180 212h4v4h-4zM184 212h4v4h-4zM188 212h4v4h-4zM192 212h4v4h-4z"/><path fill="#439871" d="M196 212h4v4h-4z"/><path fill="#0B675E" d="M200 212h4v4h-4z"/><path fill="#5EB978" d="M204 212h4v4h-4zM208 212h4v4h-4z"/><path fill="#0B675E" d="M212 212h4v4h-4z"/><path fill="#439871" d="M216 212h4v4h-4z"/><path fill="#5EB978" d="M220 212h4v4h-4z"/><path fill="#439871" opacity=".98" d="M224 212h4v4h-4z"/><path fill="#0B675E" d="M228 212h4v4h-4zM232 212h4v4h-4zM236 212h4v4h-4zM240 212h4v4h-4zM244 212h4v4h-4zM248 212h4v4h-4z"/><path fill="#5EB978" d="M252 212h4v4h-4z"/><path fill="#439871" d="M256 212h4v4h-4zM260 212h4v4h-4z"/><path fill="#0B675E" d="M264 212h4v4h-4zM88 216h4v4h-4z"/><path fill="#439871" d="M92 216h4v4h-4z"/><path fill="#0B675E" d="M96 216h4v4h-4z"/><path fill="#5EB978" d="M100 216h4v4h-4z"/><path fill="#0B675E" d="M104 216h4v4h-4z"/><path fill="#439871" d="M108 216h4v4h-4zM112 216h4v4h-4z"/><path fill="#5EB978" d="M116 216h4v4h-4zM120 216h4v4h-4z"/><path fill="#439871" d="M124 216h4v4h-4z"/><path fill="#5EB978" d="M128 216h4v4h-4zM132 216h4v4h-4zM136 216h4v4h-4zM140 216h4v4h-4zM144 216h4v4h-4z"/><path fill="#0B675E" d="M148 216h4v4h-4z"/><path fill="#439871" d="M152 216h4v4h-4zM156 216h4v4h-4z"/><path fill="#0B675E" d="M160 216h4v4h-4z"/><path fill="#439871" d="M164 216h4v4h-4z"/><path fill="#5EB978" d="M168 216h4v4h-4zM172 216h4v4h-4zM176 216h4v4h-4z"/><path fill="#439871" d="M180 216h4v4h-4zM184 216h4v4h-4z"/><path fill="#0B675E" d="M188 216h4v4h-4z"/><path fill="#439871" d="M192 216h4v4h-4z"/><path fill="#5EB978" d="M196 216h4v4h-4z"/><path fill="#439871" d="M200 216h4v4h-4z"/><path fill="#5EB978" d="M204 216h4v4h-4z"/><path fill="#439871" d="M208 216h4v4h-4z"/><path fill="#5EB978" d="M212 216h4v4h-4zM216 216h4v4h-4z"/><path fill="#439871" opacity=".98" d="M220 216h4v4h-4z"/><path fill="#0B675E" d="M224 216h4v4h-4zM228 216h4v4h-4zM232 216h4v4h-4zM236 216h4v4h-4zM240 216h4v4h-4zM244 216h4v4h-4zM248 216h4v4h-4zM252 216h4v4h-4z"/><path fill="#439871" d="M256 216h4v4h-4zM260 216h4v4h-4z"/><path fill="#0B675E" d="M264 216h4v4h-4zM92 220h4v4h-4zM96 220h4v4h-4z"/><path fill="#5EB978" d="M100 220h4v4h-4z"/><path fill="#0B675E" d="M104 220h4v4h-4z"/><path fill="#439871" d="M108 220h4v4h-4zM112 220h4v4h-4z"/><path fill="#5EB978" d="M116 220h4v4h-4zM120 220h4v4h-4zM124 220h4v4h-4z"/><path fill="#0B675E" d="M128 220h4v4h-4z"/><path fill="#5EB978" d="M132 220h4v4h-4zM136 220h4v4h-4zM140 220h4v4h-4z"/><path fill="#0B675E" d="M144 220h4v4h-4z"/><path fill="#439871" d="M148 220h4v4h-4z"/><path fill="#5EB978" d="M152 220h4v4h-4z"/><path fill="#439871" d="M156 220h4v4h-4zM160 220h4v4h-4z"/><path fill="#0B675E" d="M164 220h4v4h-4zM168 220h4v4h-4zM172 220h4v4h-4zM176 220h4v4h-4zM180 220h4v4h-4zM184 220h4v4h-4zM188 220h4v4h-4z"/><path fill="#5EB978" d="M192 220h4v4h-4zM196 220h4v4h-4zM200 220h4v4h-4zM204 220h4v4h-4zM208 220h4v4h-4z"/><path fill="#449972" d="M212 220h4v4h-4z"/><path fill="#5EB978" d="M216 220h4v4h-4z"/><path fill="#439871" opacity=".98" d="M220 220h4v4h-4z"/><path fill="#0B675E" d="M224 220h4v4h-4zM228 220h4v4h-4zM232 220h4v4h-4zM236 220h4v4h-4zM240 220h4v4h-4zM244 220h4v4h-4zM248 220h4v4h-4zM252 220h4v4h-4z"/><path fill="#439871" d="M256 220h4v4h-4zM260 220h4v4h-4z"/><path fill="#0B675E" d="M264 220h4v4h-4zM96 224h4v4h-4z"/><path fill="#5EB978" d="M100 224h4v4h-4z"/><path fill="#0B675E" d="M104 224h4v4h-4z"/><path fill="#439871" d="M108 224h4v4h-4zM112 224h4v4h-4zM116 224h4v4h-4z"/><path fill="#5EB978" d="M120 224h4v4h-4zM124 224h4v4h-4z"/><path fill="#439871" d="M128 224h4v4h-4z"/><path fill="#0B675E" d="M132 224h4v4h-4z"/><path fill="#5EB978" d="M136 224h4v4h-4z"/><path fill="#0B675E" d="M140 224h4v4h-4z"/><path fill="#439871" d="M144 224h4v4h-4z"/><path fill="#5EB978" d="M148 224h4v4h-4zM152 224h4v4h-4zM156 224h4v4h-4z"/><path fill="#439871" d="M160 224h4v4h-4zM164 224h4v4h-4zM168 224h4v4h-4zM172 224h4v4h-4zM176 224h4v4h-4zM180 224h4v4h-4z"/><path fill="#0B675E" d="M184 224h4v4h-4z"/><path fill="#439871" d="M188 224h4v4h-4z"/><path fill="#5EB978" d="M192 224h4v4h-4zM196 224h4v4h-4zM200 224h4v4h-4zM204 224h4v4h-4zM208 224h4v4h-4z"/><path fill="#449972" d="M212 224h4v4h-4z"/><path fill="#439871" d="M216 224h4v4h-4z"/><path fill="#0B675E" d="M220 224h4v4h-4zM224 224h4v4h-4zM228 224h4v4h-4zM232 224h4v4h-4zM236 224h4v4h-4zM240 224h4v4h-4zM244 224h4v4h-4zM248 224h4v4h-4z"/><path fill="#439871" d="M252 224h4v4h-4zM256 224h4v4h-4z"/><path fill="#0B675E" d="M260 224h4v4h-4zM96 228h4v4h-4z"/><path fill="#5EB978" d="M100 228h4v4h-4z"/><path fill="#0B675E" d="M104 228h4v4h-4z"/><path fill="#439871" d="M108 228h4v4h-4zM112 228h4v4h-4zM116 228h4v4h-4zM120 228h4v4h-4zM124 228h4v4h-4zM128 228h4v4h-4zM132 228h4v4h-4z"/><path fill="#0B675E" d="M136 228h4v4h-4z"/><path fill="#439871" d="M140 228h4v4h-4zM144 228h4v4h-4zM148 228h4v4h-4zM152 228h4v4h-4zM156 228h4v4h-4zM160 228h4v4h-4zM164 228h4v4h-4zM168 228h4v4h-4zM172 228h4v4h-4zM176 228h4v4h-4zM180 228h4v4h-4z"/><path fill="#0B675E" d="M184 228h4v4h-4z"/><path fill="#5EB978" d="M188 228h4v4h-4zM192 228h4v4h-4zM196 228h4v4h-4zM200 228h4v4h-4zM204 228h4v4h-4zM208 228h4v4h-4z"/><path fill="#439871" d="M212 228h4v4h-4z"/><path fill="#0B675E" d="M216 228h4v4h-4zM220 228h4v4h-4zM224 228h4v4h-4zM228 228h4v4h-4zM232 228h4v4h-4zM236 228h4v4h-4zM240 228h4v4h-4zM244 228h4v4h-4zM248 228h4v4h-4zM252 228h4v4h-4zM256 228h4v4h-4zM96 232h4v4h-4z"/><path fill="#5EB978" d="M100 232h4v4h-4z"/><path fill="#0B675E" d="M104 232h4v4h-4zM108 232h4v4h-4zM112 232h4v4h-4z"/><path fill="#439871" d="M116 232h4v4h-4zM120 232h4v4h-4zM124 232h4v4h-4zM128 232h4v4h-4zM132 232h4v4h-4zM136 232h4v4h-4zM140 232h4v4h-4zM144 232h4v4h-4zM148 232h4v4h-4zM152 232h4v4h-4zM156 232h4v4h-4zM160 232h4v4h-4zM164 232h4v4h-4zM168 232h4v4h-4z"/><path fill="#0B675E" d="M172 232h4v4h-4zM176 232h4v4h-4zM180 232h4v4h-4z"/><path fill="#439871" d="M184 232h4v4h-4z"/><path fill="#5EB978" d="M188 232h4v4h-4zM192 232h4v4h-4zM196 232h4v4h-4zM200 232h4v4h-4zM204 232h4v4h-4z"/><path fill="#439871" d="M208 232h4v4h-4zM212 232h4v4h-4z"/><path fill="#0B675E" d="M216 232h4v4h-4zM220 232h4v4h-4zM224 232h4v4h-4zM228 232h4v4h-4zM232 232h4v4h-4zM236 232h4v4h-4zM240 232h4v4h-4zM244 232h4v4h-4zM248 232h4v4h-4zM252 232h4v4h-4zM256 232h4v4h-4zM96 236h4v4h-4z"/><path fill="#5EB978" d="M100 236h4v4h-4z"/><path fill="#0B675E" d="M104 236h4v4h-4zM116 236h4v4h-4zM120 236h4v4h-4zM124 236h4v4h-4zM128 236h4v4h-4zM132 236h4v4h-4zM136 236h4v4h-4zM140 236h4v4h-4zM144 236h4v4h-4zM148 236h4v4h-4zM152 236h4v4h-4zM156 236h4v4h-4zM160 236h4v4h-4zM164 236h4v4h-4zM168 236h4v4h-4z"/><path fill="#5EB978" d="M172 236h4v4h-4zM176 236h4v4h-4z"/><path fill="#0B675E" d="M180 236h4v4h-4z"/><path fill="#5EB978" d="M184 236h4v4h-4z"/><path fill="#439871" d="M188 236h4v4h-4z"/><path fill="#5EB978" d="M192 236h4v4h-4zM196 236h4v4h-4zM200 236h4v4h-4z"/><path fill="#439871" d="M204 236h4v4h-4zM208 236h4v4h-4z"/><path fill="#0B675E" d="M212 236h4v4h-4zM216 236h4v4h-4zM220 236h4v4h-4zM224 236h4v4h-4zM228 236h4v4h-4zM232 236h4v4h-4zM236 236h4v4h-4zM240 236h4v4h-4zM244 236h4v4h-4zM248 236h4v4h-4zM96 240h4v4h-4z"/><path fill="#439871" d="M100 240h4v4h-4z"/><path fill="#0B675E" d="M104 240h4v4h-4z"/><path fill="#439871" d="M124 240h4v4h-4z"/><path fill="#0B675E" d="M128 240h4v4h-4z"/><path fill="#439871" d="M132 240h4v4h-4z"/><path fill="#0B675E" d="M136 240h4v4h-4zM140 240h4v4h-4zM144 240h4v4h-4zM148 240h4v4h-4zM152 240h4v4h-4zM156 240h4v4h-4zM160 240h4v4h-4z"/><path fill="#5EB978" d="M164 240h4v4h-4zM168 240h4v4h-4z"/><path fill="#439871" d="M172 240h4v4h-4zM176 240h4v4h-4z"/><path fill="#0B675E" d="M180 240h4v4h-4z"/><path fill="#5EB978" d="M184 240h4v4h-4zM188 240h4v4h-4z"/><path fill="#439871" d="M192 240h4v4h-4zM196 240h4v4h-4zM200 240h4v4h-4zM204 240h4v4h-4z"/><path fill="#0B675E" d="M208 240h4v4h-4zM212 240h4v4h-4zM216 240h4v4h-4zM220 240h4v4h-4zM224 240h4v4h-4zM228 240h4v4h-4zM232 240h4v4h-4zM236 240h4v4h-4zM240 240h4v4h-4zM100 244h4v4h-4z"/><path fill="#439871" d="M104 244h4v4h-4z"/><path fill="#0B675E" d="M108 244h4v4h-4zM116 244h4v4h-4z"/><path fill="#439871" d="M120 244h4v4h-4z"/><path fill="#0B675E" d="M124 244h4v4h-4z"/><path fill="#5EB978" d="M128 244h4v4h-4z"/><path fill="#439871" d="M132 244h4v4h-4z"/><path fill="#0B675E" d="M140 244h4v4h-4zM144 244h4v4h-4zM148 244h4v4h-4zM152 244h4v4h-4zM156 244h4v4h-4z"/><path fill="#5EB978" d="M160 244h4v4h-4zM164 244h4v4h-4z"/><path fill="#439871" d="M168 244h4v4h-4z"/><path fill="#0B675E" d="M172 244h4v4h-4zM176 244h4v4h-4z"/><path fill="#5EB978" d="M180 244h4v4h-4zM184 244h4v4h-4zM188 244h4v4h-4zM192 244h4v4h-4zM196 244h4v4h-4z"/><path fill="#439871" d="M200 244h4v4h-4z"/><path fill="#0B675E" d="M204 244h4v4h-4zM208 244h4v4h-4zM212 244h4v4h-4zM216 244h4v4h-4zM220 244h4v4h-4zM224 244h4v4h-4zM228 244h4v4h-4zM232 244h4v4h-4zM100 248h4v4h-4z"/><path fill="#439871" d="M104 248h4v4h-4z"/><path fill="#0B675E" d="M108 248h4v4h-4zM112 248h4v4h-4zM116 248h4v4h-4zM120 248h4v4h-4z"/><path fill="#5EB978" d="M124 248h4v4h-4z"/><path fill="#439871" d="M128 248h4v4h-4z"/><path fill="#0B675E" d="M132 248h4v4h-4zM144 248h4v4h-4zM148 248h4v4h-4zM152 248h4v4h-4zM156 248h4v4h-4z"/><path fill="#5EB978" d="M160 248h4v4h-4zM164 248h4v4h-4z"/><path fill="#0B675E" d="M168 248h4v4h-4zM172 248h4v4h-4z"/><path fill="#439871" d="M176 248h4v4h-4z"/><path fill="#5EB978" d="M180 248h4v4h-4zM184 248h4v4h-4zM188 248h4v4h-4zM192 248h4v4h-4z"/><path fill="#0B675E" d="M196 248h4v4h-4zM200 248h4v4h-4zM204 248h4v4h-4zM208 248h4v4h-4zM212 248h4v4h-4zM216 248h4v4h-4zM220 248h4v4h-4zM104 252h4v4h-4z"/><path fill="#439871" d="M108 252h4v4h-4zM112 252h4v4h-4zM116 252h4v4h-4zM120 252h4v4h-4zM124 252h4v4h-4z"/><path fill="#0B675E" d="M128 252h4v4h-4z"/><path fill="#439871" d="M152 252h4v4h-4z"/><path fill="#0B675E" d="M156 252h4v4h-4z"/><path fill="#5EB978" d="M160 252h4v4h-4zM164 252h4v4h-4z"/><path fill="#0B675E" d="M168 252h4v4h-4z"/><path fill="#439871" d="M172 252h4v4h-4zM176 252h4v4h-4z"/><path fill="#5EB978" d="M180 252h4v4h-4zM184 252h4v4h-4z"/><path fill="#449972" d="M188 252h4v4h-4z"/><path fill="#0B675E" d="M192 252h4v4h-4zM196 252h4v4h-4zM200 252h4v4h-4zM204 252h4v4h-4zM208 252h4v4h-4zM212 252h4v4h-4zM108 256h4v4h-4zM112 256h4v4h-4zM116 256h4v4h-4zM120 256h4v4h-4zM124 256h4v4h-4z"/><path fill="#5EB978" d="M164 256h4v4h-4z"/><path fill="#0B675E" d="M168 256h4v4h-4z"/><path fill="#439871" d="M172 256h4v4h-4zM176 256h4v4h-4zM180 256h4v4h-4z"/><path fill="#0B675E" d="M184 256h4v4h-4zM188 256h4v4h-4z"/><path fill="#FF652C" opacity=".004" d="M192 256h4v4h-4zM196 256h4v4h-4zM200 256h4v4h-4zM204 256h4v4h-4zM208 256h4v4h-4zM212 256h4v4h-4zM216 256h4v4h-4zM164 260h4v4h-4zM168 260h4v4h-4z"/><path fill="#0B675E" d="M172 260h4v4h-4zM176 260h4v4h-4zM180 260h4v4h-4z"/><path fill="#FF652C" opacity=".004" d="M184 260h4v4h-4zM188 260h4v4h-4zM192 260h4v4h-4zM196 260h4v4h-4zM200 260h4v4h-4zM204 260h4v4h-4zM208 260h4v4h-4zM212 260h4v4h-4zM216 260h4v4h-4zM220 260h4v4h-4zM172 264h4v4h-4zM176 264h4v4h-4zM180 264h4v4h-4zM184 264h4v4h-4zM188 264h4v4h-4zM192 264h4v4h-4zM196 264h4v4h-4zM200 264h4v4h-4zM204 264h4v4h-4zM208 264h4v4h-4zM212 264h4v4h-4zM216 264h4v4h-4zM220 264h4v4h-4zM224 264h4v4h-4z"/></svg>