<svg width="384" height="384" xmlns="http://www.w3.org/2000/svg" shape-rendering="crispEdges"><path fill="#382908" d="M260 180h4v4h-4zM192 184h4v4h-4zM256 184h4v4h-4zM260 184h4v4h-4zM192 188h4v4h-4zM196 188h4v4h-4zM200 188h4v4h-4zM252 188h4v4h-4zM256 188h4v4h-4zM260 188h4v4h-4zM192 192h4v4h-4zM196 192h4v4h-4zM200 192h4v4h-4zM204 192h4v4h-4zM208 192h4v4h-4zM212 192h4v4h-4zM240 192h4v4h-4z"/><path fill="#493506" d="M244 192h4v4h-4zM248 192h4v4h-4z"/><path fill="#382908" d="M252 192h4v4h-4zM256 192h4v4h-4zM260 192h4v4h-4zM192 196h4v4h-4zM196 196h4v4h-4zM200 196h4v4h-4zM204 196h4v4h-4z"/><path fill="#493506" d="M208 196h4v4h-4zM212 196h4v4h-4z"/><path fill="#382908" d="M216 196h4v4h-4zM236 196h4v4h-4z"/><path fill="#493506" d="M240 196h4v4h-4zM244 196h4v4h-4zM248 196h4v4h-4zM252 196h4v4h-4z"/><path fill="#382908" d="M256 196h4v4h-4zM260 196h4v4h-4zM192 200h4v4h-4zM196 200h4v4h-4zM200 200h4v4h-4zM204 200h4v4h-4zM208 200h4v4h-4z"/><path fill="#493506" d="M212 200h4v4h-4zM216 200h4v4h-4z"/><path fill="#382908" d="M220 200h4v4h-4zM236 200h4v4h-4z"/><path fill="#493506" d="M240 200h4v4h-4zM244 200h4v4h-4z"/><path fill="#382908" d="M248 200h4v4h-4zM252 200h4v4h-4z"/><path fill="#5F360A" d="M256 200h4v4h-4z"/><path fill="#382908" d="M260 200h4v4h-4zM196 204h4v4h-4zM200 204h4v4h-4z"/><path fill="#5F360A" d="M204 204h4v4h-4z"/><path fill="#7C5022" d="M208 204h4v4h-4z"/><path fill="#382908" d="M212 204h4v4h-4z"/><path fill="#493506" d="M216 204h4v4h-4z"/><path fill="#382908" d="M220 204h4v4h-4zM224 204h4v4h-4zM232 204h4v4h-4zM236 204h4v4h-4z"/><path fill="#493506" d="M240 204h4v4h-4z"/><path fill="#382908" d="M244 204h4v4h-4zM248 204h4v4h-4z"/><path fill="#7C5022" d="M252 204h4v4h-4z"/><path fill="#7F5424" d="M256 204h4v4h-4z"/><path fill="#5F360A" d="M260 204h4v4h-4z"/><path fill="#382908" d="M196 208h4v4h-4z"/><path fill="#5F360A" d="M200 208h4v4h-4z"/><path fill="#7F5424" d="M204 208h4v4h-4z"/><path fill="#7C5022" d="M208 208h4v4h-4zM212 208h4v4h-4z"/><path fill="#382908" d="M216 208h4v4h-4zM220 208h4v4h-4zM224 208h4v4h-4zM232 208h4v4h-4zM236 208h4v4h-4zM240 208h4v4h-4z"/><path fill="#7D5424" d="M244 208h4v4h-4z"/><path fill="#7F5424" d="M248 208h4v4h-4zM252 208h4v4h-4z"/><path fill="#AEFF00" d="M256 208h4v4h-4z"/><path fill="#5F360A" d="M260 208h4v4h-4zM196 212h4v4h-4z"/><path fill="#9F2D0E" d="M200 212h4v4h-4z"/><path fill="#AEFF00" d="M204 212h4v4h-4z"/><path fill="#7D5424" d="M208 212h4v4h-4z"/><path fill="#7F5424" d="M212 212h4v4h-4z"/><path fill="#795421" d="M216 212h4v4h-4z"/><path fill="#382908" d="M220 212h4v4h-4zM224 212h4v4h-4zM232 212h4v4h-4zM236 212h4v4h-4z"/><path fill="#7D5424" d="M240 212h4v4h-4z"/><path fill="#AEFF00" d="M244 212h4v4h-4zM248 212h4v4h-4zM252 212h4v4h-4zM256 212h4v4h-4z"/><path fill="#5F360A" d="M260 212h4v4h-4zM196 216h4v4h-4z"/><path fill="#9F2D0E" d="M200 216h4v4h-4z"/><path fill="#AEFF00" d="M204 216h4v4h-4zM208 216h4v4h-4zM212 216h4v4h-4zM216 216h4v4h-4zM220 216h4v4h-4z"/><path fill="#5F360A" d="M224 216h4v4h-4zM236 216h4v4h-4z"/><path fill="#714D27" d="M240 216h4v4h-4z"/><path fill="#AEFF00" d="M244 216h4v4h-4zM248 216h4v4h-4zM252 216h4v4h-4z"/><path fill="#A22D0E" d="M256 216h4v4h-4z"/><path fill="#5F360A" d="M260 216h4v4h-4zM196 220h4v4h-4z"/><path fill="#9F2D0E" d="M200 220h4v4h-4zM204 220h4v4h-4z"/><path fill="#AEFF00" d="M208 220h4v4h-4zM212 220h4v4h-4zM216 220h4v4h-4z"/><path fill="#714D27" d="M220 220h4v4h-4z"/><path fill="#5F360A" d="M224 220h4v4h-4z"/><path fill="#5F360A" opacity=".98" d="M236 220h4v4h-4z"/><path fill="#A02E0D" d="M240 220h4v4h-4z"/><path fill="#A22D0E" d="M244 220h4v4h-4zM248 220h4v4h-4zM252 220h4v4h-4z"/><path fill="#5F360A" d="M256 220h4v4h-4zM200 224h4v4h-4z"/><path fill="#9F2D0E" d="M204 224h4v4h-4zM208 224h4v4h-4zM212 224h4v4h-4zM216 224h4v4h-4z"/><path fill="#5F360A" d="M220 224h4v4h-4z"/><path fill="#5F360A" opacity=".98" d="M236 224h4v4h-4z"/><path fill="#A02E0D" d="M240 224h4v4h-4z"/><path fill="#9E2E0F" d="M244 224h4v4h-4z"/><path fill="#5F360A" d="M248 224h4v4h-4zM252 224h4v4h-4zM200 228h4v4h-4z"/><path fill="#9E2E0F" d="M204 228h4v4h-4zM208 228h4v4h-4z"/><path fill="#A02E0D" d="M212 228h4v4h-4z"/><path fill="#5F360A" d="M216 228h4v4h-4zM236 228h4v4h-4z"/><path fill="#9E2E0F" d="M240 228h4v4h-4z"/><path fill="#5F360A" d="M244 228h4v4h-4zM200 232h4v4h-4z"/><path fill="#7E5225" d="M204 232h4v4h-4zM208 232h4v4h-4z"/><path fill="#5F360A" d="M212 232h4v4h-4zM216 232h4v4h-4zM220 232h4v4h-4zM224 232h4v4h-4zM228 232h4v4h-4zM232 232h4v4h-4z"/><path fill="#7E5225" d="M236 232h4v4h-4zM240 232h4v4h-4z"/><path fill="#5F360A" d="M244 232h4v4h-4zM200 236h4v4h-4z"/><path fill="#7E5225" d="M204 236h4v4h-4zM208 236h4v4h-4z"/><path fill="#7D5123" d="M212 236h4v4h-4z"/><path fill="#724E26" d="M216 236h4v4h-4zM220 236h4v4h-4zM224 236h4v4h-4z"/><path fill="#7E5225" d="M228 236h4v4h-4z"/><path fill="#745025" d="M232 236h4v4h-4z"/><path fill="#7E5225" d="M236 236h4v4h-4zM240 236h4v4h-4z"/><path fill="#5F360A" d="M244 236h4v4h-4zM196 240h4v4h-4z"/><path fill="#7E5225" d="M200 240h4v4h-4z"/><path fill="#7D5123" d="M204 240h4v4h-4z"/><path fill="#7E5225" d="M208 240h4v4h-4zM212 240h4v4h-4zM216 240h4v4h-4z"/><path fill="#745025" d="M220 240h4v4h-4z"/><path fill="#734F26" d="M224 240h4v4h-4z"/><path fill="#724E26" d="M228 240h4v4h-4z"/><path fill="#7E5225" d="M232 240h4v4h-4z"/><path fill="#745025" d="M236 240h4v4h-4z"/><path fill="#7E5225" d="M240 240h4v4h-4z"/><path fill="#7D5126" d="M244 240h4v4h-4z"/><path fill="#5F360A" d="M248 240h4v4h-4zM196 244h4v4h-4z"/><path fill="#7E5225" d="M200 244h4v4h-4zM204 244h4v4h-4zM208 244h4v4h-4z"/><path fill="#F1CFA9" d="M212 244h4v4h-4z"/><path fill="#9A300F" d="M216 244h4v4h-4z"/><path fill="#745025" d="M220 244h4v4h-4zM224 244h4v4h-4z"/><path fill="#734F26" d="M228 244h4v4h-4z"/><path fill="#7D5126" d="M232 244h4v4h-4z"/><path fill="#745025" d="M236 244h4v4h-4z"/><path fill="#7D5126" d="M240 244h4v4h-4z"/><path fill="#7D5124" d="M244 244h4v4h-4z"/><path fill="#F0D0A9" d="M248 244h4v4h-4z"/><path fill="#5F360A" d="M192 248h4v4h-4z"/><path fill="#714D27" d="M196 248h4v4h-4zM200 248h4v4h-4z"/><path fill="#7C5022" d="M204 248h4v4h-4z"/><path fill="#9A300E" d="M208 248h4v4h-4z"/><path fill="#F1D1AB" d="M212 248h4v4h-4z"/><path fill="#F5D5AF" d="M216 248h4v4h-4z"/><path fill="#9C2F10" d="M220 248h4v4h-4z"/><path fill="#9C2F0E" d="M224 248h4v4h-4zM228 248h4v4h-4zM232 248h4v4h-4zM236 248h4v4h-4z"/><path fill="#9C2F10" d="M240 248h4v4h-4z"/><path fill="#F5D5AF" d="M244 248h4v4h-4z"/><path fill="#F0D0A9" d="M248 248h4v4h-4z"/><path fill="#5F360A" d="M252 248h4v4h-4zM192 252h4v4h-4z"/><path fill="#714D27" d="M196 252h4v4h-4zM200 252h4v4h-4zM204 252h4v4h-4z"/><path fill="#9A300D" d="M208 252h4v4h-4z"/><path fill="#F1D1AB" d="M212 252h4v4h-4z"/><path fill="#F3D3AD" d="M216 252h4v4h-4z"/><path fill="#F5D5AF" d="M220 252h4v4h-4z"/><path fill="#B57C66" d="M224 252h4v4h-4z"/><path fill="#B67D66" d="M228 252h4v4h-4z"/><path fill="#B57C65" d="M232 252h4v4h-4z"/><path fill="#8E7267" d="M236 252h4v4h-4z"/><path fill="#F5D5AF" d="M240 252h4v4h-4z"/><path fill="#F3D3AD" d="M244 252h4v4h-4z"/><path fill="#F0D0A9" d="M248 252h4v4h-4z"/><path fill="#5F360A" d="M252 252h4v4h-4zM192 256h4v4h-4z"/><path fill="#714D27" d="M196 256h4v4h-4zM200 256h4v4h-4zM204 256h4v4h-4z"/><path fill="#61380C" d="M208 256h4v4h-4z"/><path fill="#8D6F64" d="M212 256h4v4h-4z"/><path fill="#E78090" d="M216 256h4v4h-4zM220 256h4v4h-4z"/><path fill="#8D7064" d="M224 256h4v4h-4z"/><path fill="#B57C66" d="M228 256h4v4h-4zM232 256h4v4h-4zM236 256h4v4h-4z"/><path fill="#E78090" d="M240 256h4v4h-4zM244 256h4v4h-4z"/><path fill="#60370B" d="M248 256h4v4h-4z"/><path fill="#5F360A" d="M252 256h4v4h-4zM192 260h4v4h-4z"/><path fill="#714D27" d="M196 260h4v4h-4zM200 260h4v4h-4zM204 260h4v4h-4z"/><path fill="#61380C" d="M208 260h4v4h-4z"/><path fill="#B67D67" d="M212 260h4v4h-4z"/><path fill="#60370B" d="M216 260h4v4h-4zM220 260h4v4h-4zM224 260h4v4h-4zM228 260h4v4h-4zM232 260h4v4h-4zM236 260h4v4h-4zM240 260h4v4h-4zM244 260h4v4h-4z"/><path fill="#62390D" d="M248 260h4v4h-4z"/><path fill="#5F360A" d="M252 260h4v4h-4zM192 264h4v4h-4z"/><path fill="#714D27" d="M196 264h4v4h-4zM200 264h4v4h-4zM204 264h4v4h-4zM208 264h4v4h-4z"/><path fill="#61380C" d="M212 264h4v4h-4z"/><path fill="#714D27" d="M216 264h4v4h-4zM220 264h4v4h-4zM224 264h4v4h-4z"/><path fill="#7C5022" d="M228 264h4v4h-4z"/><path fill="#714D27" d="M232 264h4v4h-4z"/><path fill="#926918" d="M236 264h4v4h-4z"/><path fill="#714D27" d="M240 264h4v4h-4zM244 264h4v4h-4z"/><path fill="#62390D" d="M248 264h4v4h-4z"/><path fill="#5F360A" d="M252 264h4v4h-4zM192 268h4v4h-4z"/><path fill="#64401A" d="M196 268h4v4h-4z"/><path fill="#714D27" d="M200 268h4v4h-4z"/><path fill="#B67733" d="M204 268h4v4h-4z"/><path fill="#714D27" d="M208 268h4v4h-4z"/><path fill="#926918" d="M212 268h4v4h-4z"/><path fill="#714D27" d="M216 268h4v4h-4zM220 268h4v4h-4zM224 268h4v4h-4z"/><path fill="#7C5022" d="M228 268h4v4h-4z"/><path fill="#714D27" d="M232 268h4v4h-4z"/><path fill="#926918" d="M236 268h4v4h-4z"/><path fill="#714D27" d="M240 268h4v4h-4zM244 268h4v4h-4zM248 268h4v4h-4z"/><path fill="#5F360A" d="M252 268h4v4h-4zM196 272h4v4h-4z"/><path fill="#64401A" d="M200 272h4v4h-4z"/><path fill="#936A17" d="M204 272h4v4h-4zM208 272h4v4h-4z"/><path fill="#926918" d="M212 272h4v4h-4z"/><path fill="#714D27" d="M216 272h4v4h-4zM220 272h4v4h-4zM224 272h4v4h-4z"/><path fill="#7C5022" d="M228 272h4v4h-4z"/><path fill="#936A17" d="M232 272h4v4h-4z"/><path fill="#B67733" d="M236 272h4v4h-4z"/><path fill="#714D27" d="M240 272h4v4h-4z"/><path fill="#64401A" d="M244 272h4v4h-4z"/><path fill="#916816" d="M248 272h4v4h-4z"/><path fill="#946B18" d="M252 272h4v4h-4z"/><path fill="#5F360A" d="M196 276h4v4h-4z"/><path fill="#64401A" d="M200 276h4v4h-4z"/><path fill="#614401" d="M204 276h4v4h-4z"/><path fill="#946B18" d="M208 276h4v4h-4z"/><path fill="#936A17" d="M212 276h4v4h-4z"/><path fill="#7C5022" d="M216 276h4v4h-4z"/><path fill="#714D27" d="M220 276h4v4h-4zM224 276h4v4h-4z"/><path fill="#7C5022" d="M228 276h4v4h-4z"/><path fill="#936A17" d="M232 276h4v4h-4z"/><path fill="#B67733" d="M236 276h4v4h-4z"/><path fill="#926918" d="M240 276h4v4h-4z"/><path fill="#64401A" d="M244 276h4v4h-4z"/><path fill="#916816" d="M248 276h4v4h-4z"/><path fill="#946B18" d="M252 276h4v4h-4z"/><path fill="#5F360A" d="M200 280h4v4h-4z"/><path fill="#614401" d="M204 280h4v4h-4z"/><path fill="#946B18" d="M208 280h4v4h-4zM212 280h4v4h-4z"/><path fill="#7C5022" d="M216 280h4v4h-4z"/><path fill="#714D27" d="M220 280h4v4h-4zM224 280h4v4h-4z"/><path fill="#926918" d="M228 280h4v4h-4z"/><path fill="#936A17" d="M232 280h4v4h-4z"/><path fill="#B67733" d="M236 280h4v4h-4z"/><path fill="#926918" d="M240 280h4v4h-4z"/><path fill="#916816" d="M244 280h4v4h-4z"/><path fill="#B67733" d="M248 280h4v4h-4z"/><path fill="#946B18" d="M252 280h4v4h-4z"/><path fill="#614401" d="M204 284h4v4h-4z"/><path fill="#936A17" d="M208 284h4v4h-4z"/><path fill="#946B18" d="M212 284h4v4h-4zM216 284h4v4h-4z"/><path fill="#936A17" d="M220 284h4v4h-4zM224 284h4v4h-4zM228 284h4v4h-4z"/><path fill="#B67733" d="M232 284h4v4h-4zM236 284h4v4h-4zM240 284h4v4h-4zM244 284h4v4h-4zM248 284h4v4h-4z"/><path fill="#946B18" d="M252 284h4v4h-4z"/><path fill="#614401" d="M204 288h4v4h-4z"/><path fill="#936A17" d="M208 288h4v4h-4z"/><path fill="#946B18" d="M212 288h4v4h-4z"/><path fill="#B67733" d="M216 288h4v4h-4z"/><path fill="#946B18" d="M220 288h4v4h-4z"/><path fill="#936A17" d="M224 288h4v4h-4z"/><path fill="#B67733" d="M228 288h4v4h-4zM232 288h4v4h-4zM236 288h4v4h-4zM240 288h4v4h-4zM244 288h4v4h-4z"/><path fill="#936A17" d="M248 288h4v4h-4z"/><path fill="#946B18" d="M252 288h4v4h-4z"/><path fill="#614401" d="M208 292h4v4h-4z"/><path fill="#946B18" d="M212 292h4v4h-4z"/><path fill="#B67733" d="M216 292h4v4h-4z"/><path fill="#936A17" d="M220 292h4v4h-4z"/><path fill="#946B18" d="M224 292h4v4h-4z"/><path fill="#B67733" d="M228 292h4v4h-4zM232 292h4v4h-4zM236 292h4v4h-4z"/><path fill="#946B18" d="M240 292h4v4h-4z"/><path fill="#B67733" d="M244 292h4v4h-4z"/><path fill="#936A17" d="M248 292h4v4h-4z"/><path fill="#614401" d="M252 292h4v4h-4z"/><path fill="#936A17" d="M212 296h4v4h-4z"/><path fill="#614401" d="M216 296h4v4h-4z"/><path fill="#936A17" d="M220 296h4v4h-4z"/><path fill="#946B18" d="M224 296h4v4h-4z"/><path fill="#B67733" d="M228 296h4v4h-4zM232 296h4v4h-4zM236 296h4v4h-4z"/><path fill="#936A17" d="M240 296h4v4h-4z"/><path fill="#B67733" d="M244 296h4v4h-4zM248 296h4v4h-4z"/><path fill="#604300" opacity=".98" d="M252 296h4v4h-4z"/><path fill="#614401" d="M212 300h4v4h-4zM216 300h4v4h-4z"/><path fill="#936A17" d="M220 300h4v4h-4z"/><path fill="#946B18" d="M224 300h4v4h-4z"/><path fill="#B67733" d="M228 300h4v4h-4z"/><path fill="#936A17" d="M232 300h4v4h-4z"/><path fill="#B67733" d="M236 300h4v4h-4zM240 300h4v4h-4z"/><path fill="#936A17" d="M244 300h4v4h-4z"/><path fill="#B67733" d="M248 300h4v4h-4z"/><path fill="#604300" opacity=".98" d="M252 300h4v4h-4z"/><path fill="#614401" d="M216 304h4v4h-4zM220 304h4v4h-4z"/><path fill="#936A17" d="M224 304h4v4h-4zM228 304h4v4h-4zM232 304h4v4h-4z"/><path fill="#B67733" d="M236 304h4v4h-4zM240 304h4v4h-4z"/><path fill="#936A17" d="M244 304h4v4h-4z"/><path fill="#604300" opacity=".98" d="M248 304h4v4h-4z"/><path fill="#614401" d="M224 308h4v4h-4z"/><path fill="#936A17" d="M228 308h4v4h-4zM232 308h4v4h-4z"/><path fill="#B67733" d="M236 308h4v4h-4zM240 308h4v4h-4z"/><path fill="#936A17" d="M244 308h4v4h-4z"/><path fill="#604300" opacity=".98" d="M248 308h4v4h-4z"/><path fill="#614401" d="M228 312h4v4h-4z"/><path fill="#936A17" d="M232 312h4v4h-4z"/><path fill="#946B18" d="M236 312h4v4h-4z"/><path fill="#B67733" d="M240 312h4v4h-4z"/><path fill="#604300" opacity=".98" d="M244 312h4v4h-4z"/><path fill="#614401" d="M236 316h4v4h-4z"/><path fill="#604300" opacity=".98" d="M240 316h4v4h-4z"/></svg>