<svg width="384" height="384" xmlns="http://www.w3.org/2000/svg" shape-rendering="crispEdges"><path fill="#33ADF7" d="M152 220h4v4h-4zM156 220h4v4h-4zM160 220h4v4h-4zM164 220h4v4h-4z"/><path fill="#A7DEFF" d="M168 220h4v4h-4zM172 220h4v4h-4zM176 220h4v4h-4z"/><path fill="#33ADF7" d="M144 224h4v4h-4zM148 224h4v4h-4z"/><path fill="#2996D6" d="M152 224h4v4h-4zM156 224h4v4h-4zM160 224h4v4h-4z"/><path fill="#5ECDFC" d="M164 224h4v4h-4zM168 224h4v4h-4z"/><path fill="#00ACFC" d="M172 224h4v4h-4zM176 224h4v4h-4z"/><path fill="#E8FFF9" d="M180 224h4v4h-4z"/><path fill="#A7DEFF" d="M184 224h4v4h-4z"/><path fill="#33ADF7" d="M280 224h4v4h-4zM284 224h4v4h-4zM288 224h4v4h-4zM292 224h4v4h-4zM296 224h4v4h-4zM300 224h4v4h-4z"/><path fill="#A7DEFF" d="M304 224h4v4h-4zM308 224h4v4h-4z"/><path fill="#33ADF7" d="M136 228h4v4h-4zM140 228h4v4h-4z"/><path fill="#2795D5" d="M144 228h4v4h-4zM148 228h4v4h-4zM152 228h4v4h-4zM156 228h4v4h-4zM160 228h4v4h-4z"/><path fill="#5ACCFC" d="M164 228h4v4h-4zM168 228h4v4h-4zM172 228h4v4h-4zM176 228h4v4h-4zM180 228h4v4h-4z"/><path fill="#007BC5" d="M184 228h4v4h-4z"/><path fill="#A7DEFF" d="M188 228h4v4h-4z"/><path fill="#33ADF7" d="M272 228h4v4h-4zM276 228h4v4h-4z"/><path fill="#2996D6" d="M280 228h4v4h-4z"/><path fill="#5ACCFC" d="M284 228h4v4h-4z"/><path fill="#2996D6" d="M288 228h4v4h-4z"/><path fill="#2694D4" d="M292 228h4v4h-4z"/><path fill="#007BC5" d="M296 228h4v4h-4zM300 228h4v4h-4zM304 228h4v4h-4z"/><path fill="#2795D5" d="M308 228h4v4h-4z"/><path fill="#A7DEFF" d="M312 228h4v4h-4z"/><path fill="#E8FFF9" d="M316 228h4v4h-4z"/><path fill="#33ADF7" d="M132 232h4v4h-4z"/><path fill="#2795D5" d="M136 232h4v4h-4z"/><path fill="#007BC5" d="M140 232h4v4h-4z"/><path fill="#2795D5" d="M144 232h4v4h-4zM148 232h4v4h-4zM152 232h4v4h-4zM156 232h4v4h-4z"/><path fill="#007BC5" d="M160 232h4v4h-4zM164 232h4v4h-4z"/><path fill="#2795D5" d="M168 232h4v4h-4zM172 232h4v4h-4z"/><path fill="#5ACCFC" d="M176 232h4v4h-4z"/><path fill="#E8FFF9" d="M180 232h4v4h-4z"/><path fill="#00ACFC" d="M184 232h4v4h-4z"/><path fill="#33ADF7" d="M188 232h4v4h-4zM268 232h4v4h-4z"/><path fill="#2996D6" d="M272 232h4v4h-4z"/><path fill="#2694D4" d="M276 232h4v4h-4z"/><path fill="#2996D6" d="M280 232h4v4h-4z"/><path fill="#5ACCFC" d="M284 232h4v4h-4z"/><path fill="#2795D5" d="M288 232h4v4h-4z"/><path fill="#2996D6" d="M292 232h4v4h-4z"/><path fill="#2694D4" d="M296 232h4v4h-4z"/><path fill="#007BC5" d="M300 232h4v4h-4zM304 232h4v4h-4zM308 232h4v4h-4z"/><path fill="#5ECDFC" d="M312 232h4v4h-4zM316 232h4v4h-4z"/><path fill="#A7DEFF" d="M320 232h4v4h-4z"/><path fill="#33ADF7" d="M128 236h4v4h-4z"/><path fill="#2996D6" d="M132 236h4v4h-4z"/><path fill="#007BC5" d="M136 236h4v4h-4zM140 236h4v4h-4z"/><path fill="#5ACCFC" d="M144 236h4v4h-4zM148 236h4v4h-4z"/><path fill="#2795D5" d="M152 236h4v4h-4zM156 236h4v4h-4z"/><path fill="#007BC5" d="M160 236h4v4h-4zM164 236h4v4h-4z"/><path fill="#2795D5" d="M168 236h4v4h-4zM172 236h4v4h-4z"/><path fill="#E8FFF9" d="M176 236h4v4h-4zM180 236h4v4h-4z"/><path fill="#00ACFC" d="M184 236h4v4h-4z"/><path fill="#33ADF7" d="M188 236h4v4h-4zM264 236h4v4h-4z"/><path fill="#2694D4" d="M268 236h4v4h-4zM272 236h4v4h-4zM276 236h4v4h-4z"/><path fill="#5ACCFC" d="M280 236h4v4h-4zM284 236h4v4h-4z"/><path fill="#2795D5" d="M288 236h4v4h-4z"/><path fill="#2694D4" d="M292 236h4v4h-4zM296 236h4v4h-4zM300 236h4v4h-4z"/><path fill="#2996D6" d="M304 236h4v4h-4zM308 236h4v4h-4z"/><path fill="#E8FFF9" d="M312 236h4v4h-4z"/><path fill="#5ECDFC" d="M316 236h4v4h-4z"/><path fill="#33ADF7" d="M320 236h4v4h-4zM128 240h4v4h-4z"/><path fill="#2996D6" d="M132 240h4v4h-4z"/><path fill="#007BC5" d="M136 240h4v4h-4zM140 240h4v4h-4z"/><path fill="#00ACFC" d="M144 240h4v4h-4z"/><path fill="#5ACCFC" d="M148 240h4v4h-4z"/><path fill="#2795D5" d="M152 240h4v4h-4zM156 240h4v4h-4z"/><path fill="#007BC5" d="M160 240h4v4h-4zM164 240h4v4h-4zM168 240h4v4h-4z"/><path fill="#2795D5" d="M172 240h4v4h-4z"/><path fill="#E8FFF9" d="M176 240h4v4h-4zM180 240h4v4h-4z"/><path fill="#00ACFC" d="M184 240h4v4h-4z"/><path fill="#2996D6" d="M188 240h4v4h-4z"/><path fill="#33ADF7" d="M264 240h4v4h-4z"/><path fill="#2694D4" d="M268 240h4v4h-4z"/><path fill="#007BC5" d="M272 240h4v4h-4zM276 240h4v4h-4z"/><path fill="#A7DEFF" d="M280 240h4v4h-4z"/><path fill="#5ACCFC" d="M284 240h4v4h-4z"/><path fill="#007BC5" d="M288 240h4v4h-4z"/><path fill="#2694D4" d="M292 240h4v4h-4zM296 240h4v4h-4zM300 240h4v4h-4zM304 240h4v4h-4z"/><path fill="#E8FFF9" d="M308 240h4v4h-4zM312 240h4v4h-4z"/><path fill="#5ECDFC" d="M316 240h4v4h-4z"/><path fill="#33ADF7" d="M320 240h4v4h-4zM128 244h4v4h-4z"/><path fill="#2996D6" d="M132 244h4v4h-4z"/><path fill="#2795D5" d="M136 244h4v4h-4z"/><path fill="#007BC5" d="M140 244h4v4h-4z"/><path fill="#00ACFC" d="M144 244h4v4h-4z"/><path fill="#5ACCFC" d="M148 244h4v4h-4z"/><path fill="#2795D5" d="M152 244h4v4h-4zM156 244h4v4h-4z"/><path fill="#007BC5" d="M160 244h4v4h-4zM164 244h4v4h-4zM168 244h4v4h-4z"/><path fill="#2795D5" d="M172 244h4v4h-4z"/><path fill="#E8FFF9" d="M176 244h4v4h-4zM180 244h4v4h-4z"/><path fill="#00ACFC" d="M184 244h4v4h-4z"/><path fill="#2996D6" d="M188 244h4v4h-4z"/><path fill="#33ADF7" d="M264 244h4v4h-4z"/><path fill="#007BC5" d="M268 244h4v4h-4zM272 244h4v4h-4zM276 244h4v4h-4z"/><path fill="#A7DEFF" d="M280 244h4v4h-4z"/><path fill="#5ACCFC" d="M284 244h4v4h-4z"/><path fill="#007BC5" d="M288 244h4v4h-4z"/><path fill="#2694D4" d="M292 244h4v4h-4zM296 244h4v4h-4zM300 244h4v4h-4z"/><path fill="#33ADF7" d="M304 244h4v4h-4z"/><path fill="#E8FFF9" d="M308 244h4v4h-4zM312 244h4v4h-4z"/><path fill="#5ECDFC" d="M316 244h4v4h-4z"/><path fill="#33ADF7" d="M320 244h4v4h-4z"/><path fill="#A7DEFF" d="M128 248h4v4h-4z"/><path fill="#33ADF7" d="M132 248h4v4h-4z"/><path fill="#2795D5" d="M136 248h4v4h-4z"/><path fill="#33ADF7" d="M140 248h4v4h-4z"/><path fill="#007BC5" d="M144 248h4v4h-4z"/><path fill="#2795D5" d="M148 248h4v4h-4zM152 248h4v4h-4zM156 248h4v4h-4z"/><path fill="#007BC5" d="M160 248h4v4h-4z"/><path fill="#5ACCFC" d="M164 248h4v4h-4z"/><path fill="#007BC5" d="M168 248h4v4h-4z"/><path fill="#2795D5" d="M172 248h4v4h-4z"/><path fill="#E8FFF9" d="M176 248h4v4h-4z"/><path fill="#00ACFC" d="M180 248h4v4h-4zM184 248h4v4h-4z"/><path fill="#2996D6" d="M188 248h4v4h-4z"/><path fill="#33ADF7" d="M264 248h4v4h-4zM268 248h4v4h-4z"/><path fill="#007BC5" d="M272 248h4v4h-4zM276 248h4v4h-4z"/><path fill="#2996D6" d="M280 248h4v4h-4z"/><path fill="#007BC5" d="M284 248h4v4h-4zM288 248h4v4h-4zM292 248h4v4h-4z"/><path fill="#2694D4" d="M296 248h4v4h-4zM300 248h4v4h-4z"/><path fill="#33ADF7" d="M304 248h4v4h-4z"/><path fill="#E8FFF9" d="M308 248h4v4h-4zM312 248h4v4h-4z"/><path fill="#5ECDFC" d="M316 248h4v4h-4z"/><path fill="#33ADF7" d="M320 248h4v4h-4z"/><path fill="#A7DEFF" d="M132 252h4v4h-4z"/><path fill="#2996D6" d="M136 252h4v4h-4z"/><path fill="#33ADF7" d="M140 252h4v4h-4z"/><path fill="#007BC5" d="M144 252h4v4h-4zM148 252h4v4h-4z"/><path fill="#2795D5" d="M152 252h4v4h-4zM156 252h4v4h-4z"/><path fill="#007BC5" d="M160 252h4v4h-4z"/><path fill="#5ACCFC" d="M164 252h4v4h-4z"/><path fill="#007BC5" d="M168 252h4v4h-4z"/><path fill="#2795D5" d="M172 252h4v4h-4z"/><path fill="#E8FFF9" d="M176 252h4v4h-4z"/><path fill="#00ACFC" d="M180 252h4v4h-4zM184 252h4v4h-4z"/><path fill="#2996D6" d="M188 252h4v4h-4z"/><path fill="#007BC5" d="M192 252h4v4h-4z"/><path fill="#33ADF7" d="M264 252h4v4h-4zM268 252h4v4h-4z"/><path fill="#007BC5" d="M272 252h4v4h-4z"/><path fill="#2694D4" d="M276 252h4v4h-4zM280 252h4v4h-4z"/><path fill="#007BC5" d="M284 252h4v4h-4zM288 252h4v4h-4zM292 252h4v4h-4z"/><path fill="#2694D4" d="M296 252h4v4h-4zM300 252h4v4h-4z"/><path fill="#33ADF7" d="M304 252h4v4h-4z"/><path fill="#E8FFF9" d="M308 252h4v4h-4z"/><path fill="#5ECDFC" d="M312 252h4v4h-4zM316 252h4v4h-4z"/><path fill="#33ADF7" d="M320 252h4v4h-4z"/><path fill="#A7DEFF" d="M132 256h4v4h-4z"/><path fill="#2996D6" d="M136 256h4v4h-4zM140 256h4v4h-4z"/><path fill="#33ADF7" d="M144 256h4v4h-4z"/><path fill="#007BC5" d="M148 256h4v4h-4z"/><path fill="#2795D5" d="M152 256h4v4h-4zM156 256h4v4h-4zM160 256h4v4h-4z"/><path fill="#5ACCFC" d="M164 256h4v4h-4z"/><path fill="#007BC5" d="M168 256h4v4h-4z"/><path fill="#2996D6" d="M172 256h4v4h-4z"/><path fill="#5ACCFC" d="M176 256h4v4h-4z"/><path fill="#00ACFC" d="M180 256h4v4h-4zM184 256h4v4h-4z"/><path fill="#2996D6" d="M188 256h4v4h-4z"/><path fill="#007BC5" d="M192 256h4v4h-4z"/><path fill="#0F679A" d="M252 256h4v4h-4z"/><path fill="#007BC5" d="M256 256h4v4h-4z"/><path fill="#33ADF7" d="M264 256h4v4h-4z"/><path fill="#2996D6" d="M268 256h4v4h-4z"/><path fill="#33ADF7" d="M272 256h4v4h-4z"/><path fill="#2694D4" d="M276 256h4v4h-4zM280 256h4v4h-4z"/><path fill="#007BC5" d="M284 256h4v4h-4zM288 256h4v4h-4zM292 256h4v4h-4z"/><path fill="#2694D4" d="M296 256h4v4h-4zM300 256h4v4h-4z"/><path fill="#33ADF7" d="M304 256h4v4h-4z"/><path fill="#00ACFC" d="M308 256h4v4h-4z"/><path fill="#5ECDFC" d="M312 256h4v4h-4zM316 256h4v4h-4z"/><path fill="#A7DEFF" d="M136 260h4v4h-4z"/><path fill="#2996D6" d="M140 260h4v4h-4z"/><path fill="#33ADF7" d="M144 260h4v4h-4z"/><path fill="#007BC5" d="M148 260h4v4h-4z"/><path fill="#2795D5" d="M152 260h4v4h-4zM156 260h4v4h-4zM160 260h4v4h-4z"/><path fill="#007BC5" d="M164 260h4v4h-4zM168 260h4v4h-4z"/><path fill="#2795D5" d="M172 260h4v4h-4z"/><path fill="#5ACCFC" d="M176 260h4v4h-4z"/><path fill="#00ACFC" d="M180 260h4v4h-4z"/><path fill="#5ECDFC" d="M184 260h4v4h-4z"/><path fill="#0F679A" d="M188 260h4v4h-4z"/><path fill="#007BC5" d="M192 260h4v4h-4z"/><path fill="#0F679A" d="M252 260h4v4h-4z"/><path fill="#007BC5" d="M256 260h4v4h-4zM260 260h4v4h-4z"/><path fill="#33ADF7" d="M264 260h4v4h-4z"/><path fill="#2996D6" d="M268 260h4v4h-4z"/><path fill="#33ADF7" d="M272 260h4v4h-4z"/><path fill="#A7DEFF" d="M276 260h4v4h-4z"/><path fill="#2694D4" d="M280 260h4v4h-4z"/><path fill="#007BC5" d="M284 260h4v4h-4zM288 260h4v4h-4zM292 260h4v4h-4z"/><path fill="#2694D4" d="M296 260h4v4h-4z"/><path fill="#33ADF7" d="M300 260h4v4h-4z"/><path fill="#00ACFC" d="M304 260h4v4h-4z"/><path fill="#5ECDFC" d="M308 260h4v4h-4zM312 260h4v4h-4z"/><path fill="#33ADF7" d="M316 260h4v4h-4z"/><path fill="#E8FFF9" d="M136 264h4v4h-4z"/><path fill="#2996D6" d="M140 264h4v4h-4zM144 264h4v4h-4z"/><path fill="#33ADF7" d="M148 264h4v4h-4z"/><path fill="#5ACCFC" d="M152 264h4v4h-4z"/><path fill="#2795D5" d="M156 264h4v4h-4zM160 264h4v4h-4z"/><path fill="#007BC5" d="M164 264h4v4h-4zM168 264h4v4h-4zM172 264h4v4h-4z"/><path fill="#33ADF7" d="M176 264h4v4h-4z"/><path fill="#00ACFC" d="M180 264h4v4h-4z"/><path fill="#5ECDFC" d="M184 264h4v4h-4z"/><path fill="#0F679A" d="M188 264h4v4h-4z"/><path fill="#007BC5" d="M192 264h4v4h-4z"/><path fill="#0F679A" d="M252 264h4v4h-4zM256 264h4v4h-4z"/><path fill="#007BC5" d="M260 264h4v4h-4z"/><path fill="#0F679A" d="M264 264h4v4h-4z"/><path fill="#33ADF7" d="M268 264h4v4h-4zM272 264h4v4h-4z"/><path fill="#A7DEFF" d="M276 264h4v4h-4z"/><path fill="#2694D4" d="M280 264h4v4h-4z"/><path fill="#007BC5" d="M284 264h4v4h-4zM288 264h4v4h-4zM292 264h4v4h-4z"/><path fill="#2694D4" d="M296 264h4v4h-4z"/><path fill="#33ADF7" d="M300 264h4v4h-4z"/><path fill="#00ACFC" d="M304 264h4v4h-4z"/><path fill="#5ECDFC" d="M308 264h4v4h-4zM312 264h4v4h-4z"/><path fill="#E8FFF9" d="M140 268h4v4h-4z"/><path fill="#2996D6" d="M144 268h4v4h-4z"/><path fill="#33ADF7" d="M148 268h4v4h-4z"/><path fill="#5ACCFC" d="M152 268h4v4h-4z"/><path fill="#2795D5" d="M156 268h4v4h-4zM160 268h4v4h-4z"/><path fill="#007BC5" d="M164 268h4v4h-4zM168 268h4v4h-4zM172 268h4v4h-4z"/><path fill="#33ADF7" d="M176 268h4v4h-4z"/><path fill="#00ACFC" d="M180 268h4v4h-4z"/><path fill="#5ECDFC" d="M184 268h4v4h-4z"/><path fill="#0F679A" d="M188 268h4v4h-4z"/><path fill="#007BC5" d="M192 268h4v4h-4z"/><path fill="#0F679A" d="M196 268h4v4h-4zM252 268h4v4h-4zM256 268h4v4h-4z"/><path fill="#007BC5" d="M260 268h4v4h-4z"/><path fill="#0F679A" d="M264 268h4v4h-4z"/><path fill="#33ADF7" d="M268 268h4v4h-4zM272 268h4v4h-4z"/><path fill="#A7DEFF" d="M276 268h4v4h-4z"/><path fill="#2694D4" d="M280 268h4v4h-4z"/><path fill="#33ADF7" d="M284 268h4v4h-4z"/><path fill="#007BC5" d="M288 268h4v4h-4zM292 268h4v4h-4z"/><path fill="#2694D4" d="M296 268h4v4h-4z"/><path fill="#33ADF7" d="M300 268h4v4h-4z"/><path fill="#00ACFC" d="M304 268h4v4h-4z"/><path fill="#5ECDFC" d="M308 268h4v4h-4zM312 268h4v4h-4z"/><path fill="#E8FFF9" d="M140 272h4v4h-4z"/><path fill="#2996D6" d="M144 272h4v4h-4zM148 272h4v4h-4z"/><path fill="#5ACCFC" d="M152 272h4v4h-4z"/><path fill="#2795D5" d="M156 272h4v4h-4zM160 272h4v4h-4zM164 272h4v4h-4z"/><path fill="#007BC5" d="M168 272h4v4h-4zM172 272h4v4h-4z"/><path fill="#33ADF7" d="M176 272h4v4h-4z"/><path fill="#00ACFC" d="M180 272h4v4h-4z"/><path fill="#5ECDFC" d="M184 272h4v4h-4z"/><path fill="#0F679A" d="M188 272h4v4h-4zM192 272h4v4h-4zM196 272h4v4h-4zM252 272h4v4h-4zM256 272h4v4h-4zM260 272h4v4h-4zM264 272h4v4h-4z"/><path fill="#33ADF7" d="M268 272h4v4h-4z"/><path fill="#2996D6" d="M272 272h4v4h-4z"/><path fill="#33ADF7" d="M276 272h4v4h-4z"/><path fill="#2694D4" d="M280 272h4v4h-4z"/><path fill="#33ADF7" d="M284 272h4v4h-4z"/><path fill="#007BC5" d="M288 272h4v4h-4zM292 272h4v4h-4z"/><path fill="#2694D4" d="M296 272h4v4h-4z"/><path fill="#33ADF7" d="M300 272h4v4h-4z"/><path fill="#00ACFC" d="M304 272h4v4h-4z"/><path fill="#5ECDFC" d="M308 272h4v4h-4z"/><path fill="#33ADF7" d="M312 272h4v4h-4z"/><path fill="#A7DEFF" d="M144 276h4v4h-4z"/><path fill="#2996D6" d="M148 276h4v4h-4z"/><path fill="#33ADF7" d="M152 276h4v4h-4zM156 276h4v4h-4z"/><path fill="#2795D5" d="M160 276h4v4h-4zM164 276h4v4h-4z"/><path fill="#007BC5" d="M168 276h4v4h-4zM172 276h4v4h-4z"/><path fill="#33ADF7" d="M176 276h4v4h-4z"/><path fill="#00ACFC" d="M180 276h4v4h-4z"/><path fill="#5ECDFC" d="M184 276h4v4h-4z"/><path fill="#0F679A" d="M188 276h4v4h-4zM192 276h4v4h-4zM260 276h4v4h-4zM264 276h4v4h-4z"/><path fill="#33ADF7" d="M268 276h4v4h-4z"/><path fill="#2996D6" d="M272 276h4v4h-4z"/><path fill="#33ADF7" d="M276 276h4v4h-4z"/><path fill="#2694D4" d="M280 276h4v4h-4z"/><path fill="#33ADF7" d="M284 276h4v4h-4z"/><path fill="#007BC5" d="M288 276h4v4h-4zM292 276h4v4h-4z"/><path fill="#33ADF7" d="M296 276h4v4h-4z"/><path fill="#00ACFC" d="M300 276h4v4h-4z"/><path fill="#A7DEFF" d="M304 276h4v4h-4z"/><path fill="#5ECDFC" d="M308 276h4v4h-4z"/><path fill="#A7DEFF" d="M144 280h4v4h-4z"/><path fill="#2996D6" d="M148 280h4v4h-4zM152 280h4v4h-4z"/><path fill="#33ADF7" d="M156 280h4v4h-4z"/><path fill="#2795D5" d="M160 280h4v4h-4zM164 280h4v4h-4z"/><path fill="#007BC5" d="M168 280h4v4h-4zM172 280h4v4h-4z"/><path fill="#00ACFC" d="M176 280h4v4h-4zM180 280h4v4h-4z"/><path fill="#5ECDFC" d="M184 280h4v4h-4z"/><path fill="#0F679A" d="M188 280h4v4h-4zM192 280h4v4h-4zM264 280h4v4h-4z"/><path fill="#33ADF7" d="M272 280h4v4h-4zM276 280h4v4h-4z"/><path fill="#2694D4" d="M280 280h4v4h-4z"/><path fill="#33ADF7" d="M284 280h4v4h-4z"/><path fill="#007BC5" d="M288 280h4v4h-4zM292 280h4v4h-4z"/><path fill="#33ADF7" d="M296 280h4v4h-4z"/><path fill="#00ACFC" d="M300 280h4v4h-4z"/><path fill="#A7DEFF" d="M304 280h4v4h-4z"/><path fill="#5ECDFC" d="M308 280h4v4h-4z"/><path fill="#A7DEFF" d="M148 284h4v4h-4z"/><path fill="#5ECDFC" d="M152 284h4v4h-4z"/><path fill="#33ADF7" d="M156 284h4v4h-4zM160 284h4v4h-4z"/><path fill="#2795D5" d="M164 284h4v4h-4z"/><path fill="#007BC5" d="M168 284h4v4h-4zM172 284h4v4h-4z"/><path fill="#00ACFC" d="M176 284h4v4h-4zM180 284h4v4h-4z"/><path fill="#5ECDFC" d="M184 284h4v4h-4z"/><path fill="#33ADF7" d="M272 284h4v4h-4z"/><path fill="#5ECDFC" d="M276 284h4v4h-4zM280 284h4v4h-4z"/><path fill="#33ADF7" d="M284 284h4v4h-4z"/><path fill="#007BC5" d="M288 284h4v4h-4z"/><path fill="#2694D4" d="M292 284h4v4h-4z"/><path fill="#33ADF7" d="M296 284h4v4h-4z"/><path fill="#00ACFC" d="M300 284h4v4h-4z"/><path fill="#A7DEFF" d="M304 284h4v4h-4zM148 288h4v4h-4z"/><path fill="#5ECDFC" d="M152 288h4v4h-4zM156 288h4v4h-4z"/><path fill="#33ADF7" d="M160 288h4v4h-4z"/><path fill="#2795D5" d="M164 288h4v4h-4zM168 288h4v4h-4z"/><path fill="#007BC5" d="M172 288h4v4h-4z"/><path fill="#00ACFC" d="M176 288h4v4h-4zM180 288h4v4h-4z"/><path fill="#5ECDFC" d="M184 288h4v4h-4z"/><path fill="#33ADF7" d="M272 288h4v4h-4z"/><path fill="#5ECDFC" d="M276 288h4v4h-4zM280 288h4v4h-4z"/><path fill="#33ADF7" d="M284 288h4v4h-4z"/><path fill="#007BC5" d="M288 288h4v4h-4z"/><path fill="#2694D4" d="M292 288h4v4h-4z"/><path fill="#00ACFC" d="M296 288h4v4h-4z"/><path fill="#A7DEFF" d="M300 288h4v4h-4z"/><path fill="#5ECDFC" d="M304 288h4v4h-4z"/><path fill="#A7DEFF" d="M152 292h4v4h-4z"/><path fill="#5ECDFC" d="M156 292h4v4h-4z"/><path fill="#33ADF7" d="M160 292h4v4h-4z"/><path fill="#2795D5" d="M164 292h4v4h-4zM168 292h4v4h-4z"/><path fill="#007BC5" d="M172 292h4v4h-4z"/><path fill="#00ACFC" d="M176 292h4v4h-4zM180 292h4v4h-4z"/><path fill="#2996D6" d="M184 292h4v4h-4z"/><path fill="#33ADF7" d="M272 292h4v4h-4z"/><path fill="#5ECDFC" d="M276 292h4v4h-4zM280 292h4v4h-4z"/><path fill="#33ADF7" d="M284 292h4v4h-4z"/><path fill="#007BC5" d="M288 292h4v4h-4z"/><path fill="#2694D4" d="M292 292h4v4h-4z"/><path fill="#00ACFC" d="M296 292h4v4h-4z"/><path fill="#A7DEFF" d="M300 292h4v4h-4z"/><path fill="#33ADF7" d="M304 292h4v4h-4z"/><path fill="#A7DEFF" d="M152 296h4v4h-4z"/><path fill="#5ECDFC" d="M156 296h4v4h-4zM160 296h4v4h-4z"/><path fill="#33ADF7" d="M164 296h4v4h-4z"/><path fill="#2795D5" d="M168 296h4v4h-4z"/><path fill="#007BC5" d="M172 296h4v4h-4z"/><path fill="#00ACFC" d="M176 296h4v4h-4zM180 296h4v4h-4z"/><path fill="#2996D6" d="M184 296h4v4h-4z"/><path fill="#33ADF7" d="M276 296h4v4h-4z"/><path fill="#5ECDFC" d="M280 296h4v4h-4z"/><path fill="#33ADF7" d="M284 296h4v4h-4z"/><path fill="#007BC5" d="M288 296h4v4h-4z"/><path fill="#33ADF7" d="M292 296h4v4h-4z"/><path fill="#00ACFC" d="M296 296h4v4h-4z"/><path fill="#A7DEFF" d="M300 296h4v4h-4zM156 300h4v4h-4z"/><path fill="#5ECDFC" d="M160 300h4v4h-4z"/><path fill="#33ADF7" d="M164 300h4v4h-4z"/><path fill="#2795D5" d="M168 300h4v4h-4z"/><path fill="#007BC5" d="M172 300h4v4h-4z"/><path fill="#00ACFC" d="M176 300h4v4h-4zM180 300h4v4h-4z"/><path fill="#2996D6" d="M184 300h4v4h-4z"/><path fill="#33ADF7" d="M276 300h4v4h-4z"/><path fill="#5ECDFC" d="M280 300h4v4h-4z"/><path fill="#33ADF7" d="M284 300h4v4h-4z"/><path fill="#007BC5" d="M288 300h4v4h-4z"/><path fill="#33ADF7" d="M292 300h4v4h-4z"/><path fill="#A7DEFF" d="M296 300h4v4h-4z"/><path fill="#5ECDFC" d="M300 300h4v4h-4z"/><path fill="#A7DEFF" d="M156 304h4v4h-4z"/><path fill="#5ECDFC" d="M160 304h4v4h-4zM164 304h4v4h-4z"/><path fill="#33ADF7" d="M168 304h4v4h-4zM172 304h4v4h-4z"/><path fill="#00ACFC" d="M176 304h4v4h-4zM180 304h4v4h-4z"/><path fill="#2996D6" d="M184 304h4v4h-4z"/><path fill="#33ADF7" d="M276 304h4v4h-4z"/><path fill="#5ECDFC" d="M280 304h4v4h-4z"/><path fill="#33ADF7" d="M284 304h4v4h-4z"/><path fill="#007BC5" d="M288 304h4v4h-4z"/><path fill="#33ADF7" d="M292 304h4v4h-4z"/><path fill="#A7DEFF" d="M296 304h4v4h-4z"/><path fill="#33ADF7" d="M300 304h4v4h-4z"/><path fill="#E8FFF9" d="M160 308h4v4h-4z"/><path fill="#5ECDFC" d="M164 308h4v4h-4z"/><path fill="#33ADF7" d="M168 308h4v4h-4zM172 308h4v4h-4z"/><path fill="#00ACFC" d="M176 308h4v4h-4zM180 308h4v4h-4z"/><path fill="#2996D6" d="M184 308h4v4h-4z"/><path fill="#33ADF7" d="M276 308h4v4h-4z"/><path fill="#5ECDFC" d="M280 308h4v4h-4z"/><path fill="#33ADF7" d="M284 308h4v4h-4z"/><path fill="#00ACFC" d="M288 308h4v4h-4z"/><path fill="#33ADF7" d="M292 308h4v4h-4z"/><path fill="#A7DEFF" d="M296 308h4v4h-4z"/><path fill="#E8FFF9" d="M160 312h4v4h-4z"/><path fill="#5ECDFC" d="M164 312h4v4h-4z"/><path fill="#33ADF7" d="M168 312h4v4h-4zM172 312h4v4h-4z"/><path fill="#5ECDFC" d="M176 312h4v4h-4z"/><path fill="#00ACFC" d="M180 312h4v4h-4z"/><path fill="#2996D6" d="M184 312h4v4h-4z"/><path fill="#33ADF7" d="M276 312h4v4h-4z"/><path fill="#5ECDFC" d="M280 312h4v4h-4z"/><path fill="#33ADF7" d="M284 312h4v4h-4zM288 312h4v4h-4z"/><path fill="#A7DEFF" d="M292 312h4v4h-4z"/><path fill="#33ADF7" d="M296 312h4v4h-4z"/><path fill="#E8FFF9" d="M164 316h4v4h-4z"/><path fill="#5ECDFC" d="M168 316h4v4h-4z"/><path fill="#33ADF7" d="M172 316h4v4h-4z"/><path fill="#5ECDFC" d="M176 316h4v4h-4z"/><path fill="#00ACFC" d="M180 316h4v4h-4z"/><path fill="#2996D6" d="M184 316h4v4h-4z"/><path fill="#33ADF7" d="M280 316h4v4h-4zM284 316h4v4h-4zM288 316h4v4h-4z"/><path fill="#A7DEFF" d="M292 316h4v4h-4z"/><path fill="#E8FFF9" d="M164 320h4v4h-4z"/><path fill="#5ECDFC" d="M168 320h4v4h-4z"/><path fill="#33ADF7" d="M172 320h4v4h-4z"/><path fill="#5ECDFC" d="M176 320h4v4h-4zM180 320h4v4h-4z"/><path fill="#2996D6" d="M184 320h4v4h-4z"/><path fill="#33ADF7" d="M280 320h4v4h-4z"/><path fill="#2694D4" d="M284 320h4v4h-4z"/><path fill="#33ADF7" d="M288 320h4v4h-4z"/><path fill="#5ECDFC" d="M292 320h4v4h-4z"/><path fill="#E8FFF9" d="M168 324h4v4h-4z"/><path fill="#5ECDFC" d="M172 324h4v4h-4z"/><path fill="#33ADF7" d="M176 324h4v4h-4z"/><path fill="#5ECDFC" d="M180 324h4v4h-4z"/><path fill="#33ADF7" d="M280 324h4v4h-4z"/><path fill="#58CBFC" d="M284 324h4v4h-4z"/><path fill="#33ADF7" d="M288 324h4v4h-4z"/><path fill="#5ECDFC" d="M292 324h4v4h-4z"/><path fill="#E8FFF9" d="M168 328h4v4h-4z"/><path fill="#5ECDFC" d="M172 328h4v4h-4z"/><path fill="#33ADF7" d="M176 328h4v4h-4z"/><path fill="#5ECDFC" d="M180 328h4v4h-4z"/><path fill="#33ADF7" d="M280 328h4v4h-4z"/><path fill="#5ECDFC" d="M284 328h4v4h-4zM288 328h4v4h-4z"/><path fill="#A7DEFF" d="M172 332h4v4h-4z"/><path fill="#5ECDFC" d="M176 332h4v4h-4zM180 332h4v4h-4z"/><path fill="#33ADF7" d="M284 332h4v4h-4zM288 332h4v4h-4z"/><path fill="#A7DEFF" d="M172 336h4v4h-4z"/><path fill="#5ECDFC" d="M176 336h4v4h-4z"/><path fill="#5ACCFC" d="M180 336h4v4h-4z"/><path fill="#33ADF7" d="M284 336h4v4h-4z"/><path fill="#A7DEFF" d="M176 340h4v4h-4z"/><path fill="#5ACCFC" d="M180 340h4v4h-4z"/><path fill="#33ADF7" d="M284 340h4v4h-4z"/><path fill="#A7DEFF" d="M176 344h4v4h-4z"/><path fill="#5ACCFC" d="M180 344h4v4h-4z"/><path fill="#A7DEFF" d="M180 348h4v4h-4zM180 352h4v4h-4z"/></svg>