<svg width="384" height="384" xmlns="http://www.w3.org/2000/svg" shape-rendering="crispEdges"><path fill="#79250D" d="M276 224h4v4h-4zM280 224h4v4h-4zM284 224h4v4h-4zM288 224h4v4h-4zM292 224h4v4h-4zM296 224h4v4h-4zM300 224h4v4h-4zM304 224h4v4h-4zM308 224h4v4h-4zM268 228h4v4h-4zM272 228h4v4h-4z"/><path fill="#A2794D" d="M276 228h4v4h-4zM280 228h4v4h-4zM284 228h4v4h-4zM288 228h4v4h-4zM292 228h4v4h-4zM296 228h4v4h-4zM300 228h4v4h-4zM304 228h4v4h-4zM308 228h4v4h-4z"/><path fill="#79250D" d="M312 228h4v4h-4zM316 228h4v4h-4zM152 232h4v4h-4zM156 232h4v4h-4zM160 232h4v4h-4zM164 232h4v4h-4zM168 232h4v4h-4zM172 232h4v4h-4zM176 232h4v4h-4zM180 232h4v4h-4zM184 232h4v4h-4zM188 232h4v4h-4zM264 232h4v4h-4z"/><path fill="#A2794D" d="M268 232h4v4h-4zM272 232h4v4h-4zM276 232h4v4h-4zM280 232h4v4h-4zM284 232h4v4h-4zM288 232h4v4h-4zM292 232h4v4h-4zM296 232h4v4h-4zM300 232h4v4h-4zM304 232h4v4h-4zM308 232h4v4h-4zM312 232h4v4h-4zM316 232h4v4h-4z"/><path fill="#79250D" d="M320 232h4v4h-4zM140 236h4v4h-4zM144 236h4v4h-4zM148 236h4v4h-4z"/><path fill="#A2794D" d="M152 236h4v4h-4zM156 236h4v4h-4zM160 236h4v4h-4zM164 236h4v4h-4zM168 236h4v4h-4zM172 236h4v4h-4zM176 236h4v4h-4zM180 236h4v4h-4zM184 236h4v4h-4z"/><path fill="#A1784C" d="M188 236h4v4h-4z"/><path fill="#79250D" d="M192 236h4v4h-4zM264 236h4v4h-4z"/><path fill="#7E331F" d="M268 236h4v4h-4z"/><path fill="#8B4330" d="M272 236h4v4h-4zM276 236h4v4h-4zM280 236h4v4h-4z"/><path fill="#A2794D" d="M284 236h4v4h-4zM288 236h4v4h-4zM292 236h4v4h-4zM296 236h4v4h-4zM300 236h4v4h-4zM304 236h4v4h-4zM308 236h4v4h-4zM312 236h4v4h-4zM316 236h4v4h-4z"/><path fill="#79250D" d="M320 236h4v4h-4zM136 240h4v4h-4z"/><path fill="#A2794D" d="M140 240h4v4h-4zM144 240h4v4h-4zM148 240h4v4h-4zM152 240h4v4h-4zM156 240h4v4h-4zM160 240h4v4h-4zM164 240h4v4h-4zM168 240h4v4h-4zM172 240h4v4h-4zM176 240h4v4h-4zM180 240h4v4h-4zM184 240h4v4h-4z"/><path fill="#89412D" d="M188 240h4v4h-4z"/><path fill="#89422D" d="M192 240h4v4h-4z"/><path fill="#79250D" d="M196 240h4v4h-4zM264 240h4v4h-4z"/><path fill="#7E331F" d="M268 240h4v4h-4zM272 240h4v4h-4zM276 240h4v4h-4z"/><path fill="#A2794D" d="M280 240h4v4h-4zM284 240h4v4h-4zM288 240h4v4h-4zM292 240h4v4h-4zM296 240h4v4h-4zM300 240h4v4h-4zM304 240h4v4h-4zM308 240h4v4h-4z"/><path fill="#8A422F" d="M312 240h4v4h-4z"/><path fill="#79440D" opacity=".98" d="M316 240h4v4h-4z"/><path fill="#79250D" d="M320 240h4v4h-4zM132 244h4v4h-4z"/><path fill="#A2794D" d="M136 244h4v4h-4zM140 244h4v4h-4zM144 244h4v4h-4zM148 244h4v4h-4zM152 244h4v4h-4zM156 244h4v4h-4zM160 244h4v4h-4zM164 244h4v4h-4zM168 244h4v4h-4zM172 244h4v4h-4zM176 244h4v4h-4z"/><path fill="#8B4330" d="M180 244h4v4h-4z"/><path fill="#7E331F" d="M184 244h4v4h-4zM188 244h4v4h-4z"/><path fill="#89422D" d="M192 244h4v4h-4z"/><path fill="#79250D" d="M196 244h4v4h-4zM264 244h4v4h-4z"/><path fill="#7E331F" d="M268 244h4v4h-4zM272 244h4v4h-4zM276 244h4v4h-4zM280 244h4v4h-4zM284 244h4v4h-4z"/><path fill="#8A422F" d="M288 244h4v4h-4z"/><path fill="#7E331F" d="M292 244h4v4h-4zM296 244h4v4h-4z"/><path fill="#8A422F" d="M300 244h4v4h-4zM304 244h4v4h-4z"/><path fill="#7E331F" d="M308 244h4v4h-4z"/><path fill="#8A422F" d="M312 244h4v4h-4z"/><path fill="#79440D" opacity=".98" d="M316 244h4v4h-4z"/><path fill="#79250D" d="M320 244h4v4h-4zM132 248h4v4h-4z"/><path fill="#A2794D" d="M136 248h4v4h-4zM140 248h4v4h-4zM144 248h4v4h-4zM148 248h4v4h-4zM152 248h4v4h-4z"/><path fill="#8B4330" d="M156 248h4v4h-4z"/><path fill="#A2794D" d="M160 248h4v4h-4zM164 248h4v4h-4zM168 248h4v4h-4z"/><path fill="#8A422F" d="M172 248h4v4h-4zM176 248h4v4h-4z"/><path fill="#89412D" d="M180 248h4v4h-4z"/><path fill="#7E331F" d="M184 248h4v4h-4zM188 248h4v4h-4z"/><path fill="#89422D" d="M192 248h4v4h-4z"/><path fill="#79250D" d="M196 248h4v4h-4zM264 248h4v4h-4z"/><path fill="#7E331F" d="M268 248h4v4h-4zM272 248h4v4h-4zM276 248h4v4h-4zM280 248h4v4h-4zM284 248h4v4h-4z"/><path fill="#8A422F" d="M288 248h4v4h-4z"/><path fill="#7E331F" d="M292 248h4v4h-4zM296 248h4v4h-4z"/><path fill="#8A422F" d="M300 248h4v4h-4z"/><path fill="#7E331F" d="M304 248h4v4h-4zM308 248h4v4h-4z"/><path fill="#8A422F" d="M312 248h4v4h-4zM316 248h4v4h-4z"/><path fill="#79250D" d="M320 248h4v4h-4zM136 252h4v4h-4z"/><path fill="#89412D" d="M140 252h4v4h-4z"/><path fill="#7E331F" d="M144 252h4v4h-4zM148 252h4v4h-4zM152 252h4v4h-4z"/><path fill="#89412D" d="M156 252h4v4h-4z"/><path fill="#7E331F" d="M160 252h4v4h-4zM164 252h4v4h-4zM168 252h4v4h-4z"/><path fill="#8A422F" d="M172 252h4v4h-4z"/><path fill="#89412D" d="M176 252h4v4h-4z"/><path fill="#8A422F" d="M180 252h4v4h-4z"/><path fill="#7E331F" d="M184 252h4v4h-4zM188 252h4v4h-4z"/><path fill="#89422D" d="M192 252h4v4h-4z"/><path fill="#79250D" d="M196 252h4v4h-4z"/><path fill="#60210F" opacity=".98" d="M256 252h4v4h-4z"/><path fill="#78240E" d="M264 252h4v4h-4z"/><path fill="#7E331F" d="M268 252h4v4h-4zM272 252h4v4h-4zM276 252h4v4h-4zM280 252h4v4h-4z"/><path fill="#8A422F" d="M284 252h4v4h-4zM288 252h4v4h-4z"/><path fill="#7E331F" d="M292 252h4v4h-4zM296 252h4v4h-4z"/><path fill="#8A422F" d="M300 252h4v4h-4z"/><path fill="#7E331F" d="M304 252h4v4h-4zM308 252h4v4h-4z"/><path fill="#8A422F" d="M312 252h4v4h-4zM316 252h4v4h-4z"/><path fill="#79250D" d="M320 252h4v4h-4zM136 256h4v4h-4z"/><path fill="#89412D" d="M140 256h4v4h-4z"/><path fill="#7E331F" d="M144 256h4v4h-4zM148 256h4v4h-4zM152 256h4v4h-4z"/><path fill="#89412D" d="M156 256h4v4h-4z"/><path fill="#7E331F" d="M160 256h4v4h-4zM164 256h4v4h-4zM168 256h4v4h-4z"/><path fill="#8A422F" d="M172 256h4v4h-4zM176 256h4v4h-4zM180 256h4v4h-4z"/><path fill="#7E331F" d="M184 256h4v4h-4zM188 256h4v4h-4zM192 256h4v4h-4z"/><path fill="#89412D" d="M196 256h4v4h-4z"/><path fill="#79250D" d="M200 256h4v4h-4z"/><path fill="#60210F" opacity=".98" d="M256 256h4v4h-4zM260 256h4v4h-4z"/><path fill="#78240E" d="M264 256h4v4h-4z"/><path fill="#7E331F" d="M268 256h4v4h-4zM272 256h4v4h-4zM276 256h4v4h-4zM280 256h4v4h-4z"/><path fill="#8A422F" d="M284 256h4v4h-4zM288 256h4v4h-4z"/><path fill="#7E331F" d="M292 256h4v4h-4zM296 256h4v4h-4z"/><path fill="#8A422F" d="M300 256h4v4h-4z"/><path fill="#7E331F" d="M304 256h4v4h-4zM308 256h4v4h-4z"/><path fill="#8A422F" d="M312 256h4v4h-4zM316 256h4v4h-4z"/><path fill="#79250D" d="M320 256h4v4h-4zM136 260h4v4h-4z"/><path fill="#89412D" d="M140 260h4v4h-4z"/><path fill="#7E331F" d="M144 260h4v4h-4zM148 260h4v4h-4zM152 260h4v4h-4z"/><path fill="#89412D" d="M156 260h4v4h-4z"/><path fill="#7E331F" d="M160 260h4v4h-4zM164 260h4v4h-4zM168 260h4v4h-4z"/><path fill="#8A422F" d="M172 260h4v4h-4zM176 260h4v4h-4zM180 260h4v4h-4z"/><path fill="#7E331F" d="M184 260h4v4h-4zM188 260h4v4h-4zM192 260h4v4h-4z"/><path fill="#89412D" d="M196 260h4v4h-4z"/><path fill="#79250D" d="M200 260h4v4h-4z"/><path fill="#60210F" opacity=".98" d="M256 260h4v4h-4z"/><path fill="#60210F" d="M260 260h4v4h-4z"/><path fill="#78240E" d="M264 260h4v4h-4z"/><path fill="#7E331F" d="M268 260h4v4h-4zM272 260h4v4h-4zM276 260h4v4h-4zM280 260h4v4h-4z"/><path fill="#8A422F" d="M284 260h4v4h-4zM288 260h4v4h-4z"/><path fill="#7E331F" d="M292 260h4v4h-4zM296 260h4v4h-4z"/><path fill="#8A422F" d="M300 260h4v4h-4z"/><path fill="#7E331F" d="M304 260h4v4h-4zM308 260h4v4h-4z"/><path fill="#8A422F" d="M312 260h4v4h-4zM316 260h4v4h-4z"/><path fill="#79250D" d="M320 260h4v4h-4zM136 264h4v4h-4z"/><path fill="#89412D" d="M140 264h4v4h-4z"/><path fill="#7E331F" d="M144 264h4v4h-4zM148 264h4v4h-4zM152 264h4v4h-4z"/><path fill="#89412D" d="M156 264h4v4h-4z"/><path fill="#7E331F" d="M160 264h4v4h-4zM164 264h4v4h-4zM168 264h4v4h-4z"/><path fill="#8A422F" d="M172 264h4v4h-4zM176 264h4v4h-4zM180 264h4v4h-4z"/><path fill="#7E331F" d="M184 264h4v4h-4zM188 264h4v4h-4zM192 264h4v4h-4zM196 264h4v4h-4z"/><path fill="#79250D" d="M200 264h4v4h-4z"/><path fill="#60210F" opacity=".98" d="M256 264h4v4h-4z"/><path fill="#60210F" d="M260 264h4v4h-4z"/><path fill="#78240E" d="M264 264h4v4h-4z"/><path fill="#7E331F" d="M268 264h4v4h-4zM272 264h4v4h-4zM276 264h4v4h-4zM280 264h4v4h-4z"/><path fill="#8A422F" d="M284 264h4v4h-4zM288 264h4v4h-4z"/><path fill="#7E331F" d="M292 264h4v4h-4zM296 264h4v4h-4z"/><path fill="#8A422F" d="M300 264h4v4h-4z"/><path fill="#7E331F" d="M304 264h4v4h-4zM308 264h4v4h-4z"/><path fill="#8A422F" d="M312 264h4v4h-4zM316 264h4v4h-4z"/><path fill="#79250D" d="M320 264h4v4h-4zM136 268h4v4h-4z"/><path fill="#89412D" d="M140 268h4v4h-4z"/><path fill="#7E331F" d="M144 268h4v4h-4zM148 268h4v4h-4zM152 268h4v4h-4zM156 268h4v4h-4zM160 268h4v4h-4zM164 268h4v4h-4zM168 268h4v4h-4zM172 268h4v4h-4z"/><path fill="#8A422F" d="M176 268h4v4h-4zM180 268h4v4h-4z"/><path fill="#7E331F" d="M184 268h4v4h-4zM188 268h4v4h-4zM192 268h4v4h-4zM196 268h4v4h-4z"/><path fill="#79250D" d="M200 268h4v4h-4z"/><path fill="#60210F" opacity=".98" d="M256 268h4v4h-4zM260 268h4v4h-4z"/><path fill="#78240E" d="M264 268h4v4h-4z"/><path fill="#7E331F" d="M268 268h4v4h-4zM272 268h4v4h-4zM276 268h4v4h-4zM280 268h4v4h-4z"/><path fill="#8A422F" d="M284 268h4v4h-4zM288 268h4v4h-4z"/><path fill="#7E331F" d="M292 268h4v4h-4zM296 268h4v4h-4z"/><path fill="#8A422F" d="M300 268h4v4h-4z"/><path fill="#7E331F" d="M304 268h4v4h-4zM308 268h4v4h-4z"/><path fill="#8A422F" d="M312 268h4v4h-4zM316 268h4v4h-4z"/><path fill="#79250D" d="M320 268h4v4h-4zM140 272h4v4h-4z"/><path fill="#89412D" d="M144 272h4v4h-4z"/><path fill="#7E331F" d="M148 272h4v4h-4zM152 272h4v4h-4zM156 272h4v4h-4zM160 272h4v4h-4zM164 272h4v4h-4zM168 272h4v4h-4zM172 272h4v4h-4z"/><path fill="#8A422F" d="M176 272h4v4h-4zM180 272h4v4h-4zM184 272h4v4h-4z"/><path fill="#7E331F" d="M188 272h4v4h-4zM192 272h4v4h-4zM196 272h4v4h-4z"/><path fill="#89412D" d="M200 272h4v4h-4z"/><path fill="#79250D" d="M204 272h4v4h-4z"/><path fill="#60210F" opacity=".98" d="M256 272h4v4h-4zM260 272h4v4h-4z"/><path fill="#79250D" d="M264 272h4v4h-4z"/><path fill="#7E331F" d="M268 272h4v4h-4zM272 272h4v4h-4zM276 272h4v4h-4zM280 272h4v4h-4zM284 272h4v4h-4zM288 272h4v4h-4zM292 272h4v4h-4zM296 272h4v4h-4zM300 272h4v4h-4z"/><path fill="#8A422F" d="M304 272h4v4h-4z"/><path fill="#7E331F" d="M308 272h4v4h-4zM312 272h4v4h-4z"/><path fill="#8A422F" d="M316 272h4v4h-4z"/><path fill="#79250D" d="M320 272h4v4h-4zM140 276h4v4h-4z"/><path fill="#89412D" d="M144 276h4v4h-4z"/><path fill="#7E331F" d="M148 276h4v4h-4zM152 276h4v4h-4zM156 276h4v4h-4zM160 276h4v4h-4zM164 276h4v4h-4zM168 276h4v4h-4zM172 276h4v4h-4zM176 276h4v4h-4z"/><path fill="#8A422F" d="M180 276h4v4h-4zM184 276h4v4h-4z"/><path fill="#7E331F" d="M188 276h4v4h-4zM192 276h4v4h-4zM196 276h4v4h-4z"/><path fill="#89412D" d="M200 276h4v4h-4z"/><path fill="#79250D" d="M204 276h4v4h-4z"/><path fill="#60210F" opacity=".98" d="M256 276h4v4h-4zM260 276h4v4h-4z"/><path fill="#79250D" d="M264 276h4v4h-4z"/><path fill="#7E331F" d="M268 276h4v4h-4zM272 276h4v4h-4zM276 276h4v4h-4zM280 276h4v4h-4zM284 276h4v4h-4zM288 276h4v4h-4zM292 276h4v4h-4zM296 276h4v4h-4zM300 276h4v4h-4z"/><path fill="#8A422F" d="M304 276h4v4h-4z"/><path fill="#7E331F" d="M308 276h4v4h-4zM312 276h4v4h-4z"/><path fill="#8A422F" d="M316 276h4v4h-4z"/><path fill="#79250D" d="M320 276h4v4h-4zM140 280h4v4h-4z"/><path fill="#89412D" d="M144 280h4v4h-4z"/><path fill="#7E331F" d="M148 280h4v4h-4zM152 280h4v4h-4zM156 280h4v4h-4zM160 280h4v4h-4zM164 280h4v4h-4zM168 280h4v4h-4zM172 280h4v4h-4zM176 280h4v4h-4z"/><path fill="#8A422F" d="M180 280h4v4h-4zM184 280h4v4h-4z"/><path fill="#7E331F" d="M188 280h4v4h-4zM192 280h4v4h-4zM196 280h4v4h-4z"/><path fill="#89412D" d="M200 280h4v4h-4z"/><path fill="#79250D" d="M204 280h4v4h-4zM260 280h4v4h-4z"/><path fill="#7E331F" d="M264 280h4v4h-4zM268 280h4v4h-4zM272 280h4v4h-4zM276 280h4v4h-4zM280 280h4v4h-4zM284 280h4v4h-4zM288 280h4v4h-4zM292 280h4v4h-4zM296 280h4v4h-4zM300 280h4v4h-4z"/><path fill="#8A422F" d="M304 280h4v4h-4z"/><path fill="#7E331F" d="M308 280h4v4h-4zM312 280h4v4h-4z"/><path fill="#8A422F" d="M316 280h4v4h-4z"/><path fill="#79250D" d="M320 280h4v4h-4zM140 284h4v4h-4z"/><path fill="#89412D" d="M144 284h4v4h-4z"/><path fill="#7E331F" d="M148 284h4v4h-4zM152 284h4v4h-4zM156 284h4v4h-4zM160 284h4v4h-4zM164 284h4v4h-4zM168 284h4v4h-4zM172 284h4v4h-4zM176 284h4v4h-4z"/><path fill="#8A422F" d="M180 284h4v4h-4zM184 284h4v4h-4zM188 284h4v4h-4z"/><path fill="#7E331F" d="M192 284h4v4h-4zM196 284h4v4h-4z"/><path fill="#89412D" d="M200 284h4v4h-4z"/><path fill="#79250D" d="M204 284h4v4h-4zM260 284h4v4h-4z"/><path fill="#7E331F" d="M264 284h4v4h-4zM268 284h4v4h-4zM272 284h4v4h-4zM276 284h4v4h-4zM280 284h4v4h-4zM284 284h4v4h-4zM288 284h4v4h-4zM292 284h4v4h-4zM296 284h4v4h-4zM300 284h4v4h-4z"/><path fill="#8A422F" d="M304 284h4v4h-4zM308 284h4v4h-4z"/><path fill="#7E331F" d="M312 284h4v4h-4z"/><path fill="#8A422F" d="M316 284h4v4h-4z"/><path fill="#79250D" d="M320 284h4v4h-4zM140 288h4v4h-4z"/><path fill="#89412D" d="M144 288h4v4h-4z"/><path fill="#7E331F" d="M148 288h4v4h-4zM152 288h4v4h-4zM156 288h4v4h-4zM160 288h4v4h-4zM164 288h4v4h-4zM168 288h4v4h-4zM172 288h4v4h-4zM176 288h4v4h-4z"/><path fill="#8A422F" d="M180 288h4v4h-4zM184 288h4v4h-4zM188 288h4v4h-4z"/><path fill="#7E331F" d="M192 288h4v4h-4zM196 288h4v4h-4z"/><path fill="#89412D" d="M200 288h4v4h-4z"/><path fill="#79250D" d="M204 288h4v4h-4zM260 288h4v4h-4z"/><path fill="#7E331F" d="M264 288h4v4h-4zM268 288h4v4h-4zM272 288h4v4h-4zM276 288h4v4h-4zM280 288h4v4h-4zM284 288h4v4h-4zM288 288h4v4h-4zM292 288h4v4h-4zM296 288h4v4h-4zM300 288h4v4h-4z"/><path fill="#8A422F" d="M304 288h4v4h-4zM308 288h4v4h-4z"/><path fill="#7E331F" d="M312 288h4v4h-4z"/><path fill="#8A422F" d="M316 288h4v4h-4z"/><path fill="#79250D" d="M320 288h4v4h-4zM140 292h4v4h-4z"/><path fill="#89412D" d="M144 292h4v4h-4z"/><path fill="#7E331F" d="M148 292h4v4h-4zM152 292h4v4h-4zM156 292h4v4h-4zM160 292h4v4h-4zM164 292h4v4h-4zM168 292h4v4h-4zM172 292h4v4h-4zM176 292h4v4h-4zM180 292h4v4h-4z"/><path fill="#8A422F" d="M184 292h4v4h-4zM188 292h4v4h-4z"/><path fill="#7E331F" d="M192 292h4v4h-4zM196 292h4v4h-4z"/><path fill="#8A422F" d="M200 292h4v4h-4z"/><path fill="#79440D" opacity=".98" d="M204 292h4v4h-4z"/><path fill="#79250D" d="M208 292h4v4h-4zM260 292h4v4h-4z"/><path fill="#7E331F" d="M264 292h4v4h-4zM268 292h4v4h-4zM272 292h4v4h-4zM276 292h4v4h-4zM280 292h4v4h-4zM284 292h4v4h-4zM288 292h4v4h-4zM292 292h4v4h-4zM296 292h4v4h-4zM300 292h4v4h-4z"/><path fill="#8A422F" d="M304 292h4v4h-4zM308 292h4v4h-4z"/><path fill="#7E331F" d="M312 292h4v4h-4z"/><path fill="#8A422F" d="M316 292h4v4h-4z"/><path fill="#79250D" d="M320 292h4v4h-4zM144 296h4v4h-4z"/><path fill="#89412D" d="M148 296h4v4h-4z"/><path fill="#7E331F" d="M152 296h4v4h-4zM156 296h4v4h-4zM160 296h4v4h-4zM164 296h4v4h-4zM168 296h4v4h-4zM172 296h4v4h-4zM176 296h4v4h-4zM180 296h4v4h-4z"/><path fill="#8A422F" d="M184 296h4v4h-4zM188 296h4v4h-4z"/><path fill="#7E331F" d="M192 296h4v4h-4zM196 296h4v4h-4z"/><path fill="#8A422F" d="M200 296h4v4h-4zM204 296h4v4h-4z"/><path fill="#79250D" d="M208 296h4v4h-4zM260 296h4v4h-4z"/><path fill="#7E331F" d="M264 296h4v4h-4zM268 296h4v4h-4zM272 296h4v4h-4zM276 296h4v4h-4zM280 296h4v4h-4zM284 296h4v4h-4z"/><path fill="#5F1F0F" d="M288 296h4v4h-4z"/><path fill="#7E331F" d="M292 296h4v4h-4zM296 296h4v4h-4zM300 296h4v4h-4z"/><path fill="#8A422F" d="M304 296h4v4h-4zM308 296h4v4h-4z"/><path fill="#7E331F" d="M312 296h4v4h-4z"/><path fill="#8A422F" d="M316 296h4v4h-4z"/><path fill="#79250D" d="M320 296h4v4h-4zM144 300h4v4h-4z"/><path fill="#89412D" d="M148 300h4v4h-4z"/><path fill="#7E331F" d="M152 300h4v4h-4zM156 300h4v4h-4zM160 300h4v4h-4zM164 300h4v4h-4zM168 300h4v4h-4z"/><path fill="#8A422F" d="M172 300h4v4h-4z"/><path fill="#7E331F" d="M176 300h4v4h-4zM180 300h4v4h-4z"/><path fill="#5F1F0F" d="M184 300h4v4h-4z"/><path fill="#8A422F" d="M188 300h4v4h-4z"/><path fill="#7E331F" d="M192 300h4v4h-4zM196 300h4v4h-4z"/><path fill="#8A422F" d="M200 300h4v4h-4zM204 300h4v4h-4z"/><path fill="#79250D" d="M208 300h4v4h-4zM260 300h4v4h-4z"/><path fill="#7E331F" d="M264 300h4v4h-4zM268 300h4v4h-4zM272 300h4v4h-4zM276 300h4v4h-4zM280 300h4v4h-4zM284 300h4v4h-4z"/><path fill="#5F1F0F" d="M288 300h4v4h-4z"/><path fill="#7E331F" d="M292 300h4v4h-4zM296 300h4v4h-4zM300 300h4v4h-4z"/><path fill="#8A422F" d="M304 300h4v4h-4zM308 300h4v4h-4z"/><path fill="#7E331F" d="M312 300h4v4h-4z"/><path fill="#8A422F" d="M316 300h4v4h-4z"/><path fill="#79250D" d="M320 300h4v4h-4zM144 304h4v4h-4z"/><path fill="#89412D" d="M148 304h4v4h-4z"/><path fill="#7E331F" d="M152 304h4v4h-4zM156 304h4v4h-4zM160 304h4v4h-4zM164 304h4v4h-4zM168 304h4v4h-4z"/><path fill="#8A422F" d="M172 304h4v4h-4z"/><path fill="#7E331F" d="M176 304h4v4h-4zM180 304h4v4h-4z"/><path fill="#5F1F0F" d="M184 304h4v4h-4z"/><path fill="#7E331F" d="M188 304h4v4h-4z"/><path fill="#8A422F" d="M192 304h4v4h-4z"/><path fill="#7E331F" d="M196 304h4v4h-4z"/><path fill="#8A422F" d="M200 304h4v4h-4zM204 304h4v4h-4z"/><path fill="#79250D" d="M208 304h4v4h-4zM260 304h4v4h-4z"/><path fill="#7E331F" d="M264 304h4v4h-4zM268 304h4v4h-4zM272 304h4v4h-4zM276 304h4v4h-4zM280 304h4v4h-4z"/><path fill="#5F1F0F" d="M284 304h4v4h-4zM288 304h4v4h-4z"/><path fill="#8A422F" d="M292 304h4v4h-4z"/><path fill="#7E331F" d="M296 304h4v4h-4zM300 304h4v4h-4z"/><path fill="#8A422F" d="M304 304h4v4h-4zM308 304h4v4h-4z"/><path fill="#7E331F" d="M312 304h4v4h-4z"/><path fill="#8A422F" d="M316 304h4v4h-4z"/><path fill="#79250D" d="M320 304h4v4h-4zM144 308h4v4h-4z"/><path fill="#89412D" d="M148 308h4v4h-4z"/><path fill="#7E331F" d="M152 308h4v4h-4zM156 308h4v4h-4zM160 308h4v4h-4zM164 308h4v4h-4zM168 308h4v4h-4z"/><path fill="#8A422F" d="M172 308h4v4h-4z"/><path fill="#7E331F" d="M176 308h4v4h-4zM180 308h4v4h-4z"/><path fill="#5F1F0F" d="M184 308h4v4h-4z"/><path fill="#7E331F" d="M188 308h4v4h-4z"/><path fill="#7D321E" d="M192 308h4v4h-4z"/><path fill="#7E331F" d="M196 308h4v4h-4z"/><path fill="#8A422F" d="M200 308h4v4h-4zM204 308h4v4h-4zM208 308h4v4h-4z"/><path fill="#79250D" d="M212 308h4v4h-4zM260 308h4v4h-4z"/><path fill="#7E331F" d="M264 308h4v4h-4zM268 308h4v4h-4z"/><path fill="#8A422F" d="M272 308h4v4h-4z"/><path fill="#7E331F" d="M276 308h4v4h-4zM280 308h4v4h-4z"/><path fill="#5F1F0F" d="M284 308h4v4h-4zM288 308h4v4h-4z"/><path fill="#8A422F" d="M292 308h4v4h-4z"/><path fill="#7E331F" d="M296 308h4v4h-4zM300 308h4v4h-4z"/><path fill="#8A422F" d="M304 308h4v4h-4zM308 308h4v4h-4z"/><path fill="#7E331F" d="M312 308h4v4h-4z"/><path fill="#79440D" opacity=".98" d="M316 308h4v4h-4z"/><path fill="#79250D" d="M320 308h4v4h-4zM144 312h4v4h-4z"/><path fill="#89412D" d="M148 312h4v4h-4z"/><path fill="#7E331F" d="M152 312h4v4h-4zM156 312h4v4h-4zM160 312h4v4h-4zM164 312h4v4h-4zM168 312h4v4h-4zM172 312h4v4h-4z"/><path fill="#8A422F" d="M176 312h4v4h-4z"/><path fill="#7E331F" d="M180 312h4v4h-4z"/><path fill="#5F1F0F" d="M184 312h4v4h-4zM188 312h4v4h-4z"/><path fill="#7D321E" d="M192 312h4v4h-4z"/><path fill="#7E331F" d="M196 312h4v4h-4zM200 312h4v4h-4z"/><path fill="#8A422F" d="M204 312h4v4h-4zM208 312h4v4h-4z"/><path fill="#79250D" d="M212 312h4v4h-4zM260 312h4v4h-4z"/><path fill="#7E331F" d="M264 312h4v4h-4zM268 312h4v4h-4z"/><path fill="#8A422F" d="M272 312h4v4h-4z"/><path fill="#7E331F" d="M276 312h4v4h-4zM280 312h4v4h-4z"/><path fill="#5F1F0F" d="M284 312h4v4h-4zM288 312h4v4h-4z"/><path fill="#8A422F" d="M292 312h4v4h-4z"/><path fill="#7E331F" d="M296 312h4v4h-4zM300 312h4v4h-4z"/><path fill="#8A422F" d="M304 312h4v4h-4zM308 312h4v4h-4z"/><path fill="#7E331F" d="M312 312h4v4h-4z"/><path fill="#79440D" opacity=".98" d="M316 312h4v4h-4z"/><path fill="#79250D" d="M320 312h4v4h-4zM148 316h4v4h-4z"/><path fill="#7D351E" d="M152 316h4v4h-4z"/><path fill="#7E331F" d="M156 316h4v4h-4zM160 316h4v4h-4zM164 316h4v4h-4zM168 316h4v4h-4z"/><path fill="#8A422F" d="M172 316h4v4h-4zM176 316h4v4h-4z"/><path fill="#7E331F" d="M180 316h4v4h-4z"/><path fill="#5F1F0F" d="M184 316h4v4h-4zM188 316h4v4h-4z"/><path fill="#7D321E" d="M192 316h4v4h-4zM196 316h4v4h-4z"/><path fill="#7E331F" d="M200 316h4v4h-4z"/><path fill="#8A422F" d="M204 316h4v4h-4zM208 316h4v4h-4z"/><path fill="#79250D" d="M212 316h4v4h-4zM260 316h4v4h-4z"/><path fill="#7E331F" d="M264 316h4v4h-4zM268 316h4v4h-4z"/><path fill="#8A422F" d="M272 316h4v4h-4z"/><path fill="#7E331F" d="M276 316h4v4h-4zM280 316h4v4h-4z"/><path fill="#5F1F0F" d="M284 316h4v4h-4zM288 316h4v4h-4z"/><path fill="#8A422F" d="M292 316h4v4h-4z"/><path fill="#7E331F" d="M296 316h4v4h-4zM300 316h4v4h-4z"/><path fill="#8A422F" d="M304 316h4v4h-4zM308 316h4v4h-4z"/><path fill="#7E331F" d="M312 316h4v4h-4z"/><path fill="#79440D" opacity=".98" d="M316 316h4v4h-4z"/><path fill="#79250D" d="M320 316h4v4h-4zM148 320h4v4h-4z"/><path fill="#89412D" d="M152 320h4v4h-4z"/><path fill="#7E331F" d="M156 320h4v4h-4zM160 320h4v4h-4zM164 320h4v4h-4zM168 320h4v4h-4z"/><path fill="#8A422F" d="M172 320h4v4h-4zM176 320h4v4h-4z"/><path fill="#7E331F" d="M180 320h4v4h-4z"/><path fill="#5F1F0F" d="M184 320h4v4h-4zM188 320h4v4h-4zM192 320h4v4h-4z"/><path fill="#7D321E" d="M196 320h4v4h-4z"/><path fill="#8A422F" d="M200 320h4v4h-4zM204 320h4v4h-4zM208 320h4v4h-4z"/><path fill="#79250D" d="M212 320h4v4h-4zM260 320h4v4h-4z"/><path fill="#A2794D" d="M264 320h4v4h-4z"/><path fill="#7E331F" d="M268 320h4v4h-4z"/><path fill="#A2794D" d="M272 320h4v4h-4z"/><path fill="#7E331F" d="M276 320h4v4h-4z"/><path fill="#5F1F0F" d="M280 320h4v4h-4zM284 320h4v4h-4zM288 320h4v4h-4z"/><path fill="#8A422F" d="M292 320h4v4h-4z"/><path fill="#7E331F" d="M296 320h4v4h-4zM300 320h4v4h-4z"/><path fill="#8A422F" d="M304 320h4v4h-4zM308 320h4v4h-4z"/><path fill="#79440D" opacity=".98" d="M312 320h4v4h-4z"/><path fill="#79250D" d="M316 320h4v4h-4zM148 324h4v4h-4z"/><path fill="#89412D" d="M152 324h4v4h-4z"/><path fill="#7E331F" d="M156 324h4v4h-4zM160 324h4v4h-4zM164 324h4v4h-4zM168 324h4v4h-4zM172 324h4v4h-4z"/><path fill="#8A422F" d="M176 324h4v4h-4z"/><path fill="#7E331F" d="M180 324h4v4h-4z"/><path fill="#5F1F0F" d="M184 324h4v4h-4zM188 324h4v4h-4zM192 324h4v4h-4z"/><path fill="#7D321E" d="M196 324h4v4h-4z"/><path fill="#7F3521" d="M200 324h4v4h-4z"/><path fill="#8A422F" d="M204 324h4v4h-4zM208 324h4v4h-4zM212 324h4v4h-4z"/><path fill="#79250D" d="M216 324h4v4h-4zM264 324h4v4h-4z"/><path fill="#A2794D" d="M268 324h4v4h-4zM272 324h4v4h-4zM276 324h4v4h-4z"/><path fill="#7E331F" d="M280 324h4v4h-4z"/><path fill="#5F1F0F" d="M284 324h4v4h-4zM288 324h4v4h-4z"/><path fill="#8A422F" d="M292 324h4v4h-4zM296 324h4v4h-4z"/><path fill="#7E331F" d="M300 324h4v4h-4z"/><path fill="#8C4531" d="M304 324h4v4h-4zM308 324h4v4h-4z"/><path fill="#79250D" d="M312 324h4v4h-4zM148 328h4v4h-4z"/><path fill="#89412D" d="M152 328h4v4h-4z"/><path fill="#7E331F" d="M156 328h4v4h-4zM160 328h4v4h-4zM164 328h4v4h-4zM168 328h4v4h-4zM172 328h4v4h-4z"/><path fill="#8A422F" d="M176 328h4v4h-4z"/><path fill="#7E331F" d="M180 328h4v4h-4z"/><path fill="#5F1F0F" d="M184 328h4v4h-4zM188 328h4v4h-4zM192 328h4v4h-4z"/><path fill="#7D321E" d="M196 328h4v4h-4zM200 328h4v4h-4z"/><path fill="#8A422F" d="M204 328h4v4h-4zM208 328h4v4h-4zM212 328h4v4h-4z"/><path fill="#79250D" d="M216 328h4v4h-4zM268 328h4v4h-4zM272 328h4v4h-4zM276 328h4v4h-4z"/><path fill="#A2794D" d="M280 328h4v4h-4z"/><path fill="#602110" d="M284 328h4v4h-4z"/><path fill="#612212" d="M288 328h4v4h-4z"/><path fill="#A2794D" d="M292 328h4v4h-4zM296 328h4v4h-4zM300 328h4v4h-4z"/><path fill="#79250D" d="M304 328h4v4h-4zM308 328h4v4h-4zM148 332h4v4h-4z"/><path fill="#89412D" d="M152 332h4v4h-4z"/><path fill="#7E331F" d="M156 332h4v4h-4zM160 332h4v4h-4zM164 332h4v4h-4zM168 332h4v4h-4zM172 332h4v4h-4z"/><path fill="#8A422F" d="M176 332h4v4h-4zM180 332h4v4h-4z"/><path fill="#7E331F" d="M184 332h4v4h-4z"/><path fill="#5F1F0F" d="M188 332h4v4h-4zM192 332h4v4h-4zM196 332h4v4h-4z"/><path fill="#7D321E" d="M200 332h4v4h-4z"/><path fill="#8A422F" d="M204 332h4v4h-4zM208 332h4v4h-4z"/><path fill="#A2794D" d="M212 332h4v4h-4z"/><path fill="#79250D" d="M216 332h4v4h-4zM280 332h4v4h-4zM284 332h4v4h-4zM288 332h4v4h-4zM292 332h4v4h-4zM296 332h4v4h-4zM300 332h4v4h-4zM152 336h4v4h-4z"/><path fill="#89412D" d="M156 336h4v4h-4z"/><path fill="#7E331F" d="M160 336h4v4h-4zM164 336h4v4h-4zM168 336h4v4h-4zM172 336h4v4h-4z"/><path fill="#8A422F" d="M176 336h4v4h-4zM180 336h4v4h-4zM184 336h4v4h-4z"/><path fill="#5F1F0F" d="M188 336h4v4h-4zM192 336h4v4h-4zM196 336h4v4h-4z"/><path fill="#8A422F" d="M200 336h4v4h-4zM204 336h4v4h-4z"/><path fill="#A2794D" d="M208 336h4v4h-4z"/><path fill="#79250D" d="M212 336h4v4h-4zM152 340h4v4h-4z"/><path fill="#89412D" d="M156 340h4v4h-4z"/><path fill="#7E331F" d="M160 340h4v4h-4zM164 340h4v4h-4zM168 340h4v4h-4zM172 340h4v4h-4z"/><path fill="#A2794D" d="M176 340h4v4h-4z"/><path fill="#8A422F" d="M180 340h4v4h-4zM184 340h4v4h-4z"/><path fill="#5F1F0F" d="M188 340h4v4h-4zM192 340h4v4h-4z"/><path fill="#5F1F0E" d="M196 340h4v4h-4z"/><path fill="#A2794D" d="M200 340h4v4h-4z"/><path fill="#79250D" d="M204 340h4v4h-4zM208 340h4v4h-4zM152 344h4v4h-4z"/><path fill="#A2794E" d="M156 344h4v4h-4zM160 344h4v4h-4z"/><path fill="#8B4330" d="M164 344h4v4h-4zM168 344h4v4h-4zM172 344h4v4h-4z"/><path fill="#A2794E" d="M176 344h4v4h-4z"/><path fill="#A2794D" d="M180 344h4v4h-4zM184 344h4v4h-4z"/><path fill="#612212" d="M188 344h4v4h-4zM192 344h4v4h-4z"/><path fill="#79250D" d="M196 344h4v4h-4zM200 344h4v4h-4zM156 348h4v4h-4zM160 348h4v4h-4zM164 348h4v4h-4zM168 348h4v4h-4zM172 348h4v4h-4zM176 348h4v4h-4zM180 348h4v4h-4zM184 348h4v4h-4zM188 348h4v4h-4zM192 348h4v4h-4z"/></svg>