<svg width="384" height="384" xmlns="http://www.w3.org/2000/svg" shape-rendering="crispEdges"><path fill="#8E7B07" d="M244 196h4v4h-4zM248 196h4v4h-4zM252 196h4v4h-4zM208 200h4v4h-4zM212 200h4v4h-4zM216 200h4v4h-4zM240 200h4v4h-4z"/><path fill="#B7A109" d="M244 200h4v4h-4z"/><path fill="#E3D212" d="M248 200h4v4h-4zM252 200h4v4h-4z"/><path fill="#8E7B07" d="M256 200h4v4h-4zM204 204h4v4h-4z"/><path fill="#B7A109" d="M208 204h4v4h-4z"/><path fill="#E3D212" d="M212 204h4v4h-4zM216 204h4v4h-4z"/><path fill="#8E7B07" d="M220 204h4v4h-4zM236 204h4v4h-4z"/><path fill="#FAEE0C" d="M240 204h4v4h-4z"/><path fill="#8E7B07" d="M244 204h4v4h-4zM248 204h4v4h-4z"/><path fill="#F3E00C" d="M252 204h4v4h-4z"/><path fill="#FAFAFA" d="M256 204h4v4h-4z"/><path fill="#8E7B07" d="M260 204h4v4h-4zM200 208h4v4h-4z"/><path fill="#FAEE0C" d="M204 208h4v4h-4z"/><path fill="#8E7B07" d="M208 208h4v4h-4zM212 208h4v4h-4z"/><path fill="#F3E00C" d="M216 208h4v4h-4z"/><path fill="#FAFAFA" d="M220 208h4v4h-4z"/><path fill="#8E7B07" d="M224 208h4v4h-4zM232 208h4v4h-4z"/><path fill="#E3D212" d="M236 208h4v4h-4z"/><path fill="#FAEE0C" d="M240 208h4v4h-4z"/><path fill="#8E7B07" d="M244 208h4v4h-4zM248 208h4v4h-4zM252 208h4v4h-4z"/><path fill="#F3E00C" d="M256 208h4v4h-4z"/><path fill="#8E7B07" d="M260 208h4v4h-4zM196 212h4v4h-4z"/><path fill="#E3D212" d="M200 212h4v4h-4z"/><path fill="#FAEE0C" d="M204 212h4v4h-4z"/><path fill="#8E7B07" d="M208 212h4v4h-4zM212 212h4v4h-4zM216 212h4v4h-4z"/><path fill="#F3E00C" d="M220 212h4v4h-4z"/><path fill="#8E7B07" d="M224 212h4v4h-4zM232 212h4v4h-4z"/><path fill="#E3D212" d="M236 212h4v4h-4z"/><path fill="#FAF7B9" d="M240 212h4v4h-4z"/><path fill="#8E7B07" d="M244 212h4v4h-4zM248 212h4v4h-4zM252 212h4v4h-4z"/><path fill="#FAEE0C" d="M256 212h4v4h-4z"/><path fill="#8E7B07" d="M260 212h4v4h-4zM196 216h4v4h-4z"/><path fill="#E3D212" d="M200 216h4v4h-4z"/><path fill="#FAF7B9" d="M204 216h4v4h-4z"/><path fill="#8E7B07" d="M208 216h4v4h-4zM212 216h4v4h-4zM216 216h4v4h-4z"/><path fill="#FAEE0C" d="M220 216h4v4h-4z"/><path fill="#8E7B07" d="M224 216h4v4h-4zM236 216h4v4h-4z"/><path fill="#B7A109" d="M240 216h4v4h-4z"/><path fill="#FAF7B9" d="M244 216h4v4h-4zM248 216h4v4h-4z"/><path fill="#FAEE0C" d="M252 216h4v4h-4z"/><path fill="#B7A109" d="M256 216h4v4h-4z"/><path fill="#8E7B07" d="M260 216h4v4h-4zM196 220h4v4h-4z"/><path fill="#E3D212" d="M200 220h4v4h-4z"/><path fill="#B7A109" d="M204 220h4v4h-4z"/><path fill="#FAF7B9" d="M208 220h4v4h-4zM212 220h4v4h-4z"/><path fill="#FAEE0C" d="M216 220h4v4h-4z"/><path fill="#B7A109" d="M220 220h4v4h-4z"/><path fill="#8E7B07" d="M224 220h4v4h-4zM240 220h4v4h-4z"/><path fill="#B7A109" d="M244 220h4v4h-4zM248 220h4v4h-4zM252 220h4v4h-4z"/><path fill="#8E7B07" d="M256 220h4v4h-4zM200 224h4v4h-4z"/><path fill="#E3D212" d="M204 224h4v4h-4z"/><path fill="#B7A109" d="M208 224h4v4h-4zM212 224h4v4h-4z"/><path fill="#E3D212" d="M216 224h4v4h-4z"/><path fill="#8E7B07" d="M220 224h4v4h-4zM240 224h4v4h-4z"/><path fill="#E3D212" d="M244 224h4v4h-4z"/><path fill="#8E7B07" d="M248 224h4v4h-4zM252 224h4v4h-4zM200 228h4v4h-4z"/><path fill="#E3D212" d="M204 228h4v4h-4zM208 228h4v4h-4z"/><path fill="#8E7B07" d="M212 228h4v4h-4zM216 228h4v4h-4zM236 228h4v4h-4z"/><path fill="#E3D212" d="M240 228h4v4h-4z"/><path fill="#8E7B07" d="M244 228h4v4h-4zM200 232h4v4h-4z"/><path fill="#E3D212" d="M204 232h4v4h-4zM208 232h4v4h-4z"/><path fill="#8E7B07" d="M212 232h4v4h-4zM216 232h4v4h-4zM220 232h4v4h-4zM224 232h4v4h-4zM228 232h4v4h-4zM232 232h4v4h-4z"/><path fill="#E3D212" d="M236 232h4v4h-4zM240 232h4v4h-4z"/><path fill="#8E7B07" d="M244 232h4v4h-4zM200 236h4v4h-4z"/><path fill="#FAEE0C" d="M204 236h4v4h-4zM208 236h4v4h-4z"/><path fill="#E3D212" d="M212 236h4v4h-4zM216 236h4v4h-4zM220 236h4v4h-4zM224 236h4v4h-4zM228 236h4v4h-4z"/><path fill="#FAEE0C" d="M232 236h4v4h-4zM236 236h4v4h-4z"/><path fill="#E3D212" d="M240 236h4v4h-4z"/><path fill="#8E7B07" d="M244 236h4v4h-4zM196 240h4v4h-4z"/><path fill="#FAEE0C" d="M200 240h4v4h-4z"/><path fill="#E3D212" d="M204 240h4v4h-4z"/><path fill="#FAF59F" d="M208 240h4v4h-4z"/><path fill="#E3D212" d="M212 240h4v4h-4zM216 240h4v4h-4zM220 240h4v4h-4zM224 240h4v4h-4zM228 240h4v4h-4zM232 240h4v4h-4zM236 240h4v4h-4zM240 240h4v4h-4z"/><path fill="#8E7B07" d="M244 240h4v4h-4zM196 244h4v4h-4z"/><path fill="#E3D212" d="M200 244h4v4h-4zM204 244h4v4h-4z"/><path fill="#FAF59F" d="M208 244h4v4h-4z"/><path fill="#FAFAFA" d="M212 244h4v4h-4zM216 244h4v4h-4zM220 244h4v4h-4zM224 244h4v4h-4zM228 244h4v4h-4zM232 244h4v4h-4zM236 244h4v4h-4z"/><path fill="#B7A109" d="M240 244h4v4h-4z"/><path fill="#8E7B07" d="M244 244h4v4h-4zM192 248h4v4h-4z"/><path fill="#B7A109" d="M196 248h4v4h-4z"/><path fill="#E3D212" d="M200 248h4v4h-4zM204 248h4v4h-4z"/><path fill="#FAF59F" d="M208 248h4v4h-4zM212 248h4v4h-4zM216 248h4v4h-4z"/><path fill="#FAFAFA" d="M220 248h4v4h-4zM224 248h4v4h-4zM228 248h4v4h-4zM232 248h4v4h-4z"/><path fill="#FAF59F" d="M236 248h4v4h-4z"/><path fill="#B7A109" d="M240 248h4v4h-4zM244 248h4v4h-4z"/><path fill="#8E7B07" d="M248 248h4v4h-4zM192 252h4v4h-4z"/><path fill="#B7A109" d="M196 252h4v4h-4z"/><path fill="#E3D212" d="M200 252h4v4h-4zM204 252h4v4h-4zM208 252h4v4h-4z"/><path fill="#FAF59F" d="M212 252h4v4h-4z"/><path fill="#FAFAFA" d="M216 252h4v4h-4zM220 252h4v4h-4zM224 252h4v4h-4zM228 252h4v4h-4zM232 252h4v4h-4z"/><path fill="#B7A109" d="M236 252h4v4h-4zM240 252h4v4h-4z"/><path fill="#FAEE0C" d="M244 252h4v4h-4z"/><path fill="#B7A109" d="M248 252h4v4h-4z"/><path fill="#8E7B07" d="M252 252h4v4h-4zM192 256h4v4h-4z"/><path fill="#B7A109" d="M196 256h4v4h-4z"/><path fill="#FAEE0C" d="M200 256h4v4h-4z"/><path fill="#E3D212" d="M204 256h4v4h-4zM208 256h4v4h-4zM212 256h4v4h-4z"/><path fill="#FAF59F" d="M216 256h4v4h-4z"/><path fill="#E3D212" d="M220 256h4v4h-4zM224 256h4v4h-4zM228 256h4v4h-4zM232 256h4v4h-4zM236 256h4v4h-4z"/><path fill="#FAEE0C" d="M240 256h4v4h-4z"/><path fill="#FAFAFA" d="M244 256h4v4h-4z"/><path fill="#B7A109" d="M248 256h4v4h-4z"/><path fill="#8E7B07" d="M252 256h4v4h-4zM192 260h4v4h-4z"/><path fill="#B7A109" d="M196 260h4v4h-4z"/><path fill="#FAEE0C" d="M200 260h4v4h-4zM204 260h4v4h-4z"/><path fill="#E3D212" d="M208 260h4v4h-4z"/><path fill="#FAEE0C" d="M212 260h4v4h-4zM216 260h4v4h-4z"/><path fill="#E3D212" d="M220 260h4v4h-4z"/><path fill="#B7A109" d="M224 260h4v4h-4zM228 260h4v4h-4zM232 260h4v4h-4z"/><path fill="#E3D212" d="M236 260h4v4h-4z"/><path fill="#FAEE0C" d="M240 260h4v4h-4zM244 260h4v4h-4z"/><path fill="#B7A109" d="M248 260h4v4h-4z"/><path fill="#8E7B07" d="M252 260h4v4h-4zM192 264h4v4h-4z"/><path fill="#B7A109" d="M196 264h4v4h-4z"/><path fill="#FAEE0C" d="M200 264h4v4h-4zM204 264h4v4h-4zM208 264h4v4h-4zM212 264h4v4h-4zM216 264h4v4h-4z"/><path fill="#E3D212" d="M220 264h4v4h-4z"/><path fill="#B7A109" d="M224 264h4v4h-4zM228 264h4v4h-4zM232 264h4v4h-4zM236 264h4v4h-4z"/><path fill="#FAEE0C" d="M240 264h4v4h-4z"/><path fill="#E3D212" d="M244 264h4v4h-4z"/><path fill="#B7A109" d="M248 264h4v4h-4z"/><path fill="#8E7B07" d="M252 264h4v4h-4zM192 268h4v4h-4z"/><path fill="#B7A109" d="M196 268h4v4h-4z"/><path fill="#FAEE0C" d="M200 268h4v4h-4zM204 268h4v4h-4zM208 268h4v4h-4zM212 268h4v4h-4zM216 268h4v4h-4z"/><path fill="#E3D212" d="M220 268h4v4h-4z"/><path fill="#B7A109" d="M224 268h4v4h-4zM228 268h4v4h-4zM232 268h4v4h-4zM236 268h4v4h-4zM240 268h4v4h-4zM244 268h4v4h-4zM248 268h4v4h-4z"/><path fill="#8E7B07" d="M252 268h4v4h-4zM196 272h4v4h-4z"/><path fill="#B7A109" d="M200 272h4v4h-4z"/><path fill="#E3D212" d="M204 272h4v4h-4z"/><path fill="#FAEE0C" d="M208 272h4v4h-4zM212 272h4v4h-4zM216 272h4v4h-4z"/><path fill="#E3D212" d="M220 272h4v4h-4z"/><path fill="#B7A109" d="M224 272h4v4h-4zM228 272h4v4h-4zM232 272h4v4h-4zM236 272h4v4h-4z"/><path fill="#8E7B07" d="M240 272h4v4h-4z"/><path fill="#B7A109" d="M244 272h4v4h-4z"/><path fill="#8E7B07" d="M248 272h4v4h-4zM196 276h4v4h-4z"/><path fill="#B7A109" d="M200 276h4v4h-4z"/><path fill="#E3D212" d="M204 276h4v4h-4z"/><path fill="#FAEE0C" d="M208 276h4v4h-4zM212 276h4v4h-4zM216 276h4v4h-4zM220 276h4v4h-4z"/><path fill="#E3D212" d="M224 276h4v4h-4z"/><path fill="#B7A109" d="M228 276h4v4h-4zM232 276h4v4h-4zM236 276h4v4h-4z"/><path fill="#8E7B07" d="M240 276h4v4h-4z"/><path fill="#B7A109" d="M244 276h4v4h-4z"/><path fill="#8E7B07" d="M248 276h4v4h-4zM200 280h4v4h-4z"/><path fill="#B7A109" d="M204 280h4v4h-4z"/><path fill="#E3D212" d="M208 280h4v4h-4z"/><path fill="#FAEE0C" d="M212 280h4v4h-4zM216 280h4v4h-4zM220 280h4v4h-4z"/><path fill="#E3D212" d="M224 280h4v4h-4z"/><path fill="#B7A109" d="M228 280h4v4h-4zM232 280h4v4h-4z"/><path fill="#8E7B07" d="M236 280h4v4h-4zM240 280h4v4h-4z"/><path fill="#B7A109" d="M244 280h4v4h-4z"/><path fill="#8E7B07" d="M248 280h4v4h-4zM204 284h4v4h-4z"/><path fill="#B7A109" d="M208 284h4v4h-4z"/><path fill="#E3D212" d="M212 284h4v4h-4z"/><path fill="#FAEE0C" d="M216 284h4v4h-4zM220 284h4v4h-4z"/><path fill="#B7A109" d="M224 284h4v4h-4z"/><path fill="#8E7B07" d="M228 284h4v4h-4zM232 284h4v4h-4zM236 284h4v4h-4zM240 284h4v4h-4z"/><path fill="#B7A109" d="M244 284h4v4h-4z"/><path fill="#8E7B07" d="M248 284h4v4h-4zM208 288h4v4h-4z"/><path fill="#B7A109" d="M212 288h4v4h-4z"/><path fill="#E3D212" d="M216 288h4v4h-4zM220 288h4v4h-4zM224 288h4v4h-4z"/><path fill="#8E7B07" d="M228 288h4v4h-4zM232 288h4v4h-4zM236 288h4v4h-4z"/><path fill="#B7A109" d="M240 288h4v4h-4z"/><path fill="#8E7B07" d="M244 288h4v4h-4zM212 292h4v4h-4z"/><path fill="#B7A109" d="M216 292h4v4h-4zM220 292h4v4h-4zM224 292h4v4h-4zM228 292h4v4h-4zM232 292h4v4h-4zM236 292h4v4h-4z"/><path fill="#8E7B07" d="M240 292h4v4h-4zM216 296h4v4h-4zM220 296h4v4h-4zM224 296h4v4h-4zM228 296h4v4h-4zM232 296h4v4h-4zM236 296h4v4h-4z"/></svg>