<svg width="384" height="384" xmlns="http://www.w3.org/2000/svg" shape-rendering="crispEdges"><path fill="#FB556F" d="M228 144h4v4h-4zM224 148h4v4h-4z"/><path fill="#FFB741" d="M228 148h4v4h-4z"/><path fill="#FB556F" d="M232 148h4v4h-4zM212 152h4v4h-4zM216 152h4v4h-4zM220 152h4v4h-4z"/><path fill="#FFB741" d="M224 152h4v4h-4z"/><path fill="#FFCD7A" d="M228 152h4v4h-4z"/><path fill="#FFB741" d="M232 152h4v4h-4z"/><path fill="#FB556F" d="M236 152h4v4h-4zM240 152h4v4h-4zM244 152h4v4h-4zM208 156h4v4h-4z"/><path fill="#FFB741" d="M212 156h4v4h-4zM216 156h4v4h-4z"/><path fill="#FFCD7A" d="M220 156h4v4h-4zM224 156h4v4h-4zM228 156h4v4h-4zM232 156h4v4h-4zM236 156h4v4h-4z"/><path fill="#FFB741" d="M240 156h4v4h-4zM244 156h4v4h-4z"/><path fill="#FB556F" d="M248 156h4v4h-4zM212 160h4v4h-4z"/><path fill="#FFB741" d="M216 160h4v4h-4zM220 160h4v4h-4z"/><path fill="#FFCD7A" d="M224 160h4v4h-4zM228 160h4v4h-4zM232 160h4v4h-4z"/><path fill="#FFB741" d="M236 160h4v4h-4zM240 160h4v4h-4z"/><path fill="#FB556F" d="M244 160h4v4h-4zM216 164h4v4h-4z"/><path fill="#FFB741" d="M220 164h4v4h-4z"/><path fill="#FFCD7A" d="M224 164h4v4h-4z"/><path fill="#FFB741" d="M228 164h4v4h-4z"/><path fill="#FFCD7A" d="M232 164h4v4h-4z"/><path fill="#FFB741" d="M236 164h4v4h-4z"/><path fill="#FB556F" d="M240 164h4v4h-4zM216 168h4v4h-4z"/><path fill="#FFB741" d="M220 168h4v4h-4zM224 168h4v4h-4z"/><path fill="#FB556F" d="M228 168h4v4h-4z"/><path fill="#FFB741" d="M232 168h4v4h-4zM236 168h4v4h-4z"/><path fill="#FB556F" d="M240 168h4v4h-4zM216 172h4v4h-4z"/><path fill="#FFB741" d="M220 172h4v4h-4z"/><path fill="#FB556F" d="M224 172h4v4h-4zM232 172h4v4h-4z"/><path fill="#FFB741" d="M236 172h4v4h-4z"/><path fill="#FB556F" d="M240 172h4v4h-4zM220 176h4v4h-4zM236 176h4v4h-4z"/><path fill="#B50000" d="M208 200h4v4h-4zM212 200h4v4h-4zM216 200h4v4h-4zM240 200h4v4h-4zM244 200h4v4h-4zM248 200h4v4h-4z"/><path d="M192 204h4v4h-4zM196 204h4v4h-4zM200 204h4v4h-4zM204 204h4v4h-4zM208 204h4v4h-4zM212 204h4v4h-4zM216 204h4v4h-4zM220 204h4v4h-4zM224 204h4v4h-4zM228 204h4v4h-4zM232 204h4v4h-4zM236 204h4v4h-4zM240 204h4v4h-4zM244 204h4v4h-4zM248 204h4v4h-4zM252 204h4v4h-4zM256 204h4v4h-4zM260 204h4v4h-4zM192 208h4v4h-4zM196 208h4v4h-4zM200 208h4v4h-4zM204 208h4v4h-4zM208 208h4v4h-4zM212 208h4v4h-4zM216 208h4v4h-4zM220 208h4v4h-4zM224 208h4v4h-4zM228 208h4v4h-4zM232 208h4v4h-4zM236 208h4v4h-4zM240 208h4v4h-4zM244 208h4v4h-4zM248 208h4v4h-4zM252 208h4v4h-4zM256 208h4v4h-4zM260 208h4v4h-4zM192 212h4v4h-4z"/><path fill="#FF3C00" d="M196 212h4v4h-4z"/><path d="M200 212h4v4h-4z"/><path fill="#D000FF" d="M204 212h4v4h-4z"/><path fill="#FFF" d="M208 212h4v4h-4zM212 212h4v4h-4z"/><path fill="#7B00FF" d="M216 212h4v4h-4z"/><path fill="#FFF" d="M220 212h4v4h-4z"/><path fill="#009DFF" d="M224 212h4v4h-4z"/><path fill="#0FB" d="M228 212h4v4h-4zM232 212h4v4h-4z"/><path fill="#62FF00" d="M236 212h4v4h-4zM240 212h4v4h-4z"/><path fill="#B3FF00" d="M244 212h4v4h-4zM248 212h4v4h-4z"/><path fill="#FF0" d="M252 212h4v4h-4zM256 212h4v4h-4z"/><path d="M260 212h4v4h-4zM192 216h4v4h-4z"/><path fill="#FF3C00" d="M196 216h4v4h-4z"/><path d="M200 216h4v4h-4z"/><path fill="#D000FF" d="M204 216h4v4h-4z"/><path fill="#FFF" d="M208 216h4v4h-4zM212 216h4v4h-4z"/><path fill="#009DFF" d="M216 216h4v4h-4z"/><path fill="#FFF" d="M220 216h4v4h-4z"/><path fill="#0FB" d="M224 216h4v4h-4zM228 216h4v4h-4z"/><path fill="#62FF00" d="M232 216h4v4h-4zM236 216h4v4h-4z"/><path fill="#B3FF00" d="M240 216h4v4h-4zM244 216h4v4h-4z"/><path fill="#FF0" d="M248 216h4v4h-4zM252 216h4v4h-4z"/><path fill="#FFC300" d="M256 216h4v4h-4z"/><path d="M260 216h4v4h-4zM192 220h4v4h-4zM196 220h4v4h-4zM200 220h4v4h-4z"/><path fill="#7B00FF" d="M204 220h4v4h-4z"/><path fill="#FFF" d="M208 220h4v4h-4zM212 220h4v4h-4z"/><path fill="#009DFF" d="M216 220h4v4h-4z"/><path fill="#FFF" d="M220 220h4v4h-4z"/><path fill="#0FB" d="M224 220h4v4h-4z"/><path fill="#62FF00" d="M228 220h4v4h-4zM232 220h4v4h-4z"/><path fill="#B3FF00" d="M236 220h4v4h-4zM240 220h4v4h-4z"/><path fill="#FF0" d="M244 220h4v4h-4zM248 220h4v4h-4z"/><path fill="#FFC300" d="M252 220h4v4h-4zM256 220h4v4h-4z"/><path d="M260 220h4v4h-4zM192 224h4v4h-4zM196 224h4v4h-4zM200 224h4v4h-4z"/><path fill="#7B00FF" d="M204 224h4v4h-4z"/><path fill="#FFF" d="M208 224h4v4h-4zM212 224h4v4h-4z"/><path fill="#0FB" d="M216 224h4v4h-4z"/><path fill="#FFF" d="M220 224h4v4h-4z"/><path fill="#62FF00" d="M224 224h4v4h-4z"/><path d="M228 224h4v4h-4zM232 224h4v4h-4z"/><path fill="#B3FF00" d="M236 224h4v4h-4z"/><path fill="#FF0" d="M240 224h4v4h-4zM244 224h4v4h-4z"/><path fill="#FFC300" d="M248 224h4v4h-4zM252 224h4v4h-4z"/><path fill="#FF8C00" d="M256 224h4v4h-4z"/><path d="M260 224h4v4h-4zM196 228h4v4h-4zM200 228h4v4h-4zM204 228h4v4h-4zM208 228h4v4h-4zM212 228h4v4h-4zM216 228h4v4h-4zM220 228h4v4h-4zM224 228h4v4h-4z"/><path fill="#F6561B" d="M228 228h4v4h-4zM232 228h4v4h-4z"/><path d="M236 228h4v4h-4zM240 228h4v4h-4zM244 228h4v4h-4zM248 228h4v4h-4zM252 228h4v4h-4zM256 228h4v4h-4z"/><path fill="#B50000" d="M200 232h4v4h-4z"/><path fill="#F6561B" d="M204 232h4v4h-4zM208 232h4v4h-4zM212 232h4v4h-4zM216 232h4v4h-4zM220 232h4v4h-4zM224 232h4v4h-4zM228 232h4v4h-4zM232 232h4v4h-4zM236 232h4v4h-4zM240 232h4v4h-4z"/><path fill="#B50000" d="M244 232h4v4h-4zM196 236h4v4h-4z"/><path fill="#F6561B" d="M200 236h4v4h-4zM204 236h4v4h-4zM208 236h4v4h-4zM212 236h4v4h-4zM216 236h4v4h-4zM220 236h4v4h-4zM224 236h4v4h-4zM228 236h4v4h-4zM232 236h4v4h-4zM236 236h4v4h-4zM240 236h4v4h-4z"/><path fill="#B50000" d="M244 236h4v4h-4zM196 240h4v4h-4z"/><path fill="#F6561B" d="M200 240h4v4h-4zM204 240h4v4h-4zM208 240h4v4h-4zM212 240h4v4h-4zM216 240h4v4h-4zM220 240h4v4h-4zM224 240h4v4h-4zM228 240h4v4h-4zM232 240h4v4h-4zM236 240h4v4h-4zM240 240h4v4h-4z"/><path fill="#B50000" d="M244 240h4v4h-4zM192 244h4v4h-4z"/><path fill="#F6561B" d="M196 244h4v4h-4zM200 244h4v4h-4zM204 244h4v4h-4zM208 244h4v4h-4z"/><path fill="#971401" d="M212 244h4v4h-4z"/><path fill="#F6561B" d="M216 244h4v4h-4zM220 244h4v4h-4zM224 244h4v4h-4zM228 244h4v4h-4zM232 244h4v4h-4z"/><path fill="#971401" d="M236 244h4v4h-4z"/><path fill="#F6561B" d="M240 244h4v4h-4zM244 244h4v4h-4z"/><path fill="#B50000" d="M248 244h4v4h-4zM192 248h4v4h-4z"/><path fill="#F6561B" d="M196 248h4v4h-4zM200 248h4v4h-4zM204 248h4v4h-4zM208 248h4v4h-4zM212 248h4v4h-4z"/><path fill="#971401" d="M216 248h4v4h-4zM220 248h4v4h-4zM224 248h4v4h-4zM228 248h4v4h-4zM232 248h4v4h-4zM236 248h4v4h-4z"/><path fill="#F6561B" d="M240 248h4v4h-4zM244 248h4v4h-4zM248 248h4v4h-4z"/><path fill="#B50000" d="M252 248h4v4h-4zM192 252h4v4h-4z"/><path fill="#F6561B" d="M196 252h4v4h-4zM200 252h4v4h-4zM204 252h4v4h-4zM208 252h4v4h-4zM212 252h4v4h-4zM216 252h4v4h-4zM220 252h4v4h-4zM224 252h4v4h-4zM228 252h4v4h-4zM232 252h4v4h-4zM236 252h4v4h-4zM240 252h4v4h-4zM244 252h4v4h-4zM248 252h4v4h-4z"/><path fill="#B50000" d="M252 252h4v4h-4zM192 256h4v4h-4z"/><path fill="#F6561B" d="M196 256h4v4h-4zM200 256h4v4h-4zM204 256h4v4h-4zM208 256h4v4h-4zM212 256h4v4h-4zM216 256h4v4h-4zM220 256h4v4h-4zM224 256h4v4h-4zM228 256h4v4h-4zM232 256h4v4h-4zM236 256h4v4h-4zM240 256h4v4h-4zM244 256h4v4h-4zM248 256h4v4h-4z"/><path fill="#B50000" d="M252 256h4v4h-4zM192 260h4v4h-4z"/><path fill="#D93B00" d="M196 260h4v4h-4z"/><path fill="#F6561B" d="M200 260h4v4h-4zM204 260h4v4h-4zM208 260h4v4h-4zM212 260h4v4h-4zM216 260h4v4h-4zM220 260h4v4h-4zM224 260h4v4h-4zM228 260h4v4h-4zM232 260h4v4h-4zM236 260h4v4h-4zM240 260h4v4h-4zM244 260h4v4h-4zM248 260h4v4h-4z"/><path fill="#B50000" d="M252 260h4v4h-4zM192 264h4v4h-4z"/><path fill="#D93B00" d="M196 264h4v4h-4z"/><path fill="#F6561B" d="M200 264h4v4h-4zM204 264h4v4h-4zM208 264h4v4h-4zM212 264h4v4h-4zM216 264h4v4h-4zM220 264h4v4h-4zM224 264h4v4h-4zM228 264h4v4h-4zM232 264h4v4h-4zM236 264h4v4h-4zM240 264h4v4h-4zM244 264h4v4h-4zM248 264h4v4h-4z"/><path fill="#B50000" d="M252 264h4v4h-4zM196 268h4v4h-4z"/><path fill="#D93B00" d="M200 268h4v4h-4z"/><path fill="#F6561B" d="M204 268h4v4h-4z"/><path fill="#F8B732" d="M208 268h4v4h-4z"/><path fill="#F6561B" d="M212 268h4v4h-4zM216 268h4v4h-4zM220 268h4v4h-4zM224 268h4v4h-4zM228 268h4v4h-4zM232 268h4v4h-4zM236 268h4v4h-4zM240 268h4v4h-4zM244 268h4v4h-4z"/><path fill="#B50000" d="M248 268h4v4h-4zM196 272h4v4h-4z"/><path fill="#D93B00" d="M200 272h4v4h-4zM204 272h4v4h-4z"/><path fill="#F6561B" d="M208 272h4v4h-4z"/><path fill="#F8B732" d="M212 272h4v4h-4z"/><path fill="#F6561B" d="M216 272h4v4h-4zM220 272h4v4h-4zM224 272h4v4h-4zM228 272h4v4h-4zM232 272h4v4h-4zM236 272h4v4h-4zM240 272h4v4h-4z"/><path fill="#F8B732" d="M244 272h4v4h-4z"/><path fill="#B50000" d="M248 272h4v4h-4zM200 276h4v4h-4z"/><path fill="#D93B00" d="M204 276h4v4h-4zM208 276h4v4h-4z"/><path fill="#F8B732" d="M212 276h4v4h-4z"/><path fill="#F6561B" d="M216 276h4v4h-4zM220 276h4v4h-4zM224 276h4v4h-4zM228 276h4v4h-4zM232 276h4v4h-4zM236 276h4v4h-4z"/><path fill="#D93B00" d="M240 276h4v4h-4z"/><path fill="#F8B732" d="M244 276h4v4h-4z"/><path fill="#B50000" d="M204 280h4v4h-4z"/><path fill="#F8B732" d="M208 280h4v4h-4z"/><path fill="#D93B00" d="M212 280h4v4h-4z"/><path fill="#F7EB5F" d="M216 280h4v4h-4z"/><path fill="#F6561B" d="M220 280h4v4h-4zM224 280h4v4h-4zM228 280h4v4h-4zM232 280h4v4h-4z"/><path fill="#D93B00" d="M236 280h4v4h-4z"/><path fill="#F8B732" d="M240 280h4v4h-4z"/><path fill="#B50000" d="M244 280h4v4h-4zM208 284h4v4h-4z"/><path fill="#F8B732" d="M212 284h4v4h-4z"/><path fill="#F7EB5F" d="M216 284h4v4h-4z"/><path fill="#D93B00" d="M220 284h4v4h-4zM224 284h4v4h-4zM228 284h4v4h-4zM232 284h4v4h-4zM236 284h4v4h-4z"/><path fill="#F7EB5F" d="M240 284h4v4h-4z"/><path fill="#F8B732" d="M244 284h4v4h-4zM212 288h4v4h-4z"/><path fill="#D93B00" d="M216 288h4v4h-4z"/><path fill="#F7EB5F" d="M220 288h4v4h-4z"/><path fill="#F8B732" d="M224 288h4v4h-4z"/><path fill="#D93B00" d="M228 288h4v4h-4zM232 288h4v4h-4z"/><path fill="#F8B732" d="M236 288h4v4h-4zM244 288h4v4h-4zM216 292h4v4h-4z"/><path fill="#B50000" d="M220 292h4v4h-4z"/><path fill="#F7EB5F" d="M224 292h4v4h-4zM228 292h4v4h-4z"/><path fill="#F8B732" d="M232 292h4v4h-4z"/><path fill="#F7EB5F" d="M236 292h4v4h-4z"/><path fill="#F8B732" d="M240 292h4v4h-4zM220 296h4v4h-4zM224 296h4v4h-4zM236 296h4v4h-4z"/><path fill="#F7EB5F" d="M228 300h4v4h-4zM232 300h4v4h-4z"/><path fill="#F8B732" d="M228 304h4v4h-4zM232 304h4v4h-4zM228 308h4v4h-4zM232 308h4v4h-4z"/></svg>