<?xml version="1.0" encoding="UTF-8" ?>
<svg version="1.1" width="384" height="384" xmlns="http://www.w3.org/2000/svg" shape-rendering="crispEdges">
<rect x="156" y="300" width="4" height="4" fill="#000000" opacity="0.321569" />
<rect x="160" y="300" width="4" height="4" fill="#000000" opacity="0.321569" />
<rect x="164" y="300" width="4" height="4" fill="#000000" opacity="0.321569" />
<rect x="168" y="300" width="4" height="4" fill="#000000" opacity="0.321569" />
<rect x="172" y="300" width="4" height="4" fill="#000000" opacity="0.321569" />
<rect x="176" y="300" width="4" height="4" fill="#000000" opacity="0.321569" />
<rect x="180" y="300" width="4" height="4" fill="#000000" opacity="0.321569" />
<rect x="184" y="300" width="4" height="4" fill="#000000" opacity="0.321569" />
<rect x="188" y="300" width="4" height="4" fill="#000000" opacity="0.321569" />
<rect x="192" y="300" width="4" height="4" fill="#000000" opacity="0.321569" />
<rect x="196" y="300" width="4" height="4" fill="#000000" opacity="0.321569" />
<rect x="200" y="300" width="4" height="4" fill="#000000" opacity="0.321569" />
<rect x="204" y="300" width="4" height="4" fill="#000000" opacity="0.321569" />
<rect x="208" y="300" width="4" height="4" fill="#000000" opacity="0.321569" />
<rect x="212" y="300" width="4" height="4" fill="#000000" opacity="0.321569" />
<rect x="216" y="300" width="4" height="4" fill="#000000" opacity="0.321569" />
<rect x="220" y="300" width="4" height="4" fill="#000000" opacity="0.321569" />
<rect x="224" y="300" width="4" height="4" fill="#000000" opacity="0.321569" />
<rect x="228" y="300" width="4" height="4" fill="#000000" opacity="0.321569" />
<rect x="232" y="300" width="4" height="4" fill="#000000" opacity="0.321569" />
<rect x="236" y="300" width="4" height="4" fill="#000000" opacity="0.321569" />
<rect x="240" y="300" width="4" height="4" fill="#000000" opacity="0.321569" />
<rect x="244" y="300" width="4" height="4" fill="#000000" opacity="0.321569" />
<rect x="124" y="304" width="4" height="4" fill="#000000" opacity="0.321569" />
<rect x="128" y="304" width="4" height="4" fill="#000000" opacity="0.321569" />
<rect x="132" y="304" width="4" height="4" fill="#000000" opacity="0.321569" />
<rect x="136" y="304" width="4" height="4" fill="#000000" opacity="0.321569" />
<rect x="140" y="304" width="4" height="4" fill="#000000" opacity="0.321569" />
<rect x="144" y="304" width="4" height="4" fill="#000000" opacity="0.321569" />
<rect x="148" y="304" width="4" height="4" fill="#000000" opacity="0.321569" />
<rect x="152" y="304" width="4" height="4" fill="#000000" opacity="0.321569" />
<rect x="156" y="304" width="4" height="4" fill="#000000" opacity="0.321569" />
<rect x="160" y="304" width="4" height="4" fill="#000000" opacity="0.321569" />
<rect x="164" y="304" width="4" height="4" fill="#000000" opacity="0.321569" />
<rect x="168" y="304" width="4" height="4" fill="#000000" opacity="0.321569" />
<rect x="172" y="304" width="4" height="4" fill="#000000" opacity="0.321569" />
<rect x="176" y="304" width="4" height="4" fill="#000000" opacity="0.321569" />
<rect x="180" y="304" width="4" height="4" fill="#000000" opacity="0.321569" />
<rect x="184" y="304" width="4" height="4" fill="#000000" opacity="0.321569" />
<rect x="188" y="304" width="4" height="4" fill="#000000" opacity="0.321569" />
<rect x="192" y="304" width="4" height="4" fill="#000000" opacity="0.321569" />
<rect x="196" y="304" width="4" height="4" fill="#000000" opacity="0.321569" />
<rect x="200" y="304" width="4" height="4" fill="#000000" opacity="0.321569" />
<rect x="204" y="304" width="4" height="4" fill="#000000" opacity="0.321569" />
<rect x="208" y="304" width="4" height="4" fill="#000000" opacity="0.321569" />
<rect x="212" y="304" width="4" height="4" fill="#000000" opacity="0.321569" />
<rect x="216" y="304" width="4" height="4" fill="#000000" opacity="0.321569" />
<rect x="220" y="304" width="4" height="4" fill="#000000" opacity="0.321569" />
<rect x="224" y="304" width="4" height="4" fill="#000000" opacity="0.321569" />
<rect x="228" y="304" width="4" height="4" fill="#000000" opacity="0.321569" />
<rect x="232" y="304" width="4" height="4" fill="#000000" opacity="0.321569" />
<rect x="236" y="304" width="4" height="4" fill="#000000" opacity="0.321569" />
<rect x="240" y="304" width="4" height="4" fill="#000000" opacity="0.321569" />
<rect x="244" y="304" width="4" height="4" fill="#000000" opacity="0.321569" />
<rect x="248" y="304" width="4" height="4" fill="#000000" opacity="0.321569" />
<rect x="252" y="304" width="4" height="4" fill="#000000" opacity="0.321569" />
<rect x="256" y="304" width="4" height="4" fill="#000000" opacity="0.321569" />
<rect x="260" y="304" width="4" height="4" fill="#000000" opacity="0.321569" />
<rect x="264" y="304" width="4" height="4" fill="#000000" opacity="0.321569" />
<rect x="268" y="304" width="4" height="4" fill="#000000" opacity="0.321569" />
<rect x="272" y="304" width="4" height="4" fill="#000000" opacity="0.321569" />
<rect x="276" y="304" width="4" height="4" fill="#000000" opacity="0.321569" />
<rect x="108" y="308" width="4" height="4" fill="#000000" opacity="0.321569" />
<rect x="112" y="308" width="4" height="4" fill="#000000" opacity="0.321569" />
<rect x="116" y="308" width="4" height="4" fill="#000000" opacity="0.321569" />
<rect x="120" y="308" width="4" height="4" fill="#000000" opacity="0.321569" />
<rect x="124" y="308" width="4" height="4" fill="#000000" opacity="0.321569" />
<rect x="128" y="308" width="4" height="4" fill="#000000" opacity="0.321569" />
<rect x="132" y="308" width="4" height="4" fill="#000000" opacity="0.321569" />
<rect x="136" y="308" width="4" height="4" fill="#000000" opacity="0.321569" />
<rect x="140" y="308" width="4" height="4" fill="#000000" opacity="0.321569" />
<rect x="144" y="308" width="4" height="4" fill="#000000" opacity="0.321569" />
<rect x="148" y="308" width="4" height="4" fill="#000000" opacity="0.321569" />
<rect x="152" y="308" width="4" height="4" fill="#000000" opacity="0.321569" />
<rect x="156" y="308" width="4" height="4" fill="#000000" opacity="0.321569" />
<rect x="160" y="308" width="4" height="4" fill="#000000" opacity="0.321569" />
<rect x="164" y="308" width="4" height="4" fill="#000000" opacity="0.321569" />
<rect x="168" y="308" width="4" height="4" fill="#000000" opacity="0.321569" />
<rect x="172" y="308" width="4" height="4" fill="#000000" opacity="0.321569" />
<rect x="176" y="308" width="4" height="4" fill="#000000" opacity="0.321569" />
<rect x="180" y="308" width="4" height="4" fill="#000000" opacity="0.321569" />
<rect x="184" y="308" width="4" height="4" fill="#000000" opacity="0.321569" />
<rect x="188" y="308" width="4" height="4" fill="#000000" opacity="0.321569" />
<rect x="192" y="308" width="4" height="4" fill="#000000" opacity="0.321569" />
<rect x="196" y="308" width="4" height="4" fill="#000000" opacity="0.321569" />
<rect x="200" y="308" width="4" height="4" fill="#000000" opacity="0.321569" />
<rect x="204" y="308" width="4" height="4" fill="#000000" opacity="0.321569" />
<rect x="208" y="308" width="4" height="4" fill="#000000" opacity="0.321569" />
<rect x="212" y="308" width="4" height="4" fill="#000000" opacity="0.321569" />
<rect x="216" y="308" width="4" height="4" fill="#000000" opacity="0.321569" />
<rect x="220" y="308" width="4" height="4" fill="#000000" opacity="0.321569" />
<rect x="224" y="308" width="4" height="4" fill="#000000" opacity="0.321569" />
<rect x="228" y="308" width="4" height="4" fill="#000000" opacity="0.321569" />
<rect x="232" y="308" width="4" height="4" fill="#000000" opacity="0.321569" />
<rect x="236" y="308" width="4" height="4" fill="#000000" opacity="0.321569" />
<rect x="240" y="308" width="4" height="4" fill="#000000" opacity="0.321569" />
<rect x="244" y="308" width="4" height="4" fill="#000000" opacity="0.321569" />
<rect x="248" y="308" width="4" height="4" fill="#000000" opacity="0.321569" />
<rect x="252" y="308" width="4" height="4" fill="#000000" opacity="0.321569" />
<rect x="256" y="308" width="4" height="4" fill="#000000" opacity="0.321569" />
<rect x="260" y="308" width="4" height="4" fill="#000000" opacity="0.321569" />
<rect x="264" y="308" width="4" height="4" fill="#000000" opacity="0.321569" />
<rect x="268" y="308" width="4" height="4" fill="#000000" opacity="0.321569" />
<rect x="272" y="308" width="4" height="4" fill="#000000" opacity="0.321569" />
<rect x="276" y="308" width="4" height="4" fill="#000000" opacity="0.321569" />
<rect x="280" y="308" width="4" height="4" fill="#000000" opacity="0.321569" />
<rect x="284" y="308" width="4" height="4" fill="#000000" opacity="0.321569" />
<rect x="288" y="308" width="4" height="4" fill="#000000" opacity="0.321569" />
<rect x="292" y="308" width="4" height="4" fill="#000000" opacity="0.321569" />
<rect x="100" y="312" width="4" height="4" fill="#000000" opacity="0.321569" />
<rect x="104" y="312" width="4" height="4" fill="#000000" opacity="0.321569" />
<rect x="108" y="312" width="4" height="4" fill="#000000" opacity="0.321569" />
<rect x="112" y="312" width="4" height="4" fill="#000000" opacity="0.321569" />
<rect x="116" y="312" width="4" height="4" fill="#000000" opacity="0.321569" />
<rect x="120" y="312" width="4" height="4" fill="#000000" opacity="0.321569" />
<rect x="124" y="312" width="4" height="4" fill="#000000" opacity="0.321569" />
<rect x="128" y="312" width="4" height="4" fill="#000000" opacity="0.321569" />
<rect x="132" y="312" width="4" height="4" fill="#000000" opacity="0.321569" />
<rect x="136" y="312" width="4" height="4" fill="#000000" opacity="0.321569" />
<rect x="140" y="312" width="4" height="4" fill="#000000" opacity="0.321569" />
<rect x="144" y="312" width="4" height="4" fill="#000000" opacity="0.321569" />
<rect x="148" y="312" width="4" height="4" fill="#000000" opacity="0.321569" />
<rect x="152" y="312" width="4" height="4" fill="#000000" opacity="0.321569" />
<rect x="156" y="312" width="4" height="4" fill="#000000" opacity="0.321569" />
<rect x="160" y="312" width="4" height="4" fill="#000000" opacity="0.321569" />
<rect x="164" y="312" width="4" height="4" fill="#000000" opacity="0.321569" />
<rect x="168" y="312" width="4" height="4" fill="#000000" opacity="0.321569" />
<rect x="172" y="312" width="4" height="4" fill="#000000" opacity="0.321569" />
<rect x="176" y="312" width="4" height="4" fill="#000000" opacity="0.321569" />
<rect x="180" y="312" width="4" height="4" fill="#000000" opacity="0.321569" />
<rect x="184" y="312" width="4" height="4" fill="#000000" opacity="0.321569" />
<rect x="188" y="312" width="4" height="4" fill="#000000" opacity="0.321569" />
<rect x="192" y="312" width="4" height="4" fill="#000000" opacity="0.321569" />
<rect x="196" y="312" width="4" height="4" fill="#000000" opacity="0.321569" />
<rect x="200" y="312" width="4" height="4" fill="#000000" opacity="0.321569" />
<rect x="204" y="312" width="4" height="4" fill="#000000" opacity="0.321569" />
<rect x="208" y="312" width="4" height="4" fill="#000000" opacity="0.321569" />
<rect x="212" y="312" width="4" height="4" fill="#000000" opacity="0.321569" />
<rect x="216" y="312" width="4" height="4" fill="#000000" opacity="0.321569" />
<rect x="220" y="312" width="4" height="4" fill="#000000" opacity="0.321569" />
<rect x="224" y="312" width="4" height="4" fill="#000000" opacity="0.321569" />
<rect x="228" y="312" width="4" height="4" fill="#000000" opacity="0.321569" />
<rect x="232" y="312" width="4" height="4" fill="#000000" opacity="0.321569" />
<rect x="236" y="312" width="4" height="4" fill="#000000" opacity="0.321569" />
<rect x="240" y="312" width="4" height="4" fill="#000000" opacity="0.321569" />
<rect x="244" y="312" width="4" height="4" fill="#000000" opacity="0.321569" />
<rect x="248" y="312" width="4" height="4" fill="#000000" opacity="0.321569" />
<rect x="252" y="312" width="4" height="4" fill="#000000" opacity="0.321569" />
<rect x="256" y="312" width="4" height="4" fill="#000000" opacity="0.321569" />
<rect x="260" y="312" width="4" height="4" fill="#000000" opacity="0.321569" />
<rect x="264" y="312" width="4" height="4" fill="#000000" opacity="0.321569" />
<rect x="268" y="312" width="4" height="4" fill="#000000" opacity="0.321569" />
<rect x="272" y="312" width="4" height="4" fill="#000000" opacity="0.321569" />
<rect x="276" y="312" width="4" height="4" fill="#000000" opacity="0.321569" />
<rect x="280" y="312" width="4" height="4" fill="#000000" opacity="0.321569" />
<rect x="284" y="312" width="4" height="4" fill="#000000" opacity="0.321569" />
<rect x="288" y="312" width="4" height="4" fill="#000000" opacity="0.321569" />
<rect x="292" y="312" width="4" height="4" fill="#000000" opacity="0.321569" />
<rect x="296" y="312" width="4" height="4" fill="#000000" opacity="0.321569" />
<rect x="300" y="312" width="4" height="4" fill="#000000" opacity="0.321569" />
<rect x="92" y="316" width="4" height="4" fill="#000000" opacity="0.321569" />
<rect x="96" y="316" width="4" height="4" fill="#000000" opacity="0.321569" />
<rect x="100" y="316" width="4" height="4" fill="#000000" opacity="0.321569" />
<rect x="104" y="316" width="4" height="4" fill="#000000" opacity="0.321569" />
<rect x="108" y="316" width="4" height="4" fill="#000000" opacity="0.321569" />
<rect x="112" y="316" width="4" height="4" fill="#000000" opacity="0.321569" />
<rect x="116" y="316" width="4" height="4" fill="#000000" opacity="0.321569" />
<rect x="120" y="316" width="4" height="4" fill="#000000" opacity="0.321569" />
<rect x="124" y="316" width="4" height="4" fill="#000000" opacity="0.321569" />
<rect x="128" y="316" width="4" height="4" fill="#000000" opacity="0.321569" />
<rect x="132" y="316" width="4" height="4" fill="#000000" opacity="0.321569" />
<rect x="136" y="316" width="4" height="4" fill="#000000" opacity="0.321569" />
<rect x="140" y="316" width="4" height="4" fill="#000000" opacity="0.321569" />
<rect x="144" y="316" width="4" height="4" fill="#000000" opacity="0.321569" />
<rect x="148" y="316" width="4" height="4" fill="#000000" opacity="0.321569" />
<rect x="152" y="316" width="4" height="4" fill="#000000" opacity="0.321569" />
<rect x="156" y="316" width="4" height="4" fill="#000000" opacity="0.321569" />
<rect x="160" y="316" width="4" height="4" fill="#000000" opacity="0.321569" />
<rect x="164" y="316" width="4" height="4" fill="#000000" opacity="0.321569" />
<rect x="168" y="316" width="4" height="4" fill="#000000" opacity="0.321569" />
<rect x="172" y="316" width="4" height="4" fill="#000000" opacity="0.321569" />
<rect x="176" y="316" width="4" height="4" fill="#000000" opacity="0.321569" />
<rect x="180" y="316" width="4" height="4" fill="#000000" opacity="0.321569" />
<rect x="184" y="316" width="4" height="4" fill="#000000" opacity="0.321569" />
<rect x="188" y="316" width="4" height="4" fill="#000000" opacity="0.321569" />
<rect x="192" y="316" width="4" height="4" fill="#000000" opacity="0.321569" />
<rect x="196" y="316" width="4" height="4" fill="#000000" opacity="0.321569" />
<rect x="200" y="316" width="4" height="4" fill="#000000" opacity="0.321569" />
<rect x="204" y="316" width="4" height="4" fill="#000000" opacity="0.321569" />
<rect x="208" y="316" width="4" height="4" fill="#000000" opacity="0.321569" />
<rect x="212" y="316" width="4" height="4" fill="#000000" opacity="0.321569" />
<rect x="216" y="316" width="4" height="4" fill="#000000" opacity="0.321569" />
<rect x="220" y="316" width="4" height="4" fill="#000000" opacity="0.321569" />
<rect x="224" y="316" width="4" height="4" fill="#000000" opacity="0.321569" />
<rect x="228" y="316" width="4" height="4" fill="#000000" opacity="0.321569" />
<rect x="232" y="316" width="4" height="4" fill="#000000" opacity="0.321569" />
<rect x="236" y="316" width="4" height="4" fill="#000000" opacity="0.321569" />
<rect x="240" y="316" width="4" height="4" fill="#000000" opacity="0.321569" />
<rect x="244" y="316" width="4" height="4" fill="#000000" opacity="0.321569" />
<rect x="248" y="316" width="4" height="4" fill="#000000" opacity="0.321569" />
<rect x="252" y="316" width="4" height="4" fill="#000000" opacity="0.321569" />
<rect x="256" y="316" width="4" height="4" fill="#000000" opacity="0.321569" />
<rect x="260" y="316" width="4" height="4" fill="#000000" opacity="0.321569" />
<rect x="264" y="316" width="4" height="4" fill="#000000" opacity="0.321569" />
<rect x="268" y="316" width="4" height="4" fill="#000000" opacity="0.321569" />
<rect x="272" y="316" width="4" height="4" fill="#000000" opacity="0.321569" />
<rect x="276" y="316" width="4" height="4" fill="#000000" opacity="0.321569" />
<rect x="280" y="316" width="4" height="4" fill="#000000" opacity="0.321569" />
<rect x="284" y="316" width="4" height="4" fill="#000000" opacity="0.321569" />
<rect x="288" y="316" width="4" height="4" fill="#000000" opacity="0.321569" />
<rect x="292" y="316" width="4" height="4" fill="#000000" opacity="0.321569" />
<rect x="296" y="316" width="4" height="4" fill="#000000" opacity="0.321569" />
<rect x="300" y="316" width="4" height="4" fill="#000000" opacity="0.321569" />
<rect x="304" y="316" width="4" height="4" fill="#000000" opacity="0.321569" />
<rect x="308" y="316" width="4" height="4" fill="#000000" opacity="0.321569" />
<rect x="88" y="320" width="4" height="4" fill="#000000" opacity="0.321569" />
<rect x="92" y="320" width="4" height="4" fill="#000000" opacity="0.321569" />
<rect x="96" y="320" width="4" height="4" fill="#000000" opacity="0.321569" />
<rect x="100" y="320" width="4" height="4" fill="#000000" opacity="0.321569" />
<rect x="104" y="320" width="4" height="4" fill="#000000" opacity="0.321569" />
<rect x="108" y="320" width="4" height="4" fill="#000000" opacity="0.321569" />
<rect x="112" y="320" width="4" height="4" fill="#000000" opacity="0.321569" />
<rect x="116" y="320" width="4" height="4" fill="#000000" opacity="0.321569" />
<rect x="120" y="320" width="4" height="4" fill="#000000" opacity="0.321569" />
<rect x="124" y="320" width="4" height="4" fill="#000000" opacity="0.321569" />
<rect x="128" y="320" width="4" height="4" fill="#000000" opacity="0.321569" />
<rect x="132" y="320" width="4" height="4" fill="#000000" opacity="0.321569" />
<rect x="136" y="320" width="4" height="4" fill="#000000" opacity="0.321569" />
<rect x="140" y="320" width="4" height="4" fill="#000000" opacity="0.321569" />
<rect x="144" y="320" width="4" height="4" fill="#000000" opacity="0.321569" />
<rect x="148" y="320" width="4" height="4" fill="#000000" opacity="0.321569" />
<rect x="152" y="320" width="4" height="4" fill="#000000" opacity="0.321569" />
<rect x="156" y="320" width="4" height="4" fill="#000000" opacity="0.321569" />
<rect x="160" y="320" width="4" height="4" fill="#000000" opacity="0.321569" />
<rect x="164" y="320" width="4" height="4" fill="#000000" opacity="0.321569" />
<rect x="168" y="320" width="4" height="4" fill="#000000" opacity="0.321569" />
<rect x="172" y="320" width="4" height="4" fill="#000000" opacity="0.321569" />
<rect x="176" y="320" width="4" height="4" fill="#000000" opacity="0.321569" />
<rect x="180" y="320" width="4" height="4" fill="#000000" opacity="0.321569" />
<rect x="184" y="320" width="4" height="4" fill="#000000" opacity="0.321569" />
<rect x="188" y="320" width="4" height="4" fill="#000000" opacity="0.321569" />
<rect x="192" y="320" width="4" height="4" fill="#000000" opacity="0.321569" />
<rect x="196" y="320" width="4" height="4" fill="#000000" opacity="0.321569" />
<rect x="200" y="320" width="4" height="4" fill="#000000" opacity="0.321569" />
<rect x="204" y="320" width="4" height="4" fill="#000000" opacity="0.321569" />
<rect x="208" y="320" width="4" height="4" fill="#000000" opacity="0.321569" />
<rect x="212" y="320" width="4" height="4" fill="#000000" opacity="0.321569" />
<rect x="216" y="320" width="4" height="4" fill="#000000" opacity="0.321569" />
<rect x="220" y="320" width="4" height="4" fill="#000000" opacity="0.321569" />
<rect x="224" y="320" width="4" height="4" fill="#000000" opacity="0.321569" />
<rect x="228" y="320" width="4" height="4" fill="#000000" opacity="0.321569" />
<rect x="232" y="320" width="4" height="4" fill="#000000" opacity="0.321569" />
<rect x="236" y="320" width="4" height="4" fill="#000000" opacity="0.321569" />
<rect x="240" y="320" width="4" height="4" fill="#000000" opacity="0.321569" />
<rect x="244" y="320" width="4" height="4" fill="#000000" opacity="0.321569" />
<rect x="248" y="320" width="4" height="4" fill="#000000" opacity="0.321569" />
<rect x="252" y="320" width="4" height="4" fill="#000000" opacity="0.321569" />
<rect x="256" y="320" width="4" height="4" fill="#000000" opacity="0.321569" />
<rect x="260" y="320" width="4" height="4" fill="#000000" opacity="0.321569" />
<rect x="264" y="320" width="4" height="4" fill="#000000" opacity="0.321569" />
<rect x="268" y="320" width="4" height="4" fill="#000000" opacity="0.321569" />
<rect x="272" y="320" width="4" height="4" fill="#000000" opacity="0.321569" />
<rect x="276" y="320" width="4" height="4" fill="#000000" opacity="0.321569" />
<rect x="280" y="320" width="4" height="4" fill="#000000" opacity="0.321569" />
<rect x="284" y="320" width="4" height="4" fill="#000000" opacity="0.321569" />
<rect x="288" y="320" width="4" height="4" fill="#000000" opacity="0.321569" />
<rect x="292" y="320" width="4" height="4" fill="#000000" opacity="0.321569" />
<rect x="296" y="320" width="4" height="4" fill="#000000" opacity="0.321569" />
<rect x="300" y="320" width="4" height="4" fill="#000000" opacity="0.321569" />
<rect x="304" y="320" width="4" height="4" fill="#000000" opacity="0.321569" />
<rect x="308" y="320" width="4" height="4" fill="#000000" opacity="0.321569" />
<rect x="312" y="320" width="4" height="4" fill="#000000" opacity="0.321569" />
<rect x="88" y="324" width="4" height="4" fill="#000000" opacity="0.321569" />
<rect x="92" y="324" width="4" height="4" fill="#000000" opacity="0.321569" />
<rect x="96" y="324" width="4" height="4" fill="#000000" opacity="0.321569" />
<rect x="100" y="324" width="4" height="4" fill="#000000" opacity="0.321569" />
<rect x="104" y="324" width="4" height="4" fill="#000000" opacity="0.321569" />
<rect x="108" y="324" width="4" height="4" fill="#000000" opacity="0.321569" />
<rect x="112" y="324" width="4" height="4" fill="#000000" opacity="0.321569" />
<rect x="116" y="324" width="4" height="4" fill="#000000" opacity="0.321569" />
<rect x="120" y="324" width="4" height="4" fill="#000000" opacity="0.321569" />
<rect x="124" y="324" width="4" height="4" fill="#000000" opacity="0.321569" />
<rect x="128" y="324" width="4" height="4" fill="#000000" opacity="0.321569" />
<rect x="132" y="324" width="4" height="4" fill="#000000" opacity="0.321569" />
<rect x="136" y="324" width="4" height="4" fill="#000000" opacity="0.321569" />
<rect x="140" y="324" width="4" height="4" fill="#000000" opacity="0.321569" />
<rect x="144" y="324" width="4" height="4" fill="#000000" opacity="0.321569" />
<rect x="148" y="324" width="4" height="4" fill="#000000" opacity="0.321569" />
<rect x="152" y="324" width="4" height="4" fill="#000000" opacity="0.321569" />
<rect x="156" y="324" width="4" height="4" fill="#000000" opacity="0.321569" />
<rect x="160" y="324" width="4" height="4" fill="#000000" opacity="0.321569" />
<rect x="164" y="324" width="4" height="4" fill="#000000" opacity="0.321569" />
<rect x="168" y="324" width="4" height="4" fill="#000000" opacity="0.321569" />
<rect x="172" y="324" width="4" height="4" fill="#000000" opacity="0.321569" />
<rect x="176" y="324" width="4" height="4" fill="#000000" opacity="0.321569" />
<rect x="180" y="324" width="4" height="4" fill="#000000" opacity="0.321569" />
<rect x="184" y="324" width="4" height="4" fill="#000000" opacity="0.321569" />
<rect x="188" y="324" width="4" height="4" fill="#000000" opacity="0.321569" />
<rect x="192" y="324" width="4" height="4" fill="#000000" opacity="0.321569" />
<rect x="196" y="324" width="4" height="4" fill="#000000" opacity="0.321569" />
<rect x="200" y="324" width="4" height="4" fill="#000000" opacity="0.321569" />
<rect x="204" y="324" width="4" height="4" fill="#000000" opacity="0.321569" />
<rect x="208" y="324" width="4" height="4" fill="#000000" opacity="0.321569" />
<rect x="212" y="324" width="4" height="4" fill="#000000" opacity="0.321569" />
<rect x="216" y="324" width="4" height="4" fill="#000000" opacity="0.321569" />
<rect x="220" y="324" width="4" height="4" fill="#000000" opacity="0.321569" />
<rect x="224" y="324" width="4" height="4" fill="#000000" opacity="0.321569" />
<rect x="228" y="324" width="4" height="4" fill="#000000" opacity="0.321569" />
<rect x="232" y="324" width="4" height="4" fill="#000000" opacity="0.321569" />
<rect x="236" y="324" width="4" height="4" fill="#000000" opacity="0.321569" />
<rect x="240" y="324" width="4" height="4" fill="#000000" opacity="0.321569" />
<rect x="244" y="324" width="4" height="4" fill="#000000" opacity="0.321569" />
<rect x="248" y="324" width="4" height="4" fill="#000000" opacity="0.321569" />
<rect x="252" y="324" width="4" height="4" fill="#000000" opacity="0.321569" />
<rect x="256" y="324" width="4" height="4" fill="#000000" opacity="0.321569" />
<rect x="260" y="324" width="4" height="4" fill="#000000" opacity="0.321569" />
<rect x="264" y="324" width="4" height="4" fill="#000000" opacity="0.321569" />
<rect x="268" y="324" width="4" height="4" fill="#000000" opacity="0.321569" />
<rect x="272" y="324" width="4" height="4" fill="#000000" opacity="0.321569" />
<rect x="276" y="324" width="4" height="4" fill="#000000" opacity="0.321569" />
<rect x="280" y="324" width="4" height="4" fill="#000000" opacity="0.321569" />
<rect x="284" y="324" width="4" height="4" fill="#000000" opacity="0.321569" />
<rect x="288" y="324" width="4" height="4" fill="#000000" opacity="0.321569" />
<rect x="292" y="324" width="4" height="4" fill="#000000" opacity="0.321569" />
<rect x="296" y="324" width="4" height="4" fill="#000000" opacity="0.321569" />
<rect x="300" y="324" width="4" height="4" fill="#000000" opacity="0.321569" />
<rect x="304" y="324" width="4" height="4" fill="#000000" opacity="0.321569" />
<rect x="308" y="324" width="4" height="4" fill="#000000" opacity="0.321569" />
<rect x="312" y="324" width="4" height="4" fill="#000000" opacity="0.321569" />
<rect x="88" y="328" width="4" height="4" fill="#000000" opacity="0.321569" />
<rect x="92" y="328" width="4" height="4" fill="#000000" opacity="0.321569" />
<rect x="96" y="328" width="4" height="4" fill="#000000" opacity="0.321569" />
<rect x="100" y="328" width="4" height="4" fill="#000000" opacity="0.321569" />
<rect x="104" y="328" width="4" height="4" fill="#000000" opacity="0.321569" />
<rect x="108" y="328" width="4" height="4" fill="#000000" opacity="0.321569" />
<rect x="112" y="328" width="4" height="4" fill="#000000" opacity="0.321569" />
<rect x="116" y="328" width="4" height="4" fill="#000000" opacity="0.321569" />
<rect x="120" y="328" width="4" height="4" fill="#000000" opacity="0.321569" />
<rect x="124" y="328" width="4" height="4" fill="#000000" opacity="0.321569" />
<rect x="128" y="328" width="4" height="4" fill="#000000" opacity="0.321569" />
<rect x="132" y="328" width="4" height="4" fill="#000000" opacity="0.321569" />
<rect x="136" y="328" width="4" height="4" fill="#000000" opacity="0.321569" />
<rect x="140" y="328" width="4" height="4" fill="#000000" opacity="0.321569" />
<rect x="144" y="328" width="4" height="4" fill="#000000" opacity="0.321569" />
<rect x="148" y="328" width="4" height="4" fill="#000000" opacity="0.321569" />
<rect x="152" y="328" width="4" height="4" fill="#000000" opacity="0.321569" />
<rect x="156" y="328" width="4" height="4" fill="#000000" opacity="0.321569" />
<rect x="160" y="328" width="4" height="4" fill="#000000" opacity="0.321569" />
<rect x="164" y="328" width="4" height="4" fill="#000000" opacity="0.321569" />
<rect x="168" y="328" width="4" height="4" fill="#000000" opacity="0.321569" />
<rect x="172" y="328" width="4" height="4" fill="#000000" opacity="0.321569" />
<rect x="176" y="328" width="4" height="4" fill="#000000" opacity="0.321569" />
<rect x="180" y="328" width="4" height="4" fill="#000000" opacity="0.321569" />
<rect x="184" y="328" width="4" height="4" fill="#000000" opacity="0.321569" />
<rect x="188" y="328" width="4" height="4" fill="#000000" opacity="0.321569" />
<rect x="192" y="328" width="4" height="4" fill="#000000" opacity="0.321569" />
<rect x="196" y="328" width="4" height="4" fill="#000000" opacity="0.321569" />
<rect x="200" y="328" width="4" height="4" fill="#000000" opacity="0.321569" />
<rect x="204" y="328" width="4" height="4" fill="#000000" opacity="0.321569" />
<rect x="208" y="328" width="4" height="4" fill="#000000" opacity="0.321569" />
<rect x="212" y="328" width="4" height="4" fill="#000000" opacity="0.321569" />
<rect x="216" y="328" width="4" height="4" fill="#000000" opacity="0.321569" />
<rect x="220" y="328" width="4" height="4" fill="#000000" opacity="0.321569" />
<rect x="224" y="328" width="4" height="4" fill="#000000" opacity="0.321569" />
<rect x="228" y="328" width="4" height="4" fill="#000000" opacity="0.321569" />
<rect x="232" y="328" width="4" height="4" fill="#000000" opacity="0.321569" />
<rect x="236" y="328" width="4" height="4" fill="#000000" opacity="0.321569" />
<rect x="240" y="328" width="4" height="4" fill="#000000" opacity="0.321569" />
<rect x="244" y="328" width="4" height="4" fill="#000000" opacity="0.321569" />
<rect x="248" y="328" width="4" height="4" fill="#000000" opacity="0.321569" />
<rect x="252" y="328" width="4" height="4" fill="#000000" opacity="0.321569" />
<rect x="256" y="328" width="4" height="4" fill="#000000" opacity="0.321569" />
<rect x="260" y="328" width="4" height="4" fill="#000000" opacity="0.321569" />
<rect x="264" y="328" width="4" height="4" fill="#000000" opacity="0.321569" />
<rect x="268" y="328" width="4" height="4" fill="#000000" opacity="0.321569" />
<rect x="272" y="328" width="4" height="4" fill="#000000" opacity="0.321569" />
<rect x="276" y="328" width="4" height="4" fill="#000000" opacity="0.321569" />
<rect x="280" y="328" width="4" height="4" fill="#000000" opacity="0.321569" />
<rect x="284" y="328" width="4" height="4" fill="#000000" opacity="0.321569" />
<rect x="288" y="328" width="4" height="4" fill="#000000" opacity="0.321569" />
<rect x="292" y="328" width="4" height="4" fill="#000000" opacity="0.321569" />
<rect x="296" y="328" width="4" height="4" fill="#000000" opacity="0.321569" />
<rect x="300" y="328" width="4" height="4" fill="#000000" opacity="0.321569" />
<rect x="304" y="328" width="4" height="4" fill="#000000" opacity="0.321569" />
<rect x="308" y="328" width="4" height="4" fill="#000000" opacity="0.321569" />
<rect x="312" y="328" width="4" height="4" fill="#000000" opacity="0.321569" />
<rect x="92" y="332" width="4" height="4" fill="#000000" opacity="0.321569" />
<rect x="96" y="332" width="4" height="4" fill="#000000" opacity="0.321569" />
<rect x="100" y="332" width="4" height="4" fill="#000000" opacity="0.321569" />
<rect x="104" y="332" width="4" height="4" fill="#000000" opacity="0.321569" />
<rect x="108" y="332" width="4" height="4" fill="#000000" opacity="0.321569" />
<rect x="112" y="332" width="4" height="4" fill="#000000" opacity="0.321569" />
<rect x="116" y="332" width="4" height="4" fill="#000000" opacity="0.321569" />
<rect x="120" y="332" width="4" height="4" fill="#000000" opacity="0.321569" />
<rect x="124" y="332" width="4" height="4" fill="#000000" opacity="0.321569" />
<rect x="128" y="332" width="4" height="4" fill="#000000" opacity="0.321569" />
<rect x="132" y="332" width="4" height="4" fill="#000000" opacity="0.321569" />
<rect x="136" y="332" width="4" height="4" fill="#000000" opacity="0.321569" />
<rect x="140" y="332" width="4" height="4" fill="#000000" opacity="0.321569" />
<rect x="144" y="332" width="4" height="4" fill="#000000" opacity="0.321569" />
<rect x="148" y="332" width="4" height="4" fill="#000000" opacity="0.321569" />
<rect x="152" y="332" width="4" height="4" fill="#000000" opacity="0.321569" />
<rect x="156" y="332" width="4" height="4" fill="#000000" opacity="0.321569" />
<rect x="160" y="332" width="4" height="4" fill="#000000" opacity="0.321569" />
<rect x="164" y="332" width="4" height="4" fill="#000000" opacity="0.321569" />
<rect x="168" y="332" width="4" height="4" fill="#000000" opacity="0.321569" />
<rect x="172" y="332" width="4" height="4" fill="#000000" opacity="0.321569" />
<rect x="176" y="332" width="4" height="4" fill="#000000" opacity="0.321569" />
<rect x="180" y="332" width="4" height="4" fill="#000000" opacity="0.321569" />
<rect x="184" y="332" width="4" height="4" fill="#000000" opacity="0.321569" />
<rect x="188" y="332" width="4" height="4" fill="#000000" opacity="0.321569" />
<rect x="192" y="332" width="4" height="4" fill="#000000" opacity="0.321569" />
<rect x="196" y="332" width="4" height="4" fill="#000000" opacity="0.321569" />
<rect x="200" y="332" width="4" height="4" fill="#000000" opacity="0.321569" />
<rect x="204" y="332" width="4" height="4" fill="#000000" opacity="0.321569" />
<rect x="208" y="332" width="4" height="4" fill="#000000" opacity="0.321569" />
<rect x="212" y="332" width="4" height="4" fill="#000000" opacity="0.321569" />
<rect x="216" y="332" width="4" height="4" fill="#000000" opacity="0.321569" />
<rect x="220" y="332" width="4" height="4" fill="#000000" opacity="0.321569" />
<rect x="224" y="332" width="4" height="4" fill="#000000" opacity="0.321569" />
<rect x="228" y="332" width="4" height="4" fill="#000000" opacity="0.321569" />
<rect x="232" y="332" width="4" height="4" fill="#000000" opacity="0.321569" />
<rect x="236" y="332" width="4" height="4" fill="#000000" opacity="0.321569" />
<rect x="240" y="332" width="4" height="4" fill="#000000" opacity="0.321569" />
<rect x="244" y="332" width="4" height="4" fill="#000000" opacity="0.321569" />
<rect x="248" y="332" width="4" height="4" fill="#000000" opacity="0.321569" />
<rect x="252" y="332" width="4" height="4" fill="#000000" opacity="0.321569" />
<rect x="256" y="332" width="4" height="4" fill="#000000" opacity="0.321569" />
<rect x="260" y="332" width="4" height="4" fill="#000000" opacity="0.321569" />
<rect x="264" y="332" width="4" height="4" fill="#000000" opacity="0.321569" />
<rect x="268" y="332" width="4" height="4" fill="#000000" opacity="0.321569" />
<rect x="272" y="332" width="4" height="4" fill="#000000" opacity="0.321569" />
<rect x="276" y="332" width="4" height="4" fill="#000000" opacity="0.321569" />
<rect x="280" y="332" width="4" height="4" fill="#000000" opacity="0.321569" />
<rect x="284" y="332" width="4" height="4" fill="#000000" opacity="0.321569" />
<rect x="288" y="332" width="4" height="4" fill="#000000" opacity="0.321569" />
<rect x="292" y="332" width="4" height="4" fill="#000000" opacity="0.321569" />
<rect x="296" y="332" width="4" height="4" fill="#000000" opacity="0.321569" />
<rect x="300" y="332" width="4" height="4" fill="#000000" opacity="0.321569" />
<rect x="304" y="332" width="4" height="4" fill="#000000" opacity="0.321569" />
<rect x="308" y="332" width="4" height="4" fill="#000000" opacity="0.321569" />
<rect x="100" y="336" width="4" height="4" fill="#000000" opacity="0.321569" />
<rect x="104" y="336" width="4" height="4" fill="#000000" opacity="0.321569" />
<rect x="108" y="336" width="4" height="4" fill="#000000" opacity="0.321569" />
<rect x="112" y="336" width="4" height="4" fill="#000000" opacity="0.321569" />
<rect x="116" y="336" width="4" height="4" fill="#000000" opacity="0.321569" />
<rect x="120" y="336" width="4" height="4" fill="#000000" opacity="0.321569" />
<rect x="124" y="336" width="4" height="4" fill="#000000" opacity="0.321569" />
<rect x="128" y="336" width="4" height="4" fill="#000000" opacity="0.321569" />
<rect x="132" y="336" width="4" height="4" fill="#000000" opacity="0.321569" />
<rect x="136" y="336" width="4" height="4" fill="#000000" opacity="0.321569" />
<rect x="140" y="336" width="4" height="4" fill="#000000" opacity="0.321569" />
<rect x="144" y="336" width="4" height="4" fill="#000000" opacity="0.321569" />
<rect x="148" y="336" width="4" height="4" fill="#000000" opacity="0.321569" />
<rect x="152" y="336" width="4" height="4" fill="#000000" opacity="0.321569" />
<rect x="156" y="336" width="4" height="4" fill="#000000" opacity="0.321569" />
<rect x="160" y="336" width="4" height="4" fill="#000000" opacity="0.321569" />
<rect x="164" y="336" width="4" height="4" fill="#000000" opacity="0.321569" />
<rect x="168" y="336" width="4" height="4" fill="#000000" opacity="0.321569" />
<rect x="172" y="336" width="4" height="4" fill="#000000" opacity="0.321569" />
<rect x="176" y="336" width="4" height="4" fill="#000000" opacity="0.321569" />
<rect x="180" y="336" width="4" height="4" fill="#000000" opacity="0.321569" />
<rect x="184" y="336" width="4" height="4" fill="#000000" opacity="0.321569" />
<rect x="188" y="336" width="4" height="4" fill="#000000" opacity="0.321569" />
<rect x="192" y="336" width="4" height="4" fill="#000000" opacity="0.321569" />
<rect x="196" y="336" width="4" height="4" fill="#000000" opacity="0.321569" />
<rect x="200" y="336" width="4" height="4" fill="#000000" opacity="0.321569" />
<rect x="204" y="336" width="4" height="4" fill="#000000" opacity="0.321569" />
<rect x="208" y="336" width="4" height="4" fill="#000000" opacity="0.321569" />
<rect x="212" y="336" width="4" height="4" fill="#000000" opacity="0.321569" />
<rect x="216" y="336" width="4" height="4" fill="#000000" opacity="0.321569" />
<rect x="220" y="336" width="4" height="4" fill="#000000" opacity="0.321569" />
<rect x="224" y="336" width="4" height="4" fill="#000000" opacity="0.321569" />
<rect x="228" y="336" width="4" height="4" fill="#000000" opacity="0.321569" />
<rect x="232" y="336" width="4" height="4" fill="#000000" opacity="0.321569" />
<rect x="236" y="336" width="4" height="4" fill="#000000" opacity="0.321569" />
<rect x="240" y="336" width="4" height="4" fill="#000000" opacity="0.321569" />
<rect x="244" y="336" width="4" height="4" fill="#000000" opacity="0.321569" />
<rect x="248" y="336" width="4" height="4" fill="#000000" opacity="0.321569" />
<rect x="252" y="336" width="4" height="4" fill="#000000" opacity="0.321569" />
<rect x="256" y="336" width="4" height="4" fill="#000000" opacity="0.321569" />
<rect x="260" y="336" width="4" height="4" fill="#000000" opacity="0.321569" />
<rect x="264" y="336" width="4" height="4" fill="#000000" opacity="0.321569" />
<rect x="268" y="336" width="4" height="4" fill="#000000" opacity="0.321569" />
<rect x="272" y="336" width="4" height="4" fill="#000000" opacity="0.321569" />
<rect x="276" y="336" width="4" height="4" fill="#000000" opacity="0.321569" />
<rect x="280" y="336" width="4" height="4" fill="#000000" opacity="0.321569" />
<rect x="284" y="336" width="4" height="4" fill="#000000" opacity="0.321569" />
<rect x="288" y="336" width="4" height="4" fill="#000000" opacity="0.321569" />
<rect x="292" y="336" width="4" height="4" fill="#000000" opacity="0.321569" />
<rect x="296" y="336" width="4" height="4" fill="#000000" opacity="0.321569" />
<rect x="300" y="336" width="4" height="4" fill="#000000" opacity="0.321569" />
<rect x="108" y="340" width="4" height="4" fill="#000000" opacity="0.321569" />
<rect x="112" y="340" width="4" height="4" fill="#000000" opacity="0.321569" />
<rect x="116" y="340" width="4" height="4" fill="#000000" opacity="0.321569" />
<rect x="120" y="340" width="4" height="4" fill="#000000" opacity="0.321569" />
<rect x="124" y="340" width="4" height="4" fill="#000000" opacity="0.321569" />
<rect x="128" y="340" width="4" height="4" fill="#000000" opacity="0.321569" />
<rect x="132" y="340" width="4" height="4" fill="#000000" opacity="0.321569" />
<rect x="136" y="340" width="4" height="4" fill="#000000" opacity="0.321569" />
<rect x="140" y="340" width="4" height="4" fill="#000000" opacity="0.321569" />
<rect x="144" y="340" width="4" height="4" fill="#000000" opacity="0.321569" />
<rect x="148" y="340" width="4" height="4" fill="#000000" opacity="0.321569" />
<rect x="152" y="340" width="4" height="4" fill="#000000" opacity="0.321569" />
<rect x="156" y="340" width="4" height="4" fill="#000000" opacity="0.321569" />
<rect x="160" y="340" width="4" height="4" fill="#000000" opacity="0.321569" />
<rect x="164" y="340" width="4" height="4" fill="#000000" opacity="0.321569" />
<rect x="168" y="340" width="4" height="4" fill="#000000" opacity="0.321569" />
<rect x="172" y="340" width="4" height="4" fill="#000000" opacity="0.321569" />
<rect x="176" y="340" width="4" height="4" fill="#000000" opacity="0.321569" />
<rect x="180" y="340" width="4" height="4" fill="#000000" opacity="0.321569" />
<rect x="184" y="340" width="4" height="4" fill="#000000" opacity="0.321569" />
<rect x="188" y="340" width="4" height="4" fill="#000000" opacity="0.321569" />
<rect x="192" y="340" width="4" height="4" fill="#000000" opacity="0.321569" />
<rect x="196" y="340" width="4" height="4" fill="#000000" opacity="0.321569" />
<rect x="200" y="340" width="4" height="4" fill="#000000" opacity="0.321569" />
<rect x="204" y="340" width="4" height="4" fill="#000000" opacity="0.321569" />
<rect x="208" y="340" width="4" height="4" fill="#000000" opacity="0.321569" />
<rect x="212" y="340" width="4" height="4" fill="#000000" opacity="0.321569" />
<rect x="216" y="340" width="4" height="4" fill="#000000" opacity="0.321569" />
<rect x="220" y="340" width="4" height="4" fill="#000000" opacity="0.321569" />
<rect x="224" y="340" width="4" height="4" fill="#000000" opacity="0.321569" />
<rect x="228" y="340" width="4" height="4" fill="#000000" opacity="0.321569" />
<rect x="232" y="340" width="4" height="4" fill="#000000" opacity="0.321569" />
<rect x="236" y="340" width="4" height="4" fill="#000000" opacity="0.321569" />
<rect x="240" y="340" width="4" height="4" fill="#000000" opacity="0.321569" />
<rect x="244" y="340" width="4" height="4" fill="#000000" opacity="0.321569" />
<rect x="248" y="340" width="4" height="4" fill="#000000" opacity="0.321569" />
<rect x="252" y="340" width="4" height="4" fill="#000000" opacity="0.321569" />
<rect x="256" y="340" width="4" height="4" fill="#000000" opacity="0.321569" />
<rect x="260" y="340" width="4" height="4" fill="#000000" opacity="0.321569" />
<rect x="264" y="340" width="4" height="4" fill="#000000" opacity="0.321569" />
<rect x="268" y="340" width="4" height="4" fill="#000000" opacity="0.321569" />
<rect x="272" y="340" width="4" height="4" fill="#000000" opacity="0.321569" />
<rect x="276" y="340" width="4" height="4" fill="#000000" opacity="0.321569" />
<rect x="280" y="340" width="4" height="4" fill="#000000" opacity="0.321569" />
<rect x="284" y="340" width="4" height="4" fill="#000000" opacity="0.321569" />
<rect x="288" y="340" width="4" height="4" fill="#000000" opacity="0.321569" />
<rect x="292" y="340" width="4" height="4" fill="#000000" opacity="0.321569" />
<rect x="124" y="344" width="4" height="4" fill="#000000" opacity="0.321569" />
<rect x="128" y="344" width="4" height="4" fill="#000000" opacity="0.321569" />
<rect x="132" y="344" width="4" height="4" fill="#000000" opacity="0.321569" />
<rect x="136" y="344" width="4" height="4" fill="#000000" opacity="0.321569" />
<rect x="140" y="344" width="4" height="4" fill="#000000" opacity="0.321569" />
<rect x="144" y="344" width="4" height="4" fill="#000000" opacity="0.321569" />
<rect x="148" y="344" width="4" height="4" fill="#000000" opacity="0.321569" />
<rect x="152" y="344" width="4" height="4" fill="#000000" opacity="0.321569" />
<rect x="156" y="344" width="4" height="4" fill="#000000" opacity="0.321569" />
<rect x="160" y="344" width="4" height="4" fill="#000000" opacity="0.321569" />
<rect x="164" y="344" width="4" height="4" fill="#000000" opacity="0.321569" />
<rect x="168" y="344" width="4" height="4" fill="#000000" opacity="0.321569" />
<rect x="172" y="344" width="4" height="4" fill="#000000" opacity="0.321569" />
<rect x="176" y="344" width="4" height="4" fill="#000000" opacity="0.321569" />
<rect x="180" y="344" width="4" height="4" fill="#000000" opacity="0.321569" />
<rect x="184" y="344" width="4" height="4" fill="#000000" opacity="0.321569" />
<rect x="188" y="344" width="4" height="4" fill="#000000" opacity="0.321569" />
<rect x="192" y="344" width="4" height="4" fill="#000000" opacity="0.321569" />
<rect x="196" y="344" width="4" height="4" fill="#000000" opacity="0.321569" />
<rect x="200" y="344" width="4" height="4" fill="#000000" opacity="0.321569" />
<rect x="204" y="344" width="4" height="4" fill="#000000" opacity="0.321569" />
<rect x="208" y="344" width="4" height="4" fill="#000000" opacity="0.321569" />
<rect x="212" y="344" width="4" height="4" fill="#000000" opacity="0.321569" />
<rect x="216" y="344" width="4" height="4" fill="#000000" opacity="0.321569" />
<rect x="220" y="344" width="4" height="4" fill="#000000" opacity="0.321569" />
<rect x="224" y="344" width="4" height="4" fill="#000000" opacity="0.321569" />
<rect x="228" y="344" width="4" height="4" fill="#000000" opacity="0.321569" />
<rect x="232" y="344" width="4" height="4" fill="#000000" opacity="0.321569" />
<rect x="236" y="344" width="4" height="4" fill="#000000" opacity="0.321569" />
<rect x="240" y="344" width="4" height="4" fill="#000000" opacity="0.321569" />
<rect x="244" y="344" width="4" height="4" fill="#000000" opacity="0.321569" />
<rect x="248" y="344" width="4" height="4" fill="#000000" opacity="0.321569" />
<rect x="252" y="344" width="4" height="4" fill="#000000" opacity="0.321569" />
<rect x="256" y="344" width="4" height="4" fill="#000000" opacity="0.321569" />
<rect x="260" y="344" width="4" height="4" fill="#000000" opacity="0.321569" />
<rect x="264" y="344" width="4" height="4" fill="#000000" opacity="0.321569" />
<rect x="268" y="344" width="4" height="4" fill="#000000" opacity="0.321569" />
<rect x="272" y="344" width="4" height="4" fill="#000000" opacity="0.321569" />
<rect x="276" y="344" width="4" height="4" fill="#000000" opacity="0.321569" />
<rect x="156" y="348" width="4" height="4" fill="#000000" opacity="0.321569" />
<rect x="160" y="348" width="4" height="4" fill="#000000" opacity="0.321569" />
<rect x="164" y="348" width="4" height="4" fill="#000000" opacity="0.321569" />
<rect x="168" y="348" width="4" height="4" fill="#000000" opacity="0.321569" />
<rect x="172" y="348" width="4" height="4" fill="#000000" opacity="0.321569" />
<rect x="176" y="348" width="4" height="4" fill="#000000" opacity="0.321569" />
<rect x="180" y="348" width="4" height="4" fill="#000000" opacity="0.321569" />
<rect x="184" y="348" width="4" height="4" fill="#000000" opacity="0.321569" />
<rect x="188" y="348" width="4" height="4" fill="#000000" opacity="0.321569" />
<rect x="192" y="348" width="4" height="4" fill="#000000" opacity="0.321569" />
<rect x="196" y="348" width="4" height="4" fill="#000000" opacity="0.321569" />
<rect x="200" y="348" width="4" height="4" fill="#000000" opacity="0.321569" />
<rect x="204" y="348" width="4" height="4" fill="#000000" opacity="0.321569" />
<rect x="208" y="348" width="4" height="4" fill="#000000" opacity="0.321569" />
<rect x="212" y="348" width="4" height="4" fill="#000000" opacity="0.321569" />
<rect x="216" y="348" width="4" height="4" fill="#000000" opacity="0.321569" />
<rect x="220" y="348" width="4" height="4" fill="#000000" opacity="0.321569" />
<rect x="224" y="348" width="4" height="4" fill="#000000" opacity="0.321569" />
<rect x="228" y="348" width="4" height="4" fill="#000000" opacity="0.321569" />
<rect x="232" y="348" width="4" height="4" fill="#000000" opacity="0.321569" />
<rect x="236" y="348" width="4" height="4" fill="#000000" opacity="0.321569" />
<rect x="240" y="348" width="4" height="4" fill="#000000" opacity="0.321569" />
<rect x="244" y="348" width="4" height="4" fill="#000000" opacity="0.321569" />
</svg>